<?xml version="1.0" encoding="UTF-8" standalone="no"?>
<!DOCTYPE svg PUBLIC "-//W3C//DTD SVG 1.1//EN"
 "http://www.w3.org/Graphics/SVG/1.1/DTD/svg11.dtd">
<!-- Generated by graphviz version 2.44.0 (20200518.1210)
 -->
<!-- Title: user Pages: 1 -->
<svg width="2311pt" height="409pt"
 viewBox="0.00 0.00 2310.75 408.80" xmlns="http://www.w3.org/2000/svg" xmlns:xlink="http://www.w3.org/1999/xlink">
<g id="graph0" class="graph" transform="scale(1 1) rotate(0) translate(4 404.8)">
<title>user</title>
<polygon fill="white" stroke="transparent" points="-4,4 -4,-404.8 2306.75,-404.8 2306.75,4 -4,4"/>
<text text-anchor="middle" x="1151.38" y="-8.2" font-family="Times,serif" font-size="14.00">User Info for the given user: Mohan Chinnappan</text>
<!-- User:Mohan Chinnappan -->
<g id="node1" class="node">
<title>User:Mohan Chinnappan</title>
<polygon fill="steelblue" stroke="steelblue" points="1110.19,-364.3 1110.19,-400.3 1267.32,-400.3 1267.32,-364.3 1110.19,-364.3"/>
<text text-anchor="middle" x="1188.75" y="-378.1" font-family="Times,serif" font-size="14.00" fill="white">User:Mohan Chinnappan</text>
</g>
<!-- data -->
<g id="node2" class="node">
<title>data</title>
<polygon fill="steelblue" stroke="steelblue" points="14.75,-25.3 14.75,-61.3 68.75,-61.3 68.75,-25.3 14.75,-25.3"/>
<text text-anchor="middle" x="41.41" y="-39.1" font-family="Times,serif" font-size="14.00" fill="white">data</text>
</g>
<!-- User:Mohan Chinnappan&#45;&gt;data -->
<g id="edge1" class="edge">
<title>User:Mohan Chinnappan&#45;&gt;data</title>
<path fill="none" stroke="black" d="M1110.15,-381.83C857.25,-383.16 78.89,-384.11 41.75,-345.8 -30.77,-271 9.48,-130.24 30.98,-71.32"/>
<polygon fill="black" stroke="black" points="34.39,-72.21 34.63,-61.62 27.83,-69.75 34.39,-72.21"/>
<polygon fill="#ffcc99" stroke="transparent" points="41.75,-156.8 41.75,-268.8 592.75,-268.8 592.75,-156.8 41.75,-156.8"/>
<polygon fill="none" stroke="black" points="43.25,-245.8 43.25,-267.8 130.25,-267.8 130.25,-245.8 43.25,-245.8"/>
<text text-anchor="start" x="69.26" y="-252.2" font-family="Times,serif" font-size="14.00">userId</text>
<polygon fill="none" stroke="black" points="130.25,-245.8 130.25,-267.8 592.25,-267.8 592.25,-245.8 130.25,-245.8"/>
<text text-anchor="start" x="293.59" y="-252.2" font-family="Times,serif" font-size="14.00">0053h000002xQ5sAAE</text>
<polygon fill="none" stroke="black" points="43.25,-223.8 43.25,-245.8 130.25,-245.8 130.25,-223.8 43.25,-223.8"/>
<text text-anchor="start" x="71.59" y="-230.2" font-family="Times,serif" font-size="14.00">name</text>
<polygon fill="none" stroke="black" points="130.25,-223.8 130.25,-245.8 592.25,-245.8 592.25,-223.8 130.25,-223.8"/>
<text text-anchor="start" x="305.84" y="-230.2" font-family="Times,serif" font-size="14.00">Mohan Chinnappan</text>
<polygon fill="none" stroke="black" points="43.25,-201.8 43.25,-223.8 130.25,-223.8 130.25,-201.8 43.25,-201.8"/>
<text text-anchor="start" x="58.38" y="-208.2" font-family="Times,serif" font-size="14.00">userName</text>
<polygon fill="none" stroke="black" points="130.25,-201.8 130.25,-223.8 592.25,-223.8 592.25,-201.8 130.25,-201.8"/>
<text text-anchor="start" x="253.53" y="-208.2" font-family="Times,serif" font-size="14.00">mohan.chinnappan.n_ea2@gmail.com</text>
<polygon fill="none" stroke="black" points="43.25,-179.8 43.25,-201.8 130.25,-201.8 130.25,-179.8 43.25,-179.8"/>
<text text-anchor="start" x="45.92" y="-186.2" font-family="Times,serif" font-size="14.00">smallPhotoUrl</text>
<polygon fill="none" stroke="black" points="130.25,-179.8 130.25,-201.8 592.25,-201.8 592.25,-179.8 130.25,-179.8"/>
<text text-anchor="start" x="133.23" y="-186.2" font-family="Times,serif" font-size="14.00">https://mohansun&#45;ea&#45;02&#45;dev&#45;ed.file.force.com/profilephoto/7293h000000DuZq/T</text>
<polygon fill="none" stroke="black" points="43.25,-157.8 43.25,-179.8 130.25,-179.8 130.25,-157.8 43.25,-157.8"/>
<text text-anchor="start" x="51.37" y="-164.2" font-family="Times,serif" font-size="14.00">fullPhotoUrl</text>
<polygon fill="none" stroke="black" points="130.25,-157.8 130.25,-179.8 592.25,-179.8 592.25,-157.8 130.25,-157.8"/>
<text text-anchor="start" x="133.61" y="-164.2" font-family="Times,serif" font-size="14.00">https://mohansun&#45;ea&#45;02&#45;dev&#45;ed.file.force.com/profilephoto/7293h000000DuZq/F</text>
<polygon fill="none" stroke="black" points="41.75,-156.8 41.75,-268.8 592.75,-268.8 592.75,-156.8 41.75,-156.8"/>
</g>
<!-- role -->
<g id="node3" class="node">
<title>role</title>
<polygon fill="steelblue" stroke="steelblue" points="588.75,-25.3 588.75,-61.3 642.75,-61.3 642.75,-25.3 588.75,-25.3"/>
<text text-anchor="middle" x="615.63" y="-39.1" font-family="Times,serif" font-size="14.00" fill="white">role</text>
</g>
<!-- User:Mohan Chinnappan&#45;&gt;role -->
<g id="edge2" class="edge">
<title>User:Mohan Chinnappan&#45;&gt;role</title>
<path fill="none" stroke="black" d="M1109.93,-379.23C956.98,-374.82 633.4,-363.46 616.75,-345.8 580.1,-306.93 601.26,-138.34 611.35,-71.62"/>
<polygon fill="black" stroke="black" points="614.85,-71.89 612.91,-61.47 607.93,-70.82 614.85,-71.89"/>
<polygon fill="#ffeeff" stroke="transparent" points="616.75,-79.8 616.75,-345.8 976.75,-345.8 976.75,-79.8 616.75,-79.8"/>
<polygon fill="none" stroke="black" points="617.75,-322.8 617.75,-344.8 836.75,-344.8 836.75,-322.8 617.75,-322.8"/>
<text text-anchor="start" x="721.42" y="-329.2" font-family="Times,serif" font-size="14.00">Id</text>
<polygon fill="none" stroke="black" points="836.75,-322.8 836.75,-344.8 975.75,-344.8 975.75,-322.8 836.75,-322.8"/>
<text text-anchor="start" x="839.37" y="-329.2" font-family="Times,serif" font-size="14.00">00E3h000001JaqUEAS</text>
<polygon fill="none" stroke="black" points="617.75,-300.8 617.75,-322.8 836.75,-322.8 836.75,-300.8 617.75,-300.8"/>
<text text-anchor="start" x="710.54" y="-307.2" font-family="Times,serif" font-size="14.00">Name</text>
<polygon fill="none" stroke="black" points="836.75,-300.8 836.75,-322.8 975.75,-322.8 975.75,-300.8 836.75,-300.8"/>
<text text-anchor="start" x="892.25" y="-307.2" font-family="Times,serif" font-size="14.00">CEO</text>
<polygon fill="none" stroke="black" points="617.75,-278.8 617.75,-300.8 836.75,-300.8 836.75,-278.8 617.75,-278.8"/>
<text text-anchor="start" x="690.32" y="-285.2" font-family="Times,serif" font-size="14.00">ParentRoleId</text>
<polygon fill="none" stroke="black" points="836.75,-278.8 836.75,-300.8 975.75,-300.8 975.75,-278.8 836.75,-278.8"/>
<text text-anchor="start" x="895.36" y="-285.2" font-family="Times,serif" font-size="14.00">null</text>
<polygon fill="none" stroke="black" points="617.75,-256.8 617.75,-278.8 836.75,-278.8 836.75,-256.8 617.75,-256.8"/>
<text text-anchor="start" x="675.54" y="-263.2" font-family="Times,serif" font-size="14.00">RollupDescription</text>
<polygon fill="none" stroke="black" points="836.75,-256.8 836.75,-278.8 975.75,-278.8 975.75,-256.8 836.75,-256.8"/>
<text text-anchor="start" x="892.25" y="-263.2" font-family="Times,serif" font-size="14.00">CEO</text>
<polygon fill="none" stroke="black" points="617.75,-234.8 617.75,-256.8 836.75,-256.8 836.75,-234.8 617.75,-234.8"/>
<text text-anchor="start" x="620.73" y="-241.2" font-family="Times,serif" font-size="14.00">OpportunityAccessForAccountOwner</text>
<polygon fill="none" stroke="black" points="836.75,-234.8 836.75,-256.8 975.75,-256.8 975.75,-234.8 836.75,-234.8"/>
<text text-anchor="start" x="894.58" y="-241.2" font-family="Times,serif" font-size="14.00">Edit</text>
<polygon fill="none" stroke="black" points="617.75,-212.8 617.75,-234.8 836.75,-234.8 836.75,-212.8 617.75,-212.8"/>
<text text-anchor="start" x="641.35" y="-219.2" font-family="Times,serif" font-size="14.00">CaseAccessForAccountOwner</text>
<polygon fill="none" stroke="black" points="836.75,-212.8 836.75,-234.8 975.75,-234.8 975.75,-212.8 836.75,-212.8"/>
<text text-anchor="start" x="894.58" y="-219.2" font-family="Times,serif" font-size="14.00">Edit</text>
<polygon fill="none" stroke="black" points="617.75,-190.8 617.75,-212.8 836.75,-212.8 836.75,-190.8 617.75,-190.8"/>
<text text-anchor="start" x="633.18" y="-197.2" font-family="Times,serif" font-size="14.00">ContactAccessForAccountOwner</text>
<polygon fill="none" stroke="black" points="836.75,-190.8 836.75,-212.8 975.75,-212.8 975.75,-190.8 836.75,-190.8"/>
<text text-anchor="start" x="894.58" y="-197.2" font-family="Times,serif" font-size="14.00">Edit</text>
<polygon fill="none" stroke="black" points="617.75,-168.8 617.75,-190.8 836.75,-190.8 836.75,-168.8 617.75,-168.8"/>
<text text-anchor="start" x="649.9" y="-175.2" font-family="Times,serif" font-size="14.00">MayForecastManagerShare</text>
<polygon fill="none" stroke="black" points="836.75,-168.8 836.75,-190.8 975.75,-190.8 975.75,-168.8 836.75,-168.8"/>
<text text-anchor="start" x="893.04" y="-175.2" font-family="Times,serif" font-size="14.00">false</text>
<polygon fill="none" stroke="black" points="617.75,-146.8 617.75,-168.8 836.75,-168.8 836.75,-146.8 617.75,-146.8"/>
<text text-anchor="start" x="681.39" y="-153.2" font-family="Times,serif" font-size="14.00">DeveloperName</text>
<polygon fill="none" stroke="black" points="836.75,-146.8 836.75,-168.8 975.75,-168.8 975.75,-146.8 836.75,-146.8"/>
<text text-anchor="start" x="892.25" y="-153.2" font-family="Times,serif" font-size="14.00">CEO</text>
<polygon fill="none" stroke="black" points="617.75,-124.8 617.75,-146.8 836.75,-146.8 836.75,-124.8 617.75,-124.8"/>
<text text-anchor="start" x="680.99" y="-131.2" font-family="Times,serif" font-size="14.00">PortalAccountId</text>
<polygon fill="none" stroke="black" points="836.75,-124.8 836.75,-146.8 975.75,-146.8 975.75,-124.8 836.75,-124.8"/>
<text text-anchor="start" x="895.36" y="-131.2" font-family="Times,serif" font-size="14.00">null</text>
<polygon fill="none" stroke="black" points="617.75,-102.8 617.75,-124.8 836.75,-124.8 836.75,-102.8 617.75,-102.8"/>
<text text-anchor="start" x="696.15" y="-109.2" font-family="Times,serif" font-size="14.00">PortalType</text>
<polygon fill="none" stroke="black" points="836.75,-102.8 836.75,-124.8 975.75,-124.8 975.75,-102.8 836.75,-102.8"/>
<text text-anchor="start" x="891.09" y="-109.2" font-family="Times,serif" font-size="14.00">None</text>
<polygon fill="none" stroke="black" points="617.75,-80.8 617.75,-102.8 836.75,-102.8 836.75,-80.8 617.75,-80.8"/>
<text text-anchor="start" x="661.94" y="-87.2" font-family="Times,serif" font-size="14.00">PortalAccountOwnerId</text>
<polygon fill="none" stroke="black" points="836.75,-80.8 836.75,-102.8 975.75,-102.8 975.75,-80.8 836.75,-80.8"/>
<text text-anchor="start" x="895.36" y="-87.2" font-family="Times,serif" font-size="14.00">null</text>
<polygon fill="none" stroke="black" points="616.75,-79.8 616.75,-345.8 976.75,-345.8 976.75,-79.8 616.75,-79.8"/>
</g>
<!-- perms -->
<g id="node4" class="node">
<title>perms</title>
<polygon fill="steelblue" stroke="steelblue" points="971.75,-25.3 971.75,-61.3 1025.75,-61.3 1025.75,-25.3 971.75,-25.3"/>
<text text-anchor="middle" x="998.36" y="-39.1" font-family="Times,serif" font-size="14.00" fill="white">perms</text>
</g>
<!-- User:Mohan Chinnappan&#45;&gt;perms -->
<g id="edge3" class="edge">
<title>User:Mohan Chinnappan&#45;&gt;perms</title>
<path fill="none" stroke="black" d="M1110.13,-376.46C1064.79,-371.85 1014.01,-362.93 999.75,-345.8 965.65,-304.83 985.17,-138.23 994.58,-71.82"/>
<polygon fill="black" stroke="black" points="998.08,-72.09 996.05,-61.7 991.15,-71.09 998.08,-72.09"/>
<polygon fill="#99ccff" stroke="transparent" points="999.75,-156.8 999.75,-268.8 1357.75,-268.8 1357.75,-156.8 999.75,-156.8"/>
<polygon fill="none" stroke="black" points="1000.75,-245.8 1000.75,-267.8 1212.75,-267.8 1212.75,-245.8 1000.75,-245.8"/>
<text text-anchor="start" x="1100.92" y="-252.2" font-family="Times,serif" font-size="14.00">Id</text>
<polygon fill="none" stroke="black" points="1212.75,-245.8 1212.75,-267.8 1356.75,-267.8 1356.75,-245.8 1212.75,-245.8"/>
<text text-anchor="start" x="1215.54" y="-252.2" font-family="Times,serif" font-size="14.00">00e3h000001kqJMAAY</text>
<polygon fill="none" stroke="black" points="1000.75,-223.8 1000.75,-245.8 1212.75,-245.8 1212.75,-223.8 1000.75,-223.8"/>
<text text-anchor="start" x="1090.04" y="-230.2" font-family="Times,serif" font-size="14.00">Name</text>
<polygon fill="none" stroke="black" points="1212.75,-223.8 1212.75,-245.8 1356.75,-245.8 1356.75,-223.8 1212.75,-223.8"/>
<text text-anchor="start" x="1223.12" y="-230.2" font-family="Times,serif" font-size="14.00">System Administrator</text>
<polygon fill="none" stroke="black" points="1000.75,-201.8 1000.75,-223.8 1212.75,-223.8 1212.75,-201.8 1000.75,-201.8"/>
<text text-anchor="start" x="1035.6" y="-208.2" font-family="Times,serif" font-size="14.00">PermissionsViewAllData</text>
<polygon fill="none" stroke="black" points="1212.75,-201.8 1212.75,-223.8 1356.75,-223.8 1356.75,-201.8 1212.75,-201.8"/>
<text text-anchor="start" x="1273.87" y="-208.2" font-family="Times,serif" font-size="14.00">true</text>
<polygon fill="none" stroke="black" points="1000.75,-179.8 1000.75,-201.8 1212.75,-201.8 1212.75,-179.8 1000.75,-179.8"/>
<text text-anchor="start" x="1029.77" y="-186.2" font-family="Times,serif" font-size="14.00">PermissionsModifyAllData</text>
<polygon fill="none" stroke="black" points="1212.75,-179.8 1212.75,-201.8 1356.75,-201.8 1356.75,-179.8 1212.75,-179.8"/>
<text text-anchor="start" x="1273.87" y="-186.2" font-family="Times,serif" font-size="14.00">true</text>
<polygon fill="none" stroke="black" points="1000.75,-157.8 1000.75,-179.8 1212.75,-179.8 1212.75,-157.8 1000.75,-157.8"/>
<text text-anchor="start" x="1003.73" y="-164.2" font-family="Times,serif" font-size="14.00">PermissionsManageDataIntegrations</text>
<polygon fill="none" stroke="black" points="1212.75,-157.8 1212.75,-179.8 1356.75,-179.8 1356.75,-157.8 1212.75,-157.8"/>
<text text-anchor="start" x="1273.87" y="-164.2" font-family="Times,serif" font-size="14.00">true</text>
<polygon fill="none" stroke="black" points="999.75,-156.8 999.75,-268.8 1357.75,-268.8 1357.75,-156.8 999.75,-156.8"/>
</g>
<!-- permsets -->
<g id="node5" class="node">
<title>permsets</title>
<polygon fill="steelblue" stroke="steelblue" points="1346.87,-25.3 1346.87,-61.3 1412.63,-61.3 1412.63,-25.3 1346.87,-25.3"/>
<text text-anchor="middle" x="1379.75" y="-39.1" font-family="Times,serif" font-size="14.00" fill="white">permsets</text>
</g>
<!-- User:Mohan Chinnappan&#45;&gt;permsets -->
<g id="edge4" class="edge">
<title>User:Mohan Chinnappan&#45;&gt;permsets</title>
<path fill="none" stroke="black" d="M1267.45,-373.88C1305.49,-368.56 1345.52,-359.8 1357.75,-345.8 1375.54,-325.45 1378.94,-142.66 1379.6,-72"/>
<polygon fill="black" stroke="black" points="1383.1,-71.7 1379.68,-61.67 1376.1,-71.64 1383.1,-71.7"/>
<polygon fill="#ffeeff" stroke="transparent" points="1379.75,-156.8 1379.75,-268.8 1807.75,-268.8 1807.75,-156.8 1379.75,-156.8"/>
<polygon fill="none" stroke="black" points="1380.75,-245.8 1380.75,-267.8 1592.75,-267.8 1592.75,-245.8 1380.75,-245.8"/>
<text text-anchor="start" x="1480.92" y="-252.2" font-family="Times,serif" font-size="14.00">Id</text>
<polygon fill="none" stroke="black" points="1592.75,-245.8 1592.75,-267.8 1806.75,-267.8 1806.75,-245.8 1592.75,-245.8"/>
<text text-anchor="start" x="1628.59" y="-252.2" font-family="Times,serif" font-size="14.00">0PS3h000002PwNZGA0</text>
<polygon fill="none" stroke="black" points="1380.75,-223.8 1380.75,-245.8 1592.75,-245.8 1592.75,-223.8 1380.75,-223.8"/>
<text text-anchor="start" x="1470.82" y="-230.2" font-family="Times,serif" font-size="14.00">Label</text>
<polygon fill="none" stroke="black" points="1592.75,-223.8 1592.75,-245.8 1806.75,-245.8 1806.75,-223.8 1592.75,-223.8"/>
<text text-anchor="start" x="1595.54" y="-230.2" font-family="Times,serif" font-size="14.00">00ex00000018ozh_128_09_04_12_1</text>
<polygon fill="none" stroke="black" points="1380.75,-201.8 1380.75,-223.8 1592.75,-223.8 1592.75,-201.8 1380.75,-201.8"/>
<text text-anchor="start" x="1415.6" y="-208.2" font-family="Times,serif" font-size="14.00">PermissionsViewAllData</text>
<polygon fill="none" stroke="black" points="1592.75,-201.8 1592.75,-223.8 1806.75,-223.8 1806.75,-201.8 1592.75,-201.8"/>
<text text-anchor="start" x="1688.87" y="-208.2" font-family="Times,serif" font-size="14.00">true</text>
<polygon fill="none" stroke="black" points="1380.75,-179.8 1380.75,-201.8 1592.75,-201.8 1592.75,-179.8 1380.75,-179.8"/>
<text text-anchor="start" x="1409.77" y="-186.2" font-family="Times,serif" font-size="14.00">PermissionsModifyAllData</text>
<polygon fill="none" stroke="black" points="1592.75,-179.8 1592.75,-201.8 1806.75,-201.8 1806.75,-179.8 1592.75,-179.8"/>
<text text-anchor="start" x="1688.87" y="-186.2" font-family="Times,serif" font-size="14.00">true</text>
<polygon fill="none" stroke="black" points="1380.75,-157.8 1380.75,-179.8 1592.75,-179.8 1592.75,-157.8 1380.75,-157.8"/>
<text text-anchor="start" x="1383.73" y="-164.2" font-family="Times,serif" font-size="14.00">PermissionsManageDataIntegrations</text>
<polygon fill="none" stroke="black" points="1592.75,-157.8 1592.75,-179.8 1806.75,-179.8 1806.75,-157.8 1592.75,-157.8"/>
<text text-anchor="start" x="1688.87" y="-164.2" font-family="Times,serif" font-size="14.00">true</text>
<polygon fill="none" stroke="black" points="1379.75,-156.8 1379.75,-268.8 1807.75,-268.8 1807.75,-156.8 1379.75,-156.8"/>
</g>
<!-- accountTeam -->
<g id="node6" class="node">
<title>accountTeam</title>
<polygon fill="steelblue" stroke="steelblue" points="1785.05,-25.3 1785.05,-61.3 1876.46,-61.3 1876.46,-25.3 1785.05,-25.3"/>
<text text-anchor="middle" x="1830.75" y="-39.1" font-family="Times,serif" font-size="14.00" fill="white">accountTeam</text>
</g>
<!-- User:Mohan Chinnappan&#45;&gt;accountTeam -->
<g id="edge5" class="edge">
<title>User:Mohan Chinnappan&#45;&gt;accountTeam</title>
<path fill="none" stroke="black" d="M1267.49,-379.53C1430.16,-375.49 1789.76,-364.5 1808.75,-345.8 1828.06,-326.8 1830.53,-142.35 1830.77,-71.67"/>
<polygon fill="black" stroke="black" points="1834.27,-71.35 1830.79,-61.35 1827.27,-71.34 1834.27,-71.35"/>
<text text-anchor="start" x="1830.75" y="-208.6" font-family="Times,serif" font-size="14.00"> &#160;&#160;&#160;&#160;&#160;&#160;&#160;&#160;&#160;undefined &#160;&#160;&#160;&#160;&#160;&#160;&#160;&#160;&#160;</text>
</g>
<!-- opptyTeam -->
<g id="node7" class="node">
<title>opptyTeam</title>
<polygon fill="steelblue" stroke="steelblue" points="1939.87,-25.3 1939.87,-61.3 2019.63,-61.3 2019.63,-25.3 1939.87,-25.3"/>
<text text-anchor="middle" x="1979.75" y="-39.1" font-family="Times,serif" font-size="14.00" fill="white">opptyTeam</text>
</g>
<!-- User:Mohan Chinnappan&#45;&gt;opptyTeam -->
<g id="edge6" class="edge">
<title>User:Mohan Chinnappan&#45;&gt;opptyTeam</title>
<path fill="none" stroke="black" d="M1267.32,-380.45C1458.35,-378.02 1933.3,-369.6 1957.75,-345.8 2032.78,-272.75 2004.22,-130.43 1987.97,-71.18"/>
<polygon fill="black" stroke="black" points="1991.3,-70.11 1985.2,-61.44 1984.57,-72.02 1991.3,-70.11"/>
<polygon fill="#ffeeff" stroke="transparent" points="2006.75,-145.8 2006.75,-279.8 2302.75,-279.8 2302.75,-145.8 2006.75,-145.8"/>
<polygon fill="none" stroke="black" points="2007.75,-256.8 2007.75,-278.8 2152.75,-278.8 2152.75,-256.8 2007.75,-256.8"/>
<text text-anchor="start" x="2074.42" y="-263.2" font-family="Times,serif" font-size="14.00">Id</text>
<polygon fill="none" stroke="black" points="2152.75,-256.8 2152.75,-278.8 2301.75,-278.8 2301.75,-256.8 2152.75,-256.8"/>
<text text-anchor="start" x="2155.31" y="-263.2" font-family="Times,serif" font-size="14.00">00q3h000000FMRdAAO</text>
<polygon fill="none" stroke="black" points="2007.75,-234.8 2007.75,-256.8 2152.75,-256.8 2152.75,-234.8 2007.75,-234.8"/>
<text text-anchor="start" x="2063.54" y="-241.2" font-family="Times,serif" font-size="14.00">Name</text>
<polygon fill="none" stroke="black" points="2152.75,-234.8 2152.75,-256.8 2301.75,-256.8 2301.75,-234.8 2152.75,-234.8"/>
<text text-anchor="start" x="2171.84" y="-241.2" font-family="Times,serif" font-size="14.00">Mohan Chinnappan</text>
<polygon fill="none" stroke="black" points="2007.75,-212.8 2007.75,-234.8 2152.75,-234.8 2152.75,-212.8 2007.75,-212.8"/>
<text text-anchor="start" x="2010.28" y="-219.2" font-family="Times,serif" font-size="14.00">OpportunityAccessLevel</text>
<polygon fill="none" stroke="black" points="2152.75,-212.8 2152.75,-234.8 2301.75,-234.8 2301.75,-212.8 2152.75,-212.8"/>
<text text-anchor="start" x="2212.87" y="-219.2" font-family="Times,serif" font-size="14.00">Read</text>
<polygon fill="none" stroke="black" points="2007.75,-190.8 2007.75,-212.8 2152.75,-212.8 2152.75,-190.8 2007.75,-190.8"/>
<text text-anchor="start" x="2040.2" y="-197.2" font-family="Times,serif" font-size="14.00">OpportunityId</text>
<polygon fill="none" stroke="black" points="2152.75,-190.8 2152.75,-212.8 2301.75,-212.8 2301.75,-190.8 2152.75,-190.8"/>
<text text-anchor="start" x="2158.04" y="-197.2" font-family="Times,serif" font-size="14.00">0063h000008wq3kAAA</text>
<polygon fill="none" stroke="black" points="2007.75,-168.8 2007.75,-190.8 2152.75,-190.8 2152.75,-168.8 2007.75,-168.8"/>
<text text-anchor="start" x="2027.38" y="-175.2" font-family="Times,serif" font-size="14.00">TeamMemberRole</text>
<polygon fill="none" stroke="black" points="2152.75,-168.8 2152.75,-190.8 2301.75,-190.8 2301.75,-168.8 2152.75,-168.8"/>
<text text-anchor="start" x="2176.91" y="-175.2" font-family="Times,serif" font-size="14.00">Account Manager</text>
<polygon fill="none" stroke="black" points="2007.75,-146.8 2007.75,-168.8 2152.75,-168.8 2152.75,-146.8 2007.75,-146.8"/>
<text text-anchor="start" x="2067.03" y="-153.2" font-family="Times,serif" font-size="14.00">Title</text>
<polygon fill="none" stroke="black" points="2152.75,-146.8 2152.75,-168.8 2301.75,-168.8 2301.75,-146.8 2152.75,-146.8"/>
<text text-anchor="start" x="2216.36" y="-153.2" font-family="Times,serif" font-size="14.00">null</text>
<polygon fill="none" stroke="black" points="2006.75,-145.8 2006.75,-279.8 2302.75,-279.8 2302.75,-145.8 2006.75,-145.8"/>
</g>
</g>
</svg>
