<?xml version="1.0" encoding="UTF-8" standalone="no"?>
<!DOCTYPE svg PUBLIC "-//W3C//DTD SVG 1.1//EN"
 "http://www.w3.org/Graphics/SVG/1.1/DTD/svg11.dtd">
<!-- Generated by graphviz version 2.44.0 (20200518.1210)
 -->
<!-- Title: Salesforce+ ERD Pages: 1 -->
<svg width="947pt" height="246pt"
 viewBox="0.00 0.00 947.49 246.30" xmlns="http://www.w3.org/2000/svg" xmlns:xlink="http://www.w3.org/1999/xlink">
<g id="graph0" class="graph" transform="scale(1 1) rotate(0) translate(4 242.3)">
<title>Salesforce+ ERD</title>
<polygon fill="#efeffd" stroke="transparent" points="-4,4 -4,-242.3 943.49,-242.3 943.49,4 -4,4"/>
<text text-anchor="middle" x="891" y="-6.7" font-family="Courier,monospace" font-size="9.00">Salesforce ERD </text>
<!-- ApexClass -->
<g id="node1" class="node">
<title>ApexClass</title>
<g id="a_node1"><a xlink:href="#" xlink:title=" ApexClass ">
<polygon fill="#ffeeff" stroke="transparent" points="147.49,-27.3 147.49,-238.3 939.49,-238.3 939.49,-27.3 147.49,-27.3"/>
<polygon fill="lightblue" stroke="transparent" points="148.49,-217.8 148.49,-236.8 938.49,-236.8 938.49,-217.8 148.49,-217.8"/>
<polygon fill="none" stroke="#99ccff" points="148.49,-217.8 148.49,-236.8 938.49,-236.8 938.49,-217.8 148.49,-217.8"/>
<text text-anchor="start" x="513.79" y="-224.9" font-family="Courier,monospace" font-weight="bold" font-size="11.00">ApexClass</text>
<polygon fill="#99ccff" stroke="transparent" points="148.49,-198.8 148.49,-217.8 820.49,-217.8 820.49,-198.8 148.49,-198.8"/>
<polygon fill="none" stroke="#99ccff" points="148.49,-198.8 148.49,-217.8 820.49,-217.8 820.49,-198.8 148.49,-198.8"/>
<text text-anchor="start" x="151.49" y="-205.9" font-family="Courier,monospace" font-size="11.00"> &#160;&#160;&#160;&#160;&#160;&#160;&#160;&#160;&#160;&#160;&#160;&#160;&#160;&#160;&#160;&#160;&#160;&#160;&#160;&#160;&#160;&#160;&#160;&#160;&#160;&#160;&#160;&#160;&#160;&#160;&#160;&#160;&#160;&#160;&#160;&#160;&#160;&#160;&#160;&#160;&#160;&#160;</text>
<text text-anchor="start" x="435.24" y="-205.9" font-family="Courier,monospace" font-weight="bold" font-size="11.00">Id</text>
<text text-anchor="start" x="448.44" y="-205.9" font-family="Courier,monospace" font-size="11.00"> &#160;&#160;&#160;&#160;&#160;&#160;&#160;&#160;&#160;&#160;&#160;&#160;&#160;&#160;&#160;&#160;&#160;&#160;&#160;&#160;&#160;&#160;&#160;&#160;&#160;&#160;&#160;&#160;&#160;&#160;&#160;&#160;&#160;&#160;&#160;&#160;&#160;&#160;&#160;</text>
<polygon fill="none" stroke="#99ccff" points="820.49,-198.8 820.49,-217.8 938.49,-217.8 938.49,-198.8 820.49,-198.8"/>
<text text-anchor="start" x="859.69" y="-204.9" font-family="Courier,monospace" font-size="11.00">id(18)</text>
<polygon fill="none" stroke="#99ccff" points="148.49,-179.8 148.49,-198.8 820.49,-198.8 820.49,-179.8 148.49,-179.8"/>
<text text-anchor="start" x="151.49" y="-185.9" font-family="Courier,monospace" font-size="11.00"> &#160;&#160;&#160;&#160;&#160;&#160;&#160;&#160;&#160;&#160;&#160;&#160;&#160;&#160;&#160;&#160;&#160;&#160;&#160;&#160;&#160;&#160;&#160;&#160;&#160;&#160;&#160;&#160;&#160;&#160;&#160;&#160;&#160;&#160;&#160;&#160;&#160;&#160;&#160;&#160;NamespacePrefix &#160;&#160;&#160;&#160;&#160;&#160;&#160;&#160;&#160;&#160;&#160;&#160;&#160;&#160;&#160;&#160;&#160;&#160;&#160;&#160;&#160;&#160;&#160;&#160;&#160;&#160;&#160;&#160;&#160;&#160;&#160;&#160;&#160;&#160;&#160;&#160;&#160;&#160;</text>
<polygon fill="none" stroke="#99ccff" points="820.49,-179.8 820.49,-198.8 938.49,-198.8 938.49,-179.8 820.49,-179.8"/>
<text text-anchor="start" x="846.5" y="-185.9" font-family="Courier,monospace" font-size="11.00">string(15)</text>
<polygon fill="none" stroke="#99ccff" points="148.49,-160.8 148.49,-179.8 820.49,-179.8 820.49,-160.8 148.49,-160.8"/>
<text text-anchor="start" x="151.49" y="-166.9" font-family="Courier,monospace" font-size="11.00"> &#160;&#160;&#160;&#160;&#160;&#160;&#160;&#160;&#160;&#160;&#160;&#160;&#160;&#160;&#160;&#160;&#160;&#160;&#160;&#160;&#160;&#160;&#160;&#160;&#160;&#160;&#160;&#160;&#160;&#160;&#160;&#160;&#160;&#160;&#160;&#160;&#160;&#160;&#160;&#160;Name &#160;&#160;&#160;&#160;&#160;&#160;&#160;&#160;&#160;&#160;&#160;&#160;&#160;&#160;&#160;&#160;&#160;&#160;&#160;&#160;&#160;&#160;&#160;&#160;&#160;&#160;&#160;&#160;&#160;&#160;&#160;&#160;&#160;&#160;&#160;&#160;&#160;&#160;</text>
<polygon fill="none" stroke="#99ccff" points="820.49,-160.8 820.49,-179.8 938.49,-179.8 938.49,-160.8 820.49,-160.8"/>
<text text-anchor="start" x="843.2" y="-166.9" font-family="Courier,monospace" font-size="11.00">string(255)</text>
<polygon fill="none" stroke="#99ccff" points="148.49,-141.8 148.49,-160.8 820.49,-160.8 820.49,-141.8 148.49,-141.8"/>
<text text-anchor="start" x="151.49" y="-147.9" font-family="Courier,monospace" font-size="11.00"> &#160;&#160;&#160;&#160;&#160;&#160;&#160;&#160;&#160;&#160;&#160;&#160;&#160;&#160;&#160;&#160;&#160;&#160;&#160;&#160;&#160;&#160;&#160;&#160;&#160;&#160;&#160;&#160;&#160;&#160;&#160;&#160;&#160;&#160;&#160;&#160;&#160;&#160;&#160;&#160;ApiVersion &#160;&#160;&#160;&#160;&#160;&#160;&#160;&#160;&#160;&#160;&#160;&#160;&#160;&#160;&#160;&#160;&#160;&#160;&#160;&#160;&#160;&#160;&#160;&#160;&#160;&#160;&#160;&#160;&#160;&#160;&#160;&#160;&#160;&#160;&#160;&#160;&#160;&#160;</text>
<polygon fill="none" stroke="#99ccff" points="820.49,-141.8 820.49,-160.8 938.49,-160.8 938.49,-141.8 820.49,-141.8"/>
<text text-anchor="start" x="859.69" y="-147.9" font-family="Courier,monospace" font-size="11.00">double</text>
<polygon fill="none" stroke="#99ccff" points="148.49,-122.8 148.49,-141.8 820.49,-141.8 820.49,-122.8 148.49,-122.8"/>
<text text-anchor="start" x="151.49" y="-128.9" font-family="Courier,monospace" font-size="11.00"> &#160;&#160;&#160;&#160;&#160;&#160;&#160;&#160;&#160;&#160;&#160;&#160;&#160;&#160;&#160;&#160;&#160;&#160;&#160;&#160;&#160;&#160;&#160;&#160;&#160;&#160;&#160;&#160;&#160;&#160;&#160;&#160;&#160;&#160;&#160;&#160;&#160;&#160;&#160;&#160;Status &#160;&#160;&#160;&#160;&#160;&#160;&#160;&#160;&#160;&#160;&#160;&#160;&#160;&#160;&#160;&#160;&#160;&#160;&#160;&#160;&#160;&#160;&#160;&#160;&#160;&#160;&#160;&#160;&#160;&#160;&#160;&#160;&#160;&#160;&#160;&#160;&#160;&#160;</text>
<polygon fill="none" stroke="#99ccff" points="820.49,-122.8 820.49,-141.8 938.49,-141.8 938.49,-122.8 820.49,-122.8"/>
<text text-anchor="start" x="839.9" y="-128.9" font-family="Courier,monospace" font-size="11.00">picklist(40)</text>
<polygon fill="none" stroke="#99ccff" points="148.49,-103.8 148.49,-122.8 820.49,-122.8 820.49,-103.8 148.49,-103.8"/>
<text text-anchor="start" x="151.49" y="-109.9" font-family="Courier,monospace" font-size="11.00"> &#160;&#160;&#160;&#160;&#160;&#160;&#160;&#160;&#160;&#160;&#160;&#160;&#160;&#160;&#160;&#160;&#160;&#160;&#160;&#160;&#160;&#160;&#160;&#160;&#160;&#160;&#160;&#160;&#160;&#160;&#160;&#160;&#160;&#160;&#160;&#160;&#160;&#160;&#160;&#160;IsValid &#160;&#160;&#160;&#160;&#160;&#160;&#160;&#160;&#160;&#160;&#160;&#160;&#160;&#160;&#160;&#160;&#160;&#160;&#160;&#160;&#160;&#160;&#160;&#160;&#160;&#160;&#160;&#160;&#160;&#160;&#160;&#160;&#160;&#160;&#160;&#160;&#160;&#160;</text>
<polygon fill="none" stroke="#99ccff" points="820.49,-103.8 820.49,-122.8 938.49,-122.8 938.49,-103.8 820.49,-103.8"/>
<text text-anchor="start" x="856.39" y="-109.9" font-family="Courier,monospace" font-size="11.00">boolean</text>
<polygon fill="none" stroke="#99ccff" points="148.49,-84.8 148.49,-103.8 820.49,-103.8 820.49,-84.8 148.49,-84.8"/>
<text text-anchor="start" x="151.49" y="-90.9" font-family="Courier,monospace" font-size="11.00"> &#160;&#160;&#160;&#160;&#160;&#160;&#160;&#160;&#160;&#160;&#160;&#160;&#160;&#160;&#160;&#160;&#160;&#160;&#160;&#160;&#160;&#160;&#160;&#160;&#160;&#160;&#160;&#160;&#160;&#160;&#160;&#160;&#160;&#160;&#160;&#160;&#160;&#160;&#160;&#160;BodyCrc &#160;&#160;&#160;&#160;&#160;&#160;&#160;&#160;&#160;&#160;&#160;&#160;&#160;&#160;&#160;&#160;&#160;&#160;&#160;&#160;&#160;&#160;&#160;&#160;&#160;&#160;&#160;&#160;&#160;&#160;&#160;&#160;&#160;&#160;&#160;&#160;&#160;&#160;</text>
<polygon fill="none" stroke="#99ccff" points="820.49,-84.8 820.49,-103.8 938.49,-103.8 938.49,-84.8 820.49,-84.8"/>
<text text-anchor="start" x="859.69" y="-90.9" font-family="Courier,monospace" font-size="11.00">double</text>
<polygon fill="none" stroke="#99ccff" points="148.49,-65.8 148.49,-84.8 820.49,-84.8 820.49,-65.8 148.49,-65.8"/>
<text text-anchor="start" x="151.49" y="-71.9" font-family="Courier,monospace" font-size="11.00"> &#160;&#160;&#160;&#160;&#160;&#160;&#160;&#160;&#160;&#160;&#160;&#160;&#160;&#160;&#160;&#160;&#160;&#160;&#160;&#160;&#160;&#160;&#160;&#160;&#160;&#160;&#160;&#160;&#160;&#160;&#160;&#160;&#160;&#160;&#160;&#160;&#160;&#160;&#160;&#160;Body &#160;&#160;&#160;&#160;&#160;&#160;&#160;&#160;&#160;&#160;&#160;&#160;&#160;&#160;&#160;&#160;&#160;&#160;&#160;&#160;&#160;&#160;&#160;&#160;&#160;&#160;&#160;&#160;&#160;&#160;&#160;&#160;&#160;&#160;&#160;&#160;&#160;&#160;</text>
<polygon fill="none" stroke="#99ccff" points="820.49,-65.8 820.49,-84.8 938.49,-84.8 938.49,-65.8 820.49,-65.8"/>
<text text-anchor="start" x="823.4" y="-71.9" font-family="Courier,monospace" font-size="11.00">textarea(1000000)</text>
<polygon fill="none" stroke="#99ccff" points="148.49,-46.8 148.49,-65.8 820.49,-65.8 820.49,-46.8 148.49,-46.8"/>
<text text-anchor="start" x="151.25" y="-52.9" font-family="Courier,monospace" font-size="11.00"> &#160;&#160;&#160;&#160;&#160;&#160;&#160;&#160;&#160;&#160;&#160;&#160;&#160;&#160;&#160;&#160;&#160;&#160;&#160;&#160;&#160;&#160;&#160;&#160;&#160;&#160;&#160;&#160;&#160;&#160;&#160;&#160;&#160;&#160;&#160;&#160;&#160;&#160;&#160;&#160;LengthWithoutComments &#160;&#160;&#160;&#160;&#160;&#160;&#160;&#160;&#160;&#160;&#160;&#160;&#160;&#160;&#160;&#160;&#160;&#160;&#160;&#160;&#160;&#160;&#160;&#160;&#160;&#160;&#160;&#160;&#160;&#160;&#160;&#160;&#160;&#160;&#160;&#160;&#160;&#160;</text>
<polygon fill="none" stroke="#99ccff" points="820.49,-46.8 820.49,-65.8 938.49,-65.8 938.49,-46.8 820.49,-46.8"/>
<text text-anchor="start" x="869.59" y="-52.9" font-family="Courier,monospace" font-size="11.00">int</text>
<polygon fill="none" stroke="#99ccff" points="148.49,-27.8 148.49,-46.8 820.49,-46.8 820.49,-27.8 148.49,-27.8"/>
<text text-anchor="start" x="151.49" y="-33.9" font-family="Courier,monospace" font-size="11.00"> &#160;&#160;&#160;&#160;&#160;&#160;&#160;&#160;&#160;&#160;&#160;&#160;&#160;&#160;&#160;&#160;&#160;&#160;&#160;&#160;&#160;&#160;&#160;&#160;&#160;&#160;&#160;&#160;&#160;&#160;&#160;&#160;&#160;&#160;&#160;&#160;&#160;&#160;&#160;&#160;LastModifiedById &#160;&#160;&#160;&#160;&#160;&#160;&#160;&#160;&#160;&#160;&#160;&#160;&#160;&#160;&#160;&#160;&#160;&#160;&#160;&#160;&#160;&#160;&#160;&#160;&#160;&#160;&#160;&#160;&#160;&#160;&#160;&#160;&#160;&#160;&#160;&#160;&#160;&#160;</text>
<polygon fill="none" stroke="#99ccff" points="820.49,-27.8 820.49,-46.8 938.49,-46.8 938.49,-27.8 820.49,-27.8"/>
<text text-anchor="start" x="836.6" y="-33.9" font-family="Courier,monospace" font-size="11.00">reference(18)</text>
<polygon fill="none" stroke="#99ccff" points="147.49,-27.3 147.49,-238.3 939.49,-238.3 939.49,-27.3 147.49,-27.3"/>
</a>
</g>
</g>
<!-- User -->
<g id="node2" class="node">
<title>User</title>
<text text-anchor="middle" x="27" y="-33.5" font-family="Courier,monospace" font-size="11.00">User</text>
</g>
<!-- ApexClass&#45;&gt;User -->
<g id="edge1" class="edge">
<title>ApexClass:w&#45;&gt;User:e</title>
<path fill="none" stroke="#ff99cc" d="M132.91,-36.8C104.63,-36.8 74.72,-36.8 54.11,-36.8"/>
<polygon fill="#ff99cc" stroke="#ff99cc" points="139.49,-36.8 147.49,-40.4 143.49,-36.8 147.49,-36.8 147.49,-36.8 147.49,-36.8 143.49,-36.8 147.49,-33.2 139.49,-36.8 139.49,-36.8"/>
<ellipse fill="none" stroke="#ff99cc" cx="136.29" cy="-36.8" rx="3.2" ry="3.2"/>
<text text-anchor="middle" x="100.75" y="-39.5" font-family="Monaco" font-size="9.00">LastModifiedBy</text>
</g>
</g>
</svg>
