<?xml version="1.0" encoding="UTF-8" standalone="no"?>
<!DOCTYPE svg PUBLIC "-//W3C//DTD SVG 1.1//EN"
 "http://www.w3.org/Graphics/SVG/1.1/DTD/svg11.dtd">
<!-- Generated by graphviz version 2.44.0 (20200518.1210)
 -->
<!-- Title: Salesforce+ ERD Pages: 1 -->
<svg width="1000pt" height="523pt"
 viewBox="0.00 0.00 999.68 522.80" xmlns="http://www.w3.org/2000/svg" xmlns:xlink="http://www.w3.org/1999/xlink">
<g id="graph0" class="graph" transform="scale(1 1) rotate(0) translate(4 518.8)">
<title>Salesforce+ ERD</title>
<polygon fill="#efeffd" stroke="transparent" points="-4,4 -4,-518.8 995.68,-518.8 995.68,4 -4,4"/>
<text text-anchor="middle" x="943.19" y="-6.7" font-family="Courier,monospace" font-size="9.00">Salesforce ERD </text>
<!-- NetworkMember -->
<g id="node1" class="node">
<title>NetworkMember</title>
<g id="a_node1"><a xlink:href="#" xlink:title=" NetworkMember ">
<polygon fill="#ffeeff" stroke="transparent" points="127.68,-18.8 127.68,-514.8 991.68,-514.8 991.68,-18.8 127.68,-18.8"/>
<polygon fill="lightblue" stroke="transparent" points="128.68,-494.8 128.68,-513.8 990.68,-513.8 990.68,-494.8 128.68,-494.8"/>
<polygon fill="none" stroke="#99ccff" points="128.68,-494.8 128.68,-513.8 990.68,-513.8 990.68,-494.8 128.68,-494.8"/>
<text text-anchor="start" x="516.79" y="-501.9" font-family="Courier,monospace" font-weight="bold" font-size="11.00">NetworkMember</text>
<polygon fill="#99ccff" stroke="transparent" points="128.68,-475.8 128.68,-494.8 899.68,-494.8 899.68,-475.8 128.68,-475.8"/>
<polygon fill="none" stroke="#99ccff" points="128.68,-475.8 128.68,-494.8 899.68,-494.8 899.68,-475.8 128.68,-475.8"/>
<text text-anchor="start" x="131.68" y="-482.9" font-family="Courier,monospace" font-size="11.00"> &#160;&#160;&#160;&#160;&#160;&#160;&#160;&#160;&#160;&#160;&#160;&#160;&#160;&#160;&#160;&#160;&#160;&#160;&#160;&#160;&#160;&#160;&#160;&#160;&#160;&#160;&#160;&#160;&#160;&#160;&#160;&#160;&#160;&#160;&#160;&#160;&#160;&#160;&#160;&#160;&#160;&#160;</text>
<text text-anchor="start" x="415.43" y="-482.9" font-family="Courier,monospace" font-weight="bold" font-size="11.00">Id</text>
<text text-anchor="start" x="428.63" y="-482.9" font-family="Courier,monospace" font-size="11.00"> &#160;&#160;&#160;&#160;&#160;&#160;&#160;&#160;&#160;&#160;&#160;&#160;&#160;&#160;&#160;&#160;&#160;&#160;&#160;&#160;&#160;&#160;&#160;&#160;&#160;&#160;&#160;&#160;&#160;&#160;&#160;&#160;&#160;&#160;&#160;&#160;&#160;&#160;&#160;</text>
<polygon fill="none" stroke="#99ccff" points="899.68,-475.8 899.68,-494.8 990.68,-494.8 990.68,-475.8 899.68,-475.8"/>
<text text-anchor="start" x="925.38" y="-481.9" font-family="Courier,monospace" font-size="11.00">id(18)</text>
<polygon fill="none" stroke="#99ccff" points="128.68,-456.8 128.68,-475.8 899.68,-475.8 899.68,-456.8 128.68,-456.8"/>
<text text-anchor="start" x="131.68" y="-462.9" font-family="Courier,monospace" font-size="11.00"> &#160;&#160;&#160;&#160;&#160;&#160;&#160;&#160;&#160;&#160;&#160;&#160;&#160;&#160;&#160;&#160;&#160;&#160;&#160;&#160;&#160;&#160;&#160;&#160;&#160;&#160;&#160;&#160;&#160;&#160;&#160;&#160;&#160;&#160;&#160;&#160;&#160;&#160;&#160;&#160;NetworkId &#160;&#160;&#160;&#160;&#160;&#160;&#160;&#160;&#160;&#160;&#160;&#160;&#160;&#160;&#160;&#160;&#160;&#160;&#160;&#160;&#160;&#160;&#160;&#160;&#160;&#160;&#160;&#160;&#160;&#160;&#160;&#160;&#160;&#160;&#160;&#160;&#160;&#160;</text>
<polygon fill="none" stroke="#99ccff" points="899.68,-456.8 899.68,-475.8 990.68,-475.8 990.68,-456.8 899.68,-456.8"/>
<text text-anchor="start" x="902.29" y="-462.9" font-family="Courier,monospace" font-size="11.00">reference(18)</text>
<polygon fill="none" stroke="#99ccff" points="128.68,-437.8 128.68,-456.8 899.68,-456.8 899.68,-437.8 128.68,-437.8"/>
<text text-anchor="start" x="131.68" y="-443.9" font-family="Courier,monospace" font-size="11.00"> &#160;&#160;&#160;&#160;&#160;&#160;&#160;&#160;&#160;&#160;&#160;&#160;&#160;&#160;&#160;&#160;&#160;&#160;&#160;&#160;&#160;&#160;&#160;&#160;&#160;&#160;&#160;&#160;&#160;&#160;&#160;&#160;&#160;&#160;&#160;&#160;&#160;&#160;&#160;&#160;MemberId &#160;&#160;&#160;&#160;&#160;&#160;&#160;&#160;&#160;&#160;&#160;&#160;&#160;&#160;&#160;&#160;&#160;&#160;&#160;&#160;&#160;&#160;&#160;&#160;&#160;&#160;&#160;&#160;&#160;&#160;&#160;&#160;&#160;&#160;&#160;&#160;&#160;&#160;</text>
<polygon fill="none" stroke="#99ccff" points="899.68,-437.8 899.68,-456.8 990.68,-456.8 990.68,-437.8 899.68,-437.8"/>
<text text-anchor="start" x="902.29" y="-443.9" font-family="Courier,monospace" font-size="11.00">reference(18)</text>
<polygon fill="none" stroke="#99ccff" points="128.68,-418.8 128.68,-437.8 899.68,-437.8 899.68,-418.8 128.68,-418.8"/>
<text text-anchor="start" x="131.68" y="-424.9" font-family="Courier,monospace" font-size="11.00"> &#160;&#160;&#160;&#160;&#160;&#160;&#160;&#160;&#160;&#160;&#160;&#160;&#160;&#160;&#160;&#160;&#160;&#160;&#160;&#160;&#160;&#160;&#160;&#160;&#160;&#160;&#160;&#160;&#160;&#160;&#160;&#160;&#160;&#160;&#160;&#160;&#160;&#160;&#160;&#160;DigestFrequency &#160;&#160;&#160;&#160;&#160;&#160;&#160;&#160;&#160;&#160;&#160;&#160;&#160;&#160;&#160;&#160;&#160;&#160;&#160;&#160;&#160;&#160;&#160;&#160;&#160;&#160;&#160;&#160;&#160;&#160;&#160;&#160;&#160;&#160;&#160;&#160;&#160;&#160;</text>
<polygon fill="none" stroke="#99ccff" points="899.68,-418.8 899.68,-437.8 990.68,-437.8 990.68,-418.8 899.68,-418.8"/>
<text text-anchor="start" x="905.59" y="-424.9" font-family="Courier,monospace" font-size="11.00">picklist(40)</text>
<polygon fill="none" stroke="#99ccff" points="128.68,-399.8 128.68,-418.8 899.68,-418.8 899.68,-399.8 128.68,-399.8"/>
<text text-anchor="start" x="131.68" y="-405.9" font-family="Courier,monospace" font-size="11.00"> &#160;&#160;&#160;&#160;&#160;&#160;&#160;&#160;&#160;&#160;&#160;&#160;&#160;&#160;&#160;&#160;&#160;&#160;&#160;&#160;&#160;&#160;&#160;&#160;&#160;&#160;&#160;&#160;&#160;&#160;&#160;&#160;&#160;&#160;&#160;&#160;&#160;&#160;&#160;&#160;DefaultGroupNotificationFrequency &#160;&#160;&#160;&#160;&#160;&#160;&#160;&#160;&#160;&#160;&#160;&#160;&#160;&#160;&#160;&#160;&#160;&#160;&#160;&#160;&#160;&#160;&#160;&#160;&#160;&#160;&#160;&#160;&#160;&#160;&#160;&#160;&#160;&#160;&#160;&#160;&#160;&#160;</text>
<polygon fill="none" stroke="#99ccff" points="899.68,-399.8 899.68,-418.8 990.68,-418.8 990.68,-399.8 899.68,-399.8"/>
<text text-anchor="start" x="905.59" y="-405.9" font-family="Courier,monospace" font-size="11.00">picklist(40)</text>
<polygon fill="none" stroke="#99ccff" points="128.68,-380.8 128.68,-399.8 899.68,-399.8 899.68,-380.8 128.68,-380.8"/>
<text text-anchor="start" x="131.68" y="-386.9" font-family="Courier,monospace" font-size="11.00"> &#160;&#160;&#160;&#160;&#160;&#160;&#160;&#160;&#160;&#160;&#160;&#160;&#160;&#160;&#160;&#160;&#160;&#160;&#160;&#160;&#160;&#160;&#160;&#160;&#160;&#160;&#160;&#160;&#160;&#160;&#160;&#160;&#160;&#160;&#160;&#160;&#160;&#160;&#160;&#160;PreferencesDisableAllFeedsEmail &#160;&#160;&#160;&#160;&#160;&#160;&#160;&#160;&#160;&#160;&#160;&#160;&#160;&#160;&#160;&#160;&#160;&#160;&#160;&#160;&#160;&#160;&#160;&#160;&#160;&#160;&#160;&#160;&#160;&#160;&#160;&#160;&#160;&#160;&#160;&#160;&#160;&#160;</text>
<polygon fill="none" stroke="#99ccff" points="899.68,-380.8 899.68,-399.8 990.68,-399.8 990.68,-380.8 899.68,-380.8"/>
<text text-anchor="start" x="922.08" y="-386.9" font-family="Courier,monospace" font-size="11.00">boolean</text>
<polygon fill="none" stroke="#99ccff" points="128.68,-361.8 128.68,-380.8 899.68,-380.8 899.68,-361.8 128.68,-361.8"/>
<text text-anchor="start" x="131.68" y="-367.9" font-family="Courier,monospace" font-size="11.00"> &#160;&#160;&#160;&#160;&#160;&#160;&#160;&#160;&#160;&#160;&#160;&#160;&#160;&#160;&#160;&#160;&#160;&#160;&#160;&#160;&#160;&#160;&#160;&#160;&#160;&#160;&#160;&#160;&#160;&#160;&#160;&#160;&#160;&#160;&#160;&#160;&#160;&#160;&#160;&#160;PreferencesDisableFollowersEmail &#160;&#160;&#160;&#160;&#160;&#160;&#160;&#160;&#160;&#160;&#160;&#160;&#160;&#160;&#160;&#160;&#160;&#160;&#160;&#160;&#160;&#160;&#160;&#160;&#160;&#160;&#160;&#160;&#160;&#160;&#160;&#160;&#160;&#160;&#160;&#160;&#160;&#160;</text>
<polygon fill="none" stroke="#99ccff" points="899.68,-361.8 899.68,-380.8 990.68,-380.8 990.68,-361.8 899.68,-361.8"/>
<text text-anchor="start" x="922.08" y="-367.9" font-family="Courier,monospace" font-size="11.00">boolean</text>
<polygon fill="none" stroke="#99ccff" points="128.68,-342.8 128.68,-361.8 899.68,-361.8 899.68,-342.8 128.68,-342.8"/>
<text text-anchor="start" x="131.68" y="-348.9" font-family="Courier,monospace" font-size="11.00"> &#160;&#160;&#160;&#160;&#160;&#160;&#160;&#160;&#160;&#160;&#160;&#160;&#160;&#160;&#160;&#160;&#160;&#160;&#160;&#160;&#160;&#160;&#160;&#160;&#160;&#160;&#160;&#160;&#160;&#160;&#160;&#160;&#160;&#160;&#160;&#160;&#160;&#160;&#160;&#160;PreferencesDisableProfilePostEmail &#160;&#160;&#160;&#160;&#160;&#160;&#160;&#160;&#160;&#160;&#160;&#160;&#160;&#160;&#160;&#160;&#160;&#160;&#160;&#160;&#160;&#160;&#160;&#160;&#160;&#160;&#160;&#160;&#160;&#160;&#160;&#160;&#160;&#160;&#160;&#160;&#160;&#160;</text>
<polygon fill="none" stroke="#99ccff" points="899.68,-342.8 899.68,-361.8 990.68,-361.8 990.68,-342.8 899.68,-342.8"/>
<text text-anchor="start" x="922.08" y="-348.9" font-family="Courier,monospace" font-size="11.00">boolean</text>
<polygon fill="none" stroke="#99ccff" points="128.68,-323.8 128.68,-342.8 899.68,-342.8 899.68,-323.8 128.68,-323.8"/>
<text text-anchor="start" x="131.44" y="-329.9" font-family="Courier,monospace" font-size="11.00"> &#160;&#160;&#160;&#160;&#160;&#160;&#160;&#160;&#160;&#160;&#160;&#160;&#160;&#160;&#160;&#160;&#160;&#160;&#160;&#160;&#160;&#160;&#160;&#160;&#160;&#160;&#160;&#160;&#160;&#160;&#160;&#160;&#160;&#160;&#160;&#160;&#160;&#160;&#160;&#160;PreferencesDisableChangeCommentEmail &#160;&#160;&#160;&#160;&#160;&#160;&#160;&#160;&#160;&#160;&#160;&#160;&#160;&#160;&#160;&#160;&#160;&#160;&#160;&#160;&#160;&#160;&#160;&#160;&#160;&#160;&#160;&#160;&#160;&#160;&#160;&#160;&#160;&#160;&#160;&#160;&#160;&#160;</text>
<polygon fill="none" stroke="#99ccff" points="899.68,-323.8 899.68,-342.8 990.68,-342.8 990.68,-323.8 899.68,-323.8"/>
<text text-anchor="start" x="922.08" y="-329.9" font-family="Courier,monospace" font-size="11.00">boolean</text>
<polygon fill="none" stroke="#99ccff" points="128.68,-304.8 128.68,-323.8 899.68,-323.8 899.68,-304.8 128.68,-304.8"/>
<text text-anchor="start" x="131.68" y="-310.9" font-family="Courier,monospace" font-size="11.00"> &#160;&#160;&#160;&#160;&#160;&#160;&#160;&#160;&#160;&#160;&#160;&#160;&#160;&#160;&#160;&#160;&#160;&#160;&#160;&#160;&#160;&#160;&#160;&#160;&#160;&#160;&#160;&#160;&#160;&#160;&#160;&#160;&#160;&#160;&#160;&#160;&#160;&#160;&#160;&#160;PreferencesDisableLaterCommentEmail &#160;&#160;&#160;&#160;&#160;&#160;&#160;&#160;&#160;&#160;&#160;&#160;&#160;&#160;&#160;&#160;&#160;&#160;&#160;&#160;&#160;&#160;&#160;&#160;&#160;&#160;&#160;&#160;&#160;&#160;&#160;&#160;&#160;&#160;&#160;&#160;&#160;&#160;</text>
<polygon fill="none" stroke="#99ccff" points="899.68,-304.8 899.68,-323.8 990.68,-323.8 990.68,-304.8 899.68,-304.8"/>
<text text-anchor="start" x="922.08" y="-310.9" font-family="Courier,monospace" font-size="11.00">boolean</text>
<polygon fill="none" stroke="#99ccff" points="128.68,-285.8 128.68,-304.8 899.68,-304.8 899.68,-285.8 128.68,-285.8"/>
<text text-anchor="start" x="131.68" y="-291.9" font-family="Courier,monospace" font-size="11.00"> &#160;&#160;&#160;&#160;&#160;&#160;&#160;&#160;&#160;&#160;&#160;&#160;&#160;&#160;&#160;&#160;&#160;&#160;&#160;&#160;&#160;&#160;&#160;&#160;&#160;&#160;&#160;&#160;&#160;&#160;&#160;&#160;&#160;&#160;&#160;&#160;&#160;&#160;&#160;&#160;PreferencesDisProfPostCommentEmail &#160;&#160;&#160;&#160;&#160;&#160;&#160;&#160;&#160;&#160;&#160;&#160;&#160;&#160;&#160;&#160;&#160;&#160;&#160;&#160;&#160;&#160;&#160;&#160;&#160;&#160;&#160;&#160;&#160;&#160;&#160;&#160;&#160;&#160;&#160;&#160;&#160;&#160;</text>
<polygon fill="none" stroke="#99ccff" points="899.68,-285.8 899.68,-304.8 990.68,-304.8 990.68,-285.8 899.68,-285.8"/>
<text text-anchor="start" x="922.08" y="-291.9" font-family="Courier,monospace" font-size="11.00">boolean</text>
<polygon fill="none" stroke="#99ccff" points="128.68,-266.8 128.68,-285.8 899.68,-285.8 899.68,-266.8 128.68,-266.8"/>
<text text-anchor="start" x="131.68" y="-272.9" font-family="Courier,monospace" font-size="11.00"> &#160;&#160;&#160;&#160;&#160;&#160;&#160;&#160;&#160;&#160;&#160;&#160;&#160;&#160;&#160;&#160;&#160;&#160;&#160;&#160;&#160;&#160;&#160;&#160;&#160;&#160;&#160;&#160;&#160;&#160;&#160;&#160;&#160;&#160;&#160;&#160;&#160;&#160;&#160;&#160;PreferencesDisableMentionsPostEmail &#160;&#160;&#160;&#160;&#160;&#160;&#160;&#160;&#160;&#160;&#160;&#160;&#160;&#160;&#160;&#160;&#160;&#160;&#160;&#160;&#160;&#160;&#160;&#160;&#160;&#160;&#160;&#160;&#160;&#160;&#160;&#160;&#160;&#160;&#160;&#160;&#160;&#160;</text>
<polygon fill="none" stroke="#99ccff" points="899.68,-266.8 899.68,-285.8 990.68,-285.8 990.68,-266.8 899.68,-266.8"/>
<text text-anchor="start" x="922.08" y="-272.9" font-family="Courier,monospace" font-size="11.00">boolean</text>
<polygon fill="none" stroke="#99ccff" points="128.68,-247.8 128.68,-266.8 899.68,-266.8 899.68,-247.8 128.68,-247.8"/>
<text text-anchor="start" x="131.68" y="-253.9" font-family="Courier,monospace" font-size="11.00"> &#160;&#160;&#160;&#160;&#160;&#160;&#160;&#160;&#160;&#160;&#160;&#160;&#160;&#160;&#160;&#160;&#160;&#160;&#160;&#160;&#160;&#160;&#160;&#160;&#160;&#160;&#160;&#160;&#160;&#160;&#160;&#160;&#160;&#160;&#160;&#160;&#160;&#160;&#160;&#160;PreferencesDisMentionsCommentEmail &#160;&#160;&#160;&#160;&#160;&#160;&#160;&#160;&#160;&#160;&#160;&#160;&#160;&#160;&#160;&#160;&#160;&#160;&#160;&#160;&#160;&#160;&#160;&#160;&#160;&#160;&#160;&#160;&#160;&#160;&#160;&#160;&#160;&#160;&#160;&#160;&#160;&#160;</text>
<polygon fill="none" stroke="#99ccff" points="899.68,-247.8 899.68,-266.8 990.68,-266.8 990.68,-247.8 899.68,-247.8"/>
<text text-anchor="start" x="922.08" y="-253.9" font-family="Courier,monospace" font-size="11.00">boolean</text>
<polygon fill="none" stroke="#99ccff" points="128.68,-228.8 128.68,-247.8 899.68,-247.8 899.68,-228.8 128.68,-228.8"/>
<text text-anchor="start" x="131.68" y="-234.9" font-family="Courier,monospace" font-size="11.00"> &#160;&#160;&#160;&#160;&#160;&#160;&#160;&#160;&#160;&#160;&#160;&#160;&#160;&#160;&#160;&#160;&#160;&#160;&#160;&#160;&#160;&#160;&#160;&#160;&#160;&#160;&#160;&#160;&#160;&#160;&#160;&#160;&#160;&#160;&#160;&#160;&#160;&#160;&#160;&#160;PreferencesDisableLikeEmail &#160;&#160;&#160;&#160;&#160;&#160;&#160;&#160;&#160;&#160;&#160;&#160;&#160;&#160;&#160;&#160;&#160;&#160;&#160;&#160;&#160;&#160;&#160;&#160;&#160;&#160;&#160;&#160;&#160;&#160;&#160;&#160;&#160;&#160;&#160;&#160;&#160;&#160;</text>
<polygon fill="none" stroke="#99ccff" points="899.68,-228.8 899.68,-247.8 990.68,-247.8 990.68,-228.8 899.68,-228.8"/>
<text text-anchor="start" x="922.08" y="-234.9" font-family="Courier,monospace" font-size="11.00">boolean</text>
<polygon fill="none" stroke="#99ccff" points="128.68,-209.8 128.68,-228.8 899.68,-228.8 899.68,-209.8 128.68,-209.8"/>
<text text-anchor="start" x="131.68" y="-215.9" font-family="Courier,monospace" font-size="11.00"> &#160;&#160;&#160;&#160;&#160;&#160;&#160;&#160;&#160;&#160;&#160;&#160;&#160;&#160;&#160;&#160;&#160;&#160;&#160;&#160;&#160;&#160;&#160;&#160;&#160;&#160;&#160;&#160;&#160;&#160;&#160;&#160;&#160;&#160;&#160;&#160;&#160;&#160;&#160;&#160;PreferencesDisCommentAfterLikeEmail &#160;&#160;&#160;&#160;&#160;&#160;&#160;&#160;&#160;&#160;&#160;&#160;&#160;&#160;&#160;&#160;&#160;&#160;&#160;&#160;&#160;&#160;&#160;&#160;&#160;&#160;&#160;&#160;&#160;&#160;&#160;&#160;&#160;&#160;&#160;&#160;&#160;&#160;</text>
<polygon fill="none" stroke="#99ccff" points="899.68,-209.8 899.68,-228.8 990.68,-228.8 990.68,-209.8 899.68,-209.8"/>
<text text-anchor="start" x="922.08" y="-215.9" font-family="Courier,monospace" font-size="11.00">boolean</text>
<polygon fill="none" stroke="#99ccff" points="128.68,-190.8 128.68,-209.8 899.68,-209.8 899.68,-190.8 128.68,-190.8"/>
<text text-anchor="start" x="131.68" y="-196.9" font-family="Courier,monospace" font-size="11.00"> &#160;&#160;&#160;&#160;&#160;&#160;&#160;&#160;&#160;&#160;&#160;&#160;&#160;&#160;&#160;&#160;&#160;&#160;&#160;&#160;&#160;&#160;&#160;&#160;&#160;&#160;&#160;&#160;&#160;&#160;&#160;&#160;&#160;&#160;&#160;&#160;&#160;&#160;&#160;&#160;PreferencesDisableBookmarkEmail &#160;&#160;&#160;&#160;&#160;&#160;&#160;&#160;&#160;&#160;&#160;&#160;&#160;&#160;&#160;&#160;&#160;&#160;&#160;&#160;&#160;&#160;&#160;&#160;&#160;&#160;&#160;&#160;&#160;&#160;&#160;&#160;&#160;&#160;&#160;&#160;&#160;&#160;</text>
<polygon fill="none" stroke="#99ccff" points="899.68,-190.8 899.68,-209.8 990.68,-209.8 990.68,-190.8 899.68,-190.8"/>
<text text-anchor="start" x="922.08" y="-196.9" font-family="Courier,monospace" font-size="11.00">boolean</text>
<polygon fill="none" stroke="#99ccff" points="128.68,-171.8 128.68,-190.8 899.68,-190.8 899.68,-171.8 128.68,-171.8"/>
<text text-anchor="start" x="131.68" y="-177.9" font-family="Courier,monospace" font-size="11.00"> &#160;&#160;&#160;&#160;&#160;&#160;&#160;&#160;&#160;&#160;&#160;&#160;&#160;&#160;&#160;&#160;&#160;&#160;&#160;&#160;&#160;&#160;&#160;&#160;&#160;&#160;&#160;&#160;&#160;&#160;&#160;&#160;&#160;&#160;&#160;&#160;&#160;&#160;&#160;&#160;PreferencesDisableSharePostEmail &#160;&#160;&#160;&#160;&#160;&#160;&#160;&#160;&#160;&#160;&#160;&#160;&#160;&#160;&#160;&#160;&#160;&#160;&#160;&#160;&#160;&#160;&#160;&#160;&#160;&#160;&#160;&#160;&#160;&#160;&#160;&#160;&#160;&#160;&#160;&#160;&#160;&#160;</text>
<polygon fill="none" stroke="#99ccff" points="899.68,-171.8 899.68,-190.8 990.68,-190.8 990.68,-171.8 899.68,-171.8"/>
<text text-anchor="start" x="922.08" y="-177.9" font-family="Courier,monospace" font-size="11.00">boolean</text>
<polygon fill="none" stroke="#99ccff" points="128.68,-152.8 128.68,-171.8 899.68,-171.8 899.68,-152.8 128.68,-152.8"/>
<text text-anchor="start" x="131.68" y="-158.9" font-family="Courier,monospace" font-size="11.00"> &#160;&#160;&#160;&#160;&#160;&#160;&#160;&#160;&#160;&#160;&#160;&#160;&#160;&#160;&#160;&#160;&#160;&#160;&#160;&#160;&#160;&#160;&#160;&#160;&#160;&#160;&#160;&#160;&#160;&#160;&#160;&#160;&#160;&#160;&#160;&#160;&#160;&#160;&#160;&#160;PreferencesDisableItemFlaggedEmail &#160;&#160;&#160;&#160;&#160;&#160;&#160;&#160;&#160;&#160;&#160;&#160;&#160;&#160;&#160;&#160;&#160;&#160;&#160;&#160;&#160;&#160;&#160;&#160;&#160;&#160;&#160;&#160;&#160;&#160;&#160;&#160;&#160;&#160;&#160;&#160;&#160;&#160;</text>
<polygon fill="none" stroke="#99ccff" points="899.68,-152.8 899.68,-171.8 990.68,-171.8 990.68,-152.8 899.68,-152.8"/>
<text text-anchor="start" x="922.08" y="-158.9" font-family="Courier,monospace" font-size="11.00">boolean</text>
<polygon fill="none" stroke="#99ccff" points="128.68,-133.8 128.68,-152.8 899.68,-152.8 899.68,-133.8 128.68,-133.8"/>
<text text-anchor="start" x="131.68" y="-139.9" font-family="Courier,monospace" font-size="11.00"> &#160;&#160;&#160;&#160;&#160;&#160;&#160;&#160;&#160;&#160;&#160;&#160;&#160;&#160;&#160;&#160;&#160;&#160;&#160;&#160;&#160;&#160;&#160;&#160;&#160;&#160;&#160;&#160;&#160;&#160;&#160;&#160;&#160;&#160;&#160;&#160;&#160;&#160;&#160;&#160;PreferencesDisableMessageEmail &#160;&#160;&#160;&#160;&#160;&#160;&#160;&#160;&#160;&#160;&#160;&#160;&#160;&#160;&#160;&#160;&#160;&#160;&#160;&#160;&#160;&#160;&#160;&#160;&#160;&#160;&#160;&#160;&#160;&#160;&#160;&#160;&#160;&#160;&#160;&#160;&#160;&#160;</text>
<polygon fill="none" stroke="#99ccff" points="899.68,-133.8 899.68,-152.8 990.68,-152.8 990.68,-133.8 899.68,-133.8"/>
<text text-anchor="start" x="922.08" y="-139.9" font-family="Courier,monospace" font-size="11.00">boolean</text>
<polygon fill="none" stroke="#99ccff" points="128.68,-114.8 128.68,-133.8 899.68,-133.8 899.68,-114.8 128.68,-114.8"/>
<text text-anchor="start" x="131.68" y="-120.9" font-family="Courier,monospace" font-size="11.00"> &#160;&#160;&#160;&#160;&#160;&#160;&#160;&#160;&#160;&#160;&#160;&#160;&#160;&#160;&#160;&#160;&#160;&#160;&#160;&#160;&#160;&#160;&#160;&#160;&#160;&#160;&#160;&#160;&#160;&#160;&#160;&#160;&#160;&#160;&#160;&#160;&#160;&#160;&#160;&#160;PreferencesDisableEndorsementEmail &#160;&#160;&#160;&#160;&#160;&#160;&#160;&#160;&#160;&#160;&#160;&#160;&#160;&#160;&#160;&#160;&#160;&#160;&#160;&#160;&#160;&#160;&#160;&#160;&#160;&#160;&#160;&#160;&#160;&#160;&#160;&#160;&#160;&#160;&#160;&#160;&#160;&#160;</text>
<polygon fill="none" stroke="#99ccff" points="899.68,-114.8 899.68,-133.8 990.68,-133.8 990.68,-114.8 899.68,-114.8"/>
<text text-anchor="start" x="922.08" y="-120.9" font-family="Courier,monospace" font-size="11.00">boolean</text>
<polygon fill="none" stroke="#99ccff" points="128.68,-95.8 128.68,-114.8 899.68,-114.8 899.68,-95.8 128.68,-95.8"/>
<text text-anchor="start" x="131.44" y="-101.9" font-family="Courier,monospace" font-size="11.00"> &#160;&#160;&#160;&#160;&#160;&#160;&#160;&#160;&#160;&#160;&#160;&#160;&#160;&#160;&#160;&#160;&#160;&#160;&#160;&#160;&#160;&#160;&#160;&#160;&#160;&#160;&#160;&#160;&#160;&#160;&#160;&#160;&#160;&#160;&#160;&#160;&#160;&#160;&#160;&#160;PreferencesDisablePendingReviewEmail &#160;&#160;&#160;&#160;&#160;&#160;&#160;&#160;&#160;&#160;&#160;&#160;&#160;&#160;&#160;&#160;&#160;&#160;&#160;&#160;&#160;&#160;&#160;&#160;&#160;&#160;&#160;&#160;&#160;&#160;&#160;&#160;&#160;&#160;&#160;&#160;&#160;&#160;</text>
<polygon fill="none" stroke="#99ccff" points="899.68,-95.8 899.68,-114.8 990.68,-114.8 990.68,-95.8 899.68,-95.8"/>
<text text-anchor="start" x="922.08" y="-101.9" font-family="Courier,monospace" font-size="11.00">boolean</text>
<polygon fill="none" stroke="#99ccff" points="128.68,-76.8 128.68,-95.8 899.68,-95.8 899.68,-76.8 128.68,-76.8"/>
<text text-anchor="start" x="131.44" y="-82.9" font-family="Courier,monospace" font-size="11.00"> &#160;&#160;&#160;&#160;&#160;&#160;&#160;&#160;&#160;&#160;&#160;&#160;&#160;&#160;&#160;&#160;&#160;&#160;&#160;&#160;&#160;&#160;&#160;&#160;&#160;&#160;&#160;&#160;&#160;&#160;&#160;&#160;&#160;&#160;&#160;&#160;&#160;&#160;&#160;&#160;PreferencesDisableDirectMessageEmail &#160;&#160;&#160;&#160;&#160;&#160;&#160;&#160;&#160;&#160;&#160;&#160;&#160;&#160;&#160;&#160;&#160;&#160;&#160;&#160;&#160;&#160;&#160;&#160;&#160;&#160;&#160;&#160;&#160;&#160;&#160;&#160;&#160;&#160;&#160;&#160;&#160;&#160;</text>
<polygon fill="none" stroke="#99ccff" points="899.68,-76.8 899.68,-95.8 990.68,-95.8 990.68,-76.8 899.68,-76.8"/>
<text text-anchor="start" x="922.08" y="-82.9" font-family="Courier,monospace" font-size="11.00">boolean</text>
<polygon fill="none" stroke="#99ccff" points="128.68,-57.8 128.68,-76.8 899.68,-76.8 899.68,-57.8 128.68,-57.8"/>
<text text-anchor="start" x="131.68" y="-63.9" font-family="Courier,monospace" font-size="11.00"> &#160;&#160;&#160;&#160;&#160;&#160;&#160;&#160;&#160;&#160;&#160;&#160;&#160;&#160;&#160;&#160;&#160;&#160;&#160;&#160;&#160;&#160;&#160;&#160;&#160;&#160;&#160;&#160;&#160;&#160;&#160;&#160;&#160;&#160;&#160;&#160;&#160;&#160;&#160;&#160;PreferencesDisableBestAnswerEmail &#160;&#160;&#160;&#160;&#160;&#160;&#160;&#160;&#160;&#160;&#160;&#160;&#160;&#160;&#160;&#160;&#160;&#160;&#160;&#160;&#160;&#160;&#160;&#160;&#160;&#160;&#160;&#160;&#160;&#160;&#160;&#160;&#160;&#160;&#160;&#160;&#160;&#160;</text>
<polygon fill="none" stroke="#99ccff" points="899.68,-57.8 899.68,-76.8 990.68,-76.8 990.68,-57.8 899.68,-57.8"/>
<text text-anchor="start" x="922.08" y="-63.9" font-family="Courier,monospace" font-size="11.00">boolean</text>
<polygon fill="none" stroke="#99ccff" points="128.68,-38.8 128.68,-57.8 899.68,-57.8 899.68,-38.8 128.68,-38.8"/>
<text text-anchor="start" x="131.68" y="-44.9" font-family="Courier,monospace" font-size="11.00"> &#160;&#160;&#160;&#160;&#160;&#160;&#160;&#160;&#160;&#160;&#160;&#160;&#160;&#160;&#160;&#160;&#160;&#160;&#160;&#160;&#160;&#160;&#160;&#160;&#160;&#160;&#160;&#160;&#160;&#160;&#160;&#160;&#160;&#160;&#160;&#160;&#160;&#160;&#160;&#160;ReputationPoints &#160;&#160;&#160;&#160;&#160;&#160;&#160;&#160;&#160;&#160;&#160;&#160;&#160;&#160;&#160;&#160;&#160;&#160;&#160;&#160;&#160;&#160;&#160;&#160;&#160;&#160;&#160;&#160;&#160;&#160;&#160;&#160;&#160;&#160;&#160;&#160;&#160;&#160;</text>
<polygon fill="none" stroke="#99ccff" points="899.68,-38.8 899.68,-57.8 990.68,-57.8 990.68,-38.8 899.68,-38.8"/>
<text text-anchor="start" x="925.38" y="-44.9" font-family="Courier,monospace" font-size="11.00">double</text>
<polygon fill="none" stroke="#99ccff" points="128.68,-19.8 128.68,-38.8 899.68,-38.8 899.68,-19.8 128.68,-19.8"/>
<text text-anchor="start" x="131.68" y="-25.9" font-family="Courier,monospace" font-size="11.00"> &#160;&#160;&#160;&#160;&#160;&#160;&#160;&#160;&#160;&#160;&#160;&#160;&#160;&#160;&#160;&#160;&#160;&#160;&#160;&#160;&#160;&#160;&#160;&#160;&#160;&#160;&#160;&#160;&#160;&#160;&#160;&#160;&#160;&#160;&#160;&#160;&#160;&#160;&#160;&#160;LastChatterActivityDate &#160;&#160;&#160;&#160;&#160;&#160;&#160;&#160;&#160;&#160;&#160;&#160;&#160;&#160;&#160;&#160;&#160;&#160;&#160;&#160;&#160;&#160;&#160;&#160;&#160;&#160;&#160;&#160;&#160;&#160;&#160;&#160;&#160;&#160;&#160;&#160;&#160;&#160;</text>
<polygon fill="none" stroke="#99ccff" points="899.68,-19.8 899.68,-38.8 990.68,-38.8 990.68,-19.8 899.68,-19.8"/>
<text text-anchor="start" x="931.98" y="-25.9" font-family="Courier,monospace" font-size="11.00">date</text>
<polygon fill="none" stroke="#99ccff" points="127.68,-18.8 127.68,-514.8 991.68,-514.8 991.68,-18.8 127.68,-18.8"/>
</a>
</g>
</g>
<!-- Network -->
<g id="node2" class="node">
<title>Network</title>
<text text-anchor="middle" x="31.1" y="-478.5" font-family="Courier,monospace" font-size="11.00">Network</text>
</g>
<!-- NetworkMember&#45;&gt;Network -->
<g id="edge1" class="edge">
<title>NetworkMember:w&#45;&gt;Network:e</title>
<path fill="none" stroke="#ff99cc" d="M113.23,-467.3C95.41,-468.48 77.15,-471.55 62.47,-474.56"/>
<polygon fill="#ff99cc" stroke="#ff99cc" points="119.68,-467.08 127.8,-470.4 123.68,-466.94 127.68,-466.8 127.68,-466.8 127.68,-466.8 123.68,-466.94 127.55,-463.2 119.68,-467.08 119.68,-467.08"/>
<ellipse fill="none" stroke="#ff99cc" cx="116.49" cy="-467.19" rx="3.2" ry="3.2"/>
<text text-anchor="middle" x="94.94" y="-474.5" font-family="Monaco" font-size="9.00">Network</text>
</g>
<!-- User -->
<g id="node3" class="node">
<title>User</title>
<text text-anchor="middle" x="31.1" y="-429.5" font-family="Courier,monospace" font-size="11.00">User</text>
</g>
<!-- NetworkMember&#45;&gt;User -->
<g id="edge2" class="edge">
<title>NetworkMember:w&#45;&gt;User:e</title>
<path fill="none" stroke="#ff99cc" d="M113.26,-447.3C93.7,-446.01 73.6,-442.44 58.29,-439.16"/>
<polygon fill="#ff99cc" stroke="#ff99cc" points="119.68,-447.52 127.55,-451.4 123.68,-447.66 127.68,-447.8 127.68,-447.8 127.68,-447.8 123.68,-447.66 127.8,-444.2 119.68,-447.52 119.68,-447.52"/>
<ellipse fill="none" stroke="#ff99cc" cx="116.49" cy="-447.41" rx="3.2" ry="3.2"/>
<text text-anchor="middle" x="94.94" y="-450.5" font-family="Monaco" font-size="9.00">Member</text>
</g>
</g>
</svg>
