<?xml version="1.0" encoding="UTF-8" standalone="no"?>
<!DOCTYPE svg PUBLIC "-//W3C//DTD SVG 1.1//EN"
 "http://www.w3.org/Graphics/SVG/1.1/DTD/svg11.dtd">
<!-- Generated by graphviz version 2.50.0 (20211204.2007)
 -->
<!-- Title: Salesforce+ ERD Pages: 1 -->
<svg width="1951pt" height="514pt"
 viewBox="0.00 0.00 1951.00 514.00" xmlns="http://www.w3.org/2000/svg" xmlns:xlink="http://www.w3.org/1999/xlink">
<g id="graph0" class="graph" transform="scale(1 1) rotate(0) translate(4 510)">
<title>Salesforce+ ERD</title>
<polygon fill="#efeffd" stroke="transparent" points="-4,4 -4,-510 1947,-510 1947,4 -4,4"/>
<text text-anchor="middle" x="1895.5" y="-6.8" font-family="Courier,monospace" font-size="9.00">Salesforce ERD </text>
<!-- OrgMetric -->
<g id="node1" class="node">
<title>OrgMetric</title>
<g id="a_node1"><a xlink:href="#" xlink:title=" OrgMetric ">
<polygon fill="#ffeeff" stroke="transparent" points="1111,-360 1111,-506 1943,-506 1943,-360 1111,-360"/>
<polygon fill="lightblue" stroke="transparent" points="1112,-487 1112,-505 1942,-505 1942,-487 1112,-487"/>
<polygon fill="none" stroke="#99ccff" points="1112,-487 1112,-505 1942,-505 1942,-487 1112,-487"/>
<text text-anchor="start" x="1496.5" y="-494.2" font-family="Courier,monospace" font-weight="bold" font-size="11.00">OrgMetric</text>
<polygon fill="#99ccff" stroke="transparent" points="1112,-469 1112,-487 1848,-487 1848,-469 1112,-469"/>
<polygon fill="none" stroke="#99ccff" points="1112,-469 1112,-487 1848,-487 1848,-469 1112,-469"/>
<text text-anchor="start" x="1115" y="-476.2" font-family="Courier,monospace" font-size="11.00"> &#160;&#160;&#160;&#160;&#160;&#160;&#160;&#160;&#160;&#160;&#160;&#160;&#160;&#160;&#160;&#160;&#160;&#160;&#160;&#160;&#160;&#160;&#160;&#160;&#160;&#160;&#160;&#160;&#160;&#160;&#160;&#160;&#160;&#160;&#160;&#160;&#160;&#160;&#160;&#160;&#160;&#160;</text>
<text text-anchor="start" x="1406" y="-476.2" font-family="Courier,monospace" font-weight="bold" font-size="11.00">Id</text>
<text text-anchor="start" x="1420" y="-476.2" font-family="Courier,monospace" font-size="11.00"> &#160;&#160;&#160;&#160;&#160;&#160;&#160;&#160;&#160;&#160;&#160;&#160;&#160;&#160;&#160;&#160;&#160;&#160;&#160;&#160;&#160;&#160;&#160;&#160;&#160;&#160;&#160;&#160;&#160;&#160;&#160;&#160;&#160;&#160;&#160;&#160;&#160;&#160;&#160;</text>
<polygon fill="none" stroke="#99ccff" points="1848,-469 1848,-487 1942,-487 1942,-469 1848,-469"/>
<text text-anchor="start" x="1874.5" y="-475.2" font-family="Courier,monospace" font-size="11.00">id(18)</text>
<polygon fill="none" stroke="#99ccff" points="1112,-451 1112,-469 1848,-469 1848,-451 1112,-451"/>
<text text-anchor="start" x="1115" y="-457.2" font-family="Courier,monospace" font-size="11.00"> &#160;&#160;&#160;&#160;&#160;&#160;&#160;&#160;&#160;&#160;&#160;&#160;&#160;&#160;&#160;&#160;&#160;&#160;&#160;&#160;&#160;&#160;&#160;&#160;&#160;&#160;&#160;&#160;&#160;&#160;&#160;&#160;&#160;&#160;&#160;&#160;&#160;&#160;&#160;&#160;IsDeleted &#160;&#160;&#160;&#160;&#160;&#160;&#160;&#160;&#160;&#160;&#160;&#160;&#160;&#160;&#160;&#160;&#160;&#160;&#160;&#160;&#160;&#160;&#160;&#160;&#160;&#160;&#160;&#160;&#160;&#160;&#160;&#160;&#160;&#160;&#160;&#160;&#160;&#160;</text>
<polygon fill="none" stroke="#99ccff" points="1848,-451 1848,-469 1942,-469 1942,-451 1848,-451"/>
<text text-anchor="start" x="1871" y="-457.2" font-family="Courier,monospace" font-size="11.00">boolean</text>
<polygon fill="none" stroke="#99ccff" points="1112,-433 1112,-451 1848,-451 1848,-433 1112,-433"/>
<text text-anchor="start" x="1115" y="-439.2" font-family="Courier,monospace" font-size="11.00"> &#160;&#160;&#160;&#160;&#160;&#160;&#160;&#160;&#160;&#160;&#160;&#160;&#160;&#160;&#160;&#160;&#160;&#160;&#160;&#160;&#160;&#160;&#160;&#160;&#160;&#160;&#160;&#160;&#160;&#160;&#160;&#160;&#160;&#160;&#160;&#160;&#160;&#160;&#160;&#160;Name &#160;&#160;&#160;&#160;&#160;&#160;&#160;&#160;&#160;&#160;&#160;&#160;&#160;&#160;&#160;&#160;&#160;&#160;&#160;&#160;&#160;&#160;&#160;&#160;&#160;&#160;&#160;&#160;&#160;&#160;&#160;&#160;&#160;&#160;&#160;&#160;&#160;&#160;</text>
<polygon fill="none" stroke="#99ccff" points="1848,-433 1848,-451 1942,-451 1942,-433 1848,-433"/>
<text text-anchor="start" x="1857.5" y="-439.2" font-family="Courier,monospace" font-size="11.00">string(255)</text>
<polygon fill="none" stroke="#99ccff" points="1112,-415 1112,-433 1848,-433 1848,-415 1112,-415"/>
<text text-anchor="start" x="1115" y="-421.2" font-family="Courier,monospace" font-size="11.00"> &#160;&#160;&#160;&#160;&#160;&#160;&#160;&#160;&#160;&#160;&#160;&#160;&#160;&#160;&#160;&#160;&#160;&#160;&#160;&#160;&#160;&#160;&#160;&#160;&#160;&#160;&#160;&#160;&#160;&#160;&#160;&#160;&#160;&#160;&#160;&#160;&#160;&#160;&#160;&#160;LastModifiedById &#160;&#160;&#160;&#160;&#160;&#160;&#160;&#160;&#160;&#160;&#160;&#160;&#160;&#160;&#160;&#160;&#160;&#160;&#160;&#160;&#160;&#160;&#160;&#160;&#160;&#160;&#160;&#160;&#160;&#160;&#160;&#160;&#160;&#160;&#160;&#160;&#160;&#160;</text>
<polygon fill="none" stroke="#99ccff" points="1848,-415 1848,-433 1942,-433 1942,-415 1848,-415"/>
<text text-anchor="start" x="1851" y="-421.2" font-family="Courier,monospace" font-size="11.00">reference(18)</text>
<polygon fill="none" stroke="#99ccff" points="1112,-397 1112,-415 1848,-415 1848,-397 1112,-397"/>
<text text-anchor="start" x="1115" y="-403.2" font-family="Courier,monospace" font-size="11.00"> &#160;&#160;&#160;&#160;&#160;&#160;&#160;&#160;&#160;&#160;&#160;&#160;&#160;&#160;&#160;&#160;&#160;&#160;&#160;&#160;&#160;&#160;&#160;&#160;&#160;&#160;&#160;&#160;&#160;&#160;&#160;&#160;&#160;&#160;&#160;&#160;&#160;&#160;&#160;&#160;LatestOrgMetricScanSummaryId &#160;&#160;&#160;&#160;&#160;&#160;&#160;&#160;&#160;&#160;&#160;&#160;&#160;&#160;&#160;&#160;&#160;&#160;&#160;&#160;&#160;&#160;&#160;&#160;&#160;&#160;&#160;&#160;&#160;&#160;&#160;&#160;&#160;&#160;&#160;&#160;&#160;&#160;</text>
<polygon fill="none" stroke="#99ccff" points="1848,-397 1848,-415 1942,-415 1942,-397 1848,-397"/>
<text text-anchor="start" x="1851" y="-403.2" font-family="Courier,monospace" font-size="11.00">reference(18)</text>
<polygon fill="none" stroke="#99ccff" points="1112,-379 1112,-397 1848,-397 1848,-379 1112,-379"/>
<text text-anchor="start" x="1115" y="-385.2" font-family="Courier,monospace" font-size="11.00"> &#160;&#160;&#160;&#160;&#160;&#160;&#160;&#160;&#160;&#160;&#160;&#160;&#160;&#160;&#160;&#160;&#160;&#160;&#160;&#160;&#160;&#160;&#160;&#160;&#160;&#160;&#160;&#160;&#160;&#160;&#160;&#160;&#160;&#160;&#160;&#160;&#160;&#160;&#160;&#160;FeatureType &#160;&#160;&#160;&#160;&#160;&#160;&#160;&#160;&#160;&#160;&#160;&#160;&#160;&#160;&#160;&#160;&#160;&#160;&#160;&#160;&#160;&#160;&#160;&#160;&#160;&#160;&#160;&#160;&#160;&#160;&#160;&#160;&#160;&#160;&#160;&#160;&#160;&#160;</text>
<polygon fill="none" stroke="#99ccff" points="1848,-379 1848,-397 1942,-397 1942,-379 1848,-379"/>
<text text-anchor="start" x="1854" y="-385.2" font-family="Courier,monospace" font-size="11.00">picklist(40)</text>
<polygon fill="none" stroke="#99ccff" points="1112,-361 1112,-379 1848,-379 1848,-361 1112,-361"/>
<text text-anchor="start" x="1115" y="-367.2" font-family="Courier,monospace" font-size="11.00"> &#160;&#160;&#160;&#160;&#160;&#160;&#160;&#160;&#160;&#160;&#160;&#160;&#160;&#160;&#160;&#160;&#160;&#160;&#160;&#160;&#160;&#160;&#160;&#160;&#160;&#160;&#160;&#160;&#160;&#160;&#160;&#160;&#160;&#160;&#160;&#160;&#160;&#160;&#160;&#160;Category &#160;&#160;&#160;&#160;&#160;&#160;&#160;&#160;&#160;&#160;&#160;&#160;&#160;&#160;&#160;&#160;&#160;&#160;&#160;&#160;&#160;&#160;&#160;&#160;&#160;&#160;&#160;&#160;&#160;&#160;&#160;&#160;&#160;&#160;&#160;&#160;&#160;&#160;</text>
<polygon fill="none" stroke="#99ccff" points="1848,-361 1848,-379 1942,-379 1942,-361 1848,-361"/>
<text text-anchor="start" x="1854" y="-367.2" font-family="Courier,monospace" font-size="11.00">picklist(40)</text>
<polygon fill="none" stroke="#99ccff" points="1111,-360 1111,-506 1943,-506 1943,-360 1111,-360"/>
</a>
</g>
</g>
<!-- User -->
<g id="node2" class="node">
<title>User</title>
<text text-anchor="middle" x="27" y="-342.2" font-family="Courier,monospace" font-size="11.00">User</text>
</g>
<!-- OrgMetric&#45;&gt;User -->
<g id="edge1" class="edge">
<title>OrgMetric:w&#45;&gt;User:e</title>
<path fill="none" stroke="#ff99cc" d="M1096.56,-424.1C1032.12,-425.01 1011.04,-431.92 940,-434 594.37,-444.1 493.03,-533.92 162,-434 116.28,-420.2 71.85,-385.13 47.39,-363.36"/>
<polygon fill="#ff99cc" stroke="#ff99cc" points="1103,-424.05 1111.02,-427.6 1107,-424.03 1111,-424 1111,-424 1111,-424 1107,-424.03 1110.98,-420.4 1103,-424.05 1103,-424.05"/>
<ellipse fill="none" stroke="#ff99cc" cx="1099.8" cy="-424.08" rx="3.2" ry="3.2"/>
<text text-anchor="middle" x="551" y="-482.8" font-family="Monaco" font-size="9.00">LastModifiedBy</text>
</g>
<!-- OrgMetricScanSummary -->
<g id="node3" class="node">
<title>OrgMetricScanSummary</title>
<g id="a_node3"><a xlink:href="#" xlink:title=" OrgMetricScanSummary ">
<polygon fill="#ffeeff" stroke="transparent" points="162,-173 162,-427 940,-427 940,-173 162,-173"/>
<polygon fill="lightblue" stroke="transparent" points="163,-408 163,-426 939,-426 939,-408 163,-408"/>
<polygon fill="none" stroke="#99ccff" points="163,-408 163,-426 939,-426 939,-408 163,-408"/>
<text text-anchor="start" x="483" y="-415.2" font-family="Courier,monospace" font-weight="bold" font-size="11.00">OrgMetricScanSummary</text>
<polygon fill="#99ccff" stroke="transparent" points="163,-390 163,-408 845,-408 845,-390 163,-390"/>
<polygon fill="none" stroke="#99ccff" points="163,-390 163,-408 845,-408 845,-390 163,-390"/>
<text text-anchor="start" x="166" y="-397.2" font-family="Courier,monospace" font-size="11.00"> &#160;&#160;&#160;&#160;&#160;&#160;&#160;&#160;&#160;&#160;&#160;&#160;&#160;&#160;&#160;&#160;&#160;&#160;&#160;&#160;&#160;&#160;&#160;&#160;&#160;&#160;&#160;&#160;&#160;&#160;&#160;&#160;&#160;&#160;&#160;&#160;&#160;&#160;&#160;&#160;&#160;&#160;</text>
<text text-anchor="start" x="457" y="-397.2" font-family="Courier,monospace" font-weight="bold" font-size="11.00">Id</text>
<text text-anchor="start" x="471" y="-397.2" font-family="Courier,monospace" font-size="11.00"> &#160;&#160;&#160;&#160;&#160;&#160;&#160;&#160;&#160;&#160;&#160;&#160;&#160;&#160;&#160;&#160;&#160;&#160;&#160;&#160;&#160;&#160;&#160;&#160;&#160;&#160;&#160;&#160;&#160;&#160;&#160;&#160;&#160;&#160;&#160;&#160;&#160;&#160;&#160;</text>
<polygon fill="none" stroke="#99ccff" points="845,-390 845,-408 939,-408 939,-390 845,-390"/>
<text text-anchor="start" x="871.5" y="-396.2" font-family="Courier,monospace" font-size="11.00">id(18)</text>
<polygon fill="none" stroke="#99ccff" points="163,-372 163,-390 845,-390 845,-372 163,-372"/>
<text text-anchor="start" x="166" y="-378.2" font-family="Courier,monospace" font-size="11.00"> &#160;&#160;&#160;&#160;&#160;&#160;&#160;&#160;&#160;&#160;&#160;&#160;&#160;&#160;&#160;&#160;&#160;&#160;&#160;&#160;&#160;&#160;&#160;&#160;&#160;&#160;&#160;&#160;&#160;&#160;&#160;&#160;&#160;&#160;&#160;&#160;&#160;&#160;&#160;&#160;IsDeleted &#160;&#160;&#160;&#160;&#160;&#160;&#160;&#160;&#160;&#160;&#160;&#160;&#160;&#160;&#160;&#160;&#160;&#160;&#160;&#160;&#160;&#160;&#160;&#160;&#160;&#160;&#160;&#160;&#160;&#160;&#160;&#160;&#160;&#160;&#160;&#160;&#160;&#160;</text>
<polygon fill="none" stroke="#99ccff" points="845,-372 845,-390 939,-390 939,-372 845,-372"/>
<text text-anchor="start" x="868" y="-378.2" font-family="Courier,monospace" font-size="11.00">boolean</text>
<polygon fill="none" stroke="#99ccff" points="163,-354 163,-372 845,-372 845,-354 163,-354"/>
<text text-anchor="start" x="166" y="-360.2" font-family="Courier,monospace" font-size="11.00"> &#160;&#160;&#160;&#160;&#160;&#160;&#160;&#160;&#160;&#160;&#160;&#160;&#160;&#160;&#160;&#160;&#160;&#160;&#160;&#160;&#160;&#160;&#160;&#160;&#160;&#160;&#160;&#160;&#160;&#160;&#160;&#160;&#160;&#160;&#160;&#160;&#160;&#160;&#160;&#160;Name &#160;&#160;&#160;&#160;&#160;&#160;&#160;&#160;&#160;&#160;&#160;&#160;&#160;&#160;&#160;&#160;&#160;&#160;&#160;&#160;&#160;&#160;&#160;&#160;&#160;&#160;&#160;&#160;&#160;&#160;&#160;&#160;&#160;&#160;&#160;&#160;&#160;&#160;</text>
<polygon fill="none" stroke="#99ccff" points="845,-354 845,-372 939,-372 939,-354 845,-354"/>
<text text-anchor="start" x="854.5" y="-360.2" font-family="Courier,monospace" font-size="11.00">string(255)</text>
<polygon fill="none" stroke="#99ccff" points="163,-336 163,-354 845,-354 845,-336 163,-336"/>
<text text-anchor="start" x="166" y="-342.2" font-family="Courier,monospace" font-size="11.00"> &#160;&#160;&#160;&#160;&#160;&#160;&#160;&#160;&#160;&#160;&#160;&#160;&#160;&#160;&#160;&#160;&#160;&#160;&#160;&#160;&#160;&#160;&#160;&#160;&#160;&#160;&#160;&#160;&#160;&#160;&#160;&#160;&#160;&#160;&#160;&#160;&#160;&#160;&#160;&#160;LastModifiedById &#160;&#160;&#160;&#160;&#160;&#160;&#160;&#160;&#160;&#160;&#160;&#160;&#160;&#160;&#160;&#160;&#160;&#160;&#160;&#160;&#160;&#160;&#160;&#160;&#160;&#160;&#160;&#160;&#160;&#160;&#160;&#160;&#160;&#160;&#160;&#160;&#160;&#160;</text>
<polygon fill="none" stroke="#99ccff" points="845,-336 845,-354 939,-354 939,-336 845,-336"/>
<text text-anchor="start" x="848" y="-342.2" font-family="Courier,monospace" font-size="11.00">reference(18)</text>
<polygon fill="none" stroke="#99ccff" points="163,-318 163,-336 845,-336 845,-318 163,-318"/>
<text text-anchor="start" x="166" y="-324.2" font-family="Courier,monospace" font-size="11.00"> &#160;&#160;&#160;&#160;&#160;&#160;&#160;&#160;&#160;&#160;&#160;&#160;&#160;&#160;&#160;&#160;&#160;&#160;&#160;&#160;&#160;&#160;&#160;&#160;&#160;&#160;&#160;&#160;&#160;&#160;&#160;&#160;&#160;&#160;&#160;&#160;&#160;&#160;&#160;&#160;OrgMetricId &#160;&#160;&#160;&#160;&#160;&#160;&#160;&#160;&#160;&#160;&#160;&#160;&#160;&#160;&#160;&#160;&#160;&#160;&#160;&#160;&#160;&#160;&#160;&#160;&#160;&#160;&#160;&#160;&#160;&#160;&#160;&#160;&#160;&#160;&#160;&#160;&#160;&#160;</text>
<polygon fill="none" stroke="#99ccff" points="845,-318 845,-336 939,-336 939,-318 845,-318"/>
<text text-anchor="start" x="848" y="-324.2" font-family="Courier,monospace" font-size="11.00">reference(18)</text>
<polygon fill="none" stroke="#99ccff" points="163,-300 163,-318 845,-318 845,-300 163,-300"/>
<text text-anchor="start" x="166" y="-306.2" font-family="Courier,monospace" font-size="11.00"> &#160;&#160;&#160;&#160;&#160;&#160;&#160;&#160;&#160;&#160;&#160;&#160;&#160;&#160;&#160;&#160;&#160;&#160;&#160;&#160;&#160;&#160;&#160;&#160;&#160;&#160;&#160;&#160;&#160;&#160;&#160;&#160;&#160;&#160;&#160;&#160;&#160;&#160;&#160;&#160;Status &#160;&#160;&#160;&#160;&#160;&#160;&#160;&#160;&#160;&#160;&#160;&#160;&#160;&#160;&#160;&#160;&#160;&#160;&#160;&#160;&#160;&#160;&#160;&#160;&#160;&#160;&#160;&#160;&#160;&#160;&#160;&#160;&#160;&#160;&#160;&#160;&#160;&#160;</text>
<polygon fill="none" stroke="#99ccff" points="845,-300 845,-318 939,-318 939,-300 845,-300"/>
<text text-anchor="start" x="851" y="-306.2" font-family="Courier,monospace" font-size="11.00">picklist(40)</text>
<polygon fill="none" stroke="#99ccff" points="163,-282 163,-300 845,-300 845,-282 163,-282"/>
<text text-anchor="start" x="166" y="-288.2" font-family="Courier,monospace" font-size="11.00"> &#160;&#160;&#160;&#160;&#160;&#160;&#160;&#160;&#160;&#160;&#160;&#160;&#160;&#160;&#160;&#160;&#160;&#160;&#160;&#160;&#160;&#160;&#160;&#160;&#160;&#160;&#160;&#160;&#160;&#160;&#160;&#160;&#160;&#160;&#160;&#160;&#160;&#160;&#160;&#160;ImplementationEffort &#160;&#160;&#160;&#160;&#160;&#160;&#160;&#160;&#160;&#160;&#160;&#160;&#160;&#160;&#160;&#160;&#160;&#160;&#160;&#160;&#160;&#160;&#160;&#160;&#160;&#160;&#160;&#160;&#160;&#160;&#160;&#160;&#160;&#160;&#160;&#160;&#160;&#160;</text>
<polygon fill="none" stroke="#99ccff" points="845,-282 845,-300 939,-300 939,-282 845,-282"/>
<text text-anchor="start" x="851" y="-288.2" font-family="Courier,monospace" font-size="11.00">picklist(40)</text>
<polygon fill="none" stroke="#99ccff" points="163,-264 163,-282 845,-282 845,-264 163,-264"/>
<text text-anchor="start" x="166" y="-270.2" font-family="Courier,monospace" font-size="11.00"> &#160;&#160;&#160;&#160;&#160;&#160;&#160;&#160;&#160;&#160;&#160;&#160;&#160;&#160;&#160;&#160;&#160;&#160;&#160;&#160;&#160;&#160;&#160;&#160;&#160;&#160;&#160;&#160;&#160;&#160;&#160;&#160;&#160;&#160;&#160;&#160;&#160;&#160;&#160;&#160;ErrorMessage &#160;&#160;&#160;&#160;&#160;&#160;&#160;&#160;&#160;&#160;&#160;&#160;&#160;&#160;&#160;&#160;&#160;&#160;&#160;&#160;&#160;&#160;&#160;&#160;&#160;&#160;&#160;&#160;&#160;&#160;&#160;&#160;&#160;&#160;&#160;&#160;&#160;&#160;</text>
<polygon fill="none" stroke="#99ccff" points="845,-264 845,-282 939,-282 939,-264 845,-264"/>
<text text-anchor="start" x="851" y="-270.2" font-family="Courier,monospace" font-size="11.00">picklist(40)</text>
<polygon fill="none" stroke="#99ccff" points="163,-246 163,-264 845,-264 845,-246 163,-246"/>
<text text-anchor="start" x="166" y="-252.2" font-family="Courier,monospace" font-size="11.00"> &#160;&#160;&#160;&#160;&#160;&#160;&#160;&#160;&#160;&#160;&#160;&#160;&#160;&#160;&#160;&#160;&#160;&#160;&#160;&#160;&#160;&#160;&#160;&#160;&#160;&#160;&#160;&#160;&#160;&#160;&#160;&#160;&#160;&#160;&#160;&#160;&#160;&#160;&#160;&#160;ItemCount &#160;&#160;&#160;&#160;&#160;&#160;&#160;&#160;&#160;&#160;&#160;&#160;&#160;&#160;&#160;&#160;&#160;&#160;&#160;&#160;&#160;&#160;&#160;&#160;&#160;&#160;&#160;&#160;&#160;&#160;&#160;&#160;&#160;&#160;&#160;&#160;&#160;&#160;</text>
<polygon fill="none" stroke="#99ccff" points="845,-246 845,-264 939,-264 939,-246 845,-246"/>
<text text-anchor="start" x="881.5" y="-252.2" font-family="Courier,monospace" font-size="11.00">int</text>
<polygon fill="none" stroke="#99ccff" points="163,-228 163,-246 845,-246 845,-228 163,-228"/>
<text text-anchor="start" x="166" y="-234.2" font-family="Courier,monospace" font-size="11.00"> &#160;&#160;&#160;&#160;&#160;&#160;&#160;&#160;&#160;&#160;&#160;&#160;&#160;&#160;&#160;&#160;&#160;&#160;&#160;&#160;&#160;&#160;&#160;&#160;&#160;&#160;&#160;&#160;&#160;&#160;&#160;&#160;&#160;&#160;&#160;&#160;&#160;&#160;&#160;&#160;FeatureLimit &#160;&#160;&#160;&#160;&#160;&#160;&#160;&#160;&#160;&#160;&#160;&#160;&#160;&#160;&#160;&#160;&#160;&#160;&#160;&#160;&#160;&#160;&#160;&#160;&#160;&#160;&#160;&#160;&#160;&#160;&#160;&#160;&#160;&#160;&#160;&#160;&#160;&#160;</text>
<polygon fill="none" stroke="#99ccff" points="845,-228 845,-246 939,-246 939,-228 845,-228"/>
<text text-anchor="start" x="881.5" y="-234.2" font-family="Courier,monospace" font-size="11.00">int</text>
<polygon fill="none" stroke="#99ccff" points="163,-210 163,-228 845,-228 845,-210 163,-210"/>
<text text-anchor="start" x="166" y="-216.2" font-family="Courier,monospace" font-size="11.00"> &#160;&#160;&#160;&#160;&#160;&#160;&#160;&#160;&#160;&#160;&#160;&#160;&#160;&#160;&#160;&#160;&#160;&#160;&#160;&#160;&#160;&#160;&#160;&#160;&#160;&#160;&#160;&#160;&#160;&#160;&#160;&#160;&#160;&#160;&#160;&#160;&#160;&#160;&#160;&#160;Unit &#160;&#160;&#160;&#160;&#160;&#160;&#160;&#160;&#160;&#160;&#160;&#160;&#160;&#160;&#160;&#160;&#160;&#160;&#160;&#160;&#160;&#160;&#160;&#160;&#160;&#160;&#160;&#160;&#160;&#160;&#160;&#160;&#160;&#160;&#160;&#160;&#160;&#160;</text>
<polygon fill="none" stroke="#99ccff" points="845,-210 845,-228 939,-228 939,-210 845,-210"/>
<text text-anchor="start" x="858" y="-216.2" font-family="Courier,monospace" font-size="11.00">string(64)</text>
<polygon fill="none" stroke="#99ccff" points="163,-192 163,-210 845,-210 845,-192 163,-192"/>
<text text-anchor="start" x="166" y="-198.2" font-family="Courier,monospace" font-size="11.00"> &#160;&#160;&#160;&#160;&#160;&#160;&#160;&#160;&#160;&#160;&#160;&#160;&#160;&#160;&#160;&#160;&#160;&#160;&#160;&#160;&#160;&#160;&#160;&#160;&#160;&#160;&#160;&#160;&#160;&#160;&#160;&#160;&#160;&#160;&#160;&#160;&#160;&#160;&#160;&#160;PercentUsage &#160;&#160;&#160;&#160;&#160;&#160;&#160;&#160;&#160;&#160;&#160;&#160;&#160;&#160;&#160;&#160;&#160;&#160;&#160;&#160;&#160;&#160;&#160;&#160;&#160;&#160;&#160;&#160;&#160;&#160;&#160;&#160;&#160;&#160;&#160;&#160;&#160;&#160;</text>
<polygon fill="none" stroke="#99ccff" points="845,-192 845,-210 939,-210 939,-192 845,-192"/>
<text text-anchor="start" x="868" y="-198.2" font-family="Courier,monospace" font-size="11.00">percent</text>
<polygon fill="none" stroke="#99ccff" points="163,-174 163,-192 845,-192 845,-174 163,-174"/>
<text text-anchor="start" x="166" y="-180.2" font-family="Courier,monospace" font-size="11.00"> &#160;&#160;&#160;&#160;&#160;&#160;&#160;&#160;&#160;&#160;&#160;&#160;&#160;&#160;&#160;&#160;&#160;&#160;&#160;&#160;&#160;&#160;&#160;&#160;&#160;&#160;&#160;&#160;&#160;&#160;&#160;&#160;&#160;&#160;&#160;&#160;&#160;&#160;&#160;&#160;ScanDate &#160;&#160;&#160;&#160;&#160;&#160;&#160;&#160;&#160;&#160;&#160;&#160;&#160;&#160;&#160;&#160;&#160;&#160;&#160;&#160;&#160;&#160;&#160;&#160;&#160;&#160;&#160;&#160;&#160;&#160;&#160;&#160;&#160;&#160;&#160;&#160;&#160;&#160;</text>
<polygon fill="none" stroke="#99ccff" points="845,-174 845,-192 939,-192 939,-174 845,-174"/>
<text text-anchor="start" x="864.5" y="-180.2" font-family="Courier,monospace" font-size="11.00">datetime</text>
<polygon fill="none" stroke="#99ccff" points="162,-173 162,-427 940,-427 940,-173 162,-173"/>
</a>
</g>
</g>
<!-- OrgMetric&#45;&gt;OrgMetricScanSummary -->
<g id="edge2" class="edge">
<title>OrgMetric:w&#45;&gt;OrgMetricScanSummary:e</title>
<path fill="none" stroke="#ff99cc" d="M1096.29,-405.96C990.49,-405.41 958.76,-399 846,-399"/>
<polygon fill="#ff99cc" stroke="#ff99cc" points="1103,-405.98 1110.99,-409.6 1107,-405.99 1111,-406 1111,-406 1111,-406 1107,-405.99 1111.01,-402.4 1103,-405.98 1103,-405.98"/>
<ellipse fill="none" stroke="#ff99cc" cx="1099.8" cy="-405.97" rx="3.2" ry="3.2"/>
<text text-anchor="middle" x="1025.5" y="-407.8" font-family="Monaco" font-size="9.00">LatestOrgMetricScanSummary</text>
</g>
<!-- OrgMetricScanSummary&#45;&gt;OrgMetric -->
<g id="edge4" class="edge">
<title>OrgMetricScanSummary:w&#45;&gt;OrgMetric:e</title>
<path fill="none" stroke="#ff99cc" d="M156.47,-340.71C153.17,-366.68 157.06,-421.03 163,-427 170.62,-434.65 929.21,-437.69 940,-438 965.21,-438.73 1872.22,-478 1847,-478"/>
<polygon fill="#ff99cc" stroke="#ff99cc" points="159,-334.42 165.34,-328.35 160.5,-330.71 162,-327 162,-327 162,-327 160.5,-330.71 158.66,-325.65 159,-334.42 159,-334.42"/>
<ellipse fill="none" stroke="#ff99cc" cx="157.81" cy="-337.39" rx="3.2" ry="3.2"/>
<text text-anchor="middle" x="1025.5" y="-445.8" font-family="Monaco" font-size="9.00">OrgMetric</text>
</g>
<!-- OrgMetricScanSummary&#45;&gt;User -->
<g id="edge3" class="edge">
<title>OrgMetricScanSummary:w&#45;&gt;User:e</title>
<path fill="none" stroke="#ff99cc" d="M147.27,-345C113.64,-345 77.72,-345 54.19,-345"/>
<polygon fill="#ff99cc" stroke="#ff99cc" points="154,-345 162,-348.6 158,-345 162,-345 162,-345 162,-345 158,-345 162,-341.4 154,-345 154,-345"/>
<ellipse fill="none" stroke="#ff99cc" cx="150.8" cy="-345" rx="3.2" ry="3.2"/>
<text text-anchor="middle" x="108" y="-347.8" font-family="Monaco" font-size="9.00">LastModifiedBy</text>
</g>
<!-- OrgMetricScanResult -->
<g id="node4" class="node">
<title>OrgMetricScanResult</title>
<g id="a_node4"><a xlink:href="#" xlink:title=" OrgMetricScanResult ">
<polygon fill="#ffeeff" stroke="transparent" points="1131.5,-18 1131.5,-290 1922.5,-290 1922.5,-18 1131.5,-18"/>
<polygon fill="lightblue" stroke="transparent" points="1133,-271 1133,-289 1922,-289 1922,-271 1133,-271"/>
<polygon fill="none" stroke="#99ccff" points="1133,-271 1133,-289 1922,-289 1922,-271 1133,-271"/>
<text text-anchor="start" x="1463" y="-278.2" font-family="Courier,monospace" font-weight="bold" font-size="11.00">OrgMetricScanResult</text>
<polygon fill="#99ccff" stroke="transparent" points="1133,-253 1133,-271 1828,-271 1828,-253 1133,-253"/>
<polygon fill="none" stroke="#99ccff" points="1133,-253 1133,-271 1828,-271 1828,-253 1133,-253"/>
<text text-anchor="start" x="1136" y="-260.2" font-family="Courier,monospace" font-size="11.00"> &#160;&#160;&#160;&#160;&#160;&#160;&#160;&#160;&#160;&#160;&#160;&#160;&#160;&#160;&#160;&#160;&#160;&#160;&#160;&#160;&#160;&#160;&#160;&#160;&#160;&#160;&#160;&#160;&#160;&#160;&#160;&#160;&#160;&#160;&#160;&#160;&#160;&#160;&#160;&#160;&#160;&#160;</text>
<text text-anchor="start" x="1427" y="-260.2" font-family="Courier,monospace" font-weight="bold" font-size="11.00">Id</text>
<text text-anchor="start" x="1441" y="-260.2" font-family="Courier,monospace" font-size="11.00"> &#160;&#160;&#160;&#160;&#160;&#160;&#160;&#160;&#160;&#160;&#160;&#160;&#160;&#160;&#160;&#160;&#160;&#160;&#160;&#160;&#160;&#160;&#160;&#160;&#160;&#160;&#160;&#160;&#160;&#160;&#160;&#160;&#160;&#160;&#160;&#160;&#160;&#160;&#160;</text>
<polygon fill="none" stroke="#99ccff" points="1828,-253 1828,-271 1922,-271 1922,-253 1828,-253"/>
<text text-anchor="start" x="1854.5" y="-259.2" font-family="Courier,monospace" font-size="11.00">id(18)</text>
<polygon fill="none" stroke="#99ccff" points="1133,-235 1133,-253 1828,-253 1828,-235 1133,-235"/>
<text text-anchor="start" x="1136" y="-241.2" font-family="Courier,monospace" font-size="11.00"> &#160;&#160;&#160;&#160;&#160;&#160;&#160;&#160;&#160;&#160;&#160;&#160;&#160;&#160;&#160;&#160;&#160;&#160;&#160;&#160;&#160;&#160;&#160;&#160;&#160;&#160;&#160;&#160;&#160;&#160;&#160;&#160;&#160;&#160;&#160;&#160;&#160;&#160;&#160;&#160;IsDeleted &#160;&#160;&#160;&#160;&#160;&#160;&#160;&#160;&#160;&#160;&#160;&#160;&#160;&#160;&#160;&#160;&#160;&#160;&#160;&#160;&#160;&#160;&#160;&#160;&#160;&#160;&#160;&#160;&#160;&#160;&#160;&#160;&#160;&#160;&#160;&#160;&#160;&#160;</text>
<polygon fill="none" stroke="#99ccff" points="1828,-235 1828,-253 1922,-253 1922,-235 1828,-235"/>
<text text-anchor="start" x="1851" y="-241.2" font-family="Courier,monospace" font-size="11.00">boolean</text>
<polygon fill="none" stroke="#99ccff" points="1133,-217 1133,-235 1828,-235 1828,-217 1133,-217"/>
<text text-anchor="start" x="1136" y="-223.2" font-family="Courier,monospace" font-size="11.00"> &#160;&#160;&#160;&#160;&#160;&#160;&#160;&#160;&#160;&#160;&#160;&#160;&#160;&#160;&#160;&#160;&#160;&#160;&#160;&#160;&#160;&#160;&#160;&#160;&#160;&#160;&#160;&#160;&#160;&#160;&#160;&#160;&#160;&#160;&#160;&#160;&#160;&#160;&#160;&#160;Name &#160;&#160;&#160;&#160;&#160;&#160;&#160;&#160;&#160;&#160;&#160;&#160;&#160;&#160;&#160;&#160;&#160;&#160;&#160;&#160;&#160;&#160;&#160;&#160;&#160;&#160;&#160;&#160;&#160;&#160;&#160;&#160;&#160;&#160;&#160;&#160;&#160;&#160;</text>
<polygon fill="none" stroke="#99ccff" points="1828,-217 1828,-235 1922,-235 1922,-217 1828,-217"/>
<text text-anchor="start" x="1837.5" y="-223.2" font-family="Courier,monospace" font-size="11.00">string(255)</text>
<polygon fill="none" stroke="#99ccff" points="1133,-199 1133,-217 1828,-217 1828,-199 1133,-199"/>
<text text-anchor="start" x="1136" y="-205.2" font-family="Courier,monospace" font-size="11.00"> &#160;&#160;&#160;&#160;&#160;&#160;&#160;&#160;&#160;&#160;&#160;&#160;&#160;&#160;&#160;&#160;&#160;&#160;&#160;&#160;&#160;&#160;&#160;&#160;&#160;&#160;&#160;&#160;&#160;&#160;&#160;&#160;&#160;&#160;&#160;&#160;&#160;&#160;&#160;&#160;LastModifiedById &#160;&#160;&#160;&#160;&#160;&#160;&#160;&#160;&#160;&#160;&#160;&#160;&#160;&#160;&#160;&#160;&#160;&#160;&#160;&#160;&#160;&#160;&#160;&#160;&#160;&#160;&#160;&#160;&#160;&#160;&#160;&#160;&#160;&#160;&#160;&#160;&#160;&#160;</text>
<polygon fill="none" stroke="#99ccff" points="1828,-199 1828,-217 1922,-217 1922,-199 1828,-199"/>
<text text-anchor="start" x="1831" y="-205.2" font-family="Courier,monospace" font-size="11.00">reference(18)</text>
<polygon fill="none" stroke="#99ccff" points="1133,-181 1133,-199 1828,-199 1828,-181 1133,-181"/>
<text text-anchor="start" x="1136" y="-187.2" font-family="Courier,monospace" font-size="11.00"> &#160;&#160;&#160;&#160;&#160;&#160;&#160;&#160;&#160;&#160;&#160;&#160;&#160;&#160;&#160;&#160;&#160;&#160;&#160;&#160;&#160;&#160;&#160;&#160;&#160;&#160;&#160;&#160;&#160;&#160;&#160;&#160;&#160;&#160;&#160;&#160;&#160;&#160;&#160;&#160;OrgMetricScanSummaryId &#160;&#160;&#160;&#160;&#160;&#160;&#160;&#160;&#160;&#160;&#160;&#160;&#160;&#160;&#160;&#160;&#160;&#160;&#160;&#160;&#160;&#160;&#160;&#160;&#160;&#160;&#160;&#160;&#160;&#160;&#160;&#160;&#160;&#160;&#160;&#160;&#160;&#160;</text>
<polygon fill="none" stroke="#99ccff" points="1828,-181 1828,-199 1922,-199 1922,-181 1828,-181"/>
<text text-anchor="start" x="1831" y="-187.2" font-family="Courier,monospace" font-size="11.00">reference(18)</text>
<polygon fill="none" stroke="#99ccff" points="1133,-163 1133,-181 1828,-181 1828,-163 1133,-163"/>
<text text-anchor="start" x="1136" y="-169.2" font-family="Courier,monospace" font-size="11.00"> &#160;&#160;&#160;&#160;&#160;&#160;&#160;&#160;&#160;&#160;&#160;&#160;&#160;&#160;&#160;&#160;&#160;&#160;&#160;&#160;&#160;&#160;&#160;&#160;&#160;&#160;&#160;&#160;&#160;&#160;&#160;&#160;&#160;&#160;&#160;&#160;&#160;&#160;&#160;&#160;Url &#160;&#160;&#160;&#160;&#160;&#160;&#160;&#160;&#160;&#160;&#160;&#160;&#160;&#160;&#160;&#160;&#160;&#160;&#160;&#160;&#160;&#160;&#160;&#160;&#160;&#160;&#160;&#160;&#160;&#160;&#160;&#160;&#160;&#160;&#160;&#160;&#160;&#160;</text>
<polygon fill="none" stroke="#99ccff" points="1828,-163 1828,-181 1922,-181 1922,-163 1828,-163"/>
<text text-anchor="start" x="1847.5" y="-169.2" font-family="Courier,monospace" font-size="11.00">url(255)</text>
<polygon fill="none" stroke="#99ccff" points="1133,-145 1133,-163 1828,-163 1828,-145 1133,-145"/>
<text text-anchor="start" x="1136" y="-151.2" font-family="Courier,monospace" font-size="11.00"> &#160;&#160;&#160;&#160;&#160;&#160;&#160;&#160;&#160;&#160;&#160;&#160;&#160;&#160;&#160;&#160;&#160;&#160;&#160;&#160;&#160;&#160;&#160;&#160;&#160;&#160;&#160;&#160;&#160;&#160;&#160;&#160;&#160;&#160;&#160;&#160;&#160;&#160;&#160;&#160;Object &#160;&#160;&#160;&#160;&#160;&#160;&#160;&#160;&#160;&#160;&#160;&#160;&#160;&#160;&#160;&#160;&#160;&#160;&#160;&#160;&#160;&#160;&#160;&#160;&#160;&#160;&#160;&#160;&#160;&#160;&#160;&#160;&#160;&#160;&#160;&#160;&#160;&#160;</text>
<polygon fill="none" stroke="#99ccff" points="1828,-145 1828,-163 1922,-163 1922,-145 1828,-145"/>
<text text-anchor="start" x="1837.5" y="-151.2" font-family="Courier,monospace" font-size="11.00">string(255)</text>
<polygon fill="none" stroke="#99ccff" points="1133,-127 1133,-145 1828,-145 1828,-127 1133,-127"/>
<text text-anchor="start" x="1136" y="-133.2" font-family="Courier,monospace" font-size="11.00"> &#160;&#160;&#160;&#160;&#160;&#160;&#160;&#160;&#160;&#160;&#160;&#160;&#160;&#160;&#160;&#160;&#160;&#160;&#160;&#160;&#160;&#160;&#160;&#160;&#160;&#160;&#160;&#160;&#160;&#160;&#160;&#160;&#160;&#160;&#160;&#160;&#160;&#160;&#160;&#160;Date &#160;&#160;&#160;&#160;&#160;&#160;&#160;&#160;&#160;&#160;&#160;&#160;&#160;&#160;&#160;&#160;&#160;&#160;&#160;&#160;&#160;&#160;&#160;&#160;&#160;&#160;&#160;&#160;&#160;&#160;&#160;&#160;&#160;&#160;&#160;&#160;&#160;&#160;</text>
<polygon fill="none" stroke="#99ccff" points="1828,-127 1828,-145 1922,-145 1922,-127 1828,-127"/>
<text text-anchor="start" x="1847.5" y="-133.2" font-family="Courier,monospace" font-size="11.00">datetime</text>
<polygon fill="none" stroke="#99ccff" points="1133,-109 1133,-127 1828,-127 1828,-109 1133,-109"/>
<text text-anchor="start" x="1136" y="-115.2" font-family="Courier,monospace" font-size="11.00"> &#160;&#160;&#160;&#160;&#160;&#160;&#160;&#160;&#160;&#160;&#160;&#160;&#160;&#160;&#160;&#160;&#160;&#160;&#160;&#160;&#160;&#160;&#160;&#160;&#160;&#160;&#160;&#160;&#160;&#160;&#160;&#160;&#160;&#160;&#160;&#160;&#160;&#160;&#160;&#160;Type &#160;&#160;&#160;&#160;&#160;&#160;&#160;&#160;&#160;&#160;&#160;&#160;&#160;&#160;&#160;&#160;&#160;&#160;&#160;&#160;&#160;&#160;&#160;&#160;&#160;&#160;&#160;&#160;&#160;&#160;&#160;&#160;&#160;&#160;&#160;&#160;&#160;&#160;</text>
<polygon fill="none" stroke="#99ccff" points="1828,-109 1828,-127 1922,-127 1922,-109 1828,-109"/>
<text text-anchor="start" x="1837.5" y="-115.2" font-family="Courier,monospace" font-size="11.00">string(255)</text>
<polygon fill="none" stroke="#99ccff" points="1133,-91 1133,-109 1828,-109 1828,-91 1133,-91"/>
<text text-anchor="start" x="1136" y="-97.2" font-family="Courier,monospace" font-size="11.00"> &#160;&#160;&#160;&#160;&#160;&#160;&#160;&#160;&#160;&#160;&#160;&#160;&#160;&#160;&#160;&#160;&#160;&#160;&#160;&#160;&#160;&#160;&#160;&#160;&#160;&#160;&#160;&#160;&#160;&#160;&#160;&#160;&#160;&#160;&#160;&#160;&#160;&#160;&#160;&#160;Profile &#160;&#160;&#160;&#160;&#160;&#160;&#160;&#160;&#160;&#160;&#160;&#160;&#160;&#160;&#160;&#160;&#160;&#160;&#160;&#160;&#160;&#160;&#160;&#160;&#160;&#160;&#160;&#160;&#160;&#160;&#160;&#160;&#160;&#160;&#160;&#160;&#160;&#160;</text>
<polygon fill="none" stroke="#99ccff" points="1828,-91 1828,-109 1922,-109 1922,-91 1828,-91"/>
<text text-anchor="start" x="1864.5" y="-97.2" font-family="Courier,monospace" font-size="11.00">int</text>
<polygon fill="none" stroke="#99ccff" points="1133,-73 1133,-91 1828,-91 1828,-73 1133,-73"/>
<text text-anchor="start" x="1136" y="-79.2" font-family="Courier,monospace" font-size="11.00"> &#160;&#160;&#160;&#160;&#160;&#160;&#160;&#160;&#160;&#160;&#160;&#160;&#160;&#160;&#160;&#160;&#160;&#160;&#160;&#160;&#160;&#160;&#160;&#160;&#160;&#160;&#160;&#160;&#160;&#160;&#160;&#160;&#160;&#160;&#160;&#160;&#160;&#160;&#160;&#160;User &#160;&#160;&#160;&#160;&#160;&#160;&#160;&#160;&#160;&#160;&#160;&#160;&#160;&#160;&#160;&#160;&#160;&#160;&#160;&#160;&#160;&#160;&#160;&#160;&#160;&#160;&#160;&#160;&#160;&#160;&#160;&#160;&#160;&#160;&#160;&#160;&#160;&#160;</text>
<polygon fill="none" stroke="#99ccff" points="1828,-73 1828,-91 1922,-91 1922,-73 1828,-73"/>
<text text-anchor="start" x="1837.5" y="-79.2" font-family="Courier,monospace" font-size="11.00">string(255)</text>
<polygon fill="none" stroke="#99ccff" points="1133,-55 1133,-73 1828,-73 1828,-55 1133,-55"/>
<text text-anchor="start" x="1136" y="-61.2" font-family="Courier,monospace" font-size="11.00"> &#160;&#160;&#160;&#160;&#160;&#160;&#160;&#160;&#160;&#160;&#160;&#160;&#160;&#160;&#160;&#160;&#160;&#160;&#160;&#160;&#160;&#160;&#160;&#160;&#160;&#160;&#160;&#160;&#160;&#160;&#160;&#160;&#160;&#160;&#160;&#160;&#160;&#160;&#160;&#160;Quantity &#160;&#160;&#160;&#160;&#160;&#160;&#160;&#160;&#160;&#160;&#160;&#160;&#160;&#160;&#160;&#160;&#160;&#160;&#160;&#160;&#160;&#160;&#160;&#160;&#160;&#160;&#160;&#160;&#160;&#160;&#160;&#160;&#160;&#160;&#160;&#160;&#160;&#160;</text>
<polygon fill="none" stroke="#99ccff" points="1828,-55 1828,-73 1922,-73 1922,-55 1828,-55"/>
<text text-anchor="start" x="1864.5" y="-61.2" font-family="Courier,monospace" font-size="11.00">int</text>
<polygon fill="none" stroke="#99ccff" points="1133,-37 1133,-55 1828,-55 1828,-37 1133,-37"/>
<text text-anchor="start" x="1136" y="-43.2" font-family="Courier,monospace" font-size="11.00"> &#160;&#160;&#160;&#160;&#160;&#160;&#160;&#160;&#160;&#160;&#160;&#160;&#160;&#160;&#160;&#160;&#160;&#160;&#160;&#160;&#160;&#160;&#160;&#160;&#160;&#160;&#160;&#160;&#160;&#160;&#160;&#160;&#160;&#160;&#160;&#160;&#160;&#160;&#160;&#160;ItemStatus &#160;&#160;&#160;&#160;&#160;&#160;&#160;&#160;&#160;&#160;&#160;&#160;&#160;&#160;&#160;&#160;&#160;&#160;&#160;&#160;&#160;&#160;&#160;&#160;&#160;&#160;&#160;&#160;&#160;&#160;&#160;&#160;&#160;&#160;&#160;&#160;&#160;&#160;</text>
<polygon fill="none" stroke="#99ccff" points="1828,-37 1828,-55 1922,-55 1922,-37 1828,-37"/>
<text text-anchor="start" x="1834" y="-43.2" font-family="Courier,monospace" font-size="11.00">picklist(40)</text>
<polygon fill="none" stroke="#99ccff" points="1133,-19 1133,-37 1828,-37 1828,-19 1133,-19"/>
<text text-anchor="start" x="1136" y="-25.2" font-family="Courier,monospace" font-size="11.00"> &#160;&#160;&#160;&#160;&#160;&#160;&#160;&#160;&#160;&#160;&#160;&#160;&#160;&#160;&#160;&#160;&#160;&#160;&#160;&#160;&#160;&#160;&#160;&#160;&#160;&#160;&#160;&#160;&#160;&#160;&#160;&#160;&#160;&#160;&#160;&#160;&#160;&#160;&#160;&#160;Flags &#160;&#160;&#160;&#160;&#160;&#160;&#160;&#160;&#160;&#160;&#160;&#160;&#160;&#160;&#160;&#160;&#160;&#160;&#160;&#160;&#160;&#160;&#160;&#160;&#160;&#160;&#160;&#160;&#160;&#160;&#160;&#160;&#160;&#160;&#160;&#160;&#160;&#160;</text>
<polygon fill="none" stroke="#99ccff" points="1828,-19 1828,-37 1922,-37 1922,-19 1828,-19"/>
<text text-anchor="start" x="1864.5" y="-25.2" font-family="Courier,monospace" font-size="11.00">int</text>
<polygon fill="none" stroke="#99ccff" points="1131.5,-18 1131.5,-290 1922.5,-290 1922.5,-18 1131.5,-18"/>
</a>
</g>
</g>
<!-- OrgMetricScanResult&#45;&gt;User -->
<g id="edge5" class="edge">
<title>OrgMetricScanResult:w&#45;&gt;User:e</title>
<path fill="none" stroke="#ff99cc" d="M1117.79,-205.06C1110.46,-201.56 1105.59,-195.72 1094,-192 1027.18,-170.52 1009.75,-164.83 940,-157 596.38,-118.44 469.37,1.38 162,-157 90.92,-193.62 49.25,-287.34 34.31,-326.92"/>
<polygon fill="#ff99cc" stroke="#ff99cc" points="1124.17,-206.38 1131.27,-211.53 1128.08,-207.19 1132,-208 1132,-208 1132,-208 1128.08,-207.19 1132.73,-204.47 1124.17,-206.38 1124.17,-206.38"/>
<ellipse fill="none" stroke="#ff99cc" cx="1121.03" cy="-205.73" rx="3.2" ry="3.2"/>
<text text-anchor="middle" x="551" y="-159.8" font-family="Monaco" font-size="9.00">LastModifiedBy</text>
</g>
<!-- OrgMetricScanResult&#45;&gt;OrgMetricScanSummary -->
<g id="edge6" class="edge">
<title>OrgMetricScanResult:w&#45;&gt;OrgMetricScanSummary:e</title>
<path fill="none" stroke="#ff99cc" d="M1117.35,-190.64C976.23,-203.25 998.36,-399 846,-399"/>
<polygon fill="#ff99cc" stroke="#ff99cc" points="1124.01,-190.35 1132.16,-193.6 1128,-190.17 1132,-190 1132,-190 1132,-190 1128,-190.17 1131.84,-186.4 1124.01,-190.35 1124.01,-190.35"/>
<ellipse fill="none" stroke="#ff99cc" cx="1120.81" cy="-190.49" rx="3.2" ry="3.2"/>
<text text-anchor="middle" x="1025.5" y="-339.8" font-family="Monaco" font-size="9.00">OrgMetricScanSummary</text>
</g>
</g>
</svg>
