<?xml version="1.0" encoding="UTF-8" standalone="no"?>
<!DOCTYPE svg PUBLIC "-//W3C//DTD SVG 1.1//EN"
 "http://www.w3.org/Graphics/SVG/1.1/DTD/svg11.dtd">
<!-- Generated by graphviz version 2.44.0 (20200518.1210)
 -->
<!-- Title: RH Pages: 1 -->
<svg width="305pt" height="357pt"
 viewBox="0.00 0.00 305.00 356.80" xmlns="http://www.w3.org/2000/svg" xmlns:xlink="http://www.w3.org/1999/xlink">
<g id="graph0" class="graph" transform="scale(1 1) rotate(0) translate(4 352.8)">
<title>RH</title>
<polygon fill="#fefefe" stroke="transparent" points="-4,4 -4,-352.8 301,-352.8 301,4 -4,4"/>
<text text-anchor="middle" x="148.5" y="-8.2" font-family="Times,serif" font-size="14.00">Salesforce RH </text>
<!-- CEO -->
<g id="node1" class="node">
<title>CEO</title>
<polygon fill="#99ccff" stroke="#99ccff" points="171,-348.8 63,-348.8 63,-312.8 171,-312.8 171,-348.8"/>
<text text-anchor="middle" x="117" y="-327.5" font-family="Arial" font-size="11.00">CEO</text>
</g>
<!-- CIO -->
<g id="node2" class="node">
<title>CIO</title>
<polygon fill="#99ccff" stroke="#99ccff" points="108,-204.8 0,-204.8 0,-168.8 108,-168.8 108,-204.8"/>
<text text-anchor="middle" x="54" y="-183.5" font-family="Arial" font-size="11.00">CIO</text>
</g>
<!-- CEO&#45;&gt;CIO -->
<g id="edge1" class="edge">
<title>CEO&#45;&gt;CIO</title>
<path fill="none" stroke="black" stroke-width="3" d="M109.4,-312.67C98.57,-288.26 78.59,-243.23 65.82,-214.44"/>
<polygon fill="black" stroke="black" stroke-width="3" points="68.88,-212.71 61.63,-204.99 62.48,-215.55 68.88,-212.71"/>
</g>
<!-- Sales WW -->
<g id="node3" class="node">
<title>Sales WW</title>
<polygon fill="#99ccff" stroke="#99ccff" points="234,-204.8 126,-204.8 126,-168.8 234,-168.8 234,-204.8"/>
<text text-anchor="middle" x="180" y="-183.5" font-family="Arial" font-size="11.00">Sales WW</text>
</g>
<!-- CEO&#45;&gt;Sales WW -->
<g id="edge2" class="edge">
<title>CEO&#45;&gt;Sales WW</title>
<path fill="none" stroke="black" stroke-width="3" d="M124.6,-312.67C135.43,-288.26 155.41,-243.23 168.18,-214.44"/>
<polygon fill="black" stroke="black" stroke-width="3" points="171.52,-215.55 172.37,-204.99 165.12,-212.71 171.52,-215.55"/>
</g>
<!-- Sales AMER -->
<g id="node4" class="node">
<title>Sales AMER</title>
<polygon fill="#99ccff" stroke="#99ccff" points="171,-60.8 63,-60.8 63,-24.8 171,-24.8 171,-60.8"/>
<text text-anchor="middle" x="117" y="-39.5" font-family="Arial" font-size="11.00">Sales AMER</text>
</g>
<!-- Sales WW&#45;&gt;Sales AMER -->
<g id="edge3" class="edge">
<title>Sales WW&#45;&gt;Sales AMER</title>
<path fill="none" stroke="black" stroke-width="3" d="M172.4,-168.67C161.57,-144.26 141.59,-99.23 128.82,-70.44"/>
<polygon fill="black" stroke="black" stroke-width="3" points="131.88,-68.71 124.63,-60.99 125.48,-71.55 131.88,-68.71"/>
</g>
<!-- Sales EMEA -->
<g id="node5" class="node">
<title>Sales EMEA</title>
<polygon fill="#99ccff" stroke="#99ccff" points="297,-60.8 189,-60.8 189,-24.8 297,-24.8 297,-60.8"/>
<text text-anchor="middle" x="243" y="-39.5" font-family="Arial" font-size="11.00">Sales EMEA</text>
</g>
<!-- Sales WW&#45;&gt;Sales EMEA -->
<g id="edge4" class="edge">
<title>Sales WW&#45;&gt;Sales EMEA</title>
<path fill="none" stroke="black" stroke-width="3" d="M187.6,-168.67C198.43,-144.26 218.41,-99.23 231.18,-70.44"/>
<polygon fill="black" stroke="black" stroke-width="3" points="234.52,-71.55 235.37,-60.99 228.12,-68.71 234.52,-71.55"/>
</g>
</g>
</svg>
