<?xml version="1.0" encoding="UTF-8" standalone="no"?>
<!DOCTYPE svg PUBLIC "-//W3C//DTD SVG 1.1//EN"
 "http://www.w3.org/Graphics/SVG/1.1/DTD/svg11.dtd">
<!-- Generated by graphviz version 2.44.0 (20200518.1210)
 -->
<!-- Title: Salesforce+ ERD Pages: 1 -->
<svg width="1105pt" height="694pt"
 viewBox="0.00 0.00 1105.45 693.80" xmlns="http://www.w3.org/2000/svg" xmlns:xlink="http://www.w3.org/1999/xlink">
<g id="graph0" class="graph" transform="scale(1 1) rotate(0) translate(4 689.8)">
<title>Salesforce+ ERD</title>
<polygon fill="#efeffd" stroke="transparent" points="-4,4 -4,-689.8 1101.45,-689.8 1101.45,4 -4,4"/>
<text text-anchor="middle" x="1048.96" y="-6.7" font-family="Courier,monospace" font-size="9.00">Salesforce ERD </text>
<!-- Site -->
<g id="node1" class="node">
<title>Site</title>
<g id="a_node1"><a xlink:href="#" xlink:title=" Site ">
<polygon fill="#ffeeff" stroke="transparent" points="186.45,-18.8 186.45,-685.8 1097.45,-685.8 1097.45,-18.8 186.45,-18.8"/>
<polygon fill="lightblue" stroke="transparent" points="187.95,-665.3 187.95,-684.3 1096.95,-684.3 1096.95,-665.3 187.95,-665.3"/>
<polygon fill="none" stroke="#99ccff" points="187.95,-665.3 187.95,-684.3 1096.95,-684.3 1096.95,-665.3 187.95,-665.3"/>
<text text-anchor="start" x="629.25" y="-672.4" font-family="Courier,monospace" font-weight="bold" font-size="11.00">Site</text>
<polygon fill="#99ccff" stroke="transparent" points="187.95,-646.3 187.95,-665.3 998.95,-665.3 998.95,-646.3 187.95,-646.3"/>
<polygon fill="none" stroke="#99ccff" points="187.95,-646.3 187.95,-665.3 998.95,-665.3 998.95,-646.3 187.95,-646.3"/>
<text text-anchor="start" x="190.95" y="-653.4" font-family="Courier,monospace" font-size="11.00"> &#160;&#160;&#160;&#160;&#160;&#160;&#160;&#160;&#160;&#160;&#160;&#160;&#160;&#160;&#160;&#160;&#160;&#160;&#160;&#160;&#160;&#160;&#160;&#160;&#160;&#160;&#160;&#160;&#160;&#160;&#160;&#160;&#160;&#160;&#160;&#160;&#160;&#160;&#160;&#160;&#160;&#160;</text>
<text text-anchor="start" x="474.71" y="-653.4" font-family="Courier,monospace" font-weight="bold" font-size="11.00">Id</text>
<text text-anchor="start" x="487.9" y="-653.4" font-family="Courier,monospace" font-size="11.00"> &#160;&#160;&#160;&#160;&#160;&#160;&#160;&#160;&#160;&#160;&#160;&#160;&#160;&#160;&#160;&#160;&#160;&#160;&#160;&#160;&#160;&#160;&#160;&#160;&#160;&#160;&#160;&#160;&#160;&#160;&#160;&#160;&#160;&#160;&#160;&#160;&#160;&#160;&#160;</text>
<polygon fill="none" stroke="#99ccff" points="998.95,-646.3 998.95,-665.3 1096.95,-665.3 1096.95,-646.3 998.95,-646.3"/>
<text text-anchor="start" x="1028.16" y="-652.4" font-family="Courier,monospace" font-size="11.00">id(18)</text>
<polygon fill="none" stroke="#99ccff" points="187.95,-627.3 187.95,-646.3 998.95,-646.3 998.95,-627.3 187.95,-627.3"/>
<text text-anchor="start" x="190.95" y="-633.4" font-family="Courier,monospace" font-size="11.00"> &#160;&#160;&#160;&#160;&#160;&#160;&#160;&#160;&#160;&#160;&#160;&#160;&#160;&#160;&#160;&#160;&#160;&#160;&#160;&#160;&#160;&#160;&#160;&#160;&#160;&#160;&#160;&#160;&#160;&#160;&#160;&#160;&#160;&#160;&#160;&#160;&#160;&#160;&#160;&#160;Name &#160;&#160;&#160;&#160;&#160;&#160;&#160;&#160;&#160;&#160;&#160;&#160;&#160;&#160;&#160;&#160;&#160;&#160;&#160;&#160;&#160;&#160;&#160;&#160;&#160;&#160;&#160;&#160;&#160;&#160;&#160;&#160;&#160;&#160;&#160;&#160;&#160;&#160;</text>
<polygon fill="none" stroke="#99ccff" points="998.95,-627.3 998.95,-646.3 1096.95,-646.3 1096.95,-627.3 998.95,-627.3"/>
<text text-anchor="start" x="1014.96" y="-633.4" font-family="Courier,monospace" font-size="11.00">string(80)</text>
<polygon fill="none" stroke="#99ccff" points="187.95,-608.3 187.95,-627.3 998.95,-627.3 998.95,-608.3 187.95,-608.3"/>
<text text-anchor="start" x="190.95" y="-614.4" font-family="Courier,monospace" font-size="11.00"> &#160;&#160;&#160;&#160;&#160;&#160;&#160;&#160;&#160;&#160;&#160;&#160;&#160;&#160;&#160;&#160;&#160;&#160;&#160;&#160;&#160;&#160;&#160;&#160;&#160;&#160;&#160;&#160;&#160;&#160;&#160;&#160;&#160;&#160;&#160;&#160;&#160;&#160;&#160;&#160;Subdomain &#160;&#160;&#160;&#160;&#160;&#160;&#160;&#160;&#160;&#160;&#160;&#160;&#160;&#160;&#160;&#160;&#160;&#160;&#160;&#160;&#160;&#160;&#160;&#160;&#160;&#160;&#160;&#160;&#160;&#160;&#160;&#160;&#160;&#160;&#160;&#160;&#160;&#160;</text>
<polygon fill="none" stroke="#99ccff" points="998.95,-608.3 998.95,-627.3 1096.95,-627.3 1096.95,-608.3 998.95,-608.3"/>
<text text-anchor="start" x="1014.96" y="-614.4" font-family="Courier,monospace" font-size="11.00">string(80)</text>
<polygon fill="none" stroke="#99ccff" points="187.95,-589.3 187.95,-608.3 998.95,-608.3 998.95,-589.3 187.95,-589.3"/>
<text text-anchor="start" x="190.95" y="-595.4" font-family="Courier,monospace" font-size="11.00"> &#160;&#160;&#160;&#160;&#160;&#160;&#160;&#160;&#160;&#160;&#160;&#160;&#160;&#160;&#160;&#160;&#160;&#160;&#160;&#160;&#160;&#160;&#160;&#160;&#160;&#160;&#160;&#160;&#160;&#160;&#160;&#160;&#160;&#160;&#160;&#160;&#160;&#160;&#160;&#160;UrlPathPrefix &#160;&#160;&#160;&#160;&#160;&#160;&#160;&#160;&#160;&#160;&#160;&#160;&#160;&#160;&#160;&#160;&#160;&#160;&#160;&#160;&#160;&#160;&#160;&#160;&#160;&#160;&#160;&#160;&#160;&#160;&#160;&#160;&#160;&#160;&#160;&#160;&#160;&#160;</text>
<polygon fill="none" stroke="#99ccff" points="998.95,-589.3 998.95,-608.3 1096.95,-608.3 1096.95,-589.3 998.95,-589.3"/>
<text text-anchor="start" x="1014.96" y="-595.4" font-family="Courier,monospace" font-size="11.00">string(40)</text>
<polygon fill="none" stroke="#99ccff" points="187.95,-570.3 187.95,-589.3 998.95,-589.3 998.95,-570.3 187.95,-570.3"/>
<text text-anchor="start" x="190.95" y="-576.4" font-family="Courier,monospace" font-size="11.00"> &#160;&#160;&#160;&#160;&#160;&#160;&#160;&#160;&#160;&#160;&#160;&#160;&#160;&#160;&#160;&#160;&#160;&#160;&#160;&#160;&#160;&#160;&#160;&#160;&#160;&#160;&#160;&#160;&#160;&#160;&#160;&#160;&#160;&#160;&#160;&#160;&#160;&#160;&#160;&#160;GuestUserId &#160;&#160;&#160;&#160;&#160;&#160;&#160;&#160;&#160;&#160;&#160;&#160;&#160;&#160;&#160;&#160;&#160;&#160;&#160;&#160;&#160;&#160;&#160;&#160;&#160;&#160;&#160;&#160;&#160;&#160;&#160;&#160;&#160;&#160;&#160;&#160;&#160;&#160;</text>
<polygon fill="none" stroke="#99ccff" points="998.95,-570.3 998.95,-589.3 1096.95,-589.3 1096.95,-570.3 998.95,-570.3"/>
<text text-anchor="start" x="1005.06" y="-576.4" font-family="Courier,monospace" font-size="11.00">reference(18)</text>
<polygon fill="none" stroke="#99ccff" points="187.95,-551.3 187.95,-570.3 998.95,-570.3 998.95,-551.3 187.95,-551.3"/>
<text text-anchor="start" x="190.95" y="-557.4" font-family="Courier,monospace" font-size="11.00"> &#160;&#160;&#160;&#160;&#160;&#160;&#160;&#160;&#160;&#160;&#160;&#160;&#160;&#160;&#160;&#160;&#160;&#160;&#160;&#160;&#160;&#160;&#160;&#160;&#160;&#160;&#160;&#160;&#160;&#160;&#160;&#160;&#160;&#160;&#160;&#160;&#160;&#160;&#160;&#160;Status &#160;&#160;&#160;&#160;&#160;&#160;&#160;&#160;&#160;&#160;&#160;&#160;&#160;&#160;&#160;&#160;&#160;&#160;&#160;&#160;&#160;&#160;&#160;&#160;&#160;&#160;&#160;&#160;&#160;&#160;&#160;&#160;&#160;&#160;&#160;&#160;&#160;&#160;</text>
<polygon fill="none" stroke="#99ccff" points="998.95,-551.3 998.95,-570.3 1096.95,-570.3 1096.95,-551.3 998.95,-551.3"/>
<text text-anchor="start" x="1008.36" y="-557.4" font-family="Courier,monospace" font-size="11.00">picklist(40)</text>
<polygon fill="none" stroke="#99ccff" points="187.95,-532.3 187.95,-551.3 998.95,-551.3 998.95,-532.3 187.95,-532.3"/>
<text text-anchor="start" x="190.95" y="-538.4" font-family="Courier,monospace" font-size="11.00"> &#160;&#160;&#160;&#160;&#160;&#160;&#160;&#160;&#160;&#160;&#160;&#160;&#160;&#160;&#160;&#160;&#160;&#160;&#160;&#160;&#160;&#160;&#160;&#160;&#160;&#160;&#160;&#160;&#160;&#160;&#160;&#160;&#160;&#160;&#160;&#160;&#160;&#160;&#160;&#160;AdminId &#160;&#160;&#160;&#160;&#160;&#160;&#160;&#160;&#160;&#160;&#160;&#160;&#160;&#160;&#160;&#160;&#160;&#160;&#160;&#160;&#160;&#160;&#160;&#160;&#160;&#160;&#160;&#160;&#160;&#160;&#160;&#160;&#160;&#160;&#160;&#160;&#160;&#160;</text>
<polygon fill="none" stroke="#99ccff" points="998.95,-532.3 998.95,-551.3 1096.95,-551.3 1096.95,-532.3 998.95,-532.3"/>
<text text-anchor="start" x="1005.06" y="-538.4" font-family="Courier,monospace" font-size="11.00">reference(18)</text>
<polygon fill="none" stroke="#99ccff" points="187.95,-513.3 187.95,-532.3 998.95,-532.3 998.95,-513.3 187.95,-513.3"/>
<text text-anchor="start" x="190.95" y="-519.4" font-family="Courier,monospace" font-size="11.00"> &#160;&#160;&#160;&#160;&#160;&#160;&#160;&#160;&#160;&#160;&#160;&#160;&#160;&#160;&#160;&#160;&#160;&#160;&#160;&#160;&#160;&#160;&#160;&#160;&#160;&#160;&#160;&#160;&#160;&#160;&#160;&#160;&#160;&#160;&#160;&#160;&#160;&#160;&#160;&#160;OptionsEnableFeeds &#160;&#160;&#160;&#160;&#160;&#160;&#160;&#160;&#160;&#160;&#160;&#160;&#160;&#160;&#160;&#160;&#160;&#160;&#160;&#160;&#160;&#160;&#160;&#160;&#160;&#160;&#160;&#160;&#160;&#160;&#160;&#160;&#160;&#160;&#160;&#160;&#160;&#160;</text>
<polygon fill="none" stroke="#99ccff" points="998.95,-513.3 998.95,-532.3 1096.95,-532.3 1096.95,-513.3 998.95,-513.3"/>
<text text-anchor="start" x="1024.86" y="-519.4" font-family="Courier,monospace" font-size="11.00">boolean</text>
<polygon fill="none" stroke="#99ccff" points="187.95,-494.3 187.95,-513.3 998.95,-513.3 998.95,-494.3 187.95,-494.3"/>
<text text-anchor="start" x="190.95" y="-500.4" font-family="Courier,monospace" font-size="11.00"> &#160;&#160;&#160;&#160;&#160;&#160;&#160;&#160;&#160;&#160;&#160;&#160;&#160;&#160;&#160;&#160;&#160;&#160;&#160;&#160;&#160;&#160;&#160;&#160;&#160;&#160;&#160;&#160;&#160;&#160;&#160;&#160;&#160;&#160;&#160;&#160;&#160;&#160;&#160;&#160;OptionsRequireHttps &#160;&#160;&#160;&#160;&#160;&#160;&#160;&#160;&#160;&#160;&#160;&#160;&#160;&#160;&#160;&#160;&#160;&#160;&#160;&#160;&#160;&#160;&#160;&#160;&#160;&#160;&#160;&#160;&#160;&#160;&#160;&#160;&#160;&#160;&#160;&#160;&#160;&#160;</text>
<polygon fill="none" stroke="#99ccff" points="998.95,-494.3 998.95,-513.3 1096.95,-513.3 1096.95,-494.3 998.95,-494.3"/>
<text text-anchor="start" x="1024.86" y="-500.4" font-family="Courier,monospace" font-size="11.00">boolean</text>
<polygon fill="none" stroke="#99ccff" points="187.95,-475.3 187.95,-494.3 998.95,-494.3 998.95,-475.3 187.95,-475.3"/>
<text text-anchor="start" x="190.95" y="-481.4" font-family="Courier,monospace" font-size="11.00"> &#160;&#160;&#160;&#160;&#160;&#160;&#160;&#160;&#160;&#160;&#160;&#160;&#160;&#160;&#160;&#160;&#160;&#160;&#160;&#160;&#160;&#160;&#160;&#160;&#160;&#160;&#160;&#160;&#160;&#160;&#160;&#160;&#160;&#160;&#160;&#160;&#160;&#160;&#160;&#160;OptionsAllowGuestPaymentsApi &#160;&#160;&#160;&#160;&#160;&#160;&#160;&#160;&#160;&#160;&#160;&#160;&#160;&#160;&#160;&#160;&#160;&#160;&#160;&#160;&#160;&#160;&#160;&#160;&#160;&#160;&#160;&#160;&#160;&#160;&#160;&#160;&#160;&#160;&#160;&#160;&#160;&#160;</text>
<polygon fill="none" stroke="#99ccff" points="998.95,-475.3 998.95,-494.3 1096.95,-494.3 1096.95,-475.3 998.95,-475.3"/>
<text text-anchor="start" x="1024.86" y="-481.4" font-family="Courier,monospace" font-size="11.00">boolean</text>
<polygon fill="none" stroke="#99ccff" points="187.95,-456.3 187.95,-475.3 998.95,-475.3 998.95,-456.3 187.95,-456.3"/>
<text text-anchor="start" x="190.95" y="-462.4" font-family="Courier,monospace" font-size="11.00"> &#160;&#160;&#160;&#160;&#160;&#160;&#160;&#160;&#160;&#160;&#160;&#160;&#160;&#160;&#160;&#160;&#160;&#160;&#160;&#160;&#160;&#160;&#160;&#160;&#160;&#160;&#160;&#160;&#160;&#160;&#160;&#160;&#160;&#160;&#160;&#160;&#160;&#160;&#160;&#160;OptionsHasStoredPathPrefix &#160;&#160;&#160;&#160;&#160;&#160;&#160;&#160;&#160;&#160;&#160;&#160;&#160;&#160;&#160;&#160;&#160;&#160;&#160;&#160;&#160;&#160;&#160;&#160;&#160;&#160;&#160;&#160;&#160;&#160;&#160;&#160;&#160;&#160;&#160;&#160;&#160;&#160;</text>
<polygon fill="none" stroke="#99ccff" points="998.95,-456.3 998.95,-475.3 1096.95,-475.3 1096.95,-456.3 998.95,-456.3"/>
<text text-anchor="start" x="1024.86" y="-462.4" font-family="Courier,monospace" font-size="11.00">boolean</text>
<polygon fill="none" stroke="#99ccff" points="187.95,-437.3 187.95,-456.3 998.95,-456.3 998.95,-437.3 187.95,-437.3"/>
<text text-anchor="start" x="190.95" y="-443.4" font-family="Courier,monospace" font-size="11.00"> &#160;&#160;&#160;&#160;&#160;&#160;&#160;&#160;&#160;&#160;&#160;&#160;&#160;&#160;&#160;&#160;&#160;&#160;&#160;&#160;&#160;&#160;&#160;&#160;&#160;&#160;&#160;&#160;&#160;&#160;&#160;&#160;&#160;&#160;&#160;&#160;&#160;&#160;&#160;&#160;OptionsAllowHomePage &#160;&#160;&#160;&#160;&#160;&#160;&#160;&#160;&#160;&#160;&#160;&#160;&#160;&#160;&#160;&#160;&#160;&#160;&#160;&#160;&#160;&#160;&#160;&#160;&#160;&#160;&#160;&#160;&#160;&#160;&#160;&#160;&#160;&#160;&#160;&#160;&#160;&#160;</text>
<polygon fill="none" stroke="#99ccff" points="998.95,-437.3 998.95,-456.3 1096.95,-456.3 1096.95,-437.3 998.95,-437.3"/>
<text text-anchor="start" x="1024.86" y="-443.4" font-family="Courier,monospace" font-size="11.00">boolean</text>
<polygon fill="none" stroke="#99ccff" points="187.95,-418.3 187.95,-437.3 998.95,-437.3 998.95,-418.3 187.95,-418.3"/>
<text text-anchor="start" x="190.95" y="-424.4" font-family="Courier,monospace" font-size="11.00"> &#160;&#160;&#160;&#160;&#160;&#160;&#160;&#160;&#160;&#160;&#160;&#160;&#160;&#160;&#160;&#160;&#160;&#160;&#160;&#160;&#160;&#160;&#160;&#160;&#160;&#160;&#160;&#160;&#160;&#160;&#160;&#160;&#160;&#160;&#160;&#160;&#160;&#160;&#160;&#160;OptionsAllowStandardIdeasPages &#160;&#160;&#160;&#160;&#160;&#160;&#160;&#160;&#160;&#160;&#160;&#160;&#160;&#160;&#160;&#160;&#160;&#160;&#160;&#160;&#160;&#160;&#160;&#160;&#160;&#160;&#160;&#160;&#160;&#160;&#160;&#160;&#160;&#160;&#160;&#160;&#160;&#160;</text>
<polygon fill="none" stroke="#99ccff" points="998.95,-418.3 998.95,-437.3 1096.95,-437.3 1096.95,-418.3 998.95,-418.3"/>
<text text-anchor="start" x="1024.86" y="-424.4" font-family="Courier,monospace" font-size="11.00">boolean</text>
<polygon fill="none" stroke="#99ccff" points="187.95,-399.3 187.95,-418.3 998.95,-418.3 998.95,-399.3 187.95,-399.3"/>
<text text-anchor="start" x="190.95" y="-405.4" font-family="Courier,monospace" font-size="11.00"> &#160;&#160;&#160;&#160;&#160;&#160;&#160;&#160;&#160;&#160;&#160;&#160;&#160;&#160;&#160;&#160;&#160;&#160;&#160;&#160;&#160;&#160;&#160;&#160;&#160;&#160;&#160;&#160;&#160;&#160;&#160;&#160;&#160;&#160;&#160;&#160;&#160;&#160;&#160;&#160;OptionsAllowStandardSearch &#160;&#160;&#160;&#160;&#160;&#160;&#160;&#160;&#160;&#160;&#160;&#160;&#160;&#160;&#160;&#160;&#160;&#160;&#160;&#160;&#160;&#160;&#160;&#160;&#160;&#160;&#160;&#160;&#160;&#160;&#160;&#160;&#160;&#160;&#160;&#160;&#160;&#160;</text>
<polygon fill="none" stroke="#99ccff" points="998.95,-399.3 998.95,-418.3 1096.95,-418.3 1096.95,-399.3 998.95,-399.3"/>
<text text-anchor="start" x="1024.86" y="-405.4" font-family="Courier,monospace" font-size="11.00">boolean</text>
<polygon fill="none" stroke="#99ccff" points="187.95,-380.3 187.95,-399.3 998.95,-399.3 998.95,-380.3 187.95,-380.3"/>
<text text-anchor="start" x="190.95" y="-386.4" font-family="Courier,monospace" font-size="11.00"> &#160;&#160;&#160;&#160;&#160;&#160;&#160;&#160;&#160;&#160;&#160;&#160;&#160;&#160;&#160;&#160;&#160;&#160;&#160;&#160;&#160;&#160;&#160;&#160;&#160;&#160;&#160;&#160;&#160;&#160;&#160;&#160;&#160;&#160;&#160;&#160;&#160;&#160;&#160;&#160;OptionsAllowStandardLookups &#160;&#160;&#160;&#160;&#160;&#160;&#160;&#160;&#160;&#160;&#160;&#160;&#160;&#160;&#160;&#160;&#160;&#160;&#160;&#160;&#160;&#160;&#160;&#160;&#160;&#160;&#160;&#160;&#160;&#160;&#160;&#160;&#160;&#160;&#160;&#160;&#160;&#160;</text>
<polygon fill="none" stroke="#99ccff" points="998.95,-380.3 998.95,-399.3 1096.95,-399.3 1096.95,-380.3 998.95,-380.3"/>
<text text-anchor="start" x="1024.86" y="-386.4" font-family="Courier,monospace" font-size="11.00">boolean</text>
<polygon fill="none" stroke="#99ccff" points="187.95,-361.3 187.95,-380.3 998.95,-380.3 998.95,-361.3 187.95,-361.3"/>
<text text-anchor="start" x="190.95" y="-367.4" font-family="Courier,monospace" font-size="11.00"> &#160;&#160;&#160;&#160;&#160;&#160;&#160;&#160;&#160;&#160;&#160;&#160;&#160;&#160;&#160;&#160;&#160;&#160;&#160;&#160;&#160;&#160;&#160;&#160;&#160;&#160;&#160;&#160;&#160;&#160;&#160;&#160;&#160;&#160;&#160;&#160;&#160;&#160;&#160;&#160;OptionsAllowStandardAnswersPages &#160;&#160;&#160;&#160;&#160;&#160;&#160;&#160;&#160;&#160;&#160;&#160;&#160;&#160;&#160;&#160;&#160;&#160;&#160;&#160;&#160;&#160;&#160;&#160;&#160;&#160;&#160;&#160;&#160;&#160;&#160;&#160;&#160;&#160;&#160;&#160;&#160;&#160;</text>
<polygon fill="none" stroke="#99ccff" points="998.95,-361.3 998.95,-380.3 1096.95,-380.3 1096.95,-361.3 998.95,-361.3"/>
<text text-anchor="start" x="1024.86" y="-367.4" font-family="Courier,monospace" font-size="11.00">boolean</text>
<polygon fill="none" stroke="#99ccff" points="187.95,-342.3 187.95,-361.3 998.95,-361.3 998.95,-342.3 187.95,-342.3"/>
<text text-anchor="start" x="190.95" y="-348.4" font-family="Courier,monospace" font-size="11.00"> &#160;&#160;&#160;&#160;&#160;&#160;&#160;&#160;&#160;&#160;&#160;&#160;&#160;&#160;&#160;&#160;&#160;&#160;&#160;&#160;&#160;&#160;&#160;&#160;&#160;&#160;&#160;&#160;&#160;&#160;&#160;&#160;&#160;&#160;&#160;&#160;&#160;&#160;&#160;&#160;OptionsAllowGuestSupportApi &#160;&#160;&#160;&#160;&#160;&#160;&#160;&#160;&#160;&#160;&#160;&#160;&#160;&#160;&#160;&#160;&#160;&#160;&#160;&#160;&#160;&#160;&#160;&#160;&#160;&#160;&#160;&#160;&#160;&#160;&#160;&#160;&#160;&#160;&#160;&#160;&#160;&#160;</text>
<polygon fill="none" stroke="#99ccff" points="998.95,-342.3 998.95,-361.3 1096.95,-361.3 1096.95,-342.3 998.95,-342.3"/>
<text text-anchor="start" x="1024.86" y="-348.4" font-family="Courier,monospace" font-size="11.00">boolean</text>
<polygon fill="none" stroke="#99ccff" points="187.95,-323.3 187.95,-342.3 998.95,-342.3 998.95,-323.3 187.95,-323.3"/>
<text text-anchor="start" x="190.95" y="-329.4" font-family="Courier,monospace" font-size="11.00"> &#160;&#160;&#160;&#160;&#160;&#160;&#160;&#160;&#160;&#160;&#160;&#160;&#160;&#160;&#160;&#160;&#160;&#160;&#160;&#160;&#160;&#160;&#160;&#160;&#160;&#160;&#160;&#160;&#160;&#160;&#160;&#160;&#160;&#160;&#160;&#160;&#160;&#160;&#160;&#160;OptionsAllowStandardPortalPages &#160;&#160;&#160;&#160;&#160;&#160;&#160;&#160;&#160;&#160;&#160;&#160;&#160;&#160;&#160;&#160;&#160;&#160;&#160;&#160;&#160;&#160;&#160;&#160;&#160;&#160;&#160;&#160;&#160;&#160;&#160;&#160;&#160;&#160;&#160;&#160;&#160;&#160;</text>
<polygon fill="none" stroke="#99ccff" points="998.95,-323.3 998.95,-342.3 1096.95,-342.3 1096.95,-323.3 998.95,-323.3"/>
<text text-anchor="start" x="1024.86" y="-329.4" font-family="Courier,monospace" font-size="11.00">boolean</text>
<polygon fill="none" stroke="#99ccff" points="187.95,-304.3 187.95,-323.3 998.95,-323.3 998.95,-304.3 187.95,-304.3"/>
<text text-anchor="start" x="190.95" y="-310.4" font-family="Courier,monospace" font-size="11.00"> &#160;&#160;&#160;&#160;&#160;&#160;&#160;&#160;&#160;&#160;&#160;&#160;&#160;&#160;&#160;&#160;&#160;&#160;&#160;&#160;&#160;&#160;&#160;&#160;&#160;&#160;&#160;&#160;&#160;&#160;&#160;&#160;&#160;&#160;&#160;&#160;&#160;&#160;&#160;&#160;OptionsCspUpgradeInsecureRequests &#160;&#160;&#160;&#160;&#160;&#160;&#160;&#160;&#160;&#160;&#160;&#160;&#160;&#160;&#160;&#160;&#160;&#160;&#160;&#160;&#160;&#160;&#160;&#160;&#160;&#160;&#160;&#160;&#160;&#160;&#160;&#160;&#160;&#160;&#160;&#160;&#160;&#160;</text>
<polygon fill="none" stroke="#99ccff" points="998.95,-304.3 998.95,-323.3 1096.95,-323.3 1096.95,-304.3 998.95,-304.3"/>
<text text-anchor="start" x="1024.86" y="-310.4" font-family="Courier,monospace" font-size="11.00">boolean</text>
<polygon fill="none" stroke="#99ccff" points="187.95,-285.3 187.95,-304.3 998.95,-304.3 998.95,-285.3 187.95,-285.3"/>
<text text-anchor="start" x="190.95" y="-291.4" font-family="Courier,monospace" font-size="11.00"> &#160;&#160;&#160;&#160;&#160;&#160;&#160;&#160;&#160;&#160;&#160;&#160;&#160;&#160;&#160;&#160;&#160;&#160;&#160;&#160;&#160;&#160;&#160;&#160;&#160;&#160;&#160;&#160;&#160;&#160;&#160;&#160;&#160;&#160;&#160;&#160;&#160;&#160;&#160;&#160;OptionsContentSniffingProtection &#160;&#160;&#160;&#160;&#160;&#160;&#160;&#160;&#160;&#160;&#160;&#160;&#160;&#160;&#160;&#160;&#160;&#160;&#160;&#160;&#160;&#160;&#160;&#160;&#160;&#160;&#160;&#160;&#160;&#160;&#160;&#160;&#160;&#160;&#160;&#160;&#160;&#160;</text>
<polygon fill="none" stroke="#99ccff" points="998.95,-285.3 998.95,-304.3 1096.95,-304.3 1096.95,-285.3 998.95,-285.3"/>
<text text-anchor="start" x="1024.86" y="-291.4" font-family="Courier,monospace" font-size="11.00">boolean</text>
<polygon fill="none" stroke="#99ccff" points="187.95,-266.3 187.95,-285.3 998.95,-285.3 998.95,-266.3 187.95,-266.3"/>
<text text-anchor="start" x="190.95" y="-272.4" font-family="Courier,monospace" font-size="11.00"> &#160;&#160;&#160;&#160;&#160;&#160;&#160;&#160;&#160;&#160;&#160;&#160;&#160;&#160;&#160;&#160;&#160;&#160;&#160;&#160;&#160;&#160;&#160;&#160;&#160;&#160;&#160;&#160;&#160;&#160;&#160;&#160;&#160;&#160;&#160;&#160;&#160;&#160;&#160;&#160;OptionsBrowserXssProtection &#160;&#160;&#160;&#160;&#160;&#160;&#160;&#160;&#160;&#160;&#160;&#160;&#160;&#160;&#160;&#160;&#160;&#160;&#160;&#160;&#160;&#160;&#160;&#160;&#160;&#160;&#160;&#160;&#160;&#160;&#160;&#160;&#160;&#160;&#160;&#160;&#160;&#160;</text>
<polygon fill="none" stroke="#99ccff" points="998.95,-266.3 998.95,-285.3 1096.95,-285.3 1096.95,-266.3 998.95,-266.3"/>
<text text-anchor="start" x="1024.86" y="-272.4" font-family="Courier,monospace" font-size="11.00">boolean</text>
<polygon fill="none" stroke="#99ccff" points="187.95,-247.3 187.95,-266.3 998.95,-266.3 998.95,-247.3 187.95,-247.3"/>
<text text-anchor="start" x="190.92" y="-253.4" font-family="Courier,monospace" font-size="11.00"> &#160;&#160;&#160;&#160;&#160;&#160;&#160;&#160;&#160;&#160;&#160;&#160;&#160;&#160;&#160;&#160;&#160;&#160;&#160;&#160;&#160;&#160;&#160;&#160;&#160;&#160;&#160;&#160;&#160;&#160;&#160;&#160;&#160;&#160;&#160;&#160;&#160;&#160;&#160;&#160;OptionsReferrerPolicyOriginWhenCrossOrigin &#160;&#160;&#160;&#160;&#160;&#160;&#160;&#160;&#160;&#160;&#160;&#160;&#160;&#160;&#160;&#160;&#160;&#160;&#160;&#160;&#160;&#160;&#160;&#160;&#160;&#160;&#160;&#160;&#160;&#160;&#160;&#160;&#160;&#160;&#160;&#160;&#160;&#160;</text>
<polygon fill="none" stroke="#99ccff" points="998.95,-247.3 998.95,-266.3 1096.95,-266.3 1096.95,-247.3 998.95,-247.3"/>
<text text-anchor="start" x="1024.86" y="-253.4" font-family="Courier,monospace" font-size="11.00">boolean</text>
<polygon fill="none" stroke="#99ccff" points="187.95,-228.3 187.95,-247.3 998.95,-247.3 998.95,-228.3 187.95,-228.3"/>
<text text-anchor="start" x="190.95" y="-234.4" font-family="Courier,monospace" font-size="11.00"> &#160;&#160;&#160;&#160;&#160;&#160;&#160;&#160;&#160;&#160;&#160;&#160;&#160;&#160;&#160;&#160;&#160;&#160;&#160;&#160;&#160;&#160;&#160;&#160;&#160;&#160;&#160;&#160;&#160;&#160;&#160;&#160;&#160;&#160;&#160;&#160;&#160;&#160;&#160;&#160;Description &#160;&#160;&#160;&#160;&#160;&#160;&#160;&#160;&#160;&#160;&#160;&#160;&#160;&#160;&#160;&#160;&#160;&#160;&#160;&#160;&#160;&#160;&#160;&#160;&#160;&#160;&#160;&#160;&#160;&#160;&#160;&#160;&#160;&#160;&#160;&#160;&#160;&#160;</text>
<polygon fill="none" stroke="#99ccff" points="998.95,-228.3 998.95,-247.3 1096.95,-247.3 1096.95,-228.3 998.95,-228.3"/>
<text text-anchor="start" x="1001.76" y="-234.4" font-family="Courier,monospace" font-size="11.00">textarea(1000)</text>
<polygon fill="none" stroke="#99ccff" points="187.95,-209.3 187.95,-228.3 998.95,-228.3 998.95,-209.3 187.95,-209.3"/>
<text text-anchor="start" x="190.95" y="-215.4" font-family="Courier,monospace" font-size="11.00"> &#160;&#160;&#160;&#160;&#160;&#160;&#160;&#160;&#160;&#160;&#160;&#160;&#160;&#160;&#160;&#160;&#160;&#160;&#160;&#160;&#160;&#160;&#160;&#160;&#160;&#160;&#160;&#160;&#160;&#160;&#160;&#160;&#160;&#160;&#160;&#160;&#160;&#160;&#160;&#160;MasterLabel &#160;&#160;&#160;&#160;&#160;&#160;&#160;&#160;&#160;&#160;&#160;&#160;&#160;&#160;&#160;&#160;&#160;&#160;&#160;&#160;&#160;&#160;&#160;&#160;&#160;&#160;&#160;&#160;&#160;&#160;&#160;&#160;&#160;&#160;&#160;&#160;&#160;&#160;</text>
<polygon fill="none" stroke="#99ccff" points="998.95,-209.3 998.95,-228.3 1096.95,-228.3 1096.95,-209.3 998.95,-209.3"/>
<text text-anchor="start" x="1011.66" y="-215.4" font-family="Courier,monospace" font-size="11.00">string(255)</text>
<polygon fill="none" stroke="#99ccff" points="187.95,-190.3 187.95,-209.3 998.95,-209.3 998.95,-190.3 187.95,-190.3"/>
<text text-anchor="start" x="190.95" y="-196.4" font-family="Courier,monospace" font-size="11.00"> &#160;&#160;&#160;&#160;&#160;&#160;&#160;&#160;&#160;&#160;&#160;&#160;&#160;&#160;&#160;&#160;&#160;&#160;&#160;&#160;&#160;&#160;&#160;&#160;&#160;&#160;&#160;&#160;&#160;&#160;&#160;&#160;&#160;&#160;&#160;&#160;&#160;&#160;&#160;&#160;AnalyticsTrackingCode &#160;&#160;&#160;&#160;&#160;&#160;&#160;&#160;&#160;&#160;&#160;&#160;&#160;&#160;&#160;&#160;&#160;&#160;&#160;&#160;&#160;&#160;&#160;&#160;&#160;&#160;&#160;&#160;&#160;&#160;&#160;&#160;&#160;&#160;&#160;&#160;&#160;&#160;</text>
<polygon fill="none" stroke="#99ccff" points="998.95,-190.3 998.95,-209.3 1096.95,-209.3 1096.95,-190.3 998.95,-190.3"/>
<text text-anchor="start" x="1014.96" y="-196.4" font-family="Courier,monospace" font-size="11.00">string(40)</text>
<polygon fill="none" stroke="#99ccff" points="187.95,-171.3 187.95,-190.3 998.95,-190.3 998.95,-171.3 187.95,-171.3"/>
<text text-anchor="start" x="190.95" y="-177.4" font-family="Courier,monospace" font-size="11.00"> &#160;&#160;&#160;&#160;&#160;&#160;&#160;&#160;&#160;&#160;&#160;&#160;&#160;&#160;&#160;&#160;&#160;&#160;&#160;&#160;&#160;&#160;&#160;&#160;&#160;&#160;&#160;&#160;&#160;&#160;&#160;&#160;&#160;&#160;&#160;&#160;&#160;&#160;&#160;&#160;SiteType &#160;&#160;&#160;&#160;&#160;&#160;&#160;&#160;&#160;&#160;&#160;&#160;&#160;&#160;&#160;&#160;&#160;&#160;&#160;&#160;&#160;&#160;&#160;&#160;&#160;&#160;&#160;&#160;&#160;&#160;&#160;&#160;&#160;&#160;&#160;&#160;&#160;&#160;</text>
<polygon fill="none" stroke="#99ccff" points="998.95,-171.3 998.95,-190.3 1096.95,-190.3 1096.95,-171.3 998.95,-171.3"/>
<text text-anchor="start" x="1008.36" y="-177.4" font-family="Courier,monospace" font-size="11.00">picklist(40)</text>
<polygon fill="none" stroke="#99ccff" points="187.95,-152.3 187.95,-171.3 998.95,-171.3 998.95,-152.3 187.95,-152.3"/>
<text text-anchor="start" x="190.95" y="-158.4" font-family="Courier,monospace" font-size="11.00"> &#160;&#160;&#160;&#160;&#160;&#160;&#160;&#160;&#160;&#160;&#160;&#160;&#160;&#160;&#160;&#160;&#160;&#160;&#160;&#160;&#160;&#160;&#160;&#160;&#160;&#160;&#160;&#160;&#160;&#160;&#160;&#160;&#160;&#160;&#160;&#160;&#160;&#160;&#160;&#160;ClickjackProtectionLevel &#160;&#160;&#160;&#160;&#160;&#160;&#160;&#160;&#160;&#160;&#160;&#160;&#160;&#160;&#160;&#160;&#160;&#160;&#160;&#160;&#160;&#160;&#160;&#160;&#160;&#160;&#160;&#160;&#160;&#160;&#160;&#160;&#160;&#160;&#160;&#160;&#160;&#160;</text>
<polygon fill="none" stroke="#99ccff" points="998.95,-152.3 998.95,-171.3 1096.95,-171.3 1096.95,-152.3 998.95,-152.3"/>
<text text-anchor="start" x="1008.36" y="-158.4" font-family="Courier,monospace" font-size="11.00">picklist(40)</text>
<polygon fill="none" stroke="#99ccff" points="187.95,-133.3 187.95,-152.3 998.95,-152.3 998.95,-133.3 187.95,-133.3"/>
<text text-anchor="start" x="190.95" y="-139.4" font-family="Courier,monospace" font-size="11.00"> &#160;&#160;&#160;&#160;&#160;&#160;&#160;&#160;&#160;&#160;&#160;&#160;&#160;&#160;&#160;&#160;&#160;&#160;&#160;&#160;&#160;&#160;&#160;&#160;&#160;&#160;&#160;&#160;&#160;&#160;&#160;&#160;&#160;&#160;&#160;&#160;&#160;&#160;&#160;&#160;DailyBandwidthLimit &#160;&#160;&#160;&#160;&#160;&#160;&#160;&#160;&#160;&#160;&#160;&#160;&#160;&#160;&#160;&#160;&#160;&#160;&#160;&#160;&#160;&#160;&#160;&#160;&#160;&#160;&#160;&#160;&#160;&#160;&#160;&#160;&#160;&#160;&#160;&#160;&#160;&#160;</text>
<polygon fill="none" stroke="#99ccff" points="998.95,-133.3 998.95,-152.3 1096.95,-152.3 1096.95,-133.3 998.95,-133.3"/>
<text text-anchor="start" x="1038.05" y="-139.4" font-family="Courier,monospace" font-size="11.00">int</text>
<polygon fill="none" stroke="#99ccff" points="187.95,-114.3 187.95,-133.3 998.95,-133.3 998.95,-114.3 187.95,-114.3"/>
<text text-anchor="start" x="190.95" y="-120.4" font-family="Courier,monospace" font-size="11.00"> &#160;&#160;&#160;&#160;&#160;&#160;&#160;&#160;&#160;&#160;&#160;&#160;&#160;&#160;&#160;&#160;&#160;&#160;&#160;&#160;&#160;&#160;&#160;&#160;&#160;&#160;&#160;&#160;&#160;&#160;&#160;&#160;&#160;&#160;&#160;&#160;&#160;&#160;&#160;&#160;DailyBandwidthUsed &#160;&#160;&#160;&#160;&#160;&#160;&#160;&#160;&#160;&#160;&#160;&#160;&#160;&#160;&#160;&#160;&#160;&#160;&#160;&#160;&#160;&#160;&#160;&#160;&#160;&#160;&#160;&#160;&#160;&#160;&#160;&#160;&#160;&#160;&#160;&#160;&#160;&#160;</text>
<polygon fill="none" stroke="#99ccff" points="998.95,-114.3 998.95,-133.3 1096.95,-133.3 1096.95,-114.3 998.95,-114.3"/>
<text text-anchor="start" x="1038.05" y="-120.4" font-family="Courier,monospace" font-size="11.00">int</text>
<polygon fill="none" stroke="#99ccff" points="187.95,-95.3 187.95,-114.3 998.95,-114.3 998.95,-95.3 187.95,-95.3"/>
<text text-anchor="start" x="190.95" y="-101.4" font-family="Courier,monospace" font-size="11.00"> &#160;&#160;&#160;&#160;&#160;&#160;&#160;&#160;&#160;&#160;&#160;&#160;&#160;&#160;&#160;&#160;&#160;&#160;&#160;&#160;&#160;&#160;&#160;&#160;&#160;&#160;&#160;&#160;&#160;&#160;&#160;&#160;&#160;&#160;&#160;&#160;&#160;&#160;&#160;&#160;DailyRequestTimeLimit &#160;&#160;&#160;&#160;&#160;&#160;&#160;&#160;&#160;&#160;&#160;&#160;&#160;&#160;&#160;&#160;&#160;&#160;&#160;&#160;&#160;&#160;&#160;&#160;&#160;&#160;&#160;&#160;&#160;&#160;&#160;&#160;&#160;&#160;&#160;&#160;&#160;&#160;</text>
<polygon fill="none" stroke="#99ccff" points="998.95,-95.3 998.95,-114.3 1096.95,-114.3 1096.95,-95.3 998.95,-95.3"/>
<text text-anchor="start" x="1038.05" y="-101.4" font-family="Courier,monospace" font-size="11.00">int</text>
<polygon fill="none" stroke="#99ccff" points="187.95,-76.3 187.95,-95.3 998.95,-95.3 998.95,-76.3 187.95,-76.3"/>
<text text-anchor="start" x="190.95" y="-82.4" font-family="Courier,monospace" font-size="11.00"> &#160;&#160;&#160;&#160;&#160;&#160;&#160;&#160;&#160;&#160;&#160;&#160;&#160;&#160;&#160;&#160;&#160;&#160;&#160;&#160;&#160;&#160;&#160;&#160;&#160;&#160;&#160;&#160;&#160;&#160;&#160;&#160;&#160;&#160;&#160;&#160;&#160;&#160;&#160;&#160;DailyRequestTimeUsed &#160;&#160;&#160;&#160;&#160;&#160;&#160;&#160;&#160;&#160;&#160;&#160;&#160;&#160;&#160;&#160;&#160;&#160;&#160;&#160;&#160;&#160;&#160;&#160;&#160;&#160;&#160;&#160;&#160;&#160;&#160;&#160;&#160;&#160;&#160;&#160;&#160;&#160;</text>
<polygon fill="none" stroke="#99ccff" points="998.95,-76.3 998.95,-95.3 1096.95,-95.3 1096.95,-76.3 998.95,-76.3"/>
<text text-anchor="start" x="1038.05" y="-82.4" font-family="Courier,monospace" font-size="11.00">int</text>
<polygon fill="none" stroke="#99ccff" points="187.95,-57.3 187.95,-76.3 998.95,-76.3 998.95,-57.3 187.95,-57.3"/>
<text text-anchor="start" x="190.95" y="-63.4" font-family="Courier,monospace" font-size="11.00"> &#160;&#160;&#160;&#160;&#160;&#160;&#160;&#160;&#160;&#160;&#160;&#160;&#160;&#160;&#160;&#160;&#160;&#160;&#160;&#160;&#160;&#160;&#160;&#160;&#160;&#160;&#160;&#160;&#160;&#160;&#160;&#160;&#160;&#160;&#160;&#160;&#160;&#160;&#160;&#160;MonthlyPageViewsEntitlement &#160;&#160;&#160;&#160;&#160;&#160;&#160;&#160;&#160;&#160;&#160;&#160;&#160;&#160;&#160;&#160;&#160;&#160;&#160;&#160;&#160;&#160;&#160;&#160;&#160;&#160;&#160;&#160;&#160;&#160;&#160;&#160;&#160;&#160;&#160;&#160;&#160;&#160;</text>
<polygon fill="none" stroke="#99ccff" points="998.95,-57.3 998.95,-76.3 1096.95,-76.3 1096.95,-57.3 998.95,-57.3"/>
<text text-anchor="start" x="1038.05" y="-63.4" font-family="Courier,monospace" font-size="11.00">int</text>
<polygon fill="none" stroke="#99ccff" points="187.95,-38.3 187.95,-57.3 998.95,-57.3 998.95,-38.3 187.95,-38.3"/>
<text text-anchor="start" x="190.95" y="-44.4" font-family="Courier,monospace" font-size="11.00"> &#160;&#160;&#160;&#160;&#160;&#160;&#160;&#160;&#160;&#160;&#160;&#160;&#160;&#160;&#160;&#160;&#160;&#160;&#160;&#160;&#160;&#160;&#160;&#160;&#160;&#160;&#160;&#160;&#160;&#160;&#160;&#160;&#160;&#160;&#160;&#160;&#160;&#160;&#160;&#160;LastModifiedById &#160;&#160;&#160;&#160;&#160;&#160;&#160;&#160;&#160;&#160;&#160;&#160;&#160;&#160;&#160;&#160;&#160;&#160;&#160;&#160;&#160;&#160;&#160;&#160;&#160;&#160;&#160;&#160;&#160;&#160;&#160;&#160;&#160;&#160;&#160;&#160;&#160;&#160;</text>
<polygon fill="none" stroke="#99ccff" points="998.95,-38.3 998.95,-57.3 1096.95,-57.3 1096.95,-38.3 998.95,-38.3"/>
<text text-anchor="start" x="1005.06" y="-44.4" font-family="Courier,monospace" font-size="11.00">reference(18)</text>
<polygon fill="none" stroke="#99ccff" points="187.95,-19.3 187.95,-38.3 998.95,-38.3 998.95,-19.3 187.95,-19.3"/>
<text text-anchor="start" x="190.95" y="-25.4" font-family="Courier,monospace" font-size="11.00"> &#160;&#160;&#160;&#160;&#160;&#160;&#160;&#160;&#160;&#160;&#160;&#160;&#160;&#160;&#160;&#160;&#160;&#160;&#160;&#160;&#160;&#160;&#160;&#160;&#160;&#160;&#160;&#160;&#160;&#160;&#160;&#160;&#160;&#160;&#160;&#160;&#160;&#160;&#160;&#160;GuestRecordDefaultOwnerId &#160;&#160;&#160;&#160;&#160;&#160;&#160;&#160;&#160;&#160;&#160;&#160;&#160;&#160;&#160;&#160;&#160;&#160;&#160;&#160;&#160;&#160;&#160;&#160;&#160;&#160;&#160;&#160;&#160;&#160;&#160;&#160;&#160;&#160;&#160;&#160;&#160;&#160;</text>
<polygon fill="none" stroke="#99ccff" points="998.95,-19.3 998.95,-38.3 1096.95,-38.3 1096.95,-19.3 998.95,-19.3"/>
<text text-anchor="start" x="1005.06" y="-25.4" font-family="Courier,monospace" font-size="11.00">reference(18)</text>
<polygon fill="none" stroke="#99ccff" points="186.45,-18.8 186.45,-685.8 1097.45,-685.8 1097.45,-18.8 186.45,-18.8"/>
</a>
</g>
</g>
<!-- User -->
<g id="node2" class="node">
<title>User</title>
<text text-anchor="middle" x="27" y="-410" font-family="Courier,monospace" font-size="11.00">User</text>
</g>
<!-- Site&#45;&gt;User -->
<g id="edge1" class="edge">
<title>Site:w&#45;&gt;User:e</title>
<path fill="none" stroke="#ff99cc" d="M172.48,-579.18C99.28,-567.75 52.01,-472.15 35.04,-431.49"/>
<polygon fill="#ff99cc" stroke="#ff99cc" points="178.98,-579.68 186.67,-583.89 182.96,-579.99 186.95,-580.3 186.95,-580.3 186.95,-580.3 182.96,-579.99 187.23,-576.71 178.98,-579.68 178.98,-579.68"/>
<ellipse fill="none" stroke="#ff99cc" cx="175.79" cy="-579.43" rx="3.2" ry="3.2"/>
<text text-anchor="middle" x="120.23" y="-581" font-family="Monaco" font-size="9.00">GuestUser</text>
</g>
<!-- Site&#45;&gt;User -->
<g id="edge2" class="edge">
<title>Site:w&#45;&gt;User:e</title>
<path fill="none" stroke="#ff99cc" d="M174.95,-533.93C172.52,-522.29 180.88,-501.12 169.45,-487.5 138.87,-451.08 85.78,-430.15 54.07,-420.31"/>
<polygon fill="#ff99cc" stroke="#ff99cc" points="180.39,-537.72 184.89,-545.25 183.67,-540.01 186.95,-542.3 186.95,-542.3 186.95,-542.3 183.67,-540.01 189.01,-539.35 180.39,-537.72 180.39,-537.72"/>
<ellipse fill="none" stroke="#ff99cc" cx="177.77" cy="-535.89" rx="3.2" ry="3.2"/>
<text text-anchor="middle" x="120.23" y="-490" font-family="Monaco" font-size="9.00">Admin</text>
</g>
<!-- Site&#45;&gt;User -->
<g id="edge3" class="edge">
<title>Site:w&#45;&gt;User:e</title>
<path fill="none" stroke="#ff99cc" d="M178.55,-59.01C166.68,-102.2 178.28,-251.01 169.45,-270.3 144.1,-325.71 87.59,-372.02 54.17,-395.9"/>
<polygon fill="#ff99cc" stroke="#ff99cc" points="182.29,-53.8 189.88,-49.4 184.62,-50.55 186.95,-47.3 186.95,-47.3 186.95,-47.3 184.62,-50.55 184.03,-45.2 182.29,-53.8 182.29,-53.8"/>
<ellipse fill="none" stroke="#ff99cc" cx="180.42" cy="-56.4" rx="3.2" ry="3.2"/>
<text text-anchor="middle" x="120.23" y="-383" font-family="Monaco" font-size="9.00">LastModifiedBy</text>
</g>
<!-- Site&#45;&gt;User -->
<g id="edge4" class="edge">
<title>Site:w&#45;&gt;User:e</title>
<path fill="none" stroke="#ff99cc" d="M172.56,-31.39C99.33,-62.73 44.95,-323.74 31.32,-395.25"/>
<polygon fill="#ff99cc" stroke="#ff99cc" points="179.13,-29.98 187.71,-31.82 183.04,-29.14 186.95,-28.3 186.95,-28.3 186.95,-28.3 183.04,-29.14 186.2,-24.78 179.13,-29.98 179.13,-29.98"/>
<ellipse fill="none" stroke="#ff99cc" cx="176" cy="-30.65" rx="3.2" ry="3.2"/>
<text text-anchor="middle" x="120.23" y="-224" font-family="Monaco" font-size="9.00">GuestRecordDefaultOwner</text>
</g>
</g>
</svg>
