<?xml version="1.0" encoding="UTF-8" standalone="no"?>
<!DOCTYPE svg PUBLIC "-//W3C//DTD SVG 1.1//EN"
 "http://www.w3.org/Graphics/SVG/1.1/DTD/svg11.dtd">
<!-- Generated by graphviz version 2.40.1 (20161225.0304)
 -->
<!-- Title: Salesforce+ ERD Pages: 1 -->
<svg width="940pt" height="314pt"
 viewBox="0.00 0.00 940.49 313.80" xmlns="http://www.w3.org/2000/svg" xmlns:xlink="http://www.w3.org/1999/xlink">
<g id="graph0" class="graph" transform="scale(1 1) rotate(0) translate(4 309.8)">
<title>Salesforce+ ERD</title>
<polygon fill="#efeffd" stroke="transparent" points="-4,4 -4,-309.8 936.49,-309.8 936.49,4 -4,4"/>
<text text-anchor="middle" x="883.9968" y="-6.7" font-family="Courier,monospace" font-size="9.00" fill="#000000">Salesforce ERD </text>
<!-- Territory2Model -->
<g id="node1" class="node">
<title>Territory2Model</title>
<g id="a_node1"><a xlink:href="#" xlink:title=" Territory2Model ">
<polygon fill="#ffeeff" stroke="transparent" points="147.49,-18.8 147.49,-305.8 932.49,-305.8 932.49,-18.8 147.49,-18.8"/>
<polygon fill="#add8e6" stroke="transparent" points="148.99,-285.3 148.99,-304.3 931.99,-304.3 931.99,-285.3 148.99,-285.3"/>
<polygon fill="none" stroke="#99ccff" points="148.99,-285.3 148.99,-304.3 931.99,-304.3 931.99,-285.3 148.99,-285.3"/>
<text text-anchor="start" x="490.9983" y="-292.4" font-family="Courier,monospace" font-weight="bold" font-size="11.00" fill="#000000">Territory2Model</text>
<polygon fill="#99ccff" stroke="transparent" points="148.99,-266.3 148.99,-285.3 840.99,-285.3 840.99,-266.3 148.99,-266.3"/>
<polygon fill="none" stroke="#99ccff" points="148.99,-266.3 148.99,-285.3 840.99,-285.3 840.99,-266.3 148.99,-266.3"/>
<text text-anchor="start" x="151.99" y="-273.4" font-family="Courier,monospace" font-size="11.00" fill="#000000"> &#160;&#160;&#160;&#160;&#160;&#160;&#160;&#160;&#160;&#160;&#160;&#160;&#160;&#160;&#160;&#160;&#160;&#160;&#160;&#160;&#160;&#160;&#160;&#160;&#160;&#160;&#160;&#160;&#160;&#160;&#160;&#160;&#160;&#160;&#160;&#160;&#160;&#160;&#160;&#160;&#160;&#160;</text>
<text text-anchor="start" x="435.7427" y="-273.4" font-family="Courier,monospace" font-weight="bold" font-size="11.00" fill="#000000">Id</text>
<text text-anchor="start" x="448.9405" y="-273.4" font-family="Courier,monospace" font-size="11.00" fill="#000000"> &#160;&#160;&#160;&#160;&#160;&#160;&#160;&#160;&#160;&#160;&#160;&#160;&#160;&#160;&#160;&#160;&#160;&#160;&#160;&#160;&#160;&#160;&#160;&#160;&#160;&#160;&#160;&#160;&#160;&#160;&#160;&#160;&#160;&#160;&#160;&#160;&#160;&#160;&#160;</text>
<polygon fill="none" stroke="#99ccff" points="840.99,-266.3 840.99,-285.3 931.99,-285.3 931.99,-266.3 840.99,-266.3"/>
<text text-anchor="start" x="866.6933" y="-272.4" font-family="Courier,monospace" font-size="11.00" fill="#000000">id(18)</text>
<polygon fill="none" stroke="#99ccff" points="148.99,-247.3 148.99,-266.3 840.99,-266.3 840.99,-247.3 148.99,-247.3"/>
<text text-anchor="start" x="151.99" y="-253.4" font-family="Courier,monospace" font-size="11.00" fill="#000000"> &#160;&#160;&#160;&#160;&#160;&#160;&#160;&#160;&#160;&#160;&#160;&#160;&#160;&#160;&#160;&#160;&#160;&#160;&#160;&#160;&#160;&#160;&#160;&#160;&#160;&#160;&#160;&#160;&#160;&#160;&#160;&#160;&#160;&#160;&#160;&#160;&#160;&#160;&#160;&#160;IsDeleted &#160;&#160;&#160;&#160;&#160;&#160;&#160;&#160;&#160;&#160;&#160;&#160;&#160;&#160;&#160;&#160;&#160;&#160;&#160;&#160;&#160;&#160;&#160;&#160;&#160;&#160;&#160;&#160;&#160;&#160;&#160;&#160;&#160;&#160;&#160;&#160;&#160;&#160;</text>
<polygon fill="none" stroke="#99ccff" points="840.99,-247.3 840.99,-266.3 931.99,-266.3 931.99,-247.3 840.99,-247.3"/>
<text text-anchor="start" x="863.3939" y="-253.4" font-family="Courier,monospace" font-size="11.00" fill="#000000">boolean</text>
<polygon fill="none" stroke="#99ccff" points="148.99,-228.3 148.99,-247.3 840.99,-247.3 840.99,-228.3 148.99,-228.3"/>
<text text-anchor="start" x="151.99" y="-234.4" font-family="Courier,monospace" font-size="11.00" fill="#000000"> &#160;&#160;&#160;&#160;&#160;&#160;&#160;&#160;&#160;&#160;&#160;&#160;&#160;&#160;&#160;&#160;&#160;&#160;&#160;&#160;&#160;&#160;&#160;&#160;&#160;&#160;&#160;&#160;&#160;&#160;&#160;&#160;&#160;&#160;&#160;&#160;&#160;&#160;&#160;&#160;Name &#160;&#160;&#160;&#160;&#160;&#160;&#160;&#160;&#160;&#160;&#160;&#160;&#160;&#160;&#160;&#160;&#160;&#160;&#160;&#160;&#160;&#160;&#160;&#160;&#160;&#160;&#160;&#160;&#160;&#160;&#160;&#160;&#160;&#160;&#160;&#160;&#160;&#160;</text>
<polygon fill="none" stroke="#99ccff" points="840.99,-228.3 840.99,-247.3 931.99,-247.3 931.99,-228.3 840.99,-228.3"/>
<text text-anchor="start" x="853.4955" y="-234.4" font-family="Courier,monospace" font-size="11.00" fill="#000000">string(80)</text>
<polygon fill="none" stroke="#99ccff" points="148.99,-209.3 148.99,-228.3 840.99,-228.3 840.99,-209.3 148.99,-209.3"/>
<text text-anchor="start" x="151.99" y="-215.4" font-family="Courier,monospace" font-size="11.00" fill="#000000"> &#160;&#160;&#160;&#160;&#160;&#160;&#160;&#160;&#160;&#160;&#160;&#160;&#160;&#160;&#160;&#160;&#160;&#160;&#160;&#160;&#160;&#160;&#160;&#160;&#160;&#160;&#160;&#160;&#160;&#160;&#160;&#160;&#160;&#160;&#160;&#160;&#160;&#160;&#160;&#160;LastModifiedById &#160;&#160;&#160;&#160;&#160;&#160;&#160;&#160;&#160;&#160;&#160;&#160;&#160;&#160;&#160;&#160;&#160;&#160;&#160;&#160;&#160;&#160;&#160;&#160;&#160;&#160;&#160;&#160;&#160;&#160;&#160;&#160;&#160;&#160;&#160;&#160;&#160;&#160;</text>
<polygon fill="none" stroke="#99ccff" points="840.99,-209.3 840.99,-228.3 931.99,-228.3 931.99,-209.3 840.99,-209.3"/>
<text text-anchor="start" x="843.5972" y="-215.4" font-family="Courier,monospace" font-size="11.00" fill="#000000">reference(18)</text>
<polygon fill="none" stroke="#99ccff" points="148.99,-190.3 148.99,-209.3 840.99,-209.3 840.99,-190.3 148.99,-190.3"/>
<text text-anchor="start" x="151.99" y="-196.4" font-family="Courier,monospace" font-size="11.00" fill="#000000"> &#160;&#160;&#160;&#160;&#160;&#160;&#160;&#160;&#160;&#160;&#160;&#160;&#160;&#160;&#160;&#160;&#160;&#160;&#160;&#160;&#160;&#160;&#160;&#160;&#160;&#160;&#160;&#160;&#160;&#160;&#160;&#160;&#160;&#160;&#160;&#160;&#160;&#160;&#160;&#160;Description &#160;&#160;&#160;&#160;&#160;&#160;&#160;&#160;&#160;&#160;&#160;&#160;&#160;&#160;&#160;&#160;&#160;&#160;&#160;&#160;&#160;&#160;&#160;&#160;&#160;&#160;&#160;&#160;&#160;&#160;&#160;&#160;&#160;&#160;&#160;&#160;&#160;&#160;</text>
<polygon fill="none" stroke="#99ccff" points="840.99,-190.3 840.99,-209.3 931.99,-209.3 931.99,-190.3 840.99,-190.3"/>
<text text-anchor="start" x="843.5972" y="-196.4" font-family="Courier,monospace" font-size="11.00" fill="#000000">textarea(255)</text>
<polygon fill="none" stroke="#99ccff" points="148.99,-171.3 148.99,-190.3 840.99,-190.3 840.99,-171.3 148.99,-171.3"/>
<text text-anchor="start" x="151.99" y="-177.4" font-family="Courier,monospace" font-size="11.00" fill="#000000"> &#160;&#160;&#160;&#160;&#160;&#160;&#160;&#160;&#160;&#160;&#160;&#160;&#160;&#160;&#160;&#160;&#160;&#160;&#160;&#160;&#160;&#160;&#160;&#160;&#160;&#160;&#160;&#160;&#160;&#160;&#160;&#160;&#160;&#160;&#160;&#160;&#160;&#160;&#160;&#160;ActivatedDate &#160;&#160;&#160;&#160;&#160;&#160;&#160;&#160;&#160;&#160;&#160;&#160;&#160;&#160;&#160;&#160;&#160;&#160;&#160;&#160;&#160;&#160;&#160;&#160;&#160;&#160;&#160;&#160;&#160;&#160;&#160;&#160;&#160;&#160;&#160;&#160;&#160;&#160;</text>
<polygon fill="none" stroke="#99ccff" points="840.99,-171.3 840.99,-190.3 931.99,-190.3 931.99,-171.3 840.99,-171.3"/>
<text text-anchor="start" x="860.0944" y="-177.4" font-family="Courier,monospace" font-size="11.00" fill="#000000">datetime</text>
<polygon fill="none" stroke="#99ccff" points="148.99,-152.3 148.99,-171.3 840.99,-171.3 840.99,-152.3 148.99,-152.3"/>
<text text-anchor="start" x="151.99" y="-158.4" font-family="Courier,monospace" font-size="11.00" fill="#000000"> &#160;&#160;&#160;&#160;&#160;&#160;&#160;&#160;&#160;&#160;&#160;&#160;&#160;&#160;&#160;&#160;&#160;&#160;&#160;&#160;&#160;&#160;&#160;&#160;&#160;&#160;&#160;&#160;&#160;&#160;&#160;&#160;&#160;&#160;&#160;&#160;&#160;&#160;&#160;&#160;DeactivatedDate &#160;&#160;&#160;&#160;&#160;&#160;&#160;&#160;&#160;&#160;&#160;&#160;&#160;&#160;&#160;&#160;&#160;&#160;&#160;&#160;&#160;&#160;&#160;&#160;&#160;&#160;&#160;&#160;&#160;&#160;&#160;&#160;&#160;&#160;&#160;&#160;&#160;&#160;</text>
<polygon fill="none" stroke="#99ccff" points="840.99,-152.3 840.99,-171.3 931.99,-171.3 931.99,-152.3 840.99,-152.3"/>
<text text-anchor="start" x="860.0944" y="-158.4" font-family="Courier,monospace" font-size="11.00" fill="#000000">datetime</text>
<polygon fill="none" stroke="#99ccff" points="148.99,-133.3 148.99,-152.3 840.99,-152.3 840.99,-133.3 148.99,-133.3"/>
<text text-anchor="start" x="151.99" y="-139.4" font-family="Courier,monospace" font-size="11.00" fill="#000000"> &#160;&#160;&#160;&#160;&#160;&#160;&#160;&#160;&#160;&#160;&#160;&#160;&#160;&#160;&#160;&#160;&#160;&#160;&#160;&#160;&#160;&#160;&#160;&#160;&#160;&#160;&#160;&#160;&#160;&#160;&#160;&#160;&#160;&#160;&#160;&#160;&#160;&#160;&#160;&#160;State &#160;&#160;&#160;&#160;&#160;&#160;&#160;&#160;&#160;&#160;&#160;&#160;&#160;&#160;&#160;&#160;&#160;&#160;&#160;&#160;&#160;&#160;&#160;&#160;&#160;&#160;&#160;&#160;&#160;&#160;&#160;&#160;&#160;&#160;&#160;&#160;&#160;&#160;</text>
<polygon fill="none" stroke="#99ccff" points="840.99,-133.3 840.99,-152.3 931.99,-152.3 931.99,-133.3 840.99,-133.3"/>
<text text-anchor="start" x="843.5972" y="-139.4" font-family="Courier,monospace" font-size="11.00" fill="#000000">picklist(255)</text>
<polygon fill="none" stroke="#99ccff" points="148.99,-114.3 148.99,-133.3 840.99,-133.3 840.99,-114.3 148.99,-114.3"/>
<text text-anchor="start" x="151.99" y="-120.4" font-family="Courier,monospace" font-size="11.00" fill="#000000"> &#160;&#160;&#160;&#160;&#160;&#160;&#160;&#160;&#160;&#160;&#160;&#160;&#160;&#160;&#160;&#160;&#160;&#160;&#160;&#160;&#160;&#160;&#160;&#160;&#160;&#160;&#160;&#160;&#160;&#160;&#160;&#160;&#160;&#160;&#160;&#160;&#160;&#160;&#160;&#160;DeveloperName &#160;&#160;&#160;&#160;&#160;&#160;&#160;&#160;&#160;&#160;&#160;&#160;&#160;&#160;&#160;&#160;&#160;&#160;&#160;&#160;&#160;&#160;&#160;&#160;&#160;&#160;&#160;&#160;&#160;&#160;&#160;&#160;&#160;&#160;&#160;&#160;&#160;&#160;</text>
<polygon fill="none" stroke="#99ccff" points="840.99,-114.3 840.99,-133.3 931.99,-133.3 931.99,-114.3 840.99,-114.3"/>
<text text-anchor="start" x="853.4955" y="-120.4" font-family="Courier,monospace" font-size="11.00" fill="#000000">string(80)</text>
<polygon fill="none" stroke="#99ccff" points="148.99,-95.3 148.99,-114.3 840.99,-114.3 840.99,-95.3 148.99,-95.3"/>
<text text-anchor="start" x="151.99" y="-101.4" font-family="Courier,monospace" font-size="11.00" fill="#000000"> &#160;&#160;&#160;&#160;&#160;&#160;&#160;&#160;&#160;&#160;&#160;&#160;&#160;&#160;&#160;&#160;&#160;&#160;&#160;&#160;&#160;&#160;&#160;&#160;&#160;&#160;&#160;&#160;&#160;&#160;&#160;&#160;&#160;&#160;&#160;&#160;&#160;&#160;&#160;&#160;LastRunRulesEndDate &#160;&#160;&#160;&#160;&#160;&#160;&#160;&#160;&#160;&#160;&#160;&#160;&#160;&#160;&#160;&#160;&#160;&#160;&#160;&#160;&#160;&#160;&#160;&#160;&#160;&#160;&#160;&#160;&#160;&#160;&#160;&#160;&#160;&#160;&#160;&#160;&#160;&#160;</text>
<polygon fill="none" stroke="#99ccff" points="840.99,-95.3 840.99,-114.3 931.99,-114.3 931.99,-95.3 840.99,-95.3"/>
<text text-anchor="start" x="860.0944" y="-101.4" font-family="Courier,monospace" font-size="11.00" fill="#000000">datetime</text>
<polygon fill="none" stroke="#99ccff" points="148.99,-76.3 148.99,-95.3 840.99,-95.3 840.99,-76.3 148.99,-76.3"/>
<text text-anchor="start" x="151.99" y="-82.4" font-family="Courier,monospace" font-size="11.00" fill="#000000"> &#160;&#160;&#160;&#160;&#160;&#160;&#160;&#160;&#160;&#160;&#160;&#160;&#160;&#160;&#160;&#160;&#160;&#160;&#160;&#160;&#160;&#160;&#160;&#160;&#160;&#160;&#160;&#160;&#160;&#160;&#160;&#160;&#160;&#160;&#160;&#160;&#160;&#160;&#160;&#160;IsCloneSource &#160;&#160;&#160;&#160;&#160;&#160;&#160;&#160;&#160;&#160;&#160;&#160;&#160;&#160;&#160;&#160;&#160;&#160;&#160;&#160;&#160;&#160;&#160;&#160;&#160;&#160;&#160;&#160;&#160;&#160;&#160;&#160;&#160;&#160;&#160;&#160;&#160;&#160;</text>
<polygon fill="none" stroke="#99ccff" points="840.99,-76.3 840.99,-95.3 931.99,-95.3 931.99,-76.3 840.99,-76.3"/>
<text text-anchor="start" x="863.3939" y="-82.4" font-family="Courier,monospace" font-size="11.00" fill="#000000">boolean</text>
<polygon fill="none" stroke="#99ccff" points="148.99,-57.3 148.99,-76.3 840.99,-76.3 840.99,-57.3 148.99,-57.3"/>
<text text-anchor="start" x="151.8472" y="-63.4" font-family="Courier,monospace" font-size="11.00" fill="#000000"> &#160;&#160;&#160;&#160;&#160;&#160;&#160;&#160;&#160;&#160;&#160;&#160;&#160;&#160;&#160;&#160;&#160;&#160;&#160;&#160;&#160;&#160;&#160;&#160;&#160;&#160;&#160;&#160;&#160;&#160;&#160;&#160;&#160;&#160;&#160;&#160;&#160;&#160;&#160;&#160;LastOppTerrAssignEndDate &#160;&#160;&#160;&#160;&#160;&#160;&#160;&#160;&#160;&#160;&#160;&#160;&#160;&#160;&#160;&#160;&#160;&#160;&#160;&#160;&#160;&#160;&#160;&#160;&#160;&#160;&#160;&#160;&#160;&#160;&#160;&#160;&#160;&#160;&#160;&#160;&#160;&#160;</text>
<polygon fill="none" stroke="#99ccff" points="840.99,-57.3 840.99,-76.3 931.99,-76.3 931.99,-57.3 840.99,-57.3"/>
<text text-anchor="start" x="860.0944" y="-63.4" font-family="Courier,monospace" font-size="11.00" fill="#000000">datetime</text>
<polygon fill="none" stroke="#99ccff" points="148.99,-38.3 148.99,-57.3 840.99,-57.3 840.99,-38.3 148.99,-38.3"/>
<text text-anchor="start" x="151.8472" y="-44.4" font-family="Courier,monospace" font-size="11.00" fill="#000000"> &#160;&#160;&#160;&#160;&#160;&#160;&#160;&#160;&#160;&#160;&#160;&#160;&#160;&#160;&#160;&#160;&#160;&#160;&#160;&#160;&#160;&#160;&#160;&#160;&#160;&#160;&#160;&#160;&#160;&#160;&#160;&#160;&#160;&#160;&#160;&#160;&#160;&#160;&#160;&#160;IsSharingGroupDeleteDone &#160;&#160;&#160;&#160;&#160;&#160;&#160;&#160;&#160;&#160;&#160;&#160;&#160;&#160;&#160;&#160;&#160;&#160;&#160;&#160;&#160;&#160;&#160;&#160;&#160;&#160;&#160;&#160;&#160;&#160;&#160;&#160;&#160;&#160;&#160;&#160;&#160;&#160;</text>
<polygon fill="none" stroke="#99ccff" points="840.99,-38.3 840.99,-57.3 931.99,-57.3 931.99,-38.3 840.99,-38.3"/>
<text text-anchor="start" x="863.3939" y="-44.4" font-family="Courier,monospace" font-size="11.00" fill="#000000">boolean</text>
<polygon fill="none" stroke="#99ccff" points="148.99,-19.3 148.99,-38.3 840.99,-38.3 840.99,-19.3 148.99,-19.3"/>
<text text-anchor="start" x="151.99" y="-25.4" font-family="Courier,monospace" font-size="11.00" fill="#000000"> &#160;&#160;&#160;&#160;&#160;&#160;&#160;&#160;&#160;&#160;&#160;&#160;&#160;&#160;&#160;&#160;&#160;&#160;&#160;&#160;&#160;&#160;&#160;&#160;&#160;&#160;&#160;&#160;&#160;&#160;&#160;&#160;&#160;&#160;&#160;&#160;&#160;&#160;&#160;&#160;IsOppUnassignmentDone &#160;&#160;&#160;&#160;&#160;&#160;&#160;&#160;&#160;&#160;&#160;&#160;&#160;&#160;&#160;&#160;&#160;&#160;&#160;&#160;&#160;&#160;&#160;&#160;&#160;&#160;&#160;&#160;&#160;&#160;&#160;&#160;&#160;&#160;&#160;&#160;&#160;&#160;</text>
<polygon fill="none" stroke="#99ccff" points="840.99,-19.3 840.99,-38.3 931.99,-38.3 931.99,-19.3 840.99,-19.3"/>
<text text-anchor="start" x="863.3939" y="-25.4" font-family="Courier,monospace" font-size="11.00" fill="#000000">boolean</text>
<polygon fill="none" stroke="#99ccff" points="147.49,-18.8 147.49,-305.8 932.49,-305.8 932.49,-18.8 147.49,-18.8"/>
</a>
</g>
</g>
<!-- User -->
<g id="node2" class="node">
<title>User</title>
<text text-anchor="middle" x="27" y="-216" font-family="Courier,monospace" font-size="11.00" fill="#000000">User</text>
</g>
<!-- Territory2Model&#45;&gt;User -->
<g id="edge1" class="edge">
<title>Territory2Model:w&#45;&gt;User:e</title>
<path fill="none" stroke="#ff99cc" d="M134.1996,-219.3C105.5178,-219.3 75.1846,-219.3 54.1329,-219.3"/>
<polygon fill="#ff99cc" stroke="#ff99cc" points="140.99,-219.3001 148.99,-222.9 144.99,-219.3 148.99,-219.3 148.99,-219.3 148.99,-219.3 144.99,-219.3 148.99,-215.7 140.99,-219.3001 140.99,-219.3001"/>
<ellipse fill="none" stroke="#ff99cc" cx="137.79" cy="-219.3001" rx="3.2" ry="3.2"/>
<text text-anchor="middle" x="100.745" y="-222" font-family="Monaco" font-size="9.00" fill="#000000">LastModifiedBy</text>
</g>
</g>
</svg>
