<?xml version="1.0" encoding="UTF-8" standalone="no"?>
<!DOCTYPE svg PUBLIC "-//W3C//DTD SVG 1.1//EN"
 "http://www.w3.org/Graphics/SVG/1.1/DTD/svg11.dtd">
<!-- Generated by graphviz version 2.40.1 (20161225.0304)
 -->
<!-- Title: Salesforce+ ERD Pages: 1 -->
<svg width="1131pt" height="181pt"
 viewBox="0.00 0.00 1131.45 181.30" xmlns="http://www.w3.org/2000/svg" xmlns:xlink="http://www.w3.org/1999/xlink">
<g id="graph0" class="graph" transform="scale(1 1) rotate(0) translate(4 177.3)">
<title>Salesforce+ ERD</title>
<polygon fill="#efeffd" stroke="transparent" points="-4,4 -4,-177.3 1127.4473,-177.3 1127.4473,4 -4,4"/>
<text text-anchor="middle" x="1074.9541" y="-6.7" font-family="Courier,monospace" font-size="9.00" fill="#000000">Salesforce ERD </text>
<!-- Territory2ObjSharingConfig -->
<g id="node1" class="node">
<title>Territory2ObjSharingConfig</title>
<g id="a_node1"><a xlink:href="#" xlink:title=" Territory2ObjSharingConfig ">
<polygon fill="#ffeeff" stroke="transparent" points="318.4473,-38.3 318.4473,-173.3 1123.4473,-173.3 1123.4473,-38.3 318.4473,-38.3"/>
<polygon fill="#add8e6" stroke="transparent" points="319.9473,-152.8 319.9473,-171.8 1122.9473,-171.8 1122.9473,-152.8 319.9473,-152.8"/>
<polygon fill="none" stroke="#99ccff" points="319.9473,-152.8 319.9473,-171.8 1122.9473,-171.8 1122.9473,-152.8 319.9473,-152.8"/>
<text text-anchor="start" x="635.6616" y="-159.9" font-family="Courier,monospace" font-weight="bold" font-size="11.00" fill="#000000">Territory2ObjSharingConfig</text>
<polygon fill="#99ccff" stroke="transparent" points="319.9473,-133.8 319.9473,-152.8 1031.9473,-152.8 1031.9473,-133.8 319.9473,-133.8"/>
<polygon fill="none" stroke="#99ccff" points="319.9473,-133.8 319.9473,-152.8 1031.9473,-152.8 1031.9473,-133.8 319.9473,-133.8"/>
<text text-anchor="start" x="322.9473" y="-140.9" font-family="Courier,monospace" font-size="11.00" fill="#000000"> &#160;&#160;&#160;&#160;&#160;&#160;&#160;&#160;&#160;&#160;&#160;&#160;&#160;&#160;&#160;&#160;&#160;&#160;&#160;&#160;&#160;&#160;&#160;&#160;&#160;&#160;&#160;&#160;&#160;&#160;&#160;&#160;&#160;&#160;&#160;&#160;&#160;&#160;&#160;&#160;&#160;&#160;</text>
<text text-anchor="start" x="606.7" y="-140.9" font-family="Courier,monospace" font-weight="bold" font-size="11.00" fill="#000000">Id</text>
<text text-anchor="start" x="619.8978" y="-140.9" font-family="Courier,monospace" font-size="11.00" fill="#000000"> &#160;&#160;&#160;&#160;&#160;&#160;&#160;&#160;&#160;&#160;&#160;&#160;&#160;&#160;&#160;&#160;&#160;&#160;&#160;&#160;&#160;&#160;&#160;&#160;&#160;&#160;&#160;&#160;&#160;&#160;&#160;&#160;&#160;&#160;&#160;&#160;&#160;&#160;&#160;</text>
<polygon fill="none" stroke="#99ccff" points="1031.9473,-133.8 1031.9473,-152.8 1122.9473,-152.8 1122.9473,-133.8 1031.9473,-133.8"/>
<text text-anchor="start" x="1057.6506" y="-139.9" font-family="Courier,monospace" font-size="11.00" fill="#000000">id(18)</text>
<polygon fill="none" stroke="#99ccff" points="319.9473,-114.8 319.9473,-133.8 1031.9473,-133.8 1031.9473,-114.8 319.9473,-114.8"/>
<text text-anchor="start" x="322.9473" y="-120.9" font-family="Courier,monospace" font-size="11.00" fill="#000000"> &#160;&#160;&#160;&#160;&#160;&#160;&#160;&#160;&#160;&#160;&#160;&#160;&#160;&#160;&#160;&#160;&#160;&#160;&#160;&#160;&#160;&#160;&#160;&#160;&#160;&#160;&#160;&#160;&#160;&#160;&#160;&#160;&#160;&#160;&#160;&#160;&#160;&#160;&#160;&#160;IsDeleted &#160;&#160;&#160;&#160;&#160;&#160;&#160;&#160;&#160;&#160;&#160;&#160;&#160;&#160;&#160;&#160;&#160;&#160;&#160;&#160;&#160;&#160;&#160;&#160;&#160;&#160;&#160;&#160;&#160;&#160;&#160;&#160;&#160;&#160;&#160;&#160;&#160;&#160;</text>
<polygon fill="none" stroke="#99ccff" points="1031.9473,-114.8 1031.9473,-133.8 1122.9473,-133.8 1122.9473,-114.8 1031.9473,-114.8"/>
<text text-anchor="start" x="1054.3512" y="-120.9" font-family="Courier,monospace" font-size="11.00" fill="#000000">boolean</text>
<polygon fill="none" stroke="#99ccff" points="319.9473,-95.8 319.9473,-114.8 1031.9473,-114.8 1031.9473,-95.8 319.9473,-95.8"/>
<text text-anchor="start" x="322.9473" y="-101.9" font-family="Courier,monospace" font-size="11.00" fill="#000000"> &#160;&#160;&#160;&#160;&#160;&#160;&#160;&#160;&#160;&#160;&#160;&#160;&#160;&#160;&#160;&#160;&#160;&#160;&#160;&#160;&#160;&#160;&#160;&#160;&#160;&#160;&#160;&#160;&#160;&#160;&#160;&#160;&#160;&#160;&#160;&#160;&#160;&#160;&#160;&#160;LastModifiedById &#160;&#160;&#160;&#160;&#160;&#160;&#160;&#160;&#160;&#160;&#160;&#160;&#160;&#160;&#160;&#160;&#160;&#160;&#160;&#160;&#160;&#160;&#160;&#160;&#160;&#160;&#160;&#160;&#160;&#160;&#160;&#160;&#160;&#160;&#160;&#160;&#160;&#160;</text>
<polygon fill="none" stroke="#99ccff" points="1031.9473,-95.8 1031.9473,-114.8 1122.9473,-114.8 1122.9473,-95.8 1031.9473,-95.8"/>
<text text-anchor="start" x="1034.5545" y="-101.9" font-family="Courier,monospace" font-size="11.00" fill="#000000">reference(18)</text>
<polygon fill="none" stroke="#99ccff" points="319.9473,-76.8 319.9473,-95.8 1031.9473,-95.8 1031.9473,-76.8 319.9473,-76.8"/>
<text text-anchor="start" x="322.9473" y="-82.9" font-family="Courier,monospace" font-size="11.00" fill="#000000"> &#160;&#160;&#160;&#160;&#160;&#160;&#160;&#160;&#160;&#160;&#160;&#160;&#160;&#160;&#160;&#160;&#160;&#160;&#160;&#160;&#160;&#160;&#160;&#160;&#160;&#160;&#160;&#160;&#160;&#160;&#160;&#160;&#160;&#160;&#160;&#160;&#160;&#160;&#160;&#160;Territory2Id &#160;&#160;&#160;&#160;&#160;&#160;&#160;&#160;&#160;&#160;&#160;&#160;&#160;&#160;&#160;&#160;&#160;&#160;&#160;&#160;&#160;&#160;&#160;&#160;&#160;&#160;&#160;&#160;&#160;&#160;&#160;&#160;&#160;&#160;&#160;&#160;&#160;&#160;</text>
<polygon fill="none" stroke="#99ccff" points="1031.9473,-76.8 1031.9473,-95.8 1122.9473,-95.8 1122.9473,-76.8 1031.9473,-76.8"/>
<text text-anchor="start" x="1034.5545" y="-82.9" font-family="Courier,monospace" font-size="11.00" fill="#000000">reference(18)</text>
<polygon fill="none" stroke="#99ccff" points="319.9473,-57.8 319.9473,-76.8 1031.9473,-76.8 1031.9473,-57.8 319.9473,-57.8"/>
<text text-anchor="start" x="322.9062" y="-63.9" font-family="Courier,monospace" font-size="11.00" fill="#000000"> &#160;&#160;&#160;&#160;&#160;&#160;&#160;&#160;&#160;&#160;&#160;&#160;&#160;&#160;&#160;&#160;&#160;&#160;&#160;&#160;&#160;&#160;&#160;&#160;&#160;&#160;&#160;&#160;&#160;&#160;&#160;&#160;&#160;&#160;&#160;&#160;&#160;&#160;&#160;&#160;TerritoryMgmtObjectConfigId &#160;&#160;&#160;&#160;&#160;&#160;&#160;&#160;&#160;&#160;&#160;&#160;&#160;&#160;&#160;&#160;&#160;&#160;&#160;&#160;&#160;&#160;&#160;&#160;&#160;&#160;&#160;&#160;&#160;&#160;&#160;&#160;&#160;&#160;&#160;&#160;&#160;&#160;</text>
<polygon fill="none" stroke="#99ccff" points="1031.9473,-57.8 1031.9473,-76.8 1122.9473,-76.8 1122.9473,-57.8 1031.9473,-57.8"/>
<text text-anchor="start" x="1034.5545" y="-63.9" font-family="Courier,monospace" font-size="11.00" fill="#000000">reference(18)</text>
<polygon fill="none" stroke="#99ccff" points="319.9473,-38.8 319.9473,-57.8 1031.9473,-57.8 1031.9473,-38.8 319.9473,-38.8"/>
<text text-anchor="start" x="322.9473" y="-44.9" font-family="Courier,monospace" font-size="11.00" fill="#000000"> &#160;&#160;&#160;&#160;&#160;&#160;&#160;&#160;&#160;&#160;&#160;&#160;&#160;&#160;&#160;&#160;&#160;&#160;&#160;&#160;&#160;&#160;&#160;&#160;&#160;&#160;&#160;&#160;&#160;&#160;&#160;&#160;&#160;&#160;&#160;&#160;&#160;&#160;&#160;&#160;AccessLevel &#160;&#160;&#160;&#160;&#160;&#160;&#160;&#160;&#160;&#160;&#160;&#160;&#160;&#160;&#160;&#160;&#160;&#160;&#160;&#160;&#160;&#160;&#160;&#160;&#160;&#160;&#160;&#160;&#160;&#160;&#160;&#160;&#160;&#160;&#160;&#160;&#160;&#160;</text>
<polygon fill="none" stroke="#99ccff" points="1031.9473,-38.8 1031.9473,-57.8 1122.9473,-57.8 1122.9473,-38.8 1031.9473,-38.8"/>
<text text-anchor="start" x="1034.5545" y="-44.9" font-family="Courier,monospace" font-size="11.00" fill="#000000">picklist(255)</text>
<polygon fill="none" stroke="#99ccff" points="318.4473,-38.3 318.4473,-173.3 1123.4473,-173.3 1123.4473,-38.3 318.4473,-38.3"/>
</a>
</g>
</g>
<!-- User -->
<g id="node2" class="node">
<title>User</title>
<text text-anchor="middle" x="90.4863" y="-131.5" font-family="Courier,monospace" font-size="11.00" fill="#000000">User</text>
</g>
<!-- Territory2ObjSharingConfig&#45;&gt;User -->
<g id="edge1" class="edge">
<title>Territory2ObjSharingConfig:w&#45;&gt;User:e</title>
<path fill="none" stroke="#ff99cc" d="M305.115,-104.9974C235.002,-106.8177 157.4541,-120.7937 117.5347,-128.9445"/>
<polygon fill="#ff99cc" stroke="#ff99cc" points="311.948,-104.9065 319.9952,-108.3997 315.9477,-104.8533 319.9473,-104.8 319.9473,-104.8 319.9473,-104.8 315.9477,-104.8533 319.8994,-101.2003 311.948,-104.9065 311.948,-104.9065"/>
<ellipse fill="none" stroke="#ff99cc" cx="308.7483" cy="-104.9492" rx="3.2" ry="3.2"/>
<text text-anchor="middle" x="249.7099" y="-116.5" font-family="Monaco" font-size="9.00" fill="#000000">LastModifiedBy</text>
</g>
<!-- Territory2 -->
<g id="node3" class="node">
<title>Territory2</title>
<text text-anchor="middle" x="90.4863" y="-82.5" font-family="Courier,monospace" font-size="11.00" fill="#000000">Territory2</text>
</g>
<!-- Territory2ObjSharingConfig&#45;&gt;Territory2 -->
<g id="edge2" class="edge">
<title>Territory2ObjSharingConfig:w&#45;&gt;Territory2:e</title>
<path fill="none" stroke="#ff99cc" d="M305.5025,-85.8C243.1082,-85.8 174.1135,-85.8 131.522,-85.8"/>
<polygon fill="#ff99cc" stroke="#ff99cc" points="311.9473,-85.8001 319.9473,-89.4 315.9473,-85.8 319.9473,-85.8 319.9473,-85.8 319.9473,-85.8 315.9473,-85.8 319.9473,-82.2 311.9473,-85.8001 311.9473,-85.8001"/>
<ellipse fill="none" stroke="#ff99cc" cx="308.7473" cy="-85.8001" rx="3.2" ry="3.2"/>
<text text-anchor="middle" x="249.7099" y="-88.5" font-family="Monaco" font-size="9.00" fill="#000000">Territory2</text>
</g>
<!-- TerritoryMgmtObjectConfig -->
<g id="node4" class="node">
<title>TerritoryMgmtObjectConfig</title>
<text text-anchor="middle" x="90.4863" y="-33.5" font-family="Courier,monospace" font-size="11.00" fill="#000000">TerritoryMgmtObjectConfig</text>
</g>
<!-- Territory2ObjSharingConfig&#45;&gt;TerritoryMgmtObjectConfig -->
<g id="edge3" class="edge">
<title>Territory2ObjSharingConfig:w&#45;&gt;TerritoryMgmtObjectConfig:e</title>
<path fill="none" stroke="#ff99cc" d="M305.5238,-66.613C263.5312,-65.5507 218.838,-60.1118 181.1377,-54.1642"/>
<polygon fill="#ff99cc" stroke="#ff99cc" points="311.948,-66.6963 319.9006,-70.3997 315.9476,-66.7481 319.9473,-66.8 319.9473,-66.8 319.9473,-66.8 315.9476,-66.7481 319.994,-63.2003 311.948,-66.6963 311.948,-66.6963"/>
<ellipse fill="none" stroke="#ff99cc" cx="308.7482" cy="-66.6548" rx="3.2" ry="3.2"/>
<text text-anchor="middle" x="249.7099" y="-68.5" font-family="Monaco" font-size="9.00" fill="#000000">TerritoryMgmtObjectConfig</text>
</g>
</g>
</svg>
