<?xml version="1.0" encoding="UTF-8" standalone="no"?>
<!DOCTYPE svg PUBLIC "-//W3C//DTD SVG 1.1//EN"
 "http://www.w3.org/Graphics/SVG/1.1/DTD/svg11.dtd">
<!-- Generated by graphviz version 2.40.1 (20161225.0304)
 -->
<!-- Title: Salesforce+ ERD Pages: 1 -->
<svg width="956pt" height="181pt"
 viewBox="0.00 0.00 956.46 180.80" xmlns="http://www.w3.org/2000/svg" xmlns:xlink="http://www.w3.org/1999/xlink">
<g id="graph0" class="graph" transform="scale(1 1) rotate(0) translate(4 176.8)">
<title>Salesforce+ ERD</title>
<polygon fill="#efeffd" stroke="transparent" points="-4,4 -4,-176.8 952.4635,-176.8 952.4635,4 -4,4"/>
<text text-anchor="middle" x="899.9703" y="-6.7" font-family="Courier,monospace" font-size="9.00" fill="#000000">Salesforce ERD </text>
<!-- Territory2ModelHistory -->
<g id="node1" class="node">
<title>Territory2ModelHistory</title>
<g id="a_node1"><a xlink:href="#" xlink:title=" Territory2ModelHistory ">
<polygon fill="#ffeeff" stroke="transparent" points="209.4635,-18.8 209.4635,-172.8 948.4635,-172.8 948.4635,-18.8 209.4635,-18.8"/>
<polygon fill="#add8e6" stroke="transparent" points="210.9635,-152.8 210.9635,-171.8 947.9635,-171.8 947.9635,-152.8 210.9635,-152.8"/>
<polygon fill="none" stroke="#99ccff" points="210.9635,-152.8 210.9635,-171.8 947.9635,-171.8 947.9635,-152.8 210.9635,-152.8"/>
<text text-anchor="start" x="506.8756" y="-159.9" font-family="Courier,monospace" font-weight="bold" font-size="11.00" fill="#000000">Territory2ModelHistory</text>
<polygon fill="#99ccff" stroke="transparent" points="210.9635,-133.8 210.9635,-152.8 856.9635,-152.8 856.9635,-133.8 210.9635,-133.8"/>
<polygon fill="none" stroke="#99ccff" points="210.9635,-133.8 210.9635,-152.8 856.9635,-152.8 856.9635,-133.8 210.9635,-133.8"/>
<text text-anchor="start" x="213.9635" y="-140.9" font-family="Courier,monospace" font-size="11.00" fill="#000000"> &#160;&#160;&#160;&#160;&#160;&#160;&#160;&#160;&#160;&#160;&#160;&#160;&#160;&#160;&#160;&#160;&#160;&#160;&#160;&#160;&#160;&#160;&#160;&#160;&#160;&#160;&#160;&#160;&#160;&#160;&#160;&#160;&#160;&#160;&#160;&#160;&#160;&#160;&#160;&#160;&#160;&#160;</text>
<text text-anchor="start" x="497.7162" y="-140.9" font-family="Courier,monospace" font-weight="bold" font-size="11.00" fill="#000000">Id</text>
<text text-anchor="start" x="510.914" y="-140.9" font-family="Courier,monospace" font-size="11.00" fill="#000000"> &#160;&#160;&#160;&#160;&#160;&#160;&#160;&#160;&#160;&#160;&#160;&#160;&#160;&#160;&#160;&#160;&#160;&#160;&#160;&#160;&#160;&#160;&#160;&#160;&#160;&#160;&#160;&#160;&#160;&#160;&#160;&#160;&#160;&#160;&#160;&#160;&#160;&#160;&#160;</text>
<polygon fill="none" stroke="#99ccff" points="856.9635,-133.8 856.9635,-152.8 947.9635,-152.8 947.9635,-133.8 856.9635,-133.8"/>
<text text-anchor="start" x="882.6668" y="-139.9" font-family="Courier,monospace" font-size="11.00" fill="#000000">id(18)</text>
<polygon fill="none" stroke="#99ccff" points="210.9635,-114.8 210.9635,-133.8 856.9635,-133.8 856.9635,-114.8 210.9635,-114.8"/>
<text text-anchor="start" x="213.9635" y="-120.9" font-family="Courier,monospace" font-size="11.00" fill="#000000"> &#160;&#160;&#160;&#160;&#160;&#160;&#160;&#160;&#160;&#160;&#160;&#160;&#160;&#160;&#160;&#160;&#160;&#160;&#160;&#160;&#160;&#160;&#160;&#160;&#160;&#160;&#160;&#160;&#160;&#160;&#160;&#160;&#160;&#160;&#160;&#160;&#160;&#160;&#160;&#160;IsDeleted &#160;&#160;&#160;&#160;&#160;&#160;&#160;&#160;&#160;&#160;&#160;&#160;&#160;&#160;&#160;&#160;&#160;&#160;&#160;&#160;&#160;&#160;&#160;&#160;&#160;&#160;&#160;&#160;&#160;&#160;&#160;&#160;&#160;&#160;&#160;&#160;&#160;&#160;</text>
<polygon fill="none" stroke="#99ccff" points="856.9635,-114.8 856.9635,-133.8 947.9635,-133.8 947.9635,-114.8 856.9635,-114.8"/>
<text text-anchor="start" x="879.3674" y="-120.9" font-family="Courier,monospace" font-size="11.00" fill="#000000">boolean</text>
<polygon fill="none" stroke="#99ccff" points="210.9635,-95.8 210.9635,-114.8 856.9635,-114.8 856.9635,-95.8 210.9635,-95.8"/>
<text text-anchor="start" x="213.9169" y="-101.9" font-family="Courier,monospace" font-size="11.00" fill="#000000"> &#160;&#160;&#160;&#160;&#160;&#160;&#160;&#160;&#160;&#160;&#160;&#160;&#160;&#160;&#160;&#160;&#160;&#160;&#160;&#160;&#160;&#160;&#160;&#160;&#160;&#160;&#160;&#160;&#160;&#160;&#160;&#160;&#160;&#160;&#160;&#160;&#160;&#160;&#160;&#160;Territory2ModelId &#160;&#160;&#160;&#160;&#160;&#160;&#160;&#160;&#160;&#160;&#160;&#160;&#160;&#160;&#160;&#160;&#160;&#160;&#160;&#160;&#160;&#160;&#160;&#160;&#160;&#160;&#160;&#160;&#160;&#160;&#160;&#160;&#160;&#160;&#160;&#160;&#160;&#160;</text>
<polygon fill="none" stroke="#99ccff" points="856.9635,-95.8 856.9635,-114.8 947.9635,-114.8 947.9635,-95.8 856.9635,-95.8"/>
<text text-anchor="start" x="859.5707" y="-101.9" font-family="Courier,monospace" font-size="11.00" fill="#000000">reference(18)</text>
<polygon fill="none" stroke="#99ccff" points="210.9635,-76.8 210.9635,-95.8 856.9635,-95.8 856.9635,-76.8 210.9635,-76.8"/>
<text text-anchor="start" x="213.9635" y="-82.9" font-family="Courier,monospace" font-size="11.00" fill="#000000"> &#160;&#160;&#160;&#160;&#160;&#160;&#160;&#160;&#160;&#160;&#160;&#160;&#160;&#160;&#160;&#160;&#160;&#160;&#160;&#160;&#160;&#160;&#160;&#160;&#160;&#160;&#160;&#160;&#160;&#160;&#160;&#160;&#160;&#160;&#160;&#160;&#160;&#160;&#160;&#160;Field &#160;&#160;&#160;&#160;&#160;&#160;&#160;&#160;&#160;&#160;&#160;&#160;&#160;&#160;&#160;&#160;&#160;&#160;&#160;&#160;&#160;&#160;&#160;&#160;&#160;&#160;&#160;&#160;&#160;&#160;&#160;&#160;&#160;&#160;&#160;&#160;&#160;&#160;</text>
<polygon fill="none" stroke="#99ccff" points="856.9635,-76.8 856.9635,-95.8 947.9635,-95.8 947.9635,-76.8 856.9635,-76.8"/>
<text text-anchor="start" x="859.5707" y="-82.9" font-family="Courier,monospace" font-size="11.00" fill="#000000">picklist(255)</text>
<polygon fill="none" stroke="#99ccff" points="210.9635,-57.8 210.9635,-76.8 856.9635,-76.8 856.9635,-57.8 210.9635,-57.8"/>
<text text-anchor="start" x="213.9635" y="-63.9" font-family="Courier,monospace" font-size="11.00" fill="#000000"> &#160;&#160;&#160;&#160;&#160;&#160;&#160;&#160;&#160;&#160;&#160;&#160;&#160;&#160;&#160;&#160;&#160;&#160;&#160;&#160;&#160;&#160;&#160;&#160;&#160;&#160;&#160;&#160;&#160;&#160;&#160;&#160;&#160;&#160;&#160;&#160;&#160;&#160;&#160;&#160;DataType &#160;&#160;&#160;&#160;&#160;&#160;&#160;&#160;&#160;&#160;&#160;&#160;&#160;&#160;&#160;&#160;&#160;&#160;&#160;&#160;&#160;&#160;&#160;&#160;&#160;&#160;&#160;&#160;&#160;&#160;&#160;&#160;&#160;&#160;&#160;&#160;&#160;&#160;</text>
<polygon fill="none" stroke="#99ccff" points="856.9635,-57.8 856.9635,-76.8 947.9635,-76.8 947.9635,-57.8 856.9635,-57.8"/>
<text text-anchor="start" x="862.8701" y="-63.9" font-family="Courier,monospace" font-size="11.00" fill="#000000">picklist(40)</text>
<polygon fill="none" stroke="#99ccff" points="210.9635,-38.8 210.9635,-57.8 856.9635,-57.8 856.9635,-38.8 210.9635,-38.8"/>
<text text-anchor="start" x="213.9635" y="-44.9" font-family="Courier,monospace" font-size="11.00" fill="#000000"> &#160;&#160;&#160;&#160;&#160;&#160;&#160;&#160;&#160;&#160;&#160;&#160;&#160;&#160;&#160;&#160;&#160;&#160;&#160;&#160;&#160;&#160;&#160;&#160;&#160;&#160;&#160;&#160;&#160;&#160;&#160;&#160;&#160;&#160;&#160;&#160;&#160;&#160;&#160;&#160;OldValue &#160;&#160;&#160;&#160;&#160;&#160;&#160;&#160;&#160;&#160;&#160;&#160;&#160;&#160;&#160;&#160;&#160;&#160;&#160;&#160;&#160;&#160;&#160;&#160;&#160;&#160;&#160;&#160;&#160;&#160;&#160;&#160;&#160;&#160;&#160;&#160;&#160;&#160;</text>
<polygon fill="none" stroke="#99ccff" points="856.9635,-38.8 856.9635,-57.8 947.9635,-57.8 947.9635,-38.8 856.9635,-38.8"/>
<text text-anchor="start" x="862.8701" y="-44.9" font-family="Courier,monospace" font-size="11.00" fill="#000000">anyType(255)</text>
<polygon fill="none" stroke="#99ccff" points="210.9635,-19.8 210.9635,-38.8 856.9635,-38.8 856.9635,-19.8 210.9635,-19.8"/>
<text text-anchor="start" x="213.9635" y="-25.9" font-family="Courier,monospace" font-size="11.00" fill="#000000"> &#160;&#160;&#160;&#160;&#160;&#160;&#160;&#160;&#160;&#160;&#160;&#160;&#160;&#160;&#160;&#160;&#160;&#160;&#160;&#160;&#160;&#160;&#160;&#160;&#160;&#160;&#160;&#160;&#160;&#160;&#160;&#160;&#160;&#160;&#160;&#160;&#160;&#160;&#160;&#160;NewValue &#160;&#160;&#160;&#160;&#160;&#160;&#160;&#160;&#160;&#160;&#160;&#160;&#160;&#160;&#160;&#160;&#160;&#160;&#160;&#160;&#160;&#160;&#160;&#160;&#160;&#160;&#160;&#160;&#160;&#160;&#160;&#160;&#160;&#160;&#160;&#160;&#160;&#160;</text>
<polygon fill="none" stroke="#99ccff" points="856.9635,-19.8 856.9635,-38.8 947.9635,-38.8 947.9635,-19.8 856.9635,-19.8"/>
<text text-anchor="start" x="862.8701" y="-25.9" font-family="Courier,monospace" font-size="11.00" fill="#000000">anyType(255)</text>
<polygon fill="none" stroke="#99ccff" points="209.4635,-18.8 209.4635,-172.8 948.4635,-172.8 948.4635,-18.8 209.4635,-18.8"/>
</a>
</g>
</g>
<!-- Territory2Model -->
<g id="node2" class="node">
<title>Territory2Model</title>
<text text-anchor="middle" x="57.4918" y="-102.5" font-family="Courier,monospace" font-size="11.00" fill="#000000">Territory2Model</text>
</g>
<!-- Territory2ModelHistory&#45;&gt;Territory2Model -->
<g id="edge1" class="edge">
<title>Territory2ModelHistory:w&#45;&gt;Territory2Model:e</title>
<path fill="none" stroke="#ff99cc" d="M196.2523,-105.8C168.6263,-105.8 139.4777,-105.8 115.0658,-105.8"/>
<polygon fill="#ff99cc" stroke="#ff99cc" points="202.9635,-105.8001 210.9635,-109.4 206.9635,-105.8 210.9635,-105.8 210.9635,-105.8 210.9635,-105.8 206.9635,-105.8 210.9635,-102.2 202.9635,-105.8001 202.9635,-105.8001"/>
<ellipse fill="none" stroke="#ff99cc" cx="199.7635" cy="-105.8001" rx="3.2" ry="3.2"/>
<text text-anchor="middle" x="162.2235" y="-108.5" font-family="Monaco" font-size="9.00" fill="#000000">Territory2Model</text>
</g>
</g>
</svg>
