<?xml version="1.0" encoding="UTF-8" standalone="no"?>
<!DOCTYPE svg PUBLIC "-//W3C//DTD SVG 1.1//EN"
 "http://www.w3.org/Graphics/SVG/1.1/DTD/svg11.dtd">
<!-- Generated by graphviz version 2.40.1 (20161225.0304)
 -->
<!-- Title: Salesforce+ ERD Pages: 1 -->
<svg width="915pt" height="181pt"
 viewBox="0.00 0.00 915.48 181.30" xmlns="http://www.w3.org/2000/svg" xmlns:xlink="http://www.w3.org/1999/xlink">
<g id="graph0" class="graph" transform="scale(1 1) rotate(0) translate(4 177.3)">
<title>Salesforce+ ERD</title>
<polygon fill="#efeffd" stroke="transparent" points="-4,4 -4,-177.3 911.479,-177.3 911.479,4 -4,4"/>
<text text-anchor="middle" x="858.9858" y="-6.7" font-family="Courier,monospace" font-size="9.00" fill="#000000">Salesforce ERD </text>
<!-- Territory2ObjectExclusion -->
<g id="node1" class="node">
<title>Territory2ObjectExclusion</title>
<g id="a_node1"><a xlink:href="#" xlink:title=" Territory2ObjectExclusion ">
<polygon fill="#ffeeff" stroke="transparent" points="175.479,-38.3 175.479,-173.3 907.479,-173.3 907.479,-38.3 175.479,-38.3"/>
<polygon fill="#add8e6" stroke="transparent" points="176.479,-152.8 176.479,-171.8 906.479,-171.8 906.479,-152.8 176.479,-152.8"/>
<polygon fill="none" stroke="#99ccff" points="176.479,-152.8 176.479,-171.8 906.479,-171.8 906.479,-152.8 176.479,-152.8"/>
<text text-anchor="start" x="458.9928" y="-159.9" font-family="Courier,monospace" font-weight="bold" font-size="11.00" fill="#000000">Territory2ObjectExclusion</text>
<polygon fill="#99ccff" stroke="transparent" points="176.479,-133.8 176.479,-152.8 815.479,-152.8 815.479,-133.8 176.479,-133.8"/>
<polygon fill="none" stroke="#99ccff" points="176.479,-133.8 176.479,-152.8 815.479,-152.8 815.479,-133.8 176.479,-133.8"/>
<text text-anchor="start" x="179.479" y="-140.9" font-family="Courier,monospace" font-size="11.00" fill="#000000"> &#160;&#160;&#160;&#160;&#160;&#160;&#160;&#160;&#160;&#160;&#160;&#160;&#160;&#160;&#160;&#160;&#160;&#160;&#160;&#160;&#160;&#160;&#160;&#160;&#160;&#160;&#160;&#160;&#160;&#160;&#160;&#160;&#160;&#160;&#160;&#160;&#160;&#160;&#160;&#160;&#160;&#160;</text>
<text text-anchor="start" x="463.2317" y="-140.9" font-family="Courier,monospace" font-weight="bold" font-size="11.00" fill="#000000">Id</text>
<text text-anchor="start" x="476.4295" y="-140.9" font-family="Courier,monospace" font-size="11.00" fill="#000000"> &#160;&#160;&#160;&#160;&#160;&#160;&#160;&#160;&#160;&#160;&#160;&#160;&#160;&#160;&#160;&#160;&#160;&#160;&#160;&#160;&#160;&#160;&#160;&#160;&#160;&#160;&#160;&#160;&#160;&#160;&#160;&#160;&#160;&#160;&#160;&#160;&#160;&#160;&#160;</text>
<polygon fill="none" stroke="#99ccff" points="815.479,-133.8 815.479,-152.8 906.479,-152.8 906.479,-133.8 815.479,-133.8"/>
<text text-anchor="start" x="841.1823" y="-139.9" font-family="Courier,monospace" font-size="11.00" fill="#000000">id(18)</text>
<polygon fill="none" stroke="#99ccff" points="176.479,-114.8 176.479,-133.8 815.479,-133.8 815.479,-114.8 176.479,-114.8"/>
<text text-anchor="start" x="179.479" y="-120.9" font-family="Courier,monospace" font-size="11.00" fill="#000000"> &#160;&#160;&#160;&#160;&#160;&#160;&#160;&#160;&#160;&#160;&#160;&#160;&#160;&#160;&#160;&#160;&#160;&#160;&#160;&#160;&#160;&#160;&#160;&#160;&#160;&#160;&#160;&#160;&#160;&#160;&#160;&#160;&#160;&#160;&#160;&#160;&#160;&#160;&#160;&#160;IsDeleted &#160;&#160;&#160;&#160;&#160;&#160;&#160;&#160;&#160;&#160;&#160;&#160;&#160;&#160;&#160;&#160;&#160;&#160;&#160;&#160;&#160;&#160;&#160;&#160;&#160;&#160;&#160;&#160;&#160;&#160;&#160;&#160;&#160;&#160;&#160;&#160;&#160;&#160;</text>
<polygon fill="none" stroke="#99ccff" points="815.479,-114.8 815.479,-133.8 906.479,-133.8 906.479,-114.8 815.479,-114.8"/>
<text text-anchor="start" x="837.8829" y="-120.9" font-family="Courier,monospace" font-size="11.00" fill="#000000">boolean</text>
<polygon fill="none" stroke="#99ccff" points="176.479,-95.8 176.479,-114.8 815.479,-114.8 815.479,-95.8 176.479,-95.8"/>
<text text-anchor="start" x="179.2318" y="-101.9" font-family="Courier,monospace" font-size="11.00" fill="#000000"> &#160;&#160;&#160;&#160;&#160;&#160;&#160;&#160;&#160;&#160;&#160;&#160;&#160;&#160;&#160;&#160;&#160;&#160;&#160;&#160;&#160;&#160;&#160;&#160;&#160;&#160;&#160;&#160;&#160;&#160;&#160;&#160;&#160;&#160;&#160;&#160;&#160;&#160;&#160;&#160;LastModifiedById &#160;&#160;&#160;&#160;&#160;&#160;&#160;&#160;&#160;&#160;&#160;&#160;&#160;&#160;&#160;&#160;&#160;&#160;&#160;&#160;&#160;&#160;&#160;&#160;&#160;&#160;&#160;&#160;&#160;&#160;&#160;&#160;&#160;&#160;&#160;&#160;&#160;&#160;</text>
<polygon fill="none" stroke="#99ccff" points="815.479,-95.8 815.479,-114.8 906.479,-114.8 906.479,-95.8 815.479,-95.8"/>
<text text-anchor="start" x="818.0862" y="-101.9" font-family="Courier,monospace" font-size="11.00" fill="#000000">reference(18)</text>
<polygon fill="none" stroke="#99ccff" points="176.479,-76.8 176.479,-95.8 815.479,-95.8 815.479,-76.8 176.479,-76.8"/>
<text text-anchor="start" x="179.479" y="-82.9" font-family="Courier,monospace" font-size="11.00" fill="#000000"> &#160;&#160;&#160;&#160;&#160;&#160;&#160;&#160;&#160;&#160;&#160;&#160;&#160;&#160;&#160;&#160;&#160;&#160;&#160;&#160;&#160;&#160;&#160;&#160;&#160;&#160;&#160;&#160;&#160;&#160;&#160;&#160;&#160;&#160;&#160;&#160;&#160;&#160;&#160;&#160;ObjectId &#160;&#160;&#160;&#160;&#160;&#160;&#160;&#160;&#160;&#160;&#160;&#160;&#160;&#160;&#160;&#160;&#160;&#160;&#160;&#160;&#160;&#160;&#160;&#160;&#160;&#160;&#160;&#160;&#160;&#160;&#160;&#160;&#160;&#160;&#160;&#160;&#160;&#160;</text>
<polygon fill="none" stroke="#99ccff" points="815.479,-76.8 815.479,-95.8 906.479,-95.8 906.479,-76.8 815.479,-76.8"/>
<text text-anchor="start" x="818.0862" y="-82.9" font-family="Courier,monospace" font-size="11.00" fill="#000000">reference(18)</text>
<polygon fill="none" stroke="#99ccff" points="176.479,-57.8 176.479,-76.8 815.479,-76.8 815.479,-57.8 176.479,-57.8"/>
<text text-anchor="start" x="179.479" y="-63.9" font-family="Courier,monospace" font-size="11.00" fill="#000000"> &#160;&#160;&#160;&#160;&#160;&#160;&#160;&#160;&#160;&#160;&#160;&#160;&#160;&#160;&#160;&#160;&#160;&#160;&#160;&#160;&#160;&#160;&#160;&#160;&#160;&#160;&#160;&#160;&#160;&#160;&#160;&#160;&#160;&#160;&#160;&#160;&#160;&#160;&#160;&#160;Territory2Id &#160;&#160;&#160;&#160;&#160;&#160;&#160;&#160;&#160;&#160;&#160;&#160;&#160;&#160;&#160;&#160;&#160;&#160;&#160;&#160;&#160;&#160;&#160;&#160;&#160;&#160;&#160;&#160;&#160;&#160;&#160;&#160;&#160;&#160;&#160;&#160;&#160;&#160;</text>
<polygon fill="none" stroke="#99ccff" points="815.479,-57.8 815.479,-76.8 906.479,-76.8 906.479,-57.8 815.479,-57.8"/>
<text text-anchor="start" x="818.0862" y="-63.9" font-family="Courier,monospace" font-size="11.00" fill="#000000">reference(18)</text>
<polygon fill="none" stroke="#99ccff" points="176.479,-38.8 176.479,-57.8 815.479,-57.8 815.479,-38.8 176.479,-38.8"/>
<text text-anchor="start" x="179.479" y="-44.9" font-family="Courier,monospace" font-size="11.00" fill="#000000"> &#160;&#160;&#160;&#160;&#160;&#160;&#160;&#160;&#160;&#160;&#160;&#160;&#160;&#160;&#160;&#160;&#160;&#160;&#160;&#160;&#160;&#160;&#160;&#160;&#160;&#160;&#160;&#160;&#160;&#160;&#160;&#160;&#160;&#160;&#160;&#160;&#160;&#160;&#160;&#160;Note &#160;&#160;&#160;&#160;&#160;&#160;&#160;&#160;&#160;&#160;&#160;&#160;&#160;&#160;&#160;&#160;&#160;&#160;&#160;&#160;&#160;&#160;&#160;&#160;&#160;&#160;&#160;&#160;&#160;&#160;&#160;&#160;&#160;&#160;&#160;&#160;&#160;&#160;</text>
<polygon fill="none" stroke="#99ccff" points="815.479,-38.8 815.479,-57.8 906.479,-57.8 906.479,-38.8 815.479,-38.8"/>
<text text-anchor="start" x="824.6851" y="-44.9" font-family="Courier,monospace" font-size="11.00" fill="#000000">string(255)</text>
<polygon fill="none" stroke="#99ccff" points="175.479,-38.3 175.479,-173.3 907.479,-173.3 907.479,-38.3 175.479,-38.3"/>
</a>
</g>
</g>
<!-- User -->
<g id="node2" class="node">
<title>User</title>
<text text-anchor="middle" x="40.9945" y="-131.5" font-family="Courier,monospace" font-size="11.00" fill="#000000">User</text>
</g>
<!-- Territory2ObjectExclusion&#45;&gt;User -->
<g id="edge1" class="edge">
<title>Territory2ObjectExclusion:w&#45;&gt;User:e</title>
<path fill="none" stroke="#ff99cc" d="M161.9353,-105.3144C127.6756,-107.6494 91.8021,-117.469 68.11,-125.1427"/>
<polygon fill="#ff99cc" stroke="#ff99cc" points="168.484,-105.0828 176.6063,-108.3978 172.4815,-104.9414 176.479,-104.8 176.479,-104.8 176.479,-104.8 172.4815,-104.9414 176.3517,-101.2022 168.484,-105.0828 168.484,-105.0828"/>
<ellipse fill="none" stroke="#ff99cc" cx="165.286" cy="-105.196" rx="3.2" ry="3.2"/>
<text text-anchor="middle" x="128.734" y="-117.5" font-family="Monaco" font-size="9.00" fill="#000000">LastModifiedBy</text>
</g>
<!-- Account -->
<g id="node3" class="node">
<title>Account</title>
<text text-anchor="middle" x="40.9945" y="-82.5" font-family="Courier,monospace" font-size="11.00" fill="#000000">Account</text>
</g>
<!-- Territory2ObjectExclusion&#45;&gt;Account -->
<g id="edge2" class="edge">
<title>Territory2ObjectExclusion:w&#45;&gt;Account:e</title>
<path fill="none" stroke="#ff99cc" d="M161.9972,-85.8C130.0595,-85.8 96.0191,-85.8 72.2057,-85.8"/>
<polygon fill="#ff99cc" stroke="#ff99cc" points="168.479,-85.8001 176.479,-89.4 172.479,-85.8 176.479,-85.8 176.479,-85.8 176.479,-85.8 172.479,-85.8 176.479,-82.2 168.479,-85.8001 168.479,-85.8001"/>
<ellipse fill="none" stroke="#ff99cc" cx="165.279" cy="-85.8001" rx="3.2" ry="3.2"/>
<text text-anchor="middle" x="128.734" y="-88.5" font-family="Monaco" font-size="9.00" fill="#000000">Object</text>
</g>
<!-- Territory2 -->
<g id="node4" class="node">
<title>Territory2</title>
<text text-anchor="middle" x="40.9945" y="-33.5" font-family="Courier,monospace" font-size="11.00" fill="#000000">Territory2</text>
</g>
<!-- Territory2ObjectExclusion&#45;&gt;Territory2 -->
<g id="edge3" class="edge">
<title>Territory2ObjectExclusion:w&#45;&gt;Territory2:e</title>
<path fill="none" stroke="#ff99cc" d="M161.9786,-66.2886C133.985,-64.3857 104.9099,-57.4826 82.2802,-50.8338"/>
<polygon fill="#ff99cc" stroke="#ff99cc" points="168.484,-66.518 176.3521,-70.3978 172.4815,-66.659 176.479,-66.8 176.479,-66.8 176.479,-66.8 172.4815,-66.659 176.6059,-63.2022 168.484,-66.518 168.484,-66.518"/>
<ellipse fill="none" stroke="#ff99cc" cx="165.286" cy="-66.4051" rx="3.2" ry="3.2"/>
<text text-anchor="middle" x="128.734" y="-68.5" font-family="Monaco" font-size="9.00" fill="#000000">Territory2</text>
</g>
</g>
</svg>
