<?xml version="1.0" encoding="UTF-8" standalone="no"?>
<!DOCTYPE svg PUBLIC "-//W3C//DTD SVG 1.1//EN"
 "http://www.w3.org/Graphics/SVG/1.1/DTD/svg11.dtd">
<!-- Generated by graphviz version 2.40.1 (20161225.0304)
 -->
<!-- Title: Salesforce+ ERD Pages: 1 -->
<svg width="989pt" height="327pt"
 viewBox="0.00 0.00 989.46 326.80" xmlns="http://www.w3.org/2000/svg" xmlns:xlink="http://www.w3.org/1999/xlink">
<g id="graph0" class="graph" transform="scale(1 1) rotate(0) translate(4 322.8)">
<title>Salesforce+ ERD</title>
<polygon fill="#efeffd" stroke="transparent" points="-4,4 -4,-322.8 985.4635,-322.8 985.4635,4 -4,4"/>
<text text-anchor="middle" x="932.9703" y="-6.7" font-family="Courier,monospace" font-size="9.00" fill="#000000">Salesforce ERD </text>
<!-- Territory2 -->
<g id="node1" class="node">
<title>Territory2</title>
<g id="a_node1"><a xlink:href="#" xlink:title=" Territory2 ">
<polygon fill="#ffeeff" stroke="transparent" points="209.4635,-18.8 209.4635,-286.8 981.4635,-286.8 981.4635,-18.8 209.4635,-18.8"/>
<polygon fill="#add8e6" stroke="transparent" points="210.4635,-266.8 210.4635,-285.8 980.4635,-285.8 980.4635,-266.8 210.4635,-266.8"/>
<polygon fill="none" stroke="#99ccff" points="210.4635,-266.8 210.4635,-285.8 980.4635,-285.8 980.4635,-266.8 210.4635,-266.8"/>
<text text-anchor="start" x="562.469" y="-273.9" font-family="Courier,monospace" font-weight="bold" font-size="11.00" fill="#000000">Territory2</text>
<polygon fill="#99ccff" stroke="transparent" points="210.4635,-247.8 210.4635,-266.8 889.4635,-266.8 889.4635,-247.8 210.4635,-247.8"/>
<polygon fill="none" stroke="#99ccff" points="210.4635,-247.8 210.4635,-266.8 889.4635,-266.8 889.4635,-247.8 210.4635,-247.8"/>
<text text-anchor="start" x="213.4635" y="-254.9" font-family="Courier,monospace" font-size="11.00" fill="#000000"> &#160;&#160;&#160;&#160;&#160;&#160;&#160;&#160;&#160;&#160;&#160;&#160;&#160;&#160;&#160;&#160;&#160;&#160;&#160;&#160;&#160;&#160;&#160;&#160;&#160;&#160;&#160;&#160;&#160;&#160;&#160;&#160;&#160;&#160;&#160;&#160;&#160;&#160;&#160;&#160;&#160;&#160;</text>
<text text-anchor="start" x="497.2162" y="-254.9" font-family="Courier,monospace" font-weight="bold" font-size="11.00" fill="#000000">Id</text>
<text text-anchor="start" x="510.414" y="-254.9" font-family="Courier,monospace" font-size="11.00" fill="#000000"> &#160;&#160;&#160;&#160;&#160;&#160;&#160;&#160;&#160;&#160;&#160;&#160;&#160;&#160;&#160;&#160;&#160;&#160;&#160;&#160;&#160;&#160;&#160;&#160;&#160;&#160;&#160;&#160;&#160;&#160;&#160;&#160;&#160;&#160;&#160;&#160;&#160;&#160;&#160;</text>
<polygon fill="none" stroke="#99ccff" points="889.4635,-247.8 889.4635,-266.8 980.4635,-266.8 980.4635,-247.8 889.4635,-247.8"/>
<text text-anchor="start" x="915.1668" y="-253.9" font-family="Courier,monospace" font-size="11.00" fill="#000000">id(18)</text>
<polygon fill="none" stroke="#99ccff" points="210.4635,-228.8 210.4635,-247.8 889.4635,-247.8 889.4635,-228.8 210.4635,-228.8"/>
<text text-anchor="start" x="213.4635" y="-234.9" font-family="Courier,monospace" font-size="11.00" fill="#000000"> &#160;&#160;&#160;&#160;&#160;&#160;&#160;&#160;&#160;&#160;&#160;&#160;&#160;&#160;&#160;&#160;&#160;&#160;&#160;&#160;&#160;&#160;&#160;&#160;&#160;&#160;&#160;&#160;&#160;&#160;&#160;&#160;&#160;&#160;&#160;&#160;&#160;&#160;&#160;&#160;Name &#160;&#160;&#160;&#160;&#160;&#160;&#160;&#160;&#160;&#160;&#160;&#160;&#160;&#160;&#160;&#160;&#160;&#160;&#160;&#160;&#160;&#160;&#160;&#160;&#160;&#160;&#160;&#160;&#160;&#160;&#160;&#160;&#160;&#160;&#160;&#160;&#160;&#160;</text>
<polygon fill="none" stroke="#99ccff" points="889.4635,-228.8 889.4635,-247.8 980.4635,-247.8 980.4635,-228.8 889.4635,-228.8"/>
<text text-anchor="start" x="901.969" y="-234.9" font-family="Courier,monospace" font-size="11.00" fill="#000000">string(80)</text>
<polygon fill="none" stroke="#99ccff" points="210.4635,-209.8 210.4635,-228.8 889.4635,-228.8 889.4635,-209.8 210.4635,-209.8"/>
<text text-anchor="start" x="213.4635" y="-215.9" font-family="Courier,monospace" font-size="11.00" fill="#000000"> &#160;&#160;&#160;&#160;&#160;&#160;&#160;&#160;&#160;&#160;&#160;&#160;&#160;&#160;&#160;&#160;&#160;&#160;&#160;&#160;&#160;&#160;&#160;&#160;&#160;&#160;&#160;&#160;&#160;&#160;&#160;&#160;&#160;&#160;&#160;&#160;&#160;&#160;&#160;&#160;Territory2TypeId &#160;&#160;&#160;&#160;&#160;&#160;&#160;&#160;&#160;&#160;&#160;&#160;&#160;&#160;&#160;&#160;&#160;&#160;&#160;&#160;&#160;&#160;&#160;&#160;&#160;&#160;&#160;&#160;&#160;&#160;&#160;&#160;&#160;&#160;&#160;&#160;&#160;&#160;</text>
<polygon fill="none" stroke="#99ccff" points="889.4635,-209.8 889.4635,-228.8 980.4635,-228.8 980.4635,-209.8 889.4635,-209.8"/>
<text text-anchor="start" x="892.0707" y="-215.9" font-family="Courier,monospace" font-size="11.00" fill="#000000">reference(18)</text>
<polygon fill="none" stroke="#99ccff" points="210.4635,-190.8 210.4635,-209.8 889.4635,-209.8 889.4635,-190.8 210.4635,-190.8"/>
<text text-anchor="start" x="213.4635" y="-196.9" font-family="Courier,monospace" font-size="11.00" fill="#000000"> &#160;&#160;&#160;&#160;&#160;&#160;&#160;&#160;&#160;&#160;&#160;&#160;&#160;&#160;&#160;&#160;&#160;&#160;&#160;&#160;&#160;&#160;&#160;&#160;&#160;&#160;&#160;&#160;&#160;&#160;&#160;&#160;&#160;&#160;&#160;&#160;&#160;&#160;&#160;&#160;Territory2ModelId &#160;&#160;&#160;&#160;&#160;&#160;&#160;&#160;&#160;&#160;&#160;&#160;&#160;&#160;&#160;&#160;&#160;&#160;&#160;&#160;&#160;&#160;&#160;&#160;&#160;&#160;&#160;&#160;&#160;&#160;&#160;&#160;&#160;&#160;&#160;&#160;&#160;&#160;</text>
<polygon fill="none" stroke="#99ccff" points="889.4635,-190.8 889.4635,-209.8 980.4635,-209.8 980.4635,-190.8 889.4635,-190.8"/>
<text text-anchor="start" x="892.0707" y="-196.9" font-family="Courier,monospace" font-size="11.00" fill="#000000">reference(18)</text>
<polygon fill="none" stroke="#99ccff" points="210.4635,-171.8 210.4635,-190.8 889.4635,-190.8 889.4635,-171.8 210.4635,-171.8"/>
<text text-anchor="start" x="213.4635" y="-177.9" font-family="Courier,monospace" font-size="11.00" fill="#000000"> &#160;&#160;&#160;&#160;&#160;&#160;&#160;&#160;&#160;&#160;&#160;&#160;&#160;&#160;&#160;&#160;&#160;&#160;&#160;&#160;&#160;&#160;&#160;&#160;&#160;&#160;&#160;&#160;&#160;&#160;&#160;&#160;&#160;&#160;&#160;&#160;&#160;&#160;&#160;&#160;ParentTerritory2Id &#160;&#160;&#160;&#160;&#160;&#160;&#160;&#160;&#160;&#160;&#160;&#160;&#160;&#160;&#160;&#160;&#160;&#160;&#160;&#160;&#160;&#160;&#160;&#160;&#160;&#160;&#160;&#160;&#160;&#160;&#160;&#160;&#160;&#160;&#160;&#160;&#160;&#160;</text>
<polygon fill="none" stroke="#99ccff" points="889.4635,-171.8 889.4635,-190.8 980.4635,-190.8 980.4635,-171.8 889.4635,-171.8"/>
<text text-anchor="start" x="892.0707" y="-177.9" font-family="Courier,monospace" font-size="11.00" fill="#000000">reference(18)</text>
<polygon fill="none" stroke="#99ccff" points="210.4635,-152.8 210.4635,-171.8 889.4635,-171.8 889.4635,-152.8 210.4635,-152.8"/>
<text text-anchor="start" x="213.4635" y="-158.9" font-family="Courier,monospace" font-size="11.00" fill="#000000"> &#160;&#160;&#160;&#160;&#160;&#160;&#160;&#160;&#160;&#160;&#160;&#160;&#160;&#160;&#160;&#160;&#160;&#160;&#160;&#160;&#160;&#160;&#160;&#160;&#160;&#160;&#160;&#160;&#160;&#160;&#160;&#160;&#160;&#160;&#160;&#160;&#160;&#160;&#160;&#160;Description &#160;&#160;&#160;&#160;&#160;&#160;&#160;&#160;&#160;&#160;&#160;&#160;&#160;&#160;&#160;&#160;&#160;&#160;&#160;&#160;&#160;&#160;&#160;&#160;&#160;&#160;&#160;&#160;&#160;&#160;&#160;&#160;&#160;&#160;&#160;&#160;&#160;&#160;</text>
<polygon fill="none" stroke="#99ccff" points="889.4635,-152.8 889.4635,-171.8 980.4635,-171.8 980.4635,-152.8 889.4635,-152.8"/>
<text text-anchor="start" x="895.3701" y="-158.9" font-family="Courier,monospace" font-size="11.00" fill="#000000">string(1000)</text>
<polygon fill="none" stroke="#99ccff" points="210.4635,-133.8 210.4635,-152.8 889.4635,-152.8 889.4635,-133.8 210.4635,-133.8"/>
<text text-anchor="start" x="213.4635" y="-139.9" font-family="Courier,monospace" font-size="11.00" fill="#000000"> &#160;&#160;&#160;&#160;&#160;&#160;&#160;&#160;&#160;&#160;&#160;&#160;&#160;&#160;&#160;&#160;&#160;&#160;&#160;&#160;&#160;&#160;&#160;&#160;&#160;&#160;&#160;&#160;&#160;&#160;&#160;&#160;&#160;&#160;&#160;&#160;&#160;&#160;&#160;&#160;ForecastUserId &#160;&#160;&#160;&#160;&#160;&#160;&#160;&#160;&#160;&#160;&#160;&#160;&#160;&#160;&#160;&#160;&#160;&#160;&#160;&#160;&#160;&#160;&#160;&#160;&#160;&#160;&#160;&#160;&#160;&#160;&#160;&#160;&#160;&#160;&#160;&#160;&#160;&#160;</text>
<polygon fill="none" stroke="#99ccff" points="889.4635,-133.8 889.4635,-152.8 980.4635,-152.8 980.4635,-133.8 889.4635,-133.8"/>
<text text-anchor="start" x="892.0707" y="-139.9" font-family="Courier,monospace" font-size="11.00" fill="#000000">reference(18)</text>
<polygon fill="none" stroke="#99ccff" points="210.4635,-114.8 210.4635,-133.8 889.4635,-133.8 889.4635,-114.8 210.4635,-114.8"/>
<text text-anchor="start" x="213.4635" y="-120.9" font-family="Courier,monospace" font-size="11.00" fill="#000000"> &#160;&#160;&#160;&#160;&#160;&#160;&#160;&#160;&#160;&#160;&#160;&#160;&#160;&#160;&#160;&#160;&#160;&#160;&#160;&#160;&#160;&#160;&#160;&#160;&#160;&#160;&#160;&#160;&#160;&#160;&#160;&#160;&#160;&#160;&#160;&#160;&#160;&#160;&#160;&#160;AccountAccessLevel &#160;&#160;&#160;&#160;&#160;&#160;&#160;&#160;&#160;&#160;&#160;&#160;&#160;&#160;&#160;&#160;&#160;&#160;&#160;&#160;&#160;&#160;&#160;&#160;&#160;&#160;&#160;&#160;&#160;&#160;&#160;&#160;&#160;&#160;&#160;&#160;&#160;&#160;</text>
<polygon fill="none" stroke="#99ccff" points="889.4635,-114.8 889.4635,-133.8 980.4635,-133.8 980.4635,-114.8 889.4635,-114.8"/>
<text text-anchor="start" x="895.3701" y="-120.9" font-family="Courier,monospace" font-size="11.00" fill="#000000">picklist(40)</text>
<polygon fill="none" stroke="#99ccff" points="210.4635,-95.8 210.4635,-114.8 889.4635,-114.8 889.4635,-95.8 210.4635,-95.8"/>
<text text-anchor="start" x="213.4196" y="-101.9" font-family="Courier,monospace" font-size="11.00" fill="#000000"> &#160;&#160;&#160;&#160;&#160;&#160;&#160;&#160;&#160;&#160;&#160;&#160;&#160;&#160;&#160;&#160;&#160;&#160;&#160;&#160;&#160;&#160;&#160;&#160;&#160;&#160;&#160;&#160;&#160;&#160;&#160;&#160;&#160;&#160;&#160;&#160;&#160;&#160;&#160;&#160;OpportunityAccessLevel &#160;&#160;&#160;&#160;&#160;&#160;&#160;&#160;&#160;&#160;&#160;&#160;&#160;&#160;&#160;&#160;&#160;&#160;&#160;&#160;&#160;&#160;&#160;&#160;&#160;&#160;&#160;&#160;&#160;&#160;&#160;&#160;&#160;&#160;&#160;&#160;&#160;&#160;</text>
<polygon fill="none" stroke="#99ccff" points="889.4635,-95.8 889.4635,-114.8 980.4635,-114.8 980.4635,-95.8 889.4635,-95.8"/>
<text text-anchor="start" x="895.3701" y="-101.9" font-family="Courier,monospace" font-size="11.00" fill="#000000">picklist(40)</text>
<polygon fill="none" stroke="#99ccff" points="210.4635,-76.8 210.4635,-95.8 889.4635,-95.8 889.4635,-76.8 210.4635,-76.8"/>
<text text-anchor="start" x="213.4635" y="-82.9" font-family="Courier,monospace" font-size="11.00" fill="#000000"> &#160;&#160;&#160;&#160;&#160;&#160;&#160;&#160;&#160;&#160;&#160;&#160;&#160;&#160;&#160;&#160;&#160;&#160;&#160;&#160;&#160;&#160;&#160;&#160;&#160;&#160;&#160;&#160;&#160;&#160;&#160;&#160;&#160;&#160;&#160;&#160;&#160;&#160;&#160;&#160;CaseAccessLevel &#160;&#160;&#160;&#160;&#160;&#160;&#160;&#160;&#160;&#160;&#160;&#160;&#160;&#160;&#160;&#160;&#160;&#160;&#160;&#160;&#160;&#160;&#160;&#160;&#160;&#160;&#160;&#160;&#160;&#160;&#160;&#160;&#160;&#160;&#160;&#160;&#160;&#160;</text>
<polygon fill="none" stroke="#99ccff" points="889.4635,-76.8 889.4635,-95.8 980.4635,-95.8 980.4635,-76.8 889.4635,-76.8"/>
<text text-anchor="start" x="895.3701" y="-82.9" font-family="Courier,monospace" font-size="11.00" fill="#000000">picklist(40)</text>
<polygon fill="none" stroke="#99ccff" points="210.4635,-57.8 210.4635,-76.8 889.4635,-76.8 889.4635,-57.8 210.4635,-57.8"/>
<text text-anchor="start" x="213.4635" y="-63.9" font-family="Courier,monospace" font-size="11.00" fill="#000000"> &#160;&#160;&#160;&#160;&#160;&#160;&#160;&#160;&#160;&#160;&#160;&#160;&#160;&#160;&#160;&#160;&#160;&#160;&#160;&#160;&#160;&#160;&#160;&#160;&#160;&#160;&#160;&#160;&#160;&#160;&#160;&#160;&#160;&#160;&#160;&#160;&#160;&#160;&#160;&#160;ContactAccessLevel &#160;&#160;&#160;&#160;&#160;&#160;&#160;&#160;&#160;&#160;&#160;&#160;&#160;&#160;&#160;&#160;&#160;&#160;&#160;&#160;&#160;&#160;&#160;&#160;&#160;&#160;&#160;&#160;&#160;&#160;&#160;&#160;&#160;&#160;&#160;&#160;&#160;&#160;</text>
<polygon fill="none" stroke="#99ccff" points="889.4635,-57.8 889.4635,-76.8 980.4635,-76.8 980.4635,-57.8 889.4635,-57.8"/>
<text text-anchor="start" x="895.3701" y="-63.9" font-family="Courier,monospace" font-size="11.00" fill="#000000">picklist(40)</text>
<polygon fill="none" stroke="#99ccff" points="210.4635,-38.8 210.4635,-57.8 889.4635,-57.8 889.4635,-38.8 210.4635,-38.8"/>
<text text-anchor="start" x="213.4635" y="-44.9" font-family="Courier,monospace" font-size="11.00" fill="#000000"> &#160;&#160;&#160;&#160;&#160;&#160;&#160;&#160;&#160;&#160;&#160;&#160;&#160;&#160;&#160;&#160;&#160;&#160;&#160;&#160;&#160;&#160;&#160;&#160;&#160;&#160;&#160;&#160;&#160;&#160;&#160;&#160;&#160;&#160;&#160;&#160;&#160;&#160;&#160;&#160;LastModifiedById &#160;&#160;&#160;&#160;&#160;&#160;&#160;&#160;&#160;&#160;&#160;&#160;&#160;&#160;&#160;&#160;&#160;&#160;&#160;&#160;&#160;&#160;&#160;&#160;&#160;&#160;&#160;&#160;&#160;&#160;&#160;&#160;&#160;&#160;&#160;&#160;&#160;&#160;</text>
<polygon fill="none" stroke="#99ccff" points="889.4635,-38.8 889.4635,-57.8 980.4635,-57.8 980.4635,-38.8 889.4635,-38.8"/>
<text text-anchor="start" x="892.0707" y="-44.9" font-family="Courier,monospace" font-size="11.00" fill="#000000">reference(18)</text>
<polygon fill="none" stroke="#99ccff" points="210.4635,-19.8 210.4635,-38.8 889.4635,-38.8 889.4635,-19.8 210.4635,-19.8"/>
<text text-anchor="start" x="213.4635" y="-25.9" font-family="Courier,monospace" font-size="11.00" fill="#000000"> &#160;&#160;&#160;&#160;&#160;&#160;&#160;&#160;&#160;&#160;&#160;&#160;&#160;&#160;&#160;&#160;&#160;&#160;&#160;&#160;&#160;&#160;&#160;&#160;&#160;&#160;&#160;&#160;&#160;&#160;&#160;&#160;&#160;&#160;&#160;&#160;&#160;&#160;&#160;&#160;DeveloperName &#160;&#160;&#160;&#160;&#160;&#160;&#160;&#160;&#160;&#160;&#160;&#160;&#160;&#160;&#160;&#160;&#160;&#160;&#160;&#160;&#160;&#160;&#160;&#160;&#160;&#160;&#160;&#160;&#160;&#160;&#160;&#160;&#160;&#160;&#160;&#160;&#160;&#160;</text>
<polygon fill="none" stroke="#99ccff" points="889.4635,-19.8 889.4635,-38.8 980.4635,-38.8 980.4635,-19.8 889.4635,-19.8"/>
<text text-anchor="start" x="901.969" y="-25.9" font-family="Courier,monospace" font-size="11.00" fill="#000000">string(80)</text>
<polygon fill="none" stroke="#99ccff" points="209.4635,-18.8 209.4635,-286.8 981.4635,-286.8 981.4635,-18.8 209.4635,-18.8"/>
</a>
</g>
</g>
<!-- Territory2&#45;&gt;Territory2 -->
<g id="edge3" class="edge">
<title>Territory2:w&#45;&gt;Territory2:e</title>
<path fill="none" stroke="#3e7ab7" d="M197.4545,-188.0721C103.2526,-236.4733 121.255,-299.8 549.9635,-299.8 997.4635,-299.8 997.4635,-291.1333 889.4635,-257.8"/>
<polygon fill="#3e7ab7" stroke="#3e7ab7" points="203.2573,-185.2744 212.027,-185.0428 206.8604,-183.5372 210.4635,-181.8 210.4635,-181.8 210.4635,-181.8 206.8604,-183.5372 208.9,-178.5572 203.2573,-185.2744 203.2573,-185.2744"/>
<ellipse fill="none" stroke="#3e7ab7" cx="200.3748" cy="-186.6641" rx="3.2" ry="3.2"/>
<text text-anchor="middle" x="595.4635" y="-303.4" font-family="Arial" font-size="12.00" fill="#000000">ParentTerritory2</text>
</g>
<!-- Territory2Type -->
<g id="node2" class="node">
<title>Territory2Type</title>
<text text-anchor="middle" x="57.4918" y="-221.5" font-family="Courier,monospace" font-size="11.00" fill="#000000">Territory2Type</text>
</g>
<!-- Territory2&#45;&gt;Territory2Type -->
<g id="edge1" class="edge">
<title>Territory2:w&#45;&gt;Territory2Type:e</title>
<path fill="none" stroke="#ff99cc" d="M195.6879,-219.8727C167.0804,-220.1437 136.8559,-221.1323 111.992,-222.1536"/>
<polygon fill="#ff99cc" stroke="#ff99cc" points="202.4636,-219.8394 210.4812,-223.4 206.4635,-219.8197 210.4635,-219.8 210.4635,-219.8 210.4635,-219.8 206.4635,-219.8197 210.4458,-216.2 202.4636,-219.8394 202.4636,-219.8394"/>
<ellipse fill="none" stroke="#ff99cc" cx="199.2636" cy="-219.8552" rx="3.2" ry="3.2"/>
<text text-anchor="middle" x="162.2235" y="-223.5" font-family="Monaco" font-size="9.00" fill="#000000">Territory2Type</text>
</g>
<!-- Territory2Model -->
<g id="node3" class="node">
<title>Territory2Model</title>
<text text-anchor="middle" x="57.4918" y="-172.5" font-family="Courier,monospace" font-size="11.00" fill="#000000">Territory2Model</text>
</g>
<!-- Territory2&#45;&gt;Territory2Model -->
<g id="edge2" class="edge">
<title>Territory2:w&#45;&gt;Territory2Model:e</title>
<path fill="none" stroke="#ff99cc" d="M196.1054,-198.5826C177.6123,-195.6115 144.3858,-190.1523 115.0996,-185.3227"/>
<polygon fill="#ff99cc" stroke="#ff99cc" points="202.5572,-199.5789 209.914,-204.3578 206.5104,-200.1895 210.4635,-200.8 210.4635,-200.8 210.4635,-200.8 206.5104,-200.1895 211.013,-197.2422 202.5572,-199.5789 202.5572,-199.5789"/>
<ellipse fill="none" stroke="#ff99cc" cx="199.3947" cy="-199.0905" rx="3.2" ry="3.2"/>
<text text-anchor="middle" x="162.2235" y="-199.5" font-family="Monaco" font-size="9.00" fill="#000000">Territory2Model</text>
</g>
<!-- User -->
<g id="node4" class="node">
<title>User</title>
<text text-anchor="middle" x="57.4918" y="-98.5" font-family="Courier,monospace" font-size="11.00" fill="#000000">User</text>
</g>
<!-- Territory2&#45;&gt;User -->
<g id="edge4" class="edge">
<title>Territory2:w&#45;&gt;User:e</title>
<path fill="none" stroke="#ff99cc" d="M195.9699,-142.2574C154.6844,-139.262 111.486,-124.4907 84.5402,-113.6589"/>
<polygon fill="#ff99cc" stroke="#ff99cc" points="202.4691,-142.5006 210.3288,-146.3975 206.4663,-142.6503 210.4635,-142.8 210.4635,-142.8 210.4635,-142.8 206.4663,-142.6503 210.5982,-139.2025 202.4691,-142.5006 202.4691,-142.5006"/>
<ellipse fill="none" stroke="#ff99cc" cx="199.2713" cy="-142.3809" rx="3.2" ry="3.2"/>
<text text-anchor="middle" x="162.2235" y="-143.5" font-family="Monaco" font-size="9.00" fill="#000000">ForecastUser</text>
</g>
<!-- Territory2&#45;&gt;User -->
<g id="edge5" class="edge">
<title>Territory2:w&#45;&gt;User:e</title>
<path fill="none" stroke="#ff99cc" d="M196.0302,-48.4809C154.181,-52.3214 111.3989,-71.6105 84.6651,-85.8903"/>
<polygon fill="#ff99cc" stroke="#ff99cc" points="202.4724,-48.1771 210.6332,-51.396 206.4679,-47.9885 210.4635,-47.8 210.4635,-47.8 210.4635,-47.8 206.4679,-47.9885 210.2938,-44.204 202.4724,-48.1771 202.4724,-48.1771"/>
<ellipse fill="none" stroke="#ff99cc" cx="199.2759" cy="-48.3279" rx="3.2" ry="3.2"/>
<text text-anchor="middle" x="162.2235" y="-66.5" font-family="Monaco" font-size="9.00" fill="#000000">LastModifiedBy</text>
</g>
</g>
</svg>
