<?xml version="1.0" encoding="UTF-8" standalone="no"?>
<!DOCTYPE svg PUBLIC "-//W3C//DTD SVG 1.1//EN"
 "http://www.w3.org/Graphics/SVG/1.1/DTD/svg11.dtd">
<!-- Generated by graphviz version 2.40.1 (20161225.0304)
 -->
<!-- Title: Salesforce+ ERD Pages: 1 -->
<svg width="969pt" height="238pt"
 viewBox="0.00 0.00 969.46 237.80" xmlns="http://www.w3.org/2000/svg" xmlns:xlink="http://www.w3.org/1999/xlink">
<g id="graph0" class="graph" transform="scale(1 1) rotate(0) translate(4 233.8)">
<title>Salesforce+ ERD</title>
<polygon fill="#efeffd" stroke="transparent" points="-4,4 -4,-233.8 965.4635,-233.8 965.4635,4 -4,4"/>
<text text-anchor="middle" x="912.9703" y="-6.7" font-family="Courier,monospace" font-size="9.00" fill="#000000">Salesforce ERD </text>
<!-- Territory2AlignmentLog -->
<g id="node1" class="node">
<title>Territory2AlignmentLog</title>
<g id="a_node1"><a xlink:href="#" xlink:title=" Territory2AlignmentLog ">
<polygon fill="#ffeeff" stroke="transparent" points="209.4635,-18.8 209.4635,-229.8 961.4635,-229.8 961.4635,-18.8 209.4635,-18.8"/>
<polygon fill="#add8e6" stroke="transparent" points="210.4635,-209.3 210.4635,-228.3 960.4635,-228.3 960.4635,-209.3 210.4635,-209.3"/>
<polygon fill="none" stroke="#99ccff" points="210.4635,-209.3 210.4635,-228.3 960.4635,-228.3 960.4635,-209.3 210.4635,-209.3"/>
<text text-anchor="start" x="512.8756" y="-216.4" font-family="Courier,monospace" font-weight="bold" font-size="11.00" fill="#000000">Territory2AlignmentLog</text>
<polygon fill="#99ccff" stroke="transparent" points="210.4635,-190.3 210.4635,-209.3 856.4635,-209.3 856.4635,-190.3 210.4635,-190.3"/>
<polygon fill="none" stroke="#99ccff" points="210.4635,-190.3 210.4635,-209.3 856.4635,-209.3 856.4635,-190.3 210.4635,-190.3"/>
<text text-anchor="start" x="213.4635" y="-197.4" font-family="Courier,monospace" font-size="11.00" fill="#000000"> &#160;&#160;&#160;&#160;&#160;&#160;&#160;&#160;&#160;&#160;&#160;&#160;&#160;&#160;&#160;&#160;&#160;&#160;&#160;&#160;&#160;&#160;&#160;&#160;&#160;&#160;&#160;&#160;&#160;&#160;&#160;&#160;&#160;&#160;&#160;&#160;&#160;&#160;&#160;&#160;&#160;&#160;</text>
<text text-anchor="start" x="497.2162" y="-197.4" font-family="Courier,monospace" font-weight="bold" font-size="11.00" fill="#000000">Id</text>
<text text-anchor="start" x="510.414" y="-197.4" font-family="Courier,monospace" font-size="11.00" fill="#000000"> &#160;&#160;&#160;&#160;&#160;&#160;&#160;&#160;&#160;&#160;&#160;&#160;&#160;&#160;&#160;&#160;&#160;&#160;&#160;&#160;&#160;&#160;&#160;&#160;&#160;&#160;&#160;&#160;&#160;&#160;&#160;&#160;&#160;&#160;&#160;&#160;&#160;&#160;&#160;</text>
<polygon fill="none" stroke="#99ccff" points="856.4635,-190.3 856.4635,-209.3 960.4635,-209.3 960.4635,-190.3 856.4635,-190.3"/>
<text text-anchor="start" x="888.6668" y="-196.4" font-family="Courier,monospace" font-size="11.00" fill="#000000">id(18)</text>
<polygon fill="none" stroke="#99ccff" points="210.4635,-171.3 210.4635,-190.3 856.4635,-190.3 856.4635,-171.3 210.4635,-171.3"/>
<text text-anchor="start" x="213.4635" y="-177.4" font-family="Courier,monospace" font-size="11.00" fill="#000000"> &#160;&#160;&#160;&#160;&#160;&#160;&#160;&#160;&#160;&#160;&#160;&#160;&#160;&#160;&#160;&#160;&#160;&#160;&#160;&#160;&#160;&#160;&#160;&#160;&#160;&#160;&#160;&#160;&#160;&#160;&#160;&#160;&#160;&#160;&#160;&#160;&#160;&#160;&#160;&#160;IsDeleted &#160;&#160;&#160;&#160;&#160;&#160;&#160;&#160;&#160;&#160;&#160;&#160;&#160;&#160;&#160;&#160;&#160;&#160;&#160;&#160;&#160;&#160;&#160;&#160;&#160;&#160;&#160;&#160;&#160;&#160;&#160;&#160;&#160;&#160;&#160;&#160;&#160;&#160;</text>
<polygon fill="none" stroke="#99ccff" points="856.4635,-171.3 856.4635,-190.3 960.4635,-190.3 960.4635,-171.3 856.4635,-171.3"/>
<text text-anchor="start" x="885.3674" y="-177.4" font-family="Courier,monospace" font-size="11.00" fill="#000000">boolean</text>
<polygon fill="none" stroke="#99ccff" points="210.4635,-152.3 210.4635,-171.3 856.4635,-171.3 856.4635,-152.3 210.4635,-152.3"/>
<text text-anchor="start" x="213.4635" y="-158.4" font-family="Courier,monospace" font-size="11.00" fill="#000000"> &#160;&#160;&#160;&#160;&#160;&#160;&#160;&#160;&#160;&#160;&#160;&#160;&#160;&#160;&#160;&#160;&#160;&#160;&#160;&#160;&#160;&#160;&#160;&#160;&#160;&#160;&#160;&#160;&#160;&#160;&#160;&#160;&#160;&#160;&#160;&#160;&#160;&#160;&#160;&#160;LastModifiedById &#160;&#160;&#160;&#160;&#160;&#160;&#160;&#160;&#160;&#160;&#160;&#160;&#160;&#160;&#160;&#160;&#160;&#160;&#160;&#160;&#160;&#160;&#160;&#160;&#160;&#160;&#160;&#160;&#160;&#160;&#160;&#160;&#160;&#160;&#160;&#160;&#160;&#160;</text>
<polygon fill="none" stroke="#99ccff" points="856.4635,-152.3 856.4635,-171.3 960.4635,-171.3 960.4635,-152.3 856.4635,-152.3"/>
<text text-anchor="start" x="865.5707" y="-158.4" font-family="Courier,monospace" font-size="11.00" fill="#000000">reference(18)</text>
<polygon fill="none" stroke="#99ccff" points="210.4635,-133.3 210.4635,-152.3 856.4635,-152.3 856.4635,-133.3 210.4635,-133.3"/>
<text text-anchor="start" x="213.4169" y="-139.4" font-family="Courier,monospace" font-size="11.00" fill="#000000"> &#160;&#160;&#160;&#160;&#160;&#160;&#160;&#160;&#160;&#160;&#160;&#160;&#160;&#160;&#160;&#160;&#160;&#160;&#160;&#160;&#160;&#160;&#160;&#160;&#160;&#160;&#160;&#160;&#160;&#160;&#160;&#160;&#160;&#160;&#160;&#160;&#160;&#160;&#160;&#160;Territory2ModelId &#160;&#160;&#160;&#160;&#160;&#160;&#160;&#160;&#160;&#160;&#160;&#160;&#160;&#160;&#160;&#160;&#160;&#160;&#160;&#160;&#160;&#160;&#160;&#160;&#160;&#160;&#160;&#160;&#160;&#160;&#160;&#160;&#160;&#160;&#160;&#160;&#160;&#160;</text>
<polygon fill="none" stroke="#99ccff" points="856.4635,-133.3 856.4635,-152.3 960.4635,-152.3 960.4635,-133.3 856.4635,-133.3"/>
<text text-anchor="start" x="865.5707" y="-139.4" font-family="Courier,monospace" font-size="11.00" fill="#000000">reference(18)</text>
<polygon fill="none" stroke="#99ccff" points="210.4635,-114.3 210.4635,-133.3 856.4635,-133.3 856.4635,-114.3 210.4635,-114.3"/>
<text text-anchor="start" x="213.4635" y="-120.4" font-family="Courier,monospace" font-size="11.00" fill="#000000"> &#160;&#160;&#160;&#160;&#160;&#160;&#160;&#160;&#160;&#160;&#160;&#160;&#160;&#160;&#160;&#160;&#160;&#160;&#160;&#160;&#160;&#160;&#160;&#160;&#160;&#160;&#160;&#160;&#160;&#160;&#160;&#160;&#160;&#160;&#160;&#160;&#160;&#160;&#160;&#160;Territory2Id &#160;&#160;&#160;&#160;&#160;&#160;&#160;&#160;&#160;&#160;&#160;&#160;&#160;&#160;&#160;&#160;&#160;&#160;&#160;&#160;&#160;&#160;&#160;&#160;&#160;&#160;&#160;&#160;&#160;&#160;&#160;&#160;&#160;&#160;&#160;&#160;&#160;&#160;</text>
<polygon fill="none" stroke="#99ccff" points="856.4635,-114.3 856.4635,-133.3 960.4635,-133.3 960.4635,-114.3 856.4635,-114.3"/>
<text text-anchor="start" x="865.5707" y="-120.4" font-family="Courier,monospace" font-size="11.00" fill="#000000">reference(18)</text>
<polygon fill="none" stroke="#99ccff" points="210.4635,-95.3 210.4635,-114.3 856.4635,-114.3 856.4635,-95.3 210.4635,-95.3"/>
<text text-anchor="start" x="213.4635" y="-101.4" font-family="Courier,monospace" font-size="11.00" fill="#000000"> &#160;&#160;&#160;&#160;&#160;&#160;&#160;&#160;&#160;&#160;&#160;&#160;&#160;&#160;&#160;&#160;&#160;&#160;&#160;&#160;&#160;&#160;&#160;&#160;&#160;&#160;&#160;&#160;&#160;&#160;&#160;&#160;&#160;&#160;&#160;&#160;&#160;&#160;&#160;&#160;RunAsId &#160;&#160;&#160;&#160;&#160;&#160;&#160;&#160;&#160;&#160;&#160;&#160;&#160;&#160;&#160;&#160;&#160;&#160;&#160;&#160;&#160;&#160;&#160;&#160;&#160;&#160;&#160;&#160;&#160;&#160;&#160;&#160;&#160;&#160;&#160;&#160;&#160;&#160;</text>
<polygon fill="none" stroke="#99ccff" points="856.4635,-95.3 856.4635,-114.3 960.4635,-114.3 960.4635,-95.3 856.4635,-95.3"/>
<text text-anchor="start" x="865.5707" y="-101.4" font-family="Courier,monospace" font-size="11.00" fill="#000000">reference(18)</text>
<polygon fill="none" stroke="#99ccff" points="210.4635,-76.3 210.4635,-95.3 856.4635,-95.3 856.4635,-76.3 210.4635,-76.3"/>
<text text-anchor="start" x="213.4635" y="-82.4" font-family="Courier,monospace" font-size="11.00" fill="#000000"> &#160;&#160;&#160;&#160;&#160;&#160;&#160;&#160;&#160;&#160;&#160;&#160;&#160;&#160;&#160;&#160;&#160;&#160;&#160;&#160;&#160;&#160;&#160;&#160;&#160;&#160;&#160;&#160;&#160;&#160;&#160;&#160;&#160;&#160;&#160;&#160;&#160;&#160;&#160;&#160;Filter &#160;&#160;&#160;&#160;&#160;&#160;&#160;&#160;&#160;&#160;&#160;&#160;&#160;&#160;&#160;&#160;&#160;&#160;&#160;&#160;&#160;&#160;&#160;&#160;&#160;&#160;&#160;&#160;&#160;&#160;&#160;&#160;&#160;&#160;&#160;&#160;&#160;&#160;</text>
<polygon fill="none" stroke="#99ccff" points="856.4635,-76.3 856.4635,-95.3 960.4635,-95.3 960.4635,-76.3 856.4635,-76.3"/>
<text text-anchor="start" x="858.9718" y="-82.4" font-family="Courier,monospace" font-size="11.00" fill="#000000">textarea(32000)</text>
<polygon fill="none" stroke="#99ccff" points="210.4635,-57.3 210.4635,-76.3 856.4635,-76.3 856.4635,-57.3 210.4635,-57.3"/>
<text text-anchor="start" x="213.4635" y="-63.4" font-family="Courier,monospace" font-size="11.00" fill="#000000"> &#160;&#160;&#160;&#160;&#160;&#160;&#160;&#160;&#160;&#160;&#160;&#160;&#160;&#160;&#160;&#160;&#160;&#160;&#160;&#160;&#160;&#160;&#160;&#160;&#160;&#160;&#160;&#160;&#160;&#160;&#160;&#160;&#160;&#160;&#160;&#160;&#160;&#160;&#160;&#160;StartTime &#160;&#160;&#160;&#160;&#160;&#160;&#160;&#160;&#160;&#160;&#160;&#160;&#160;&#160;&#160;&#160;&#160;&#160;&#160;&#160;&#160;&#160;&#160;&#160;&#160;&#160;&#160;&#160;&#160;&#160;&#160;&#160;&#160;&#160;&#160;&#160;&#160;&#160;</text>
<polygon fill="none" stroke="#99ccff" points="856.4635,-57.3 856.4635,-76.3 960.4635,-76.3 960.4635,-57.3 856.4635,-57.3"/>
<text text-anchor="start" x="882.0679" y="-63.4" font-family="Courier,monospace" font-size="11.00" fill="#000000">datetime</text>
<polygon fill="none" stroke="#99ccff" points="210.4635,-38.3 210.4635,-57.3 856.4635,-57.3 856.4635,-38.3 210.4635,-38.3"/>
<text text-anchor="start" x="213.4635" y="-44.4" font-family="Courier,monospace" font-size="11.00" fill="#000000"> &#160;&#160;&#160;&#160;&#160;&#160;&#160;&#160;&#160;&#160;&#160;&#160;&#160;&#160;&#160;&#160;&#160;&#160;&#160;&#160;&#160;&#160;&#160;&#160;&#160;&#160;&#160;&#160;&#160;&#160;&#160;&#160;&#160;&#160;&#160;&#160;&#160;&#160;&#160;&#160;EndTime &#160;&#160;&#160;&#160;&#160;&#160;&#160;&#160;&#160;&#160;&#160;&#160;&#160;&#160;&#160;&#160;&#160;&#160;&#160;&#160;&#160;&#160;&#160;&#160;&#160;&#160;&#160;&#160;&#160;&#160;&#160;&#160;&#160;&#160;&#160;&#160;&#160;&#160;</text>
<polygon fill="none" stroke="#99ccff" points="856.4635,-38.3 856.4635,-57.3 960.4635,-57.3 960.4635,-38.3 856.4635,-38.3"/>
<text text-anchor="start" x="882.0679" y="-44.4" font-family="Courier,monospace" font-size="11.00" fill="#000000">datetime</text>
<polygon fill="none" stroke="#99ccff" points="210.4635,-19.3 210.4635,-38.3 856.4635,-38.3 856.4635,-19.3 210.4635,-19.3"/>
<text text-anchor="start" x="213.4635" y="-25.4" font-family="Courier,monospace" font-size="11.00" fill="#000000"> &#160;&#160;&#160;&#160;&#160;&#160;&#160;&#160;&#160;&#160;&#160;&#160;&#160;&#160;&#160;&#160;&#160;&#160;&#160;&#160;&#160;&#160;&#160;&#160;&#160;&#160;&#160;&#160;&#160;&#160;&#160;&#160;&#160;&#160;&#160;&#160;&#160;&#160;&#160;&#160;Status &#160;&#160;&#160;&#160;&#160;&#160;&#160;&#160;&#160;&#160;&#160;&#160;&#160;&#160;&#160;&#160;&#160;&#160;&#160;&#160;&#160;&#160;&#160;&#160;&#160;&#160;&#160;&#160;&#160;&#160;&#160;&#160;&#160;&#160;&#160;&#160;&#160;&#160;</text>
<polygon fill="none" stroke="#99ccff" points="856.4635,-19.3 856.4635,-38.3 960.4635,-38.3 960.4635,-19.3 856.4635,-19.3"/>
<text text-anchor="start" x="865.5707" y="-25.4" font-family="Courier,monospace" font-size="11.00" fill="#000000">picklist(255)</text>
<polygon fill="none" stroke="#99ccff" points="209.4635,-18.8 209.4635,-229.8 961.4635,-229.8 961.4635,-18.8 209.4635,-18.8"/>
</a>
</g>
</g>
<!-- User -->
<g id="node2" class="node">
<title>User</title>
<text text-anchor="middle" x="57.4918" y="-67" font-family="Courier,monospace" font-size="11.00" fill="#000000">User</text>
</g>
<!-- Territory2AlignmentLog&#45;&gt;User -->
<g id="edge1" class="edge">
<title>Territory2AlignmentLog:w&#45;&gt;User:e</title>
<path fill="none" stroke="#ff99cc" d="M196.0589,-163.4037C170.4947,-167.2423 155.2339,-178.7994 131.9835,-160.3 108.2803,-141.4403 134.8133,-117.1978 114.9835,-94.3 107.1948,-85.3062 95.4847,-79.6103 84.6612,-76.0387"/>
<polygon fill="#ff99cc" stroke="#ff99cc" points="202.4869,-162.9112 210.7386,-165.8895 206.4752,-162.6056 210.4635,-162.3 210.4635,-162.3 210.4635,-162.3 206.4752,-162.6056 210.1884,-158.7105 202.4869,-162.9112 202.4869,-162.9112"/>
<ellipse fill="none" stroke="#ff99cc" cx="199.2962" cy="-163.1557" rx="3.2" ry="3.2"/>
<text text-anchor="middle" x="162.2235" y="-173" font-family="Monaco" font-size="9.00" fill="#000000">LastModifiedBy</text>
</g>
<!-- Territory2AlignmentLog&#45;&gt;User -->
<g id="edge4" class="edge">
<title>Territory2AlignmentLog:w&#45;&gt;User:e</title>
<path fill="none" stroke="#ff99cc" d="M195.8327,-103.8336C154.9433,-101.3126 111.7495,-89.097 84.7211,-80.1342"/>
<polygon fill="#ff99cc" stroke="#ff99cc" points="202.4676,-104.0451 210.3488,-107.8982 206.4655,-104.1725 210.4635,-104.3 210.4635,-104.3 210.4635,-104.3 206.4655,-104.1725 210.5782,-100.7018 202.4676,-104.0451 202.4676,-104.0451"/>
<ellipse fill="none" stroke="#ff99cc" cx="199.2692" cy="-103.9431" rx="3.2" ry="3.2"/>
<text text-anchor="middle" x="162.2235" y="-107" font-family="Monaco" font-size="9.00" fill="#000000">RunAs</text>
</g>
<!-- Territory2Model -->
<g id="node3" class="node">
<title>Territory2Model</title>
<text text-anchor="middle" x="57.4918" y="-165" font-family="Courier,monospace" font-size="11.00" fill="#000000">Territory2Model</text>
</g>
<!-- Territory2AlignmentLog&#45;&gt;Territory2Model -->
<g id="edge2" class="edge">
<title>Territory2AlignmentLog:w&#45;&gt;Territory2Model:e</title>
<path fill="none" stroke="#ff99cc" d="M195.7614,-143.4211C172.0317,-143.8753 161.1453,-145.7035 131.9835,-150.5 126.4729,-151.4064 120.7655,-152.4945 115.074,-153.6802"/>
<polygon fill="#ff99cc" stroke="#ff99cc" points="202.4638,-143.3659 210.4932,-146.8999 206.4636,-143.333 210.4635,-143.3 210.4635,-143.3 210.4635,-143.3 206.4636,-143.333 210.4338,-139.7001 202.4638,-143.3659 202.4638,-143.3659"/>
<ellipse fill="none" stroke="#ff99cc" cx="199.2639" cy="-143.3923" rx="3.2" ry="3.2"/>
<text text-anchor="middle" x="162.2235" y="-153" font-family="Monaco" font-size="9.00" fill="#000000">Territory2Model</text>
</g>
<!-- Territory2 -->
<g id="node4" class="node">
<title>Territory2</title>
<text text-anchor="middle" x="57.4918" y="-116" font-family="Courier,monospace" font-size="11.00" fill="#000000">Territory2</text>
</g>
<!-- Territory2AlignmentLog&#45;&gt;Territory2 -->
<g id="edge3" class="edge">
<title>Territory2AlignmentLog:w&#45;&gt;Territory2:e</title>
<path fill="none" stroke="#ff99cc" d="M196.1241,-121.806C195.0426,-121.6858 193.843,-121.5801 192.4635,-121.5 160.9954,-119.6733 125.3365,-119.1588 98.5766,-119.0819"/>
<polygon fill="#ff99cc" stroke="#ff99cc" points="202.5066,-122.4709 210.0904,-126.8806 206.485,-122.8855 210.4635,-123.3 210.4635,-123.3 210.4635,-123.3 206.485,-122.8855 210.8366,-119.7194 202.5066,-122.4709 202.5066,-122.4709"/>
<ellipse fill="none" stroke="#ff99cc" cx="199.3238" cy="-122.1393" rx="3.2" ry="3.2"/>
<text text-anchor="middle" x="162.2235" y="-125" font-family="Monaco" font-size="9.00" fill="#000000">Territory2</text>
</g>
</g>
</svg>
