<?xml version="1.0" encoding="UTF-8" standalone="no"?>
<!DOCTYPE svg PUBLIC "-//W3C//DTD SVG 1.1//EN"
 "http://www.w3.org/Graphics/SVG/1.1/DTD/svg11.dtd">
<!-- Generated by graphviz version 2.44.0 (20200518.1210)
 -->
<!-- Title: Salesforce+ ERD Pages: 1 -->
<svg width="940pt" height="295pt"
 viewBox="0.00 0.00 940.49 294.80" xmlns="http://www.w3.org/2000/svg" xmlns:xlink="http://www.w3.org/1999/xlink">
<g id="graph0" class="graph" transform="scale(1 1) rotate(0) translate(4 290.8)">
<title>Salesforce+ ERD</title>
<polygon fill="#efeffd" stroke="transparent" points="-4,4 -4,-290.8 936.49,-290.8 936.49,4 -4,4"/>
<text text-anchor="middle" x="884" y="-6.7" font-family="Courier,monospace" font-size="9.00">Salesforce ERD </text>
<!-- Territory2Model -->
<g id="node1" class="node">
<title>Territory2Model</title>
<g id="a_node1"><a xlink:href="#" xlink:title=" Territory2Model ">
<polygon fill="#ffeeff" stroke="transparent" points="147.49,-18.8 147.49,-286.8 932.49,-286.8 932.49,-18.8 147.49,-18.8"/>
<polygon fill="lightblue" stroke="transparent" points="148.99,-266.8 148.99,-285.8 931.99,-285.8 931.99,-266.8 148.99,-266.8"/>
<polygon fill="none" stroke="#99ccff" points="148.99,-266.8 148.99,-285.8 931.99,-285.8 931.99,-266.8 148.99,-266.8"/>
<text text-anchor="start" x="491" y="-273.9" font-family="Courier,monospace" font-weight="bold" font-size="11.00">Territory2Model</text>
<polygon fill="#99ccff" stroke="transparent" points="148.99,-247.8 148.99,-266.8 840.99,-266.8 840.99,-247.8 148.99,-247.8"/>
<polygon fill="none" stroke="#99ccff" points="148.99,-247.8 148.99,-266.8 840.99,-266.8 840.99,-247.8 148.99,-247.8"/>
<text text-anchor="start" x="151.99" y="-254.9" font-family="Courier,monospace" font-size="11.00"> &#160;&#160;&#160;&#160;&#160;&#160;&#160;&#160;&#160;&#160;&#160;&#160;&#160;&#160;&#160;&#160;&#160;&#160;&#160;&#160;&#160;&#160;&#160;&#160;&#160;&#160;&#160;&#160;&#160;&#160;&#160;&#160;&#160;&#160;&#160;&#160;&#160;&#160;&#160;&#160;&#160;&#160;</text>
<text text-anchor="start" x="435.74" y="-254.9" font-family="Courier,monospace" font-weight="bold" font-size="11.00">Id</text>
<text text-anchor="start" x="448.94" y="-254.9" font-family="Courier,monospace" font-size="11.00"> &#160;&#160;&#160;&#160;&#160;&#160;&#160;&#160;&#160;&#160;&#160;&#160;&#160;&#160;&#160;&#160;&#160;&#160;&#160;&#160;&#160;&#160;&#160;&#160;&#160;&#160;&#160;&#160;&#160;&#160;&#160;&#160;&#160;&#160;&#160;&#160;&#160;&#160;&#160;</text>
<polygon fill="none" stroke="#99ccff" points="840.99,-247.8 840.99,-266.8 931.99,-266.8 931.99,-247.8 840.99,-247.8"/>
<text text-anchor="start" x="866.69" y="-253.9" font-family="Courier,monospace" font-size="11.00">id(18)</text>
<polygon fill="none" stroke="#99ccff" points="148.99,-228.8 148.99,-247.8 840.99,-247.8 840.99,-228.8 148.99,-228.8"/>
<text text-anchor="start" x="151.99" y="-234.9" font-family="Courier,monospace" font-size="11.00"> &#160;&#160;&#160;&#160;&#160;&#160;&#160;&#160;&#160;&#160;&#160;&#160;&#160;&#160;&#160;&#160;&#160;&#160;&#160;&#160;&#160;&#160;&#160;&#160;&#160;&#160;&#160;&#160;&#160;&#160;&#160;&#160;&#160;&#160;&#160;&#160;&#160;&#160;&#160;&#160;IsDeleted &#160;&#160;&#160;&#160;&#160;&#160;&#160;&#160;&#160;&#160;&#160;&#160;&#160;&#160;&#160;&#160;&#160;&#160;&#160;&#160;&#160;&#160;&#160;&#160;&#160;&#160;&#160;&#160;&#160;&#160;&#160;&#160;&#160;&#160;&#160;&#160;&#160;&#160;</text>
<polygon fill="none" stroke="#99ccff" points="840.99,-228.8 840.99,-247.8 931.99,-247.8 931.99,-228.8 840.99,-228.8"/>
<text text-anchor="start" x="863.39" y="-234.9" font-family="Courier,monospace" font-size="11.00">boolean</text>
<polygon fill="none" stroke="#99ccff" points="148.99,-209.8 148.99,-228.8 840.99,-228.8 840.99,-209.8 148.99,-209.8"/>
<text text-anchor="start" x="151.99" y="-215.9" font-family="Courier,monospace" font-size="11.00"> &#160;&#160;&#160;&#160;&#160;&#160;&#160;&#160;&#160;&#160;&#160;&#160;&#160;&#160;&#160;&#160;&#160;&#160;&#160;&#160;&#160;&#160;&#160;&#160;&#160;&#160;&#160;&#160;&#160;&#160;&#160;&#160;&#160;&#160;&#160;&#160;&#160;&#160;&#160;&#160;Name &#160;&#160;&#160;&#160;&#160;&#160;&#160;&#160;&#160;&#160;&#160;&#160;&#160;&#160;&#160;&#160;&#160;&#160;&#160;&#160;&#160;&#160;&#160;&#160;&#160;&#160;&#160;&#160;&#160;&#160;&#160;&#160;&#160;&#160;&#160;&#160;&#160;&#160;</text>
<polygon fill="none" stroke="#99ccff" points="840.99,-209.8 840.99,-228.8 931.99,-228.8 931.99,-209.8 840.99,-209.8"/>
<text text-anchor="start" x="853.5" y="-215.9" font-family="Courier,monospace" font-size="11.00">string(80)</text>
<polygon fill="none" stroke="#99ccff" points="148.99,-190.8 148.99,-209.8 840.99,-209.8 840.99,-190.8 148.99,-190.8"/>
<text text-anchor="start" x="151.99" y="-196.9" font-family="Courier,monospace" font-size="11.00"> &#160;&#160;&#160;&#160;&#160;&#160;&#160;&#160;&#160;&#160;&#160;&#160;&#160;&#160;&#160;&#160;&#160;&#160;&#160;&#160;&#160;&#160;&#160;&#160;&#160;&#160;&#160;&#160;&#160;&#160;&#160;&#160;&#160;&#160;&#160;&#160;&#160;&#160;&#160;&#160;CurrencyIsoCode &#160;&#160;&#160;&#160;&#160;&#160;&#160;&#160;&#160;&#160;&#160;&#160;&#160;&#160;&#160;&#160;&#160;&#160;&#160;&#160;&#160;&#160;&#160;&#160;&#160;&#160;&#160;&#160;&#160;&#160;&#160;&#160;&#160;&#160;&#160;&#160;&#160;&#160;</text>
<polygon fill="none" stroke="#99ccff" points="840.99,-190.8 840.99,-209.8 931.99,-209.8 931.99,-190.8 840.99,-190.8"/>
<text text-anchor="start" x="850.2" y="-196.9" font-family="Courier,monospace" font-size="11.00">picklist(3)</text>
<polygon fill="none" stroke="#99ccff" points="148.99,-171.8 148.99,-190.8 840.99,-190.8 840.99,-171.8 148.99,-171.8"/>
<text text-anchor="start" x="151.99" y="-177.9" font-family="Courier,monospace" font-size="11.00"> &#160;&#160;&#160;&#160;&#160;&#160;&#160;&#160;&#160;&#160;&#160;&#160;&#160;&#160;&#160;&#160;&#160;&#160;&#160;&#160;&#160;&#160;&#160;&#160;&#160;&#160;&#160;&#160;&#160;&#160;&#160;&#160;&#160;&#160;&#160;&#160;&#160;&#160;&#160;&#160;LastModifiedById &#160;&#160;&#160;&#160;&#160;&#160;&#160;&#160;&#160;&#160;&#160;&#160;&#160;&#160;&#160;&#160;&#160;&#160;&#160;&#160;&#160;&#160;&#160;&#160;&#160;&#160;&#160;&#160;&#160;&#160;&#160;&#160;&#160;&#160;&#160;&#160;&#160;&#160;</text>
<polygon fill="none" stroke="#99ccff" points="840.99,-171.8 840.99,-190.8 931.99,-190.8 931.99,-171.8 840.99,-171.8"/>
<text text-anchor="start" x="843.6" y="-177.9" font-family="Courier,monospace" font-size="11.00">reference(18)</text>
<polygon fill="none" stroke="#99ccff" points="148.99,-152.8 148.99,-171.8 840.99,-171.8 840.99,-152.8 148.99,-152.8"/>
<text text-anchor="start" x="151.99" y="-158.9" font-family="Courier,monospace" font-size="11.00"> &#160;&#160;&#160;&#160;&#160;&#160;&#160;&#160;&#160;&#160;&#160;&#160;&#160;&#160;&#160;&#160;&#160;&#160;&#160;&#160;&#160;&#160;&#160;&#160;&#160;&#160;&#160;&#160;&#160;&#160;&#160;&#160;&#160;&#160;&#160;&#160;&#160;&#160;&#160;&#160;Description &#160;&#160;&#160;&#160;&#160;&#160;&#160;&#160;&#160;&#160;&#160;&#160;&#160;&#160;&#160;&#160;&#160;&#160;&#160;&#160;&#160;&#160;&#160;&#160;&#160;&#160;&#160;&#160;&#160;&#160;&#160;&#160;&#160;&#160;&#160;&#160;&#160;&#160;</text>
<polygon fill="none" stroke="#99ccff" points="840.99,-152.8 840.99,-171.8 931.99,-171.8 931.99,-152.8 840.99,-152.8"/>
<text text-anchor="start" x="843.6" y="-158.9" font-family="Courier,monospace" font-size="11.00">textarea(255)</text>
<polygon fill="none" stroke="#99ccff" points="148.99,-133.8 148.99,-152.8 840.99,-152.8 840.99,-133.8 148.99,-133.8"/>
<text text-anchor="start" x="151.99" y="-139.9" font-family="Courier,monospace" font-size="11.00"> &#160;&#160;&#160;&#160;&#160;&#160;&#160;&#160;&#160;&#160;&#160;&#160;&#160;&#160;&#160;&#160;&#160;&#160;&#160;&#160;&#160;&#160;&#160;&#160;&#160;&#160;&#160;&#160;&#160;&#160;&#160;&#160;&#160;&#160;&#160;&#160;&#160;&#160;&#160;&#160;ActivatedDate &#160;&#160;&#160;&#160;&#160;&#160;&#160;&#160;&#160;&#160;&#160;&#160;&#160;&#160;&#160;&#160;&#160;&#160;&#160;&#160;&#160;&#160;&#160;&#160;&#160;&#160;&#160;&#160;&#160;&#160;&#160;&#160;&#160;&#160;&#160;&#160;&#160;&#160;</text>
<polygon fill="none" stroke="#99ccff" points="840.99,-133.8 840.99,-152.8 931.99,-152.8 931.99,-133.8 840.99,-133.8"/>
<text text-anchor="start" x="860.09" y="-139.9" font-family="Courier,monospace" font-size="11.00">datetime</text>
<polygon fill="none" stroke="#99ccff" points="148.99,-114.8 148.99,-133.8 840.99,-133.8 840.99,-114.8 148.99,-114.8"/>
<text text-anchor="start" x="151.99" y="-120.9" font-family="Courier,monospace" font-size="11.00"> &#160;&#160;&#160;&#160;&#160;&#160;&#160;&#160;&#160;&#160;&#160;&#160;&#160;&#160;&#160;&#160;&#160;&#160;&#160;&#160;&#160;&#160;&#160;&#160;&#160;&#160;&#160;&#160;&#160;&#160;&#160;&#160;&#160;&#160;&#160;&#160;&#160;&#160;&#160;&#160;DeactivatedDate &#160;&#160;&#160;&#160;&#160;&#160;&#160;&#160;&#160;&#160;&#160;&#160;&#160;&#160;&#160;&#160;&#160;&#160;&#160;&#160;&#160;&#160;&#160;&#160;&#160;&#160;&#160;&#160;&#160;&#160;&#160;&#160;&#160;&#160;&#160;&#160;&#160;&#160;</text>
<polygon fill="none" stroke="#99ccff" points="840.99,-114.8 840.99,-133.8 931.99,-133.8 931.99,-114.8 840.99,-114.8"/>
<text text-anchor="start" x="860.09" y="-120.9" font-family="Courier,monospace" font-size="11.00">datetime</text>
<polygon fill="none" stroke="#99ccff" points="148.99,-95.8 148.99,-114.8 840.99,-114.8 840.99,-95.8 148.99,-95.8"/>
<text text-anchor="start" x="151.99" y="-101.9" font-family="Courier,monospace" font-size="11.00"> &#160;&#160;&#160;&#160;&#160;&#160;&#160;&#160;&#160;&#160;&#160;&#160;&#160;&#160;&#160;&#160;&#160;&#160;&#160;&#160;&#160;&#160;&#160;&#160;&#160;&#160;&#160;&#160;&#160;&#160;&#160;&#160;&#160;&#160;&#160;&#160;&#160;&#160;&#160;&#160;State &#160;&#160;&#160;&#160;&#160;&#160;&#160;&#160;&#160;&#160;&#160;&#160;&#160;&#160;&#160;&#160;&#160;&#160;&#160;&#160;&#160;&#160;&#160;&#160;&#160;&#160;&#160;&#160;&#160;&#160;&#160;&#160;&#160;&#160;&#160;&#160;&#160;&#160;</text>
<polygon fill="none" stroke="#99ccff" points="840.99,-95.8 840.99,-114.8 931.99,-114.8 931.99,-95.8 840.99,-95.8"/>
<text text-anchor="start" x="843.6" y="-101.9" font-family="Courier,monospace" font-size="11.00">picklist(255)</text>
<polygon fill="none" stroke="#99ccff" points="148.99,-76.8 148.99,-95.8 840.99,-95.8 840.99,-76.8 148.99,-76.8"/>
<text text-anchor="start" x="151.99" y="-82.9" font-family="Courier,monospace" font-size="11.00"> &#160;&#160;&#160;&#160;&#160;&#160;&#160;&#160;&#160;&#160;&#160;&#160;&#160;&#160;&#160;&#160;&#160;&#160;&#160;&#160;&#160;&#160;&#160;&#160;&#160;&#160;&#160;&#160;&#160;&#160;&#160;&#160;&#160;&#160;&#160;&#160;&#160;&#160;&#160;&#160;DeveloperName &#160;&#160;&#160;&#160;&#160;&#160;&#160;&#160;&#160;&#160;&#160;&#160;&#160;&#160;&#160;&#160;&#160;&#160;&#160;&#160;&#160;&#160;&#160;&#160;&#160;&#160;&#160;&#160;&#160;&#160;&#160;&#160;&#160;&#160;&#160;&#160;&#160;&#160;</text>
<polygon fill="none" stroke="#99ccff" points="840.99,-76.8 840.99,-95.8 931.99,-95.8 931.99,-76.8 840.99,-76.8"/>
<text text-anchor="start" x="853.5" y="-82.9" font-family="Courier,monospace" font-size="11.00">string(80)</text>
<polygon fill="none" stroke="#99ccff" points="148.99,-57.8 148.99,-76.8 840.99,-76.8 840.99,-57.8 148.99,-57.8"/>
<text text-anchor="start" x="151.99" y="-63.9" font-family="Courier,monospace" font-size="11.00"> &#160;&#160;&#160;&#160;&#160;&#160;&#160;&#160;&#160;&#160;&#160;&#160;&#160;&#160;&#160;&#160;&#160;&#160;&#160;&#160;&#160;&#160;&#160;&#160;&#160;&#160;&#160;&#160;&#160;&#160;&#160;&#160;&#160;&#160;&#160;&#160;&#160;&#160;&#160;&#160;LastRunRulesEndDate &#160;&#160;&#160;&#160;&#160;&#160;&#160;&#160;&#160;&#160;&#160;&#160;&#160;&#160;&#160;&#160;&#160;&#160;&#160;&#160;&#160;&#160;&#160;&#160;&#160;&#160;&#160;&#160;&#160;&#160;&#160;&#160;&#160;&#160;&#160;&#160;&#160;&#160;</text>
<polygon fill="none" stroke="#99ccff" points="840.99,-57.8 840.99,-76.8 931.99,-76.8 931.99,-57.8 840.99,-57.8"/>
<text text-anchor="start" x="860.09" y="-63.9" font-family="Courier,monospace" font-size="11.00">datetime</text>
<polygon fill="none" stroke="#99ccff" points="148.99,-38.8 148.99,-57.8 840.99,-57.8 840.99,-38.8 148.99,-38.8"/>
<text text-anchor="start" x="151.99" y="-44.9" font-family="Courier,monospace" font-size="11.00"> &#160;&#160;&#160;&#160;&#160;&#160;&#160;&#160;&#160;&#160;&#160;&#160;&#160;&#160;&#160;&#160;&#160;&#160;&#160;&#160;&#160;&#160;&#160;&#160;&#160;&#160;&#160;&#160;&#160;&#160;&#160;&#160;&#160;&#160;&#160;&#160;&#160;&#160;&#160;&#160;IsCloneSource &#160;&#160;&#160;&#160;&#160;&#160;&#160;&#160;&#160;&#160;&#160;&#160;&#160;&#160;&#160;&#160;&#160;&#160;&#160;&#160;&#160;&#160;&#160;&#160;&#160;&#160;&#160;&#160;&#160;&#160;&#160;&#160;&#160;&#160;&#160;&#160;&#160;&#160;</text>
<polygon fill="none" stroke="#99ccff" points="840.99,-38.8 840.99,-57.8 931.99,-57.8 931.99,-38.8 840.99,-38.8"/>
<text text-anchor="start" x="863.39" y="-44.9" font-family="Courier,monospace" font-size="11.00">boolean</text>
<polygon fill="none" stroke="#99ccff" points="148.99,-19.8 148.99,-38.8 840.99,-38.8 840.99,-19.8 148.99,-19.8"/>
<text text-anchor="start" x="151.85" y="-25.9" font-family="Courier,monospace" font-size="11.00"> &#160;&#160;&#160;&#160;&#160;&#160;&#160;&#160;&#160;&#160;&#160;&#160;&#160;&#160;&#160;&#160;&#160;&#160;&#160;&#160;&#160;&#160;&#160;&#160;&#160;&#160;&#160;&#160;&#160;&#160;&#160;&#160;&#160;&#160;&#160;&#160;&#160;&#160;&#160;&#160;LastOppTerrAssignEndDate &#160;&#160;&#160;&#160;&#160;&#160;&#160;&#160;&#160;&#160;&#160;&#160;&#160;&#160;&#160;&#160;&#160;&#160;&#160;&#160;&#160;&#160;&#160;&#160;&#160;&#160;&#160;&#160;&#160;&#160;&#160;&#160;&#160;&#160;&#160;&#160;&#160;&#160;</text>
<polygon fill="none" stroke="#99ccff" points="840.99,-19.8 840.99,-38.8 931.99,-38.8 931.99,-19.8 840.99,-19.8"/>
<text text-anchor="start" x="860.09" y="-25.9" font-family="Courier,monospace" font-size="11.00">datetime</text>
<polygon fill="none" stroke="#99ccff" points="147.49,-18.8 147.49,-286.8 932.49,-286.8 932.49,-18.8 147.49,-18.8"/>
</a>
</g>
</g>
<!-- User -->
<g id="node2" class="node">
<title>User</title>
<text text-anchor="middle" x="27" y="-178.5" font-family="Courier,monospace" font-size="11.00">User</text>
</g>
<!-- Territory2Model&#45;&gt;User -->
<g id="edge1" class="edge">
<title>Territory2Model:w&#45;&gt;User:e</title>
<path fill="none" stroke="#ff99cc" d="M133.35,-181.8C104.95,-181.8 74.92,-181.8 54.22,-181.8"/>
<polygon fill="#ff99cc" stroke="#ff99cc" points="139.99,-181.8 147.99,-185.4 143.99,-181.8 147.99,-181.8 147.99,-181.8 147.99,-181.8 143.99,-181.8 147.99,-178.2 139.99,-181.8 139.99,-181.8"/>
<ellipse fill="none" stroke="#ff99cc" cx="136.79" cy="-181.8" rx="3.2" ry="3.2"/>
<text text-anchor="middle" x="100.75" y="-184.5" font-family="Monaco" font-size="9.00">LastModifiedBy</text>
</g>
</g>
</svg>
