<?xml version="1.0" encoding="UTF-8" standalone="no"?>
<!DOCTYPE svg PUBLIC "-//W3C//DTD SVG 1.1//EN"
 "http://www.w3.org/Graphics/SVG/1.1/DTD/svg11.dtd">
<!-- Generated by graphviz version 2.44.0 (20200518.1210)
 -->
<!-- Title: Salesforce+ ERD Pages: 1 -->
<svg width="887pt" height="200pt"
 viewBox="0.00 0.00 887.49 199.80" xmlns="http://www.w3.org/2000/svg" xmlns:xlink="http://www.w3.org/1999/xlink">
<g id="graph0" class="graph" transform="scale(1 1) rotate(0) translate(4 195.8)">
<title>Salesforce+ ERD</title>
<polygon fill="#efeffd" stroke="transparent" points="-4,4 -4,-195.8 883.49,-195.8 883.49,4 -4,4"/>
<text text-anchor="middle" x="831" y="-6.7" font-family="Courier,monospace" font-size="9.00">Salesforce ERD </text>
<!-- Territory2Type -->
<g id="node1" class="node">
<title>Territory2Type</title>
<g id="a_node1"><a xlink:href="#" xlink:title=" Territory2Type ">
<polygon fill="#ffeeff" stroke="transparent" points="147.49,-18.8 147.49,-191.8 879.49,-191.8 879.49,-18.8 147.49,-18.8"/>
<polygon fill="lightblue" stroke="transparent" points="148.49,-171.3 148.49,-190.3 878.49,-190.3 878.49,-171.3 148.49,-171.3"/>
<polygon fill="none" stroke="#99ccff" points="148.49,-171.3 148.49,-190.3 878.49,-190.3 878.49,-171.3 148.49,-171.3"/>
<text text-anchor="start" x="467.3" y="-178.4" font-family="Courier,monospace" font-weight="bold" font-size="11.00">Territory2Type</text>
<polygon fill="#99ccff" stroke="transparent" points="148.49,-152.3 148.49,-171.3 787.49,-171.3 787.49,-152.3 148.49,-152.3"/>
<polygon fill="none" stroke="#99ccff" points="148.49,-152.3 148.49,-171.3 787.49,-171.3 787.49,-152.3 148.49,-152.3"/>
<text text-anchor="start" x="151.49" y="-159.4" font-family="Courier,monospace" font-size="11.00"> &#160;&#160;&#160;&#160;&#160;&#160;&#160;&#160;&#160;&#160;&#160;&#160;&#160;&#160;&#160;&#160;&#160;&#160;&#160;&#160;&#160;&#160;&#160;&#160;&#160;&#160;&#160;&#160;&#160;&#160;&#160;&#160;&#160;&#160;&#160;&#160;&#160;&#160;&#160;&#160;&#160;&#160;</text>
<text text-anchor="start" x="435.24" y="-159.4" font-family="Courier,monospace" font-weight="bold" font-size="11.00">Id</text>
<text text-anchor="start" x="448.44" y="-159.4" font-family="Courier,monospace" font-size="11.00"> &#160;&#160;&#160;&#160;&#160;&#160;&#160;&#160;&#160;&#160;&#160;&#160;&#160;&#160;&#160;&#160;&#160;&#160;&#160;&#160;&#160;&#160;&#160;&#160;&#160;&#160;&#160;&#160;&#160;&#160;&#160;&#160;&#160;&#160;&#160;&#160;&#160;&#160;&#160;</text>
<polygon fill="none" stroke="#99ccff" points="787.49,-152.3 787.49,-171.3 878.49,-171.3 878.49,-152.3 787.49,-152.3"/>
<text text-anchor="start" x="813.19" y="-158.4" font-family="Courier,monospace" font-size="11.00">id(18)</text>
<polygon fill="none" stroke="#99ccff" points="148.49,-133.3 148.49,-152.3 787.49,-152.3 787.49,-133.3 148.49,-133.3"/>
<text text-anchor="start" x="151.49" y="-139.4" font-family="Courier,monospace" font-size="11.00"> &#160;&#160;&#160;&#160;&#160;&#160;&#160;&#160;&#160;&#160;&#160;&#160;&#160;&#160;&#160;&#160;&#160;&#160;&#160;&#160;&#160;&#160;&#160;&#160;&#160;&#160;&#160;&#160;&#160;&#160;&#160;&#160;&#160;&#160;&#160;&#160;&#160;&#160;&#160;&#160;IsDeleted &#160;&#160;&#160;&#160;&#160;&#160;&#160;&#160;&#160;&#160;&#160;&#160;&#160;&#160;&#160;&#160;&#160;&#160;&#160;&#160;&#160;&#160;&#160;&#160;&#160;&#160;&#160;&#160;&#160;&#160;&#160;&#160;&#160;&#160;&#160;&#160;&#160;&#160;</text>
<polygon fill="none" stroke="#99ccff" points="787.49,-133.3 787.49,-152.3 878.49,-152.3 878.49,-133.3 787.49,-133.3"/>
<text text-anchor="start" x="809.89" y="-139.4" font-family="Courier,monospace" font-size="11.00">boolean</text>
<polygon fill="none" stroke="#99ccff" points="148.49,-114.3 148.49,-133.3 787.49,-133.3 787.49,-114.3 148.49,-114.3"/>
<text text-anchor="start" x="151.49" y="-120.4" font-family="Courier,monospace" font-size="11.00"> &#160;&#160;&#160;&#160;&#160;&#160;&#160;&#160;&#160;&#160;&#160;&#160;&#160;&#160;&#160;&#160;&#160;&#160;&#160;&#160;&#160;&#160;&#160;&#160;&#160;&#160;&#160;&#160;&#160;&#160;&#160;&#160;&#160;&#160;&#160;&#160;&#160;&#160;&#160;&#160;DeveloperName &#160;&#160;&#160;&#160;&#160;&#160;&#160;&#160;&#160;&#160;&#160;&#160;&#160;&#160;&#160;&#160;&#160;&#160;&#160;&#160;&#160;&#160;&#160;&#160;&#160;&#160;&#160;&#160;&#160;&#160;&#160;&#160;&#160;&#160;&#160;&#160;&#160;&#160;</text>
<polygon fill="none" stroke="#99ccff" points="787.49,-114.3 787.49,-133.3 878.49,-133.3 878.49,-114.3 787.49,-114.3"/>
<text text-anchor="start" x="800" y="-120.4" font-family="Courier,monospace" font-size="11.00">string(80)</text>
<polygon fill="none" stroke="#99ccff" points="148.49,-95.3 148.49,-114.3 787.49,-114.3 787.49,-95.3 148.49,-95.3"/>
<text text-anchor="start" x="151.49" y="-101.4" font-family="Courier,monospace" font-size="11.00"> &#160;&#160;&#160;&#160;&#160;&#160;&#160;&#160;&#160;&#160;&#160;&#160;&#160;&#160;&#160;&#160;&#160;&#160;&#160;&#160;&#160;&#160;&#160;&#160;&#160;&#160;&#160;&#160;&#160;&#160;&#160;&#160;&#160;&#160;&#160;&#160;&#160;&#160;&#160;&#160;Language &#160;&#160;&#160;&#160;&#160;&#160;&#160;&#160;&#160;&#160;&#160;&#160;&#160;&#160;&#160;&#160;&#160;&#160;&#160;&#160;&#160;&#160;&#160;&#160;&#160;&#160;&#160;&#160;&#160;&#160;&#160;&#160;&#160;&#160;&#160;&#160;&#160;&#160;</text>
<polygon fill="none" stroke="#99ccff" points="787.49,-95.3 787.49,-114.3 878.49,-114.3 878.49,-95.3 787.49,-95.3"/>
<text text-anchor="start" x="793.4" y="-101.4" font-family="Courier,monospace" font-size="11.00">picklist(40)</text>
<polygon fill="none" stroke="#99ccff" points="148.49,-76.3 148.49,-95.3 787.49,-95.3 787.49,-76.3 148.49,-76.3"/>
<text text-anchor="start" x="151.49" y="-82.4" font-family="Courier,monospace" font-size="11.00"> &#160;&#160;&#160;&#160;&#160;&#160;&#160;&#160;&#160;&#160;&#160;&#160;&#160;&#160;&#160;&#160;&#160;&#160;&#160;&#160;&#160;&#160;&#160;&#160;&#160;&#160;&#160;&#160;&#160;&#160;&#160;&#160;&#160;&#160;&#160;&#160;&#160;&#160;&#160;&#160;MasterLabel &#160;&#160;&#160;&#160;&#160;&#160;&#160;&#160;&#160;&#160;&#160;&#160;&#160;&#160;&#160;&#160;&#160;&#160;&#160;&#160;&#160;&#160;&#160;&#160;&#160;&#160;&#160;&#160;&#160;&#160;&#160;&#160;&#160;&#160;&#160;&#160;&#160;&#160;</text>
<polygon fill="none" stroke="#99ccff" points="787.49,-76.3 787.49,-95.3 878.49,-95.3 878.49,-76.3 787.49,-76.3"/>
<text text-anchor="start" x="800" y="-82.4" font-family="Courier,monospace" font-size="11.00">string(80)</text>
<polygon fill="none" stroke="#99ccff" points="148.49,-57.3 148.49,-76.3 787.49,-76.3 787.49,-57.3 148.49,-57.3"/>
<text text-anchor="start" x="151.24" y="-63.4" font-family="Courier,monospace" font-size="11.00"> &#160;&#160;&#160;&#160;&#160;&#160;&#160;&#160;&#160;&#160;&#160;&#160;&#160;&#160;&#160;&#160;&#160;&#160;&#160;&#160;&#160;&#160;&#160;&#160;&#160;&#160;&#160;&#160;&#160;&#160;&#160;&#160;&#160;&#160;&#160;&#160;&#160;&#160;&#160;&#160;LastModifiedById &#160;&#160;&#160;&#160;&#160;&#160;&#160;&#160;&#160;&#160;&#160;&#160;&#160;&#160;&#160;&#160;&#160;&#160;&#160;&#160;&#160;&#160;&#160;&#160;&#160;&#160;&#160;&#160;&#160;&#160;&#160;&#160;&#160;&#160;&#160;&#160;&#160;&#160;</text>
<polygon fill="none" stroke="#99ccff" points="787.49,-57.3 787.49,-76.3 878.49,-76.3 878.49,-57.3 787.49,-57.3"/>
<text text-anchor="start" x="790.1" y="-63.4" font-family="Courier,monospace" font-size="11.00">reference(18)</text>
<polygon fill="none" stroke="#99ccff" points="148.49,-38.3 148.49,-57.3 787.49,-57.3 787.49,-38.3 148.49,-38.3"/>
<text text-anchor="start" x="151.49" y="-44.4" font-family="Courier,monospace" font-size="11.00"> &#160;&#160;&#160;&#160;&#160;&#160;&#160;&#160;&#160;&#160;&#160;&#160;&#160;&#160;&#160;&#160;&#160;&#160;&#160;&#160;&#160;&#160;&#160;&#160;&#160;&#160;&#160;&#160;&#160;&#160;&#160;&#160;&#160;&#160;&#160;&#160;&#160;&#160;&#160;&#160;Description &#160;&#160;&#160;&#160;&#160;&#160;&#160;&#160;&#160;&#160;&#160;&#160;&#160;&#160;&#160;&#160;&#160;&#160;&#160;&#160;&#160;&#160;&#160;&#160;&#160;&#160;&#160;&#160;&#160;&#160;&#160;&#160;&#160;&#160;&#160;&#160;&#160;&#160;</text>
<polygon fill="none" stroke="#99ccff" points="787.49,-38.3 787.49,-57.3 878.49,-57.3 878.49,-38.3 787.49,-38.3"/>
<text text-anchor="start" x="790.1" y="-44.4" font-family="Courier,monospace" font-size="11.00">textarea(255)</text>
<polygon fill="none" stroke="#99ccff" points="148.49,-19.3 148.49,-38.3 787.49,-38.3 787.49,-19.3 148.49,-19.3"/>
<text text-anchor="start" x="151.49" y="-25.4" font-family="Courier,monospace" font-size="11.00"> &#160;&#160;&#160;&#160;&#160;&#160;&#160;&#160;&#160;&#160;&#160;&#160;&#160;&#160;&#160;&#160;&#160;&#160;&#160;&#160;&#160;&#160;&#160;&#160;&#160;&#160;&#160;&#160;&#160;&#160;&#160;&#160;&#160;&#160;&#160;&#160;&#160;&#160;&#160;&#160;Priority &#160;&#160;&#160;&#160;&#160;&#160;&#160;&#160;&#160;&#160;&#160;&#160;&#160;&#160;&#160;&#160;&#160;&#160;&#160;&#160;&#160;&#160;&#160;&#160;&#160;&#160;&#160;&#160;&#160;&#160;&#160;&#160;&#160;&#160;&#160;&#160;&#160;&#160;</text>
<polygon fill="none" stroke="#99ccff" points="787.49,-19.3 787.49,-38.3 878.49,-38.3 878.49,-19.3 787.49,-19.3"/>
<text text-anchor="start" x="823.09" y="-25.4" font-family="Courier,monospace" font-size="11.00">int</text>
<polygon fill="none" stroke="#99ccff" points="147.49,-18.8 147.49,-191.8 879.49,-191.8 879.49,-18.8 147.49,-18.8"/>
</a>
</g>
</g>
<!-- User -->
<g id="node2" class="node">
<title>User</title>
<text text-anchor="middle" x="27" y="-63" font-family="Courier,monospace" font-size="11.00">User</text>
</g>
<!-- Territory2Type&#45;&gt;User -->
<g id="edge1" class="edge">
<title>Territory2Type:w&#45;&gt;User:e</title>
<path fill="none" stroke="#ff99cc" d="M132.91,-66.3C104.63,-66.3 74.72,-66.3 54.11,-66.3"/>
<polygon fill="#ff99cc" stroke="#ff99cc" points="139.49,-66.3 147.49,-69.9 143.49,-66.3 147.49,-66.3 147.49,-66.3 147.49,-66.3 143.49,-66.3 147.49,-62.7 139.49,-66.3 139.49,-66.3"/>
<ellipse fill="none" stroke="#ff99cc" cx="136.29" cy="-66.3" rx="3.2" ry="3.2"/>
<text text-anchor="middle" x="100.75" y="-69" font-family="Monaco" font-size="9.00">LastModifiedBy</text>
</g>
</g>
</svg>
