<?xml version="1.0" encoding="UTF-8" standalone="no"?>
<!DOCTYPE svg PUBLIC "-//W3C//DTD SVG 1.1//EN"
 "http://www.w3.org/Graphics/SVG/1.1/DTD/svg11.dtd">
<!-- Generated by graphviz version 2.44.0 (20200518.1210)
 -->
<!-- Title: Salesforce+ ERD Pages: 1 -->
<svg width="989pt" height="346pt"
 viewBox="0.00 0.00 989.46 345.80" xmlns="http://www.w3.org/2000/svg" xmlns:xlink="http://www.w3.org/1999/xlink">
<g id="graph0" class="graph" transform="scale(1 1) rotate(0) translate(4 341.8)">
<title>Salesforce+ ERD</title>
<polygon fill="#efeffd" stroke="transparent" points="-4,4 -4,-341.8 985.46,-341.8 985.46,4 -4,4"/>
<text text-anchor="middle" x="932.97" y="-6.7" font-family="Courier,monospace" font-size="9.00">Salesforce ERD </text>
<!-- Territory2 -->
<g id="node1" class="node">
<title>Territory2</title>
<g id="a_node1"><a xlink:href="#" xlink:title=" Territory2 ">
<polygon fill="#ffeeff" stroke="transparent" points="209.46,-18.8 209.46,-305.8 981.46,-305.8 981.46,-18.8 209.46,-18.8"/>
<polygon fill="lightblue" stroke="transparent" points="210.46,-285.3 210.46,-304.3 980.46,-304.3 980.46,-285.3 210.46,-285.3"/>
<polygon fill="none" stroke="#99ccff" points="210.46,-285.3 210.46,-304.3 980.46,-304.3 980.46,-285.3 210.46,-285.3"/>
<text text-anchor="start" x="562.47" y="-292.4" font-family="Courier,monospace" font-weight="bold" font-size="11.00">Territory2</text>
<polygon fill="#99ccff" stroke="transparent" points="210.46,-266.3 210.46,-285.3 889.46,-285.3 889.46,-266.3 210.46,-266.3"/>
<polygon fill="none" stroke="#99ccff" points="210.46,-266.3 210.46,-285.3 889.46,-285.3 889.46,-266.3 210.46,-266.3"/>
<text text-anchor="start" x="213.46" y="-273.4" font-family="Courier,monospace" font-size="11.00"> &#160;&#160;&#160;&#160;&#160;&#160;&#160;&#160;&#160;&#160;&#160;&#160;&#160;&#160;&#160;&#160;&#160;&#160;&#160;&#160;&#160;&#160;&#160;&#160;&#160;&#160;&#160;&#160;&#160;&#160;&#160;&#160;&#160;&#160;&#160;&#160;&#160;&#160;&#160;&#160;&#160;&#160;</text>
<text text-anchor="start" x="497.22" y="-273.4" font-family="Courier,monospace" font-weight="bold" font-size="11.00">Id</text>
<text text-anchor="start" x="510.41" y="-273.4" font-family="Courier,monospace" font-size="11.00"> &#160;&#160;&#160;&#160;&#160;&#160;&#160;&#160;&#160;&#160;&#160;&#160;&#160;&#160;&#160;&#160;&#160;&#160;&#160;&#160;&#160;&#160;&#160;&#160;&#160;&#160;&#160;&#160;&#160;&#160;&#160;&#160;&#160;&#160;&#160;&#160;&#160;&#160;&#160;</text>
<polygon fill="none" stroke="#99ccff" points="889.46,-266.3 889.46,-285.3 980.46,-285.3 980.46,-266.3 889.46,-266.3"/>
<text text-anchor="start" x="915.17" y="-272.4" font-family="Courier,monospace" font-size="11.00">id(18)</text>
<polygon fill="none" stroke="#99ccff" points="210.46,-247.3 210.46,-266.3 889.46,-266.3 889.46,-247.3 210.46,-247.3"/>
<text text-anchor="start" x="213.46" y="-253.4" font-family="Courier,monospace" font-size="11.00"> &#160;&#160;&#160;&#160;&#160;&#160;&#160;&#160;&#160;&#160;&#160;&#160;&#160;&#160;&#160;&#160;&#160;&#160;&#160;&#160;&#160;&#160;&#160;&#160;&#160;&#160;&#160;&#160;&#160;&#160;&#160;&#160;&#160;&#160;&#160;&#160;&#160;&#160;&#160;&#160;Name &#160;&#160;&#160;&#160;&#160;&#160;&#160;&#160;&#160;&#160;&#160;&#160;&#160;&#160;&#160;&#160;&#160;&#160;&#160;&#160;&#160;&#160;&#160;&#160;&#160;&#160;&#160;&#160;&#160;&#160;&#160;&#160;&#160;&#160;&#160;&#160;&#160;&#160;</text>
<polygon fill="none" stroke="#99ccff" points="889.46,-247.3 889.46,-266.3 980.46,-266.3 980.46,-247.3 889.46,-247.3"/>
<text text-anchor="start" x="901.97" y="-253.4" font-family="Courier,monospace" font-size="11.00">string(80)</text>
<polygon fill="none" stroke="#99ccff" points="210.46,-228.3 210.46,-247.3 889.46,-247.3 889.46,-228.3 210.46,-228.3"/>
<text text-anchor="start" x="213.46" y="-234.4" font-family="Courier,monospace" font-size="11.00"> &#160;&#160;&#160;&#160;&#160;&#160;&#160;&#160;&#160;&#160;&#160;&#160;&#160;&#160;&#160;&#160;&#160;&#160;&#160;&#160;&#160;&#160;&#160;&#160;&#160;&#160;&#160;&#160;&#160;&#160;&#160;&#160;&#160;&#160;&#160;&#160;&#160;&#160;&#160;&#160;Territory2TypeId &#160;&#160;&#160;&#160;&#160;&#160;&#160;&#160;&#160;&#160;&#160;&#160;&#160;&#160;&#160;&#160;&#160;&#160;&#160;&#160;&#160;&#160;&#160;&#160;&#160;&#160;&#160;&#160;&#160;&#160;&#160;&#160;&#160;&#160;&#160;&#160;&#160;&#160;</text>
<polygon fill="none" stroke="#99ccff" points="889.46,-228.3 889.46,-247.3 980.46,-247.3 980.46,-228.3 889.46,-228.3"/>
<text text-anchor="start" x="892.07" y="-234.4" font-family="Courier,monospace" font-size="11.00">reference(18)</text>
<polygon fill="none" stroke="#99ccff" points="210.46,-209.3 210.46,-228.3 889.46,-228.3 889.46,-209.3 210.46,-209.3"/>
<text text-anchor="start" x="213.46" y="-215.4" font-family="Courier,monospace" font-size="11.00"> &#160;&#160;&#160;&#160;&#160;&#160;&#160;&#160;&#160;&#160;&#160;&#160;&#160;&#160;&#160;&#160;&#160;&#160;&#160;&#160;&#160;&#160;&#160;&#160;&#160;&#160;&#160;&#160;&#160;&#160;&#160;&#160;&#160;&#160;&#160;&#160;&#160;&#160;&#160;&#160;Territory2ModelId &#160;&#160;&#160;&#160;&#160;&#160;&#160;&#160;&#160;&#160;&#160;&#160;&#160;&#160;&#160;&#160;&#160;&#160;&#160;&#160;&#160;&#160;&#160;&#160;&#160;&#160;&#160;&#160;&#160;&#160;&#160;&#160;&#160;&#160;&#160;&#160;&#160;&#160;</text>
<polygon fill="none" stroke="#99ccff" points="889.46,-209.3 889.46,-228.3 980.46,-228.3 980.46,-209.3 889.46,-209.3"/>
<text text-anchor="start" x="892.07" y="-215.4" font-family="Courier,monospace" font-size="11.00">reference(18)</text>
<polygon fill="none" stroke="#99ccff" points="210.46,-190.3 210.46,-209.3 889.46,-209.3 889.46,-190.3 210.46,-190.3"/>
<text text-anchor="start" x="213.46" y="-196.4" font-family="Courier,monospace" font-size="11.00"> &#160;&#160;&#160;&#160;&#160;&#160;&#160;&#160;&#160;&#160;&#160;&#160;&#160;&#160;&#160;&#160;&#160;&#160;&#160;&#160;&#160;&#160;&#160;&#160;&#160;&#160;&#160;&#160;&#160;&#160;&#160;&#160;&#160;&#160;&#160;&#160;&#160;&#160;&#160;&#160;ParentTerritory2Id &#160;&#160;&#160;&#160;&#160;&#160;&#160;&#160;&#160;&#160;&#160;&#160;&#160;&#160;&#160;&#160;&#160;&#160;&#160;&#160;&#160;&#160;&#160;&#160;&#160;&#160;&#160;&#160;&#160;&#160;&#160;&#160;&#160;&#160;&#160;&#160;&#160;&#160;</text>
<polygon fill="none" stroke="#99ccff" points="889.46,-190.3 889.46,-209.3 980.46,-209.3 980.46,-190.3 889.46,-190.3"/>
<text text-anchor="start" x="892.07" y="-196.4" font-family="Courier,monospace" font-size="11.00">reference(18)</text>
<polygon fill="none" stroke="#99ccff" points="210.46,-171.3 210.46,-190.3 889.46,-190.3 889.46,-171.3 210.46,-171.3"/>
<text text-anchor="start" x="213.46" y="-177.4" font-family="Courier,monospace" font-size="11.00"> &#160;&#160;&#160;&#160;&#160;&#160;&#160;&#160;&#160;&#160;&#160;&#160;&#160;&#160;&#160;&#160;&#160;&#160;&#160;&#160;&#160;&#160;&#160;&#160;&#160;&#160;&#160;&#160;&#160;&#160;&#160;&#160;&#160;&#160;&#160;&#160;&#160;&#160;&#160;&#160;Description &#160;&#160;&#160;&#160;&#160;&#160;&#160;&#160;&#160;&#160;&#160;&#160;&#160;&#160;&#160;&#160;&#160;&#160;&#160;&#160;&#160;&#160;&#160;&#160;&#160;&#160;&#160;&#160;&#160;&#160;&#160;&#160;&#160;&#160;&#160;&#160;&#160;&#160;</text>
<polygon fill="none" stroke="#99ccff" points="889.46,-171.3 889.46,-190.3 980.46,-190.3 980.46,-171.3 889.46,-171.3"/>
<text text-anchor="start" x="895.37" y="-177.4" font-family="Courier,monospace" font-size="11.00">string(1000)</text>
<polygon fill="none" stroke="#99ccff" points="210.46,-152.3 210.46,-171.3 889.46,-171.3 889.46,-152.3 210.46,-152.3"/>
<text text-anchor="start" x="213.46" y="-158.4" font-family="Courier,monospace" font-size="11.00"> &#160;&#160;&#160;&#160;&#160;&#160;&#160;&#160;&#160;&#160;&#160;&#160;&#160;&#160;&#160;&#160;&#160;&#160;&#160;&#160;&#160;&#160;&#160;&#160;&#160;&#160;&#160;&#160;&#160;&#160;&#160;&#160;&#160;&#160;&#160;&#160;&#160;&#160;&#160;&#160;ForecastUserId &#160;&#160;&#160;&#160;&#160;&#160;&#160;&#160;&#160;&#160;&#160;&#160;&#160;&#160;&#160;&#160;&#160;&#160;&#160;&#160;&#160;&#160;&#160;&#160;&#160;&#160;&#160;&#160;&#160;&#160;&#160;&#160;&#160;&#160;&#160;&#160;&#160;&#160;</text>
<polygon fill="none" stroke="#99ccff" points="889.46,-152.3 889.46,-171.3 980.46,-171.3 980.46,-152.3 889.46,-152.3"/>
<text text-anchor="start" x="892.07" y="-158.4" font-family="Courier,monospace" font-size="11.00">reference(18)</text>
<polygon fill="none" stroke="#99ccff" points="210.46,-133.3 210.46,-152.3 889.46,-152.3 889.46,-133.3 210.46,-133.3"/>
<text text-anchor="start" x="213.46" y="-139.4" font-family="Courier,monospace" font-size="11.00"> &#160;&#160;&#160;&#160;&#160;&#160;&#160;&#160;&#160;&#160;&#160;&#160;&#160;&#160;&#160;&#160;&#160;&#160;&#160;&#160;&#160;&#160;&#160;&#160;&#160;&#160;&#160;&#160;&#160;&#160;&#160;&#160;&#160;&#160;&#160;&#160;&#160;&#160;&#160;&#160;AccountAccessLevel &#160;&#160;&#160;&#160;&#160;&#160;&#160;&#160;&#160;&#160;&#160;&#160;&#160;&#160;&#160;&#160;&#160;&#160;&#160;&#160;&#160;&#160;&#160;&#160;&#160;&#160;&#160;&#160;&#160;&#160;&#160;&#160;&#160;&#160;&#160;&#160;&#160;&#160;</text>
<polygon fill="none" stroke="#99ccff" points="889.46,-133.3 889.46,-152.3 980.46,-152.3 980.46,-133.3 889.46,-133.3"/>
<text text-anchor="start" x="895.37" y="-139.4" font-family="Courier,monospace" font-size="11.00">picklist(40)</text>
<polygon fill="none" stroke="#99ccff" points="210.46,-114.3 210.46,-133.3 889.46,-133.3 889.46,-114.3 210.46,-114.3"/>
<text text-anchor="start" x="213.42" y="-120.4" font-family="Courier,monospace" font-size="11.00"> &#160;&#160;&#160;&#160;&#160;&#160;&#160;&#160;&#160;&#160;&#160;&#160;&#160;&#160;&#160;&#160;&#160;&#160;&#160;&#160;&#160;&#160;&#160;&#160;&#160;&#160;&#160;&#160;&#160;&#160;&#160;&#160;&#160;&#160;&#160;&#160;&#160;&#160;&#160;&#160;OpportunityAccessLevel &#160;&#160;&#160;&#160;&#160;&#160;&#160;&#160;&#160;&#160;&#160;&#160;&#160;&#160;&#160;&#160;&#160;&#160;&#160;&#160;&#160;&#160;&#160;&#160;&#160;&#160;&#160;&#160;&#160;&#160;&#160;&#160;&#160;&#160;&#160;&#160;&#160;&#160;</text>
<polygon fill="none" stroke="#99ccff" points="889.46,-114.3 889.46,-133.3 980.46,-133.3 980.46,-114.3 889.46,-114.3"/>
<text text-anchor="start" x="895.37" y="-120.4" font-family="Courier,monospace" font-size="11.00">picklist(40)</text>
<polygon fill="none" stroke="#99ccff" points="210.46,-95.3 210.46,-114.3 889.46,-114.3 889.46,-95.3 210.46,-95.3"/>
<text text-anchor="start" x="213.46" y="-101.4" font-family="Courier,monospace" font-size="11.00"> &#160;&#160;&#160;&#160;&#160;&#160;&#160;&#160;&#160;&#160;&#160;&#160;&#160;&#160;&#160;&#160;&#160;&#160;&#160;&#160;&#160;&#160;&#160;&#160;&#160;&#160;&#160;&#160;&#160;&#160;&#160;&#160;&#160;&#160;&#160;&#160;&#160;&#160;&#160;&#160;CaseAccessLevel &#160;&#160;&#160;&#160;&#160;&#160;&#160;&#160;&#160;&#160;&#160;&#160;&#160;&#160;&#160;&#160;&#160;&#160;&#160;&#160;&#160;&#160;&#160;&#160;&#160;&#160;&#160;&#160;&#160;&#160;&#160;&#160;&#160;&#160;&#160;&#160;&#160;&#160;</text>
<polygon fill="none" stroke="#99ccff" points="889.46,-95.3 889.46,-114.3 980.46,-114.3 980.46,-95.3 889.46,-95.3"/>
<text text-anchor="start" x="895.37" y="-101.4" font-family="Courier,monospace" font-size="11.00">picklist(40)</text>
<polygon fill="none" stroke="#99ccff" points="210.46,-76.3 210.46,-95.3 889.46,-95.3 889.46,-76.3 210.46,-76.3"/>
<text text-anchor="start" x="213.46" y="-82.4" font-family="Courier,monospace" font-size="11.00"> &#160;&#160;&#160;&#160;&#160;&#160;&#160;&#160;&#160;&#160;&#160;&#160;&#160;&#160;&#160;&#160;&#160;&#160;&#160;&#160;&#160;&#160;&#160;&#160;&#160;&#160;&#160;&#160;&#160;&#160;&#160;&#160;&#160;&#160;&#160;&#160;&#160;&#160;&#160;&#160;ContactAccessLevel &#160;&#160;&#160;&#160;&#160;&#160;&#160;&#160;&#160;&#160;&#160;&#160;&#160;&#160;&#160;&#160;&#160;&#160;&#160;&#160;&#160;&#160;&#160;&#160;&#160;&#160;&#160;&#160;&#160;&#160;&#160;&#160;&#160;&#160;&#160;&#160;&#160;&#160;</text>
<polygon fill="none" stroke="#99ccff" points="889.46,-76.3 889.46,-95.3 980.46,-95.3 980.46,-76.3 889.46,-76.3"/>
<text text-anchor="start" x="895.37" y="-82.4" font-family="Courier,monospace" font-size="11.00">picklist(40)</text>
<polygon fill="none" stroke="#99ccff" points="210.46,-57.3 210.46,-76.3 889.46,-76.3 889.46,-57.3 210.46,-57.3"/>
<text text-anchor="start" x="213.46" y="-63.4" font-family="Courier,monospace" font-size="11.00"> &#160;&#160;&#160;&#160;&#160;&#160;&#160;&#160;&#160;&#160;&#160;&#160;&#160;&#160;&#160;&#160;&#160;&#160;&#160;&#160;&#160;&#160;&#160;&#160;&#160;&#160;&#160;&#160;&#160;&#160;&#160;&#160;&#160;&#160;&#160;&#160;&#160;&#160;&#160;&#160;CurrencyIsoCode &#160;&#160;&#160;&#160;&#160;&#160;&#160;&#160;&#160;&#160;&#160;&#160;&#160;&#160;&#160;&#160;&#160;&#160;&#160;&#160;&#160;&#160;&#160;&#160;&#160;&#160;&#160;&#160;&#160;&#160;&#160;&#160;&#160;&#160;&#160;&#160;&#160;&#160;</text>
<polygon fill="none" stroke="#99ccff" points="889.46,-57.3 889.46,-76.3 980.46,-76.3 980.46,-57.3 889.46,-57.3"/>
<text text-anchor="start" x="898.67" y="-63.4" font-family="Courier,monospace" font-size="11.00">picklist(3)</text>
<polygon fill="none" stroke="#99ccff" points="210.46,-38.3 210.46,-57.3 889.46,-57.3 889.46,-38.3 210.46,-38.3"/>
<text text-anchor="start" x="213.46" y="-44.4" font-family="Courier,monospace" font-size="11.00"> &#160;&#160;&#160;&#160;&#160;&#160;&#160;&#160;&#160;&#160;&#160;&#160;&#160;&#160;&#160;&#160;&#160;&#160;&#160;&#160;&#160;&#160;&#160;&#160;&#160;&#160;&#160;&#160;&#160;&#160;&#160;&#160;&#160;&#160;&#160;&#160;&#160;&#160;&#160;&#160;LastModifiedById &#160;&#160;&#160;&#160;&#160;&#160;&#160;&#160;&#160;&#160;&#160;&#160;&#160;&#160;&#160;&#160;&#160;&#160;&#160;&#160;&#160;&#160;&#160;&#160;&#160;&#160;&#160;&#160;&#160;&#160;&#160;&#160;&#160;&#160;&#160;&#160;&#160;&#160;</text>
<polygon fill="none" stroke="#99ccff" points="889.46,-38.3 889.46,-57.3 980.46,-57.3 980.46,-38.3 889.46,-38.3"/>
<text text-anchor="start" x="892.07" y="-44.4" font-family="Courier,monospace" font-size="11.00">reference(18)</text>
<polygon fill="none" stroke="#99ccff" points="210.46,-19.3 210.46,-38.3 889.46,-38.3 889.46,-19.3 210.46,-19.3"/>
<text text-anchor="start" x="213.46" y="-25.4" font-family="Courier,monospace" font-size="11.00"> &#160;&#160;&#160;&#160;&#160;&#160;&#160;&#160;&#160;&#160;&#160;&#160;&#160;&#160;&#160;&#160;&#160;&#160;&#160;&#160;&#160;&#160;&#160;&#160;&#160;&#160;&#160;&#160;&#160;&#160;&#160;&#160;&#160;&#160;&#160;&#160;&#160;&#160;&#160;&#160;DeveloperName &#160;&#160;&#160;&#160;&#160;&#160;&#160;&#160;&#160;&#160;&#160;&#160;&#160;&#160;&#160;&#160;&#160;&#160;&#160;&#160;&#160;&#160;&#160;&#160;&#160;&#160;&#160;&#160;&#160;&#160;&#160;&#160;&#160;&#160;&#160;&#160;&#160;&#160;</text>
<polygon fill="none" stroke="#99ccff" points="889.46,-19.3 889.46,-38.3 980.46,-38.3 980.46,-19.3 889.46,-19.3"/>
<text text-anchor="start" x="901.97" y="-25.4" font-family="Courier,monospace" font-size="11.00">string(80)</text>
<polygon fill="none" stroke="#99ccff" points="209.46,-18.8 209.46,-305.8 981.46,-305.8 981.46,-18.8 209.46,-18.8"/>
</a>
</g>
</g>
<!-- Territory2&#45;&gt;Territory2 -->
<g id="edge3" class="edge">
<title>Territory2:w&#45;&gt;Territory2:e</title>
<path fill="none" stroke="#3e7ab7" d="M197.45,-206.94C103.25,-257.92 121.26,-318.8 549.96,-318.8 997.46,-318.8 997.46,-310.13 889.46,-276.3"/>
<polygon fill="#3e7ab7" stroke="#3e7ab7" points="203.34,-203.94 212.1,-203.51 206.9,-202.12 210.46,-200.3 210.46,-200.3 210.46,-200.3 206.9,-202.12 208.83,-197.09 203.34,-203.94 203.34,-203.94"/>
<ellipse fill="none" stroke="#3e7ab7" cx="200.49" cy="-205.39" rx="3.2" ry="3.2"/>
<text text-anchor="middle" x="595.46" y="-322.4" font-family="Arial" font-size="12.00">ParentTerritory2</text>
</g>
<!-- Territory2Type -->
<g id="node2" class="node">
<title>Territory2Type</title>
<text text-anchor="middle" x="57.49" y="-240" font-family="Courier,monospace" font-size="11.00">Territory2Type</text>
</g>
<!-- Territory2&#45;&gt;Territory2Type -->
<g id="edge1" class="edge">
<title>Territory2:w&#45;&gt;Territory2Type:e</title>
<path fill="none" stroke="#ff99cc" d="M194.82,-238.37C166.47,-238.65 136.52,-239.64 111.93,-240.67"/>
<polygon fill="#ff99cc" stroke="#ff99cc" points="201.46,-238.34 209.48,-241.9 205.46,-238.32 209.46,-238.3 209.46,-238.3 209.46,-238.3 205.46,-238.32 209.45,-234.7 201.46,-238.34 201.46,-238.34"/>
<ellipse fill="none" stroke="#ff99cc" cx="198.26" cy="-238.36" rx="3.2" ry="3.2"/>
<text text-anchor="middle" x="162.22" y="-242" font-family="Monaco" font-size="9.00">Territory2Type</text>
</g>
<!-- Territory2Model -->
<g id="node3" class="node">
<title>Territory2Model</title>
<text text-anchor="middle" x="57.49" y="-191" font-family="Courier,monospace" font-size="11.00">Territory2Model</text>
</g>
<!-- Territory2&#45;&gt;Territory2Model -->
<g id="edge2" class="edge">
<title>Territory2:w&#45;&gt;Territory2Model:e</title>
<path fill="none" stroke="#ff99cc" d="M195.18,-216.95C176.85,-213.92 143.97,-208.47 115.06,-203.68"/>
<polygon fill="#ff99cc" stroke="#ff99cc" points="201.57,-218 208.88,-222.85 205.52,-218.65 209.46,-219.3 209.46,-219.3 209.46,-219.3 205.52,-218.65 210.05,-215.75 201.57,-218 201.57,-218"/>
<ellipse fill="none" stroke="#ff99cc" cx="198.41" cy="-217.48" rx="3.2" ry="3.2"/>
<text text-anchor="middle" x="162.22" y="-218" font-family="Monaco" font-size="9.00">Territory2Model</text>
</g>
<!-- User -->
<g id="node4" class="node">
<title>User</title>
<text text-anchor="middle" x="57.49" y="-112" font-family="Courier,monospace" font-size="11.00">User</text>
</g>
<!-- Territory2&#45;&gt;User -->
<g id="edge4" class="edge">
<title>Territory2:w&#45;&gt;User:e</title>
<path fill="none" stroke="#ff99cc" d="M195,-160.69C153.83,-157.31 111.19,-140.64 84.75,-128.48"/>
<polygon fill="#ff99cc" stroke="#ff99cc" points="201.47,-160.96 209.31,-164.9 205.47,-161.13 209.46,-161.3 209.46,-161.3 209.46,-161.3 205.47,-161.13 209.62,-157.7 201.47,-160.96 201.47,-160.96"/>
<ellipse fill="none" stroke="#ff99cc" cx="198.27" cy="-160.83" rx="3.2" ry="3.2"/>
<text text-anchor="middle" x="162.22" y="-162" font-family="Monaco" font-size="9.00">ForecastUser</text>
</g>
<!-- Territory2&#45;&gt;User -->
<g id="edge5" class="edge">
<title>Territory2:w&#45;&gt;User:e</title>
<path fill="none" stroke="#ff99cc" d="M194.88,-48.15C150.92,-53.14 107.51,-79.12 81.86,-97.26"/>
<polygon fill="#ff99cc" stroke="#ff99cc" points="201.48,-47.76 209.67,-50.89 205.47,-47.53 209.46,-47.3 209.46,-47.3 209.46,-47.3 205.47,-47.53 209.25,-43.71 201.48,-47.76 201.48,-47.76"/>
<ellipse fill="none" stroke="#ff99cc" cx="198.28" cy="-47.95" rx="3.2" ry="3.2"/>
<text text-anchor="middle" x="162.22" y="-71" font-family="Monaco" font-size="9.00">LastModifiedBy</text>
</g>
</g>
</svg>
