<svg width="163" height="110" viewBox="0 0 163 110" fill="none"
  xmlns="http://www.w3.org/2000/svg">
  <path d="M162.233 86.3271H0.242188V109.215H162.233V86.3271Z" fill="#B2D4FF"/>
  <path d="M162.233 17.6577H0.242188V40.5453H162.233V17.6577Z" fill="white"/>
  <path d="M162.233 40.5454H0.242188V63.433H162.233V40.5454Z" fill="#B2D4FF"/>
  <path d="M162.233 63.4395H0.242188V86.327H162.233V63.4395Z" fill="white"/>
  <path d="M162.233 0H0.242188V17.6576H162.233V0Z" fill="#B2D4FF"/>
  <path d="M155.781 89.3604H74.24C73.0557 89.3604 72.0957 90.3204 72.0957 91.5046V104.383C72.0957 105.568 73.0557 106.528 74.24 106.528H155.781C156.966 106.528 157.926 105.568 157.926 104.383V91.5046C157.926 90.3204 156.966 89.3604 155.781 89.3604Z" fill="#8777D9"/>
  <path d="M162.233 16.834H0.242188V17.6904H162.233V16.834Z" fill="#4C9AFF"/>
  <path d="M68.2196 66.4727H6.6892C5.50495 66.4727 4.54492 67.4327 4.54492 68.6169V81.4957C4.54492 82.68 5.50495 83.64 6.6892 83.64H68.2196C69.4039 83.64 70.3639 82.68 70.3639 81.4957V68.6169C70.3639 67.4327 69.4039 66.4727 68.2196 66.4727Z" fill="url(#paint0_linear)"/>
  <path d="M89.2961 20.4751H26.2751C25.0909 20.4751 24.1309 21.4351 24.1309 22.6194V35.4981C24.1309 36.6824 25.0909 37.6424 26.2751 37.6424H89.2961C90.4803 37.6424 91.4404 36.6824 91.4404 35.4981V22.6194C91.4404 21.4351 90.4803 20.4751 89.2961 20.4751Z" fill="url(#paint1_linear)"/>
  <path d="M131.802 43.4741H47.5935C46.4092 43.4741 45.4492 44.4341 45.4492 45.6184V58.4972C45.4492 59.6814 46.4092 60.6414 47.5935 60.6414H131.802C132.987 60.6414 133.947 59.6814 133.947 58.4972V45.6184C133.947 44.4341 132.987 43.4741 131.802 43.4741Z" fill="url(#paint2_linear)"/>
  <path d="M129.129 46.3374C129.698 46.3374 130.243 46.5633 130.645 46.9654C131.048 47.3676 131.274 47.913 131.274 48.4817V55.6336C131.274 56.2023 131.048 56.7478 130.645 57.1499C130.243 57.552 129.698 57.7779 129.129 57.7779C128.563 57.7745 128.021 57.547 127.621 57.1453C127.222 56.7435 126.998 56.2001 126.998 55.6336V48.4817C126.998 47.9152 127.222 47.3718 127.621 46.9701C128.021 46.5683 128.563 46.3409 129.129 46.3374Z" fill="#0052CC"/>
  <path d="M65.2964 5.45215H59.5762L61.7205 9.75378V108.901C61.7375 109.079 61.8203 109.244 61.9526 109.364C62.085 109.485 62.2574 109.551 62.4363 109.551C62.6152 109.551 62.7876 109.485 62.92 109.364C63.0523 109.244 63.1351 109.079 63.1522 108.901V9.75378L65.2964 5.45215Z" fill="url(#paint3_linear)"/>
  <defs>
    <linearGradient id="paint0_linear" x1="4.54492" y1="75.0563" x2="70.3573" y2="75.0563" gradientUnits="userSpaceOnUse">
      <stop stop-color="#2684FF"/>
      <stop offset="1" stop-color="#4C9AFF"/>
    </linearGradient>
    <linearGradient id="paint1_linear" x1="24.1309" y1="29.0588" x2="91.4338" y2="29.0588" gradientUnits="userSpaceOnUse">
      <stop stop-color="#6554C0"/>
      <stop offset="1" stop-color="#8777D9"/>
    </linearGradient>
    <linearGradient id="paint2_linear" x1="45.4492" y1="52.0578" x2="133.947" y2="52.0578" gradientUnits="userSpaceOnUse">
      <stop stop-color="#0065FF"/>
      <stop offset="1" stop-color="#4C9AFF"/>
    </linearGradient>
    <linearGradient id="paint3_linear" x1="62.433" y1="5.78556" x2="62.433" y2="63.1908" gradientUnits="userSpaceOnUse">
      <stop stop-color="#FFAB00"/>
      <stop offset="1" stop-color="#FF991F"/>
    </linearGradient>
  </defs>
</svg>
