<?xml version="1.0" encoding="UTF-8" standalone="no"?>
<!DOCTYPE svg PUBLIC "-//W3C//DTD SVG 1.1//EN"
 "http://www.w3.org/Graphics/SVG/1.1/DTD/svg11.dtd">
<!-- Generated by graphviz version 2.44.0 (20200518.1210)
 -->
<!-- Title: Salesforce+ ERD Pages: 1 -->
<svg width="1295pt" height="599pt"
 viewBox="0.00 0.00 1295.35 598.80" xmlns="http://www.w3.org/2000/svg" xmlns:xlink="http://www.w3.org/1999/xlink">
<g id="graph0" class="graph" transform="scale(1 1) rotate(0) translate(4 594.8)">
<title>Salesforce+ ERD</title>
<polygon fill="#efeffd" stroke="transparent" points="-4,4 -4,-594.8 1291.35,-594.8 1291.35,4 -4,4"/>
<text text-anchor="middle" x="1238.85" y="-6.7" font-family="Courier,monospace" font-size="9.00">Salesforce ERD </text>
<!-- vlocity_ins__OmniScript__c -->
<g id="node1" class="node">
<title>vlocity_ins__OmniScript__c</title>
<g id="a_node1"><a xlink:href="#" xlink:title=" vlocity_ins__OmniScript__c ">
<polygon fill="#ffeeff" stroke="transparent" points="344.35,-18.8 344.35,-590.8 1287.35,-590.8 1287.35,-18.8 344.35,-18.8"/>
<polygon fill="lightblue" stroke="transparent" points="345.85,-570.8 345.85,-589.8 1286.85,-589.8 1286.85,-570.8 345.85,-570.8"/>
<polygon fill="none" stroke="#99ccff" points="345.85,-570.8 345.85,-589.8 1286.85,-589.8 1286.85,-570.8 345.85,-570.8"/>
<text text-anchor="start" x="730.56" y="-577.9" font-family="Courier,monospace" font-weight="bold" font-size="11.00">vlocity_ins__OmniScript__c</text>
<polygon fill="#99ccff" stroke="transparent" points="345.85,-551.8 345.85,-570.8 1175.85,-570.8 1175.85,-551.8 345.85,-551.8"/>
<polygon fill="none" stroke="#99ccff" points="345.85,-551.8 345.85,-570.8 1175.85,-570.8 1175.85,-551.8 345.85,-551.8"/>
<text text-anchor="start" x="348.85" y="-558.9" font-family="Courier,monospace" font-size="11.00"> &#160;&#160;&#160;&#160;&#160;&#160;&#160;&#160;&#160;&#160;&#160;&#160;&#160;&#160;&#160;&#160;&#160;&#160;&#160;&#160;&#160;&#160;&#160;&#160;&#160;&#160;&#160;&#160;&#160;&#160;&#160;&#160;&#160;&#160;&#160;&#160;&#160;&#160;&#160;&#160;&#160;&#160;</text>
<text text-anchor="start" x="632.6" y="-558.9" font-family="Courier,monospace" font-weight="bold" font-size="11.00">Id</text>
<text text-anchor="start" x="645.8" y="-558.9" font-family="Courier,monospace" font-size="11.00"> &#160;&#160;&#160;&#160;&#160;&#160;&#160;&#160;&#160;&#160;&#160;&#160;&#160;&#160;&#160;&#160;&#160;&#160;&#160;&#160;&#160;&#160;&#160;&#160;&#160;&#160;&#160;&#160;&#160;&#160;&#160;&#160;&#160;&#160;&#160;&#160;&#160;&#160;&#160;</text>
<polygon fill="none" stroke="#99ccff" points="1175.85,-551.8 1175.85,-570.8 1286.85,-570.8 1286.85,-551.8 1175.85,-551.8"/>
<text text-anchor="start" x="1211.55" y="-557.9" font-family="Courier,monospace" font-size="11.00">id(18)</text>
<polygon fill="none" stroke="#99ccff" points="345.85,-532.8 345.85,-551.8 1175.85,-551.8 1175.85,-532.8 345.85,-532.8"/>
<text text-anchor="start" x="348.85" y="-538.9" font-family="Courier,monospace" font-size="11.00"> &#160;&#160;&#160;&#160;&#160;&#160;&#160;&#160;&#160;&#160;&#160;&#160;&#160;&#160;&#160;&#160;&#160;&#160;&#160;&#160;&#160;&#160;&#160;&#160;&#160;&#160;&#160;&#160;&#160;&#160;&#160;&#160;&#160;&#160;&#160;&#160;&#160;&#160;&#160;&#160;OwnerId &#160;&#160;&#160;&#160;&#160;&#160;&#160;&#160;&#160;&#160;&#160;&#160;&#160;&#160;&#160;&#160;&#160;&#160;&#160;&#160;&#160;&#160;&#160;&#160;&#160;&#160;&#160;&#160;&#160;&#160;&#160;&#160;&#160;&#160;&#160;&#160;&#160;&#160;</text>
<polygon fill="none" stroke="#99ccff" points="1175.85,-532.8 1175.85,-551.8 1286.85,-551.8 1286.85,-532.8 1175.85,-532.8"/>
<text text-anchor="start" x="1188.45" y="-538.9" font-family="Courier,monospace" font-size="11.00">reference(18)</text>
<polygon fill="none" stroke="#99ccff" points="345.85,-513.8 345.85,-532.8 1175.85,-532.8 1175.85,-513.8 345.85,-513.8"/>
<text text-anchor="start" x="348.85" y="-519.9" font-family="Courier,monospace" font-size="11.00"> &#160;&#160;&#160;&#160;&#160;&#160;&#160;&#160;&#160;&#160;&#160;&#160;&#160;&#160;&#160;&#160;&#160;&#160;&#160;&#160;&#160;&#160;&#160;&#160;&#160;&#160;&#160;&#160;&#160;&#160;&#160;&#160;&#160;&#160;&#160;&#160;&#160;&#160;&#160;&#160;IsDeleted &#160;&#160;&#160;&#160;&#160;&#160;&#160;&#160;&#160;&#160;&#160;&#160;&#160;&#160;&#160;&#160;&#160;&#160;&#160;&#160;&#160;&#160;&#160;&#160;&#160;&#160;&#160;&#160;&#160;&#160;&#160;&#160;&#160;&#160;&#160;&#160;&#160;&#160;</text>
<polygon fill="none" stroke="#99ccff" points="1175.85,-513.8 1175.85,-532.8 1286.85,-532.8 1286.85,-513.8 1175.85,-513.8"/>
<text text-anchor="start" x="1208.25" y="-519.9" font-family="Courier,monospace" font-size="11.00">boolean</text>
<polygon fill="none" stroke="#99ccff" points="345.85,-494.8 345.85,-513.8 1175.85,-513.8 1175.85,-494.8 345.85,-494.8"/>
<text text-anchor="start" x="348.85" y="-500.9" font-family="Courier,monospace" font-size="11.00"> &#160;&#160;&#160;&#160;&#160;&#160;&#160;&#160;&#160;&#160;&#160;&#160;&#160;&#160;&#160;&#160;&#160;&#160;&#160;&#160;&#160;&#160;&#160;&#160;&#160;&#160;&#160;&#160;&#160;&#160;&#160;&#160;&#160;&#160;&#160;&#160;&#160;&#160;&#160;&#160;Name &#160;&#160;&#160;&#160;&#160;&#160;&#160;&#160;&#160;&#160;&#160;&#160;&#160;&#160;&#160;&#160;&#160;&#160;&#160;&#160;&#160;&#160;&#160;&#160;&#160;&#160;&#160;&#160;&#160;&#160;&#160;&#160;&#160;&#160;&#160;&#160;&#160;&#160;</text>
<polygon fill="none" stroke="#99ccff" points="1175.85,-494.8 1175.85,-513.8 1286.85,-513.8 1286.85,-494.8 1175.85,-494.8"/>
<text text-anchor="start" x="1198.35" y="-500.9" font-family="Courier,monospace" font-size="11.00">string(80)</text>
<polygon fill="none" stroke="#99ccff" points="345.85,-475.8 345.85,-494.8 1175.85,-494.8 1175.85,-475.8 345.85,-475.8"/>
<text text-anchor="start" x="348.85" y="-481.9" font-family="Courier,monospace" font-size="11.00"> &#160;&#160;&#160;&#160;&#160;&#160;&#160;&#160;&#160;&#160;&#160;&#160;&#160;&#160;&#160;&#160;&#160;&#160;&#160;&#160;&#160;&#160;&#160;&#160;&#160;&#160;&#160;&#160;&#160;&#160;&#160;&#160;&#160;&#160;&#160;&#160;&#160;&#160;&#160;&#160;LastModifiedById &#160;&#160;&#160;&#160;&#160;&#160;&#160;&#160;&#160;&#160;&#160;&#160;&#160;&#160;&#160;&#160;&#160;&#160;&#160;&#160;&#160;&#160;&#160;&#160;&#160;&#160;&#160;&#160;&#160;&#160;&#160;&#160;&#160;&#160;&#160;&#160;&#160;&#160;</text>
<polygon fill="none" stroke="#99ccff" points="1175.85,-475.8 1175.85,-494.8 1286.85,-494.8 1286.85,-475.8 1175.85,-475.8"/>
<text text-anchor="start" x="1188.45" y="-481.9" font-family="Courier,monospace" font-size="11.00">reference(18)</text>
<polygon fill="none" stroke="#99ccff" points="345.85,-456.8 345.85,-475.8 1175.85,-475.8 1175.85,-456.8 345.85,-456.8"/>
<text text-anchor="start" x="348.85" y="-462.9" font-family="Courier,monospace" font-size="11.00"> &#160;&#160;&#160;&#160;&#160;&#160;&#160;&#160;&#160;&#160;&#160;&#160;&#160;&#160;&#160;&#160;&#160;&#160;&#160;&#160;&#160;&#160;&#160;&#160;&#160;&#160;&#160;&#160;&#160;&#160;&#160;&#160;&#160;&#160;&#160;&#160;&#160;&#160;&#160;&#160;vlocity_ins__AdditionalInformation__c &#160;&#160;&#160;&#160;&#160;&#160;&#160;&#160;&#160;&#160;&#160;&#160;&#160;&#160;&#160;&#160;&#160;&#160;&#160;&#160;&#160;&#160;&#160;&#160;&#160;&#160;&#160;&#160;&#160;&#160;&#160;&#160;&#160;&#160;&#160;&#160;&#160;&#160;</text>
<polygon fill="none" stroke="#99ccff" points="1175.85,-456.8 1175.85,-475.8 1286.85,-475.8 1286.85,-456.8 1175.85,-456.8"/>
<text text-anchor="start" x="1195.05" y="-462.9" font-family="Courier,monospace" font-size="11.00">string(255)</text>
<polygon fill="none" stroke="#99ccff" points="345.85,-437.8 345.85,-456.8 1175.85,-456.8 1175.85,-437.8 345.85,-437.8"/>
<text text-anchor="start" x="348.85" y="-443.9" font-family="Courier,monospace" font-size="11.00"> &#160;&#160;&#160;&#160;&#160;&#160;&#160;&#160;&#160;&#160;&#160;&#160;&#160;&#160;&#160;&#160;&#160;&#160;&#160;&#160;&#160;&#160;&#160;&#160;&#160;&#160;&#160;&#160;&#160;&#160;&#160;&#160;&#160;&#160;&#160;&#160;&#160;&#160;&#160;&#160;vlocity_ins__CustomJavaScript__c &#160;&#160;&#160;&#160;&#160;&#160;&#160;&#160;&#160;&#160;&#160;&#160;&#160;&#160;&#160;&#160;&#160;&#160;&#160;&#160;&#160;&#160;&#160;&#160;&#160;&#160;&#160;&#160;&#160;&#160;&#160;&#160;&#160;&#160;&#160;&#160;&#160;&#160;</text>
<polygon fill="none" stroke="#99ccff" points="1175.85,-437.8 1175.85,-456.8 1286.85,-456.8 1286.85,-437.8 1175.85,-437.8"/>
<text text-anchor="start" x="1178.56" y="-443.9" font-family="Courier,monospace" font-size="11.00">textarea(131072)</text>
<polygon fill="none" stroke="#99ccff" points="345.85,-418.8 345.85,-437.8 1175.85,-437.8 1175.85,-418.8 345.85,-418.8"/>
<text text-anchor="start" x="348.85" y="-424.9" font-family="Courier,monospace" font-size="11.00"> &#160;&#160;&#160;&#160;&#160;&#160;&#160;&#160;&#160;&#160;&#160;&#160;&#160;&#160;&#160;&#160;&#160;&#160;&#160;&#160;&#160;&#160;&#160;&#160;&#160;&#160;&#160;&#160;&#160;&#160;&#160;&#160;&#160;&#160;&#160;&#160;&#160;&#160;&#160;&#160;vlocity_ins__DataRaptorBundleId__c &#160;&#160;&#160;&#160;&#160;&#160;&#160;&#160;&#160;&#160;&#160;&#160;&#160;&#160;&#160;&#160;&#160;&#160;&#160;&#160;&#160;&#160;&#160;&#160;&#160;&#160;&#160;&#160;&#160;&#160;&#160;&#160;&#160;&#160;&#160;&#160;&#160;&#160;</text>
<polygon fill="none" stroke="#99ccff" points="1175.85,-418.8 1175.85,-437.8 1286.85,-437.8 1286.85,-418.8 1175.85,-418.8"/>
<text text-anchor="start" x="1188.45" y="-424.9" font-family="Courier,monospace" font-size="11.00">reference(18)</text>
<polygon fill="none" stroke="#99ccff" points="345.85,-399.8 345.85,-418.8 1175.85,-418.8 1175.85,-399.8 345.85,-399.8"/>
<text text-anchor="start" x="348.85" y="-405.9" font-family="Courier,monospace" font-size="11.00"> &#160;&#160;&#160;&#160;&#160;&#160;&#160;&#160;&#160;&#160;&#160;&#160;&#160;&#160;&#160;&#160;&#160;&#160;&#160;&#160;&#160;&#160;&#160;&#160;&#160;&#160;&#160;&#160;&#160;&#160;&#160;&#160;&#160;&#160;&#160;&#160;&#160;&#160;&#160;&#160;vlocity_ins__DataRaptorBundleName__c &#160;&#160;&#160;&#160;&#160;&#160;&#160;&#160;&#160;&#160;&#160;&#160;&#160;&#160;&#160;&#160;&#160;&#160;&#160;&#160;&#160;&#160;&#160;&#160;&#160;&#160;&#160;&#160;&#160;&#160;&#160;&#160;&#160;&#160;&#160;&#160;&#160;&#160;</text>
<polygon fill="none" stroke="#99ccff" points="1175.85,-399.8 1175.85,-418.8 1286.85,-418.8 1286.85,-399.8 1175.85,-399.8"/>
<text text-anchor="start" x="1191.75" y="-405.9" font-family="Courier,monospace" font-size="11.00">string(1300)</text>
<polygon fill="none" stroke="#99ccff" points="345.85,-380.8 345.85,-399.8 1175.85,-399.8 1175.85,-380.8 345.85,-380.8"/>
<text text-anchor="start" x="348.85" y="-386.9" font-family="Courier,monospace" font-size="11.00"> &#160;&#160;&#160;&#160;&#160;&#160;&#160;&#160;&#160;&#160;&#160;&#160;&#160;&#160;&#160;&#160;&#160;&#160;&#160;&#160;&#160;&#160;&#160;&#160;&#160;&#160;&#160;&#160;&#160;&#160;&#160;&#160;&#160;&#160;&#160;&#160;&#160;&#160;&#160;&#160;vlocity_ins__DisableMetadataCache__c &#160;&#160;&#160;&#160;&#160;&#160;&#160;&#160;&#160;&#160;&#160;&#160;&#160;&#160;&#160;&#160;&#160;&#160;&#160;&#160;&#160;&#160;&#160;&#160;&#160;&#160;&#160;&#160;&#160;&#160;&#160;&#160;&#160;&#160;&#160;&#160;&#160;&#160;</text>
<polygon fill="none" stroke="#99ccff" points="1175.85,-380.8 1175.85,-399.8 1286.85,-399.8 1286.85,-380.8 1175.85,-380.8"/>
<text text-anchor="start" x="1208.25" y="-386.9" font-family="Courier,monospace" font-size="11.00">boolean</text>
<polygon fill="none" stroke="#99ccff" points="345.85,-361.8 345.85,-380.8 1175.85,-380.8 1175.85,-361.8 345.85,-361.8"/>
<text text-anchor="start" x="348.42" y="-367.9" font-family="Courier,monospace" font-size="11.00"> &#160;&#160;&#160;&#160;&#160;&#160;&#160;&#160;&#160;&#160;&#160;&#160;&#160;&#160;&#160;&#160;&#160;&#160;&#160;&#160;&#160;&#160;&#160;&#160;&#160;&#160;&#160;&#160;&#160;&#160;&#160;&#160;&#160;&#160;&#160;&#160;&#160;&#160;&#160;&#160;vlocity_ins__ElementTypeToHTMLTemplateList__c &#160;&#160;&#160;&#160;&#160;&#160;&#160;&#160;&#160;&#160;&#160;&#160;&#160;&#160;&#160;&#160;&#160;&#160;&#160;&#160;&#160;&#160;&#160;&#160;&#160;&#160;&#160;&#160;&#160;&#160;&#160;&#160;&#160;&#160;&#160;&#160;&#160;&#160;</text>
<polygon fill="none" stroke="#99ccff" points="1175.85,-361.8 1175.85,-380.8 1286.85,-380.8 1286.85,-361.8 1175.85,-361.8"/>
<text text-anchor="start" x="1178.56" y="-367.9" font-family="Courier,monospace" font-size="11.00">textarea(131072)</text>
<polygon fill="none" stroke="#99ccff" points="345.85,-342.8 345.85,-361.8 1175.85,-361.8 1175.85,-342.8 345.85,-342.8"/>
<text text-anchor="start" x="348.85" y="-348.9" font-family="Courier,monospace" font-size="11.00"> &#160;&#160;&#160;&#160;&#160;&#160;&#160;&#160;&#160;&#160;&#160;&#160;&#160;&#160;&#160;&#160;&#160;&#160;&#160;&#160;&#160;&#160;&#160;&#160;&#160;&#160;&#160;&#160;&#160;&#160;&#160;&#160;&#160;&#160;&#160;&#160;&#160;&#160;&#160;&#160;vlocity_ins__IsActive__c &#160;&#160;&#160;&#160;&#160;&#160;&#160;&#160;&#160;&#160;&#160;&#160;&#160;&#160;&#160;&#160;&#160;&#160;&#160;&#160;&#160;&#160;&#160;&#160;&#160;&#160;&#160;&#160;&#160;&#160;&#160;&#160;&#160;&#160;&#160;&#160;&#160;&#160;</text>
<polygon fill="none" stroke="#99ccff" points="1175.85,-342.8 1175.85,-361.8 1286.85,-361.8 1286.85,-342.8 1175.85,-342.8"/>
<text text-anchor="start" x="1208.25" y="-348.9" font-family="Courier,monospace" font-size="11.00">boolean</text>
<polygon fill="none" stroke="#99ccff" points="345.85,-323.8 345.85,-342.8 1175.85,-342.8 1175.85,-323.8 345.85,-323.8"/>
<text text-anchor="start" x="348.85" y="-329.9" font-family="Courier,monospace" font-size="11.00"> &#160;&#160;&#160;&#160;&#160;&#160;&#160;&#160;&#160;&#160;&#160;&#160;&#160;&#160;&#160;&#160;&#160;&#160;&#160;&#160;&#160;&#160;&#160;&#160;&#160;&#160;&#160;&#160;&#160;&#160;&#160;&#160;&#160;&#160;&#160;&#160;&#160;&#160;&#160;&#160;vlocity_ins__IsLwcEnabled__c &#160;&#160;&#160;&#160;&#160;&#160;&#160;&#160;&#160;&#160;&#160;&#160;&#160;&#160;&#160;&#160;&#160;&#160;&#160;&#160;&#160;&#160;&#160;&#160;&#160;&#160;&#160;&#160;&#160;&#160;&#160;&#160;&#160;&#160;&#160;&#160;&#160;&#160;</text>
<polygon fill="none" stroke="#99ccff" points="1175.85,-323.8 1175.85,-342.8 1286.85,-342.8 1286.85,-323.8 1175.85,-323.8"/>
<text text-anchor="start" x="1208.25" y="-329.9" font-family="Courier,monospace" font-size="11.00">boolean</text>
<polygon fill="none" stroke="#99ccff" points="345.85,-304.8 345.85,-323.8 1175.85,-323.8 1175.85,-304.8 345.85,-304.8"/>
<text text-anchor="start" x="348.85" y="-310.9" font-family="Courier,monospace" font-size="11.00"> &#160;&#160;&#160;&#160;&#160;&#160;&#160;&#160;&#160;&#160;&#160;&#160;&#160;&#160;&#160;&#160;&#160;&#160;&#160;&#160;&#160;&#160;&#160;&#160;&#160;&#160;&#160;&#160;&#160;&#160;&#160;&#160;&#160;&#160;&#160;&#160;&#160;&#160;&#160;&#160;vlocity_ins__IsProcedure__c &#160;&#160;&#160;&#160;&#160;&#160;&#160;&#160;&#160;&#160;&#160;&#160;&#160;&#160;&#160;&#160;&#160;&#160;&#160;&#160;&#160;&#160;&#160;&#160;&#160;&#160;&#160;&#160;&#160;&#160;&#160;&#160;&#160;&#160;&#160;&#160;&#160;&#160;</text>
<polygon fill="none" stroke="#99ccff" points="1175.85,-304.8 1175.85,-323.8 1286.85,-323.8 1286.85,-304.8 1175.85,-304.8"/>
<text text-anchor="start" x="1208.25" y="-310.9" font-family="Courier,monospace" font-size="11.00">boolean</text>
<polygon fill="none" stroke="#99ccff" points="345.85,-285.8 345.85,-304.8 1175.85,-304.8 1175.85,-285.8 345.85,-285.8"/>
<text text-anchor="start" x="348.85" y="-291.9" font-family="Courier,monospace" font-size="11.00"> &#160;&#160;&#160;&#160;&#160;&#160;&#160;&#160;&#160;&#160;&#160;&#160;&#160;&#160;&#160;&#160;&#160;&#160;&#160;&#160;&#160;&#160;&#160;&#160;&#160;&#160;&#160;&#160;&#160;&#160;&#160;&#160;&#160;&#160;&#160;&#160;&#160;&#160;&#160;&#160;vlocity_ins__IsReusable__c &#160;&#160;&#160;&#160;&#160;&#160;&#160;&#160;&#160;&#160;&#160;&#160;&#160;&#160;&#160;&#160;&#160;&#160;&#160;&#160;&#160;&#160;&#160;&#160;&#160;&#160;&#160;&#160;&#160;&#160;&#160;&#160;&#160;&#160;&#160;&#160;&#160;&#160;</text>
<polygon fill="none" stroke="#99ccff" points="1175.85,-285.8 1175.85,-304.8 1286.85,-304.8 1286.85,-285.8 1175.85,-285.8"/>
<text text-anchor="start" x="1208.25" y="-291.9" font-family="Courier,monospace" font-size="11.00">boolean</text>
<polygon fill="none" stroke="#99ccff" points="345.85,-266.8 345.85,-285.8 1175.85,-285.8 1175.85,-266.8 345.85,-266.8"/>
<text text-anchor="start" x="348.85" y="-272.9" font-family="Courier,monospace" font-size="11.00"> &#160;&#160;&#160;&#160;&#160;&#160;&#160;&#160;&#160;&#160;&#160;&#160;&#160;&#160;&#160;&#160;&#160;&#160;&#160;&#160;&#160;&#160;&#160;&#160;&#160;&#160;&#160;&#160;&#160;&#160;&#160;&#160;&#160;&#160;&#160;&#160;&#160;&#160;&#160;&#160;vlocity_ins__IsTest__c &#160;&#160;&#160;&#160;&#160;&#160;&#160;&#160;&#160;&#160;&#160;&#160;&#160;&#160;&#160;&#160;&#160;&#160;&#160;&#160;&#160;&#160;&#160;&#160;&#160;&#160;&#160;&#160;&#160;&#160;&#160;&#160;&#160;&#160;&#160;&#160;&#160;&#160;</text>
<polygon fill="none" stroke="#99ccff" points="1175.85,-266.8 1175.85,-285.8 1286.85,-285.8 1286.85,-266.8 1175.85,-266.8"/>
<text text-anchor="start" x="1208.25" y="-272.9" font-family="Courier,monospace" font-size="11.00">boolean</text>
<polygon fill="none" stroke="#99ccff" points="345.85,-247.8 345.85,-266.8 1175.85,-266.8 1175.85,-247.8 345.85,-247.8"/>
<text text-anchor="start" x="348.85" y="-253.9" font-family="Courier,monospace" font-size="11.00"> &#160;&#160;&#160;&#160;&#160;&#160;&#160;&#160;&#160;&#160;&#160;&#160;&#160;&#160;&#160;&#160;&#160;&#160;&#160;&#160;&#160;&#160;&#160;&#160;&#160;&#160;&#160;&#160;&#160;&#160;&#160;&#160;&#160;&#160;&#160;&#160;&#160;&#160;&#160;&#160;vlocity_ins__JSON_Output__c &#160;&#160;&#160;&#160;&#160;&#160;&#160;&#160;&#160;&#160;&#160;&#160;&#160;&#160;&#160;&#160;&#160;&#160;&#160;&#160;&#160;&#160;&#160;&#160;&#160;&#160;&#160;&#160;&#160;&#160;&#160;&#160;&#160;&#160;&#160;&#160;&#160;&#160;</text>
<polygon fill="none" stroke="#99ccff" points="1175.85,-247.8 1175.85,-266.8 1286.85,-266.8 1286.85,-247.8 1175.85,-247.8"/>
<text text-anchor="start" x="1178.56" y="-253.9" font-family="Courier,monospace" font-size="11.00">textarea(131072)</text>
<polygon fill="none" stroke="#99ccff" points="345.85,-228.8 345.85,-247.8 1175.85,-247.8 1175.85,-228.8 345.85,-228.8"/>
<text text-anchor="start" x="348.85" y="-234.9" font-family="Courier,monospace" font-size="11.00"> &#160;&#160;&#160;&#160;&#160;&#160;&#160;&#160;&#160;&#160;&#160;&#160;&#160;&#160;&#160;&#160;&#160;&#160;&#160;&#160;&#160;&#160;&#160;&#160;&#160;&#160;&#160;&#160;&#160;&#160;&#160;&#160;&#160;&#160;&#160;&#160;&#160;&#160;&#160;&#160;vlocity_ins__Language__c &#160;&#160;&#160;&#160;&#160;&#160;&#160;&#160;&#160;&#160;&#160;&#160;&#160;&#160;&#160;&#160;&#160;&#160;&#160;&#160;&#160;&#160;&#160;&#160;&#160;&#160;&#160;&#160;&#160;&#160;&#160;&#160;&#160;&#160;&#160;&#160;&#160;&#160;</text>
<polygon fill="none" stroke="#99ccff" points="1175.85,-228.8 1175.85,-247.8 1286.85,-247.8 1286.85,-228.8 1175.85,-228.8"/>
<text text-anchor="start" x="1188.45" y="-234.9" font-family="Courier,monospace" font-size="11.00">picklist(255)</text>
<polygon fill="none" stroke="#99ccff" points="345.85,-209.8 345.85,-228.8 1175.85,-228.8 1175.85,-209.8 345.85,-209.8"/>
<text text-anchor="start" x="348.85" y="-215.9" font-family="Courier,monospace" font-size="11.00"> &#160;&#160;&#160;&#160;&#160;&#160;&#160;&#160;&#160;&#160;&#160;&#160;&#160;&#160;&#160;&#160;&#160;&#160;&#160;&#160;&#160;&#160;&#160;&#160;&#160;&#160;&#160;&#160;&#160;&#160;&#160;&#160;&#160;&#160;&#160;&#160;&#160;&#160;&#160;&#160;vlocity_ins__LastPreviewPage__c &#160;&#160;&#160;&#160;&#160;&#160;&#160;&#160;&#160;&#160;&#160;&#160;&#160;&#160;&#160;&#160;&#160;&#160;&#160;&#160;&#160;&#160;&#160;&#160;&#160;&#160;&#160;&#160;&#160;&#160;&#160;&#160;&#160;&#160;&#160;&#160;&#160;&#160;</text>
<polygon fill="none" stroke="#99ccff" points="1175.85,-209.8 1175.85,-228.8 1286.85,-228.8 1286.85,-209.8 1175.85,-209.8"/>
<text text-anchor="start" x="1195.05" y="-215.9" font-family="Courier,monospace" font-size="11.00">string(255)</text>
<polygon fill="none" stroke="#99ccff" points="345.85,-190.8 345.85,-209.8 1175.85,-209.8 1175.85,-190.8 345.85,-190.8"/>
<text text-anchor="start" x="348.85" y="-196.9" font-family="Courier,monospace" font-size="11.00"> &#160;&#160;&#160;&#160;&#160;&#160;&#160;&#160;&#160;&#160;&#160;&#160;&#160;&#160;&#160;&#160;&#160;&#160;&#160;&#160;&#160;&#160;&#160;&#160;&#160;&#160;&#160;&#160;&#160;&#160;&#160;&#160;&#160;&#160;&#160;&#160;&#160;&#160;&#160;&#160;vlocity_ins__LwcId__c &#160;&#160;&#160;&#160;&#160;&#160;&#160;&#160;&#160;&#160;&#160;&#160;&#160;&#160;&#160;&#160;&#160;&#160;&#160;&#160;&#160;&#160;&#160;&#160;&#160;&#160;&#160;&#160;&#160;&#160;&#160;&#160;&#160;&#160;&#160;&#160;&#160;&#160;</text>
<polygon fill="none" stroke="#99ccff" points="1175.85,-190.8 1175.85,-209.8 1286.85,-209.8 1286.85,-190.8 1175.85,-190.8"/>
<text text-anchor="start" x="1195.05" y="-196.9" font-family="Courier,monospace" font-size="11.00">string(255)</text>
<polygon fill="none" stroke="#99ccff" points="345.85,-171.8 345.85,-190.8 1175.85,-190.8 1175.85,-171.8 345.85,-171.8"/>
<text text-anchor="start" x="348.85" y="-177.9" font-family="Courier,monospace" font-size="11.00"> &#160;&#160;&#160;&#160;&#160;&#160;&#160;&#160;&#160;&#160;&#160;&#160;&#160;&#160;&#160;&#160;&#160;&#160;&#160;&#160;&#160;&#160;&#160;&#160;&#160;&#160;&#160;&#160;&#160;&#160;&#160;&#160;&#160;&#160;&#160;&#160;&#160;&#160;&#160;&#160;vlocity_ins__OmniProcessType__c &#160;&#160;&#160;&#160;&#160;&#160;&#160;&#160;&#160;&#160;&#160;&#160;&#160;&#160;&#160;&#160;&#160;&#160;&#160;&#160;&#160;&#160;&#160;&#160;&#160;&#160;&#160;&#160;&#160;&#160;&#160;&#160;&#160;&#160;&#160;&#160;&#160;&#160;</text>
<polygon fill="none" stroke="#99ccff" points="1175.85,-171.8 1175.85,-190.8 1286.85,-190.8 1286.85,-171.8 1175.85,-171.8"/>
<text text-anchor="start" x="1188.45" y="-177.9" font-family="Courier,monospace" font-size="11.00">picklist(255)</text>
<polygon fill="none" stroke="#99ccff" points="345.85,-152.8 345.85,-171.8 1175.85,-171.8 1175.85,-152.8 345.85,-152.8"/>
<text text-anchor="start" x="348.85" y="-158.9" font-family="Courier,monospace" font-size="11.00"> &#160;&#160;&#160;&#160;&#160;&#160;&#160;&#160;&#160;&#160;&#160;&#160;&#160;&#160;&#160;&#160;&#160;&#160;&#160;&#160;&#160;&#160;&#160;&#160;&#160;&#160;&#160;&#160;&#160;&#160;&#160;&#160;&#160;&#160;&#160;&#160;&#160;&#160;&#160;&#160;vlocity_ins__ProcedureKey__c &#160;&#160;&#160;&#160;&#160;&#160;&#160;&#160;&#160;&#160;&#160;&#160;&#160;&#160;&#160;&#160;&#160;&#160;&#160;&#160;&#160;&#160;&#160;&#160;&#160;&#160;&#160;&#160;&#160;&#160;&#160;&#160;&#160;&#160;&#160;&#160;&#160;&#160;</text>
<polygon fill="none" stroke="#99ccff" points="1175.85,-152.8 1175.85,-171.8 1286.85,-171.8 1286.85,-152.8 1175.85,-152.8"/>
<text text-anchor="start" x="1195.05" y="-158.9" font-family="Courier,monospace" font-size="11.00">string(255)</text>
<polygon fill="none" stroke="#99ccff" points="345.85,-133.8 345.85,-152.8 1175.85,-152.8 1175.85,-133.8 345.85,-133.8"/>
<text text-anchor="start" x="348.85" y="-139.9" font-family="Courier,monospace" font-size="11.00"> &#160;&#160;&#160;&#160;&#160;&#160;&#160;&#160;&#160;&#160;&#160;&#160;&#160;&#160;&#160;&#160;&#160;&#160;&#160;&#160;&#160;&#160;&#160;&#160;&#160;&#160;&#160;&#160;&#160;&#160;&#160;&#160;&#160;&#160;&#160;&#160;&#160;&#160;&#160;&#160;vlocity_ins__ProcedureResponseCacheType__c &#160;&#160;&#160;&#160;&#160;&#160;&#160;&#160;&#160;&#160;&#160;&#160;&#160;&#160;&#160;&#160;&#160;&#160;&#160;&#160;&#160;&#160;&#160;&#160;&#160;&#160;&#160;&#160;&#160;&#160;&#160;&#160;&#160;&#160;&#160;&#160;&#160;&#160;</text>
<polygon fill="none" stroke="#99ccff" points="1175.85,-133.8 1175.85,-152.8 1286.85,-152.8 1286.85,-133.8 1175.85,-133.8"/>
<text text-anchor="start" x="1188.45" y="-139.9" font-family="Courier,monospace" font-size="11.00">picklist(255)</text>
<polygon fill="none" stroke="#99ccff" points="345.85,-114.8 345.85,-133.8 1175.85,-133.8 1175.85,-114.8 345.85,-114.8"/>
<text text-anchor="start" x="348.85" y="-120.9" font-family="Courier,monospace" font-size="11.00"> &#160;&#160;&#160;&#160;&#160;&#160;&#160;&#160;&#160;&#160;&#160;&#160;&#160;&#160;&#160;&#160;&#160;&#160;&#160;&#160;&#160;&#160;&#160;&#160;&#160;&#160;&#160;&#160;&#160;&#160;&#160;&#160;&#160;&#160;&#160;&#160;&#160;&#160;&#160;&#160;vlocity_ins__PropertySet__c &#160;&#160;&#160;&#160;&#160;&#160;&#160;&#160;&#160;&#160;&#160;&#160;&#160;&#160;&#160;&#160;&#160;&#160;&#160;&#160;&#160;&#160;&#160;&#160;&#160;&#160;&#160;&#160;&#160;&#160;&#160;&#160;&#160;&#160;&#160;&#160;&#160;&#160;</text>
<polygon fill="none" stroke="#99ccff" points="1175.85,-114.8 1175.85,-133.8 1286.85,-133.8 1286.85,-114.8 1175.85,-114.8"/>
<text text-anchor="start" x="1181.85" y="-120.9" font-family="Courier,monospace" font-size="11.00">textarea(32768)</text>
<polygon fill="none" stroke="#99ccff" points="345.85,-95.8 345.85,-114.8 1175.85,-114.8 1175.85,-95.8 345.85,-95.8"/>
<text text-anchor="start" x="348.85" y="-101.9" font-family="Courier,monospace" font-size="11.00"> &#160;&#160;&#160;&#160;&#160;&#160;&#160;&#160;&#160;&#160;&#160;&#160;&#160;&#160;&#160;&#160;&#160;&#160;&#160;&#160;&#160;&#160;&#160;&#160;&#160;&#160;&#160;&#160;&#160;&#160;&#160;&#160;&#160;&#160;&#160;&#160;&#160;&#160;&#160;&#160;vlocity_ins__RequiredPermission__c &#160;&#160;&#160;&#160;&#160;&#160;&#160;&#160;&#160;&#160;&#160;&#160;&#160;&#160;&#160;&#160;&#160;&#160;&#160;&#160;&#160;&#160;&#160;&#160;&#160;&#160;&#160;&#160;&#160;&#160;&#160;&#160;&#160;&#160;&#160;&#160;&#160;&#160;</text>
<polygon fill="none" stroke="#99ccff" points="1175.85,-95.8 1175.85,-114.8 1286.85,-114.8 1286.85,-95.8 1175.85,-95.8"/>
<text text-anchor="start" x="1195.05" y="-101.9" font-family="Courier,monospace" font-size="11.00">string(255)</text>
<polygon fill="none" stroke="#99ccff" points="345.85,-76.8 345.85,-95.8 1175.85,-95.8 1175.85,-76.8 345.85,-76.8"/>
<text text-anchor="start" x="348.85" y="-82.9" font-family="Courier,monospace" font-size="11.00"> &#160;&#160;&#160;&#160;&#160;&#160;&#160;&#160;&#160;&#160;&#160;&#160;&#160;&#160;&#160;&#160;&#160;&#160;&#160;&#160;&#160;&#160;&#160;&#160;&#160;&#160;&#160;&#160;&#160;&#160;&#160;&#160;&#160;&#160;&#160;&#160;&#160;&#160;&#160;&#160;vlocity_ins__SubType__c &#160;&#160;&#160;&#160;&#160;&#160;&#160;&#160;&#160;&#160;&#160;&#160;&#160;&#160;&#160;&#160;&#160;&#160;&#160;&#160;&#160;&#160;&#160;&#160;&#160;&#160;&#160;&#160;&#160;&#160;&#160;&#160;&#160;&#160;&#160;&#160;&#160;&#160;</text>
<polygon fill="none" stroke="#99ccff" points="1175.85,-76.8 1175.85,-95.8 1286.85,-95.8 1286.85,-76.8 1175.85,-76.8"/>
<text text-anchor="start" x="1188.45" y="-82.9" font-family="Courier,monospace" font-size="11.00">picklist(255)</text>
<polygon fill="none" stroke="#99ccff" points="345.85,-57.8 345.85,-76.8 1175.85,-76.8 1175.85,-57.8 345.85,-57.8"/>
<text text-anchor="start" x="348.85" y="-63.9" font-family="Courier,monospace" font-size="11.00"> &#160;&#160;&#160;&#160;&#160;&#160;&#160;&#160;&#160;&#160;&#160;&#160;&#160;&#160;&#160;&#160;&#160;&#160;&#160;&#160;&#160;&#160;&#160;&#160;&#160;&#160;&#160;&#160;&#160;&#160;&#160;&#160;&#160;&#160;&#160;&#160;&#160;&#160;&#160;&#160;vlocity_ins__TestHTMLTemplates__c &#160;&#160;&#160;&#160;&#160;&#160;&#160;&#160;&#160;&#160;&#160;&#160;&#160;&#160;&#160;&#160;&#160;&#160;&#160;&#160;&#160;&#160;&#160;&#160;&#160;&#160;&#160;&#160;&#160;&#160;&#160;&#160;&#160;&#160;&#160;&#160;&#160;&#160;</text>
<polygon fill="none" stroke="#99ccff" points="1175.85,-57.8 1175.85,-76.8 1286.85,-76.8 1286.85,-57.8 1175.85,-57.8"/>
<text text-anchor="start" x="1178.56" y="-63.9" font-family="Courier,monospace" font-size="11.00">textarea(131072)</text>
<polygon fill="none" stroke="#99ccff" points="345.85,-38.8 345.85,-57.8 1175.85,-57.8 1175.85,-38.8 345.85,-38.8"/>
<text text-anchor="start" x="348.85" y="-44.9" font-family="Courier,monospace" font-size="11.00"> &#160;&#160;&#160;&#160;&#160;&#160;&#160;&#160;&#160;&#160;&#160;&#160;&#160;&#160;&#160;&#160;&#160;&#160;&#160;&#160;&#160;&#160;&#160;&#160;&#160;&#160;&#160;&#160;&#160;&#160;&#160;&#160;&#160;&#160;&#160;&#160;&#160;&#160;&#160;&#160;vlocity_ins__Type__c &#160;&#160;&#160;&#160;&#160;&#160;&#160;&#160;&#160;&#160;&#160;&#160;&#160;&#160;&#160;&#160;&#160;&#160;&#160;&#160;&#160;&#160;&#160;&#160;&#160;&#160;&#160;&#160;&#160;&#160;&#160;&#160;&#160;&#160;&#160;&#160;&#160;&#160;</text>
<polygon fill="none" stroke="#99ccff" points="1175.85,-38.8 1175.85,-57.8 1286.85,-57.8 1286.85,-38.8 1175.85,-38.8"/>
<text text-anchor="start" x="1188.45" y="-44.9" font-family="Courier,monospace" font-size="11.00">picklist(255)</text>
<polygon fill="none" stroke="#99ccff" points="345.85,-19.8 345.85,-38.8 1175.85,-38.8 1175.85,-19.8 345.85,-19.8"/>
<text text-anchor="start" x="348.85" y="-25.9" font-family="Courier,monospace" font-size="11.00"> &#160;&#160;&#160;&#160;&#160;&#160;&#160;&#160;&#160;&#160;&#160;&#160;&#160;&#160;&#160;&#160;&#160;&#160;&#160;&#160;&#160;&#160;&#160;&#160;&#160;&#160;&#160;&#160;&#160;&#160;&#160;&#160;&#160;&#160;&#160;&#160;&#160;&#160;&#160;&#160;vlocity_ins__Version__c &#160;&#160;&#160;&#160;&#160;&#160;&#160;&#160;&#160;&#160;&#160;&#160;&#160;&#160;&#160;&#160;&#160;&#160;&#160;&#160;&#160;&#160;&#160;&#160;&#160;&#160;&#160;&#160;&#160;&#160;&#160;&#160;&#160;&#160;&#160;&#160;&#160;&#160;</text>
<polygon fill="none" stroke="#99ccff" points="1175.85,-19.8 1175.85,-38.8 1286.85,-38.8 1286.85,-19.8 1175.85,-19.8"/>
<text text-anchor="start" x="1211.55" y="-25.9" font-family="Courier,monospace" font-size="11.00">double</text>
<polygon fill="none" stroke="#99ccff" points="344.35,-18.8 344.35,-590.8 1287.35,-590.8 1287.35,-18.8 344.35,-18.8"/>
</a>
</g>
</g>
<!-- Group -->
<g id="node2" class="node">
<title>Group</title>
<text text-anchor="middle" x="87.19" y="-540.5" font-family="Courier,monospace" font-size="11.00">Group</text>
</g>
<!-- vlocity_ins__OmniScript__c&#45;&gt;Group -->
<g id="edge1" class="edge">
<title>vlocity_ins__OmniScript__c:w&#45;&gt;Group:e</title>
<path fill="none" stroke="#ff99cc" d="M330.4,-542.81C249.5,-542.86 158.24,-543.36 114.42,-543.63"/>
<polygon fill="#ff99cc" stroke="#ff99cc" points="336.85,-542.8 344.85,-546.4 340.85,-542.8 344.85,-542.8 344.85,-542.8 344.85,-542.8 340.85,-542.8 344.85,-539.2 336.85,-542.8 336.85,-542.8"/>
<ellipse fill="none" stroke="#ff99cc" cx="333.65" cy="-542.8" rx="3.2" ry="3.2"/>
<text text-anchor="middle" x="259.36" y="-545.5" font-family="Monaco" font-size="9.00">Owner</text>
</g>
<!-- User -->
<g id="node3" class="node">
<title>User</title>
<text text-anchor="middle" x="87.19" y="-486.5" font-family="Courier,monospace" font-size="11.00">User</text>
</g>
<!-- vlocity_ins__OmniScript__c&#45;&gt;User -->
<g id="edge2" class="edge">
<title>vlocity_ins__OmniScript__c:w&#45;&gt;User:e</title>
<path fill="none" stroke="#ff99cc" d="M335.24,-532.07C334.12,-526.64 333.09,-520.47 327.35,-517 318.32,-511.54 174.63,-497.76 114.42,-492.19"/>
<polygon fill="#ff99cc" stroke="#ff99cc" points="339.51,-536.84 342.16,-545.2 342.18,-539.82 344.85,-542.8 344.85,-542.8 344.85,-542.8 342.18,-539.82 347.53,-540.4 339.51,-536.84 339.51,-536.84"/>
<ellipse fill="none" stroke="#ff99cc" cx="337.38" cy="-534.45" rx="3.2" ry="3.2"/>
<text text-anchor="middle" x="259.36" y="-519.5" font-family="Monaco" font-size="9.00">Owner</text>
</g>
<!-- vlocity_ins__OmniScript__c&#45;&gt;User -->
<g id="edge3" class="edge">
<title>vlocity_ins__OmniScript__c:w&#45;&gt;User:e</title>
<path fill="none" stroke="#ff99cc" d="M330.1,-485.78C273.74,-485.65 254.38,-484.8 191.37,-486 165.21,-486.5 135.32,-487.66 114.47,-488.57"/>
<polygon fill="#ff99cc" stroke="#ff99cc" points="336.85,-485.79 344.84,-489.4 340.85,-485.8 344.85,-485.8 344.85,-485.8 344.85,-485.8 340.85,-485.8 344.85,-482.2 336.85,-485.79 336.85,-485.79"/>
<ellipse fill="none" stroke="#ff99cc" cx="333.65" cy="-485.79" rx="3.2" ry="3.2"/>
<text text-anchor="middle" x="259.36" y="-488.5" font-family="Monaco" font-size="9.00">LastModifiedBy</text>
</g>
<!-- vlocity_ins__DRBundle__c -->
<g id="node4" class="node">
<title>vlocity_ins__DRBundle__c</title>
<text text-anchor="middle" x="87.19" y="-425.5" font-family="Courier,monospace" font-size="11.00">vlocity_ins__DRBundle__c</text>
</g>
<!-- vlocity_ins__OmniScript__c&#45;&gt;vlocity_ins__DRBundle__c -->
<g id="edge4" class="edge">
<title>vlocity_ins__OmniScript__c:w&#45;&gt;vlocity_ins__DRBundle__c:e</title>
<path fill="none" stroke="#ff99cc" d="M330.42,-428.8C277.54,-428.8 220.22,-428.8 174.62,-428.8"/>
<polygon fill="#ff99cc" stroke="#ff99cc" points="336.85,-428.8 344.85,-432.4 340.85,-428.8 344.85,-428.8 344.85,-428.8 344.85,-428.8 340.85,-428.8 344.85,-425.2 336.85,-428.8 336.85,-428.8"/>
<ellipse fill="none" stroke="#ff99cc" cx="333.65" cy="-428.8" rx="3.2" ry="3.2"/>
<text text-anchor="middle" x="259.36" y="-431.5" font-family="Monaco" font-size="9.00">vlocity_ins__DataRaptorBundleId__r</text>
</g>
</g>
</svg>
