<?xml version="1.0" encoding="UTF-8" standalone="no"?>
<!DOCTYPE svg PUBLIC "-//W3C//DTD SVG 1.1//EN"
 "http://www.w3.org/Graphics/SVG/1.1/DTD/svg11.dtd">
<!-- Generated by graphviz version 2.44.0 (20200518.1210)
 -->
<!-- Title: Salesforce+ ERD Pages: 1 -->
<svg width="946pt" height="808pt"
 viewBox="0.00 0.00 946.49 807.80" xmlns="http://www.w3.org/2000/svg" xmlns:xlink="http://www.w3.org/1999/xlink">
<g id="graph0" class="graph" transform="scale(1 1) rotate(0) translate(4 803.8)">
<title>Salesforce+ ERD</title>
<polygon fill="#efeffd" stroke="transparent" points="-4,4 -4,-803.8 942.49,-803.8 942.49,4 -4,4"/>
<text text-anchor="middle" x="890" y="-6.7" font-family="Courier,monospace" font-size="9.00">Salesforce ERD </text>
<!-- ScratchOrgInfo -->
<g id="node1" class="node">
<title>ScratchOrgInfo</title>
<g id="a_node1"><a xlink:href="#" xlink:title=" ScratchOrgInfo ">
<polygon fill="#ffeeff" stroke="transparent" points="147.49,-18.8 147.49,-799.8 938.49,-799.8 938.49,-18.8 147.49,-18.8"/>
<polygon fill="lightblue" stroke="transparent" points="148.99,-779.3 148.99,-798.3 937.99,-798.3 937.99,-779.3 148.99,-779.3"/>
<polygon fill="none" stroke="#99ccff" points="148.99,-779.3 148.99,-798.3 937.99,-798.3 937.99,-779.3 148.99,-779.3"/>
<text text-anchor="start" x="497.3" y="-786.4" font-family="Courier,monospace" font-weight="bold" font-size="11.00">ScratchOrgInfo</text>
<polygon fill="#99ccff" stroke="transparent" points="148.99,-760.3 148.99,-779.3 833.99,-779.3 833.99,-760.3 148.99,-760.3"/>
<polygon fill="none" stroke="#99ccff" points="148.99,-760.3 148.99,-779.3 833.99,-779.3 833.99,-760.3 148.99,-760.3"/>
<text text-anchor="start" x="151.99" y="-767.4" font-family="Courier,monospace" font-size="11.00"> &#160;&#160;&#160;&#160;&#160;&#160;&#160;&#160;&#160;&#160;&#160;&#160;&#160;&#160;&#160;&#160;&#160;&#160;&#160;&#160;&#160;&#160;&#160;&#160;&#160;&#160;&#160;&#160;&#160;&#160;&#160;&#160;&#160;&#160;&#160;&#160;&#160;&#160;&#160;&#160;&#160;&#160;</text>
<text text-anchor="start" x="435.74" y="-767.4" font-family="Courier,monospace" font-weight="bold" font-size="11.00">Id</text>
<text text-anchor="start" x="448.94" y="-767.4" font-family="Courier,monospace" font-size="11.00"> &#160;&#160;&#160;&#160;&#160;&#160;&#160;&#160;&#160;&#160;&#160;&#160;&#160;&#160;&#160;&#160;&#160;&#160;&#160;&#160;&#160;&#160;&#160;&#160;&#160;&#160;&#160;&#160;&#160;&#160;&#160;&#160;&#160;&#160;&#160;&#160;&#160;&#160;&#160;</text>
<polygon fill="none" stroke="#99ccff" points="833.99,-760.3 833.99,-779.3 937.99,-779.3 937.99,-760.3 833.99,-760.3"/>
<text text-anchor="start" x="866.19" y="-766.4" font-family="Courier,monospace" font-size="11.00">id(18)</text>
<polygon fill="none" stroke="#99ccff" points="148.99,-741.3 148.99,-760.3 833.99,-760.3 833.99,-741.3 148.99,-741.3"/>
<text text-anchor="start" x="151.99" y="-747.4" font-family="Courier,monospace" font-size="11.00"> &#160;&#160;&#160;&#160;&#160;&#160;&#160;&#160;&#160;&#160;&#160;&#160;&#160;&#160;&#160;&#160;&#160;&#160;&#160;&#160;&#160;&#160;&#160;&#160;&#160;&#160;&#160;&#160;&#160;&#160;&#160;&#160;&#160;&#160;&#160;&#160;&#160;&#160;&#160;&#160;OwnerId &#160;&#160;&#160;&#160;&#160;&#160;&#160;&#160;&#160;&#160;&#160;&#160;&#160;&#160;&#160;&#160;&#160;&#160;&#160;&#160;&#160;&#160;&#160;&#160;&#160;&#160;&#160;&#160;&#160;&#160;&#160;&#160;&#160;&#160;&#160;&#160;&#160;&#160;</text>
<polygon fill="none" stroke="#99ccff" points="833.99,-741.3 833.99,-760.3 937.99,-760.3 937.99,-741.3 833.99,-741.3"/>
<text text-anchor="start" x="843.1" y="-747.4" font-family="Courier,monospace" font-size="11.00">reference(18)</text>
<polygon fill="none" stroke="#99ccff" points="148.99,-722.3 148.99,-741.3 833.99,-741.3 833.99,-722.3 148.99,-722.3"/>
<text text-anchor="start" x="151.99" y="-728.4" font-family="Courier,monospace" font-size="11.00"> &#160;&#160;&#160;&#160;&#160;&#160;&#160;&#160;&#160;&#160;&#160;&#160;&#160;&#160;&#160;&#160;&#160;&#160;&#160;&#160;&#160;&#160;&#160;&#160;&#160;&#160;&#160;&#160;&#160;&#160;&#160;&#160;&#160;&#160;&#160;&#160;&#160;&#160;&#160;&#160;IsDeleted &#160;&#160;&#160;&#160;&#160;&#160;&#160;&#160;&#160;&#160;&#160;&#160;&#160;&#160;&#160;&#160;&#160;&#160;&#160;&#160;&#160;&#160;&#160;&#160;&#160;&#160;&#160;&#160;&#160;&#160;&#160;&#160;&#160;&#160;&#160;&#160;&#160;&#160;</text>
<polygon fill="none" stroke="#99ccff" points="833.99,-722.3 833.99,-741.3 937.99,-741.3 937.99,-722.3 833.99,-722.3"/>
<text text-anchor="start" x="862.89" y="-728.4" font-family="Courier,monospace" font-size="11.00">boolean</text>
<polygon fill="none" stroke="#99ccff" points="148.99,-703.3 148.99,-722.3 833.99,-722.3 833.99,-703.3 148.99,-703.3"/>
<text text-anchor="start" x="151.99" y="-709.4" font-family="Courier,monospace" font-size="11.00"> &#160;&#160;&#160;&#160;&#160;&#160;&#160;&#160;&#160;&#160;&#160;&#160;&#160;&#160;&#160;&#160;&#160;&#160;&#160;&#160;&#160;&#160;&#160;&#160;&#160;&#160;&#160;&#160;&#160;&#160;&#160;&#160;&#160;&#160;&#160;&#160;&#160;&#160;&#160;&#160;Name &#160;&#160;&#160;&#160;&#160;&#160;&#160;&#160;&#160;&#160;&#160;&#160;&#160;&#160;&#160;&#160;&#160;&#160;&#160;&#160;&#160;&#160;&#160;&#160;&#160;&#160;&#160;&#160;&#160;&#160;&#160;&#160;&#160;&#160;&#160;&#160;&#160;&#160;</text>
<polygon fill="none" stroke="#99ccff" points="833.99,-703.3 833.99,-722.3 937.99,-722.3 937.99,-703.3 833.99,-703.3"/>
<text text-anchor="start" x="849.7" y="-709.4" font-family="Courier,monospace" font-size="11.00">string(255)</text>
<polygon fill="none" stroke="#99ccff" points="148.99,-684.3 148.99,-703.3 833.99,-703.3 833.99,-684.3 148.99,-684.3"/>
<text text-anchor="start" x="151.99" y="-690.4" font-family="Courier,monospace" font-size="11.00"> &#160;&#160;&#160;&#160;&#160;&#160;&#160;&#160;&#160;&#160;&#160;&#160;&#160;&#160;&#160;&#160;&#160;&#160;&#160;&#160;&#160;&#160;&#160;&#160;&#160;&#160;&#160;&#160;&#160;&#160;&#160;&#160;&#160;&#160;&#160;&#160;&#160;&#160;&#160;&#160;CurrencyIsoCode &#160;&#160;&#160;&#160;&#160;&#160;&#160;&#160;&#160;&#160;&#160;&#160;&#160;&#160;&#160;&#160;&#160;&#160;&#160;&#160;&#160;&#160;&#160;&#160;&#160;&#160;&#160;&#160;&#160;&#160;&#160;&#160;&#160;&#160;&#160;&#160;&#160;&#160;</text>
<polygon fill="none" stroke="#99ccff" points="833.99,-684.3 833.99,-703.3 937.99,-703.3 937.99,-684.3 833.99,-684.3"/>
<text text-anchor="start" x="849.7" y="-690.4" font-family="Courier,monospace" font-size="11.00">picklist(3)</text>
<polygon fill="none" stroke="#99ccff" points="148.99,-665.3 148.99,-684.3 833.99,-684.3 833.99,-665.3 148.99,-665.3"/>
<text text-anchor="start" x="151.99" y="-671.4" font-family="Courier,monospace" font-size="11.00"> &#160;&#160;&#160;&#160;&#160;&#160;&#160;&#160;&#160;&#160;&#160;&#160;&#160;&#160;&#160;&#160;&#160;&#160;&#160;&#160;&#160;&#160;&#160;&#160;&#160;&#160;&#160;&#160;&#160;&#160;&#160;&#160;&#160;&#160;&#160;&#160;&#160;&#160;&#160;&#160;LastModifiedById &#160;&#160;&#160;&#160;&#160;&#160;&#160;&#160;&#160;&#160;&#160;&#160;&#160;&#160;&#160;&#160;&#160;&#160;&#160;&#160;&#160;&#160;&#160;&#160;&#160;&#160;&#160;&#160;&#160;&#160;&#160;&#160;&#160;&#160;&#160;&#160;&#160;&#160;</text>
<polygon fill="none" stroke="#99ccff" points="833.99,-665.3 833.99,-684.3 937.99,-684.3 937.99,-665.3 833.99,-665.3"/>
<text text-anchor="start" x="843.1" y="-671.4" font-family="Courier,monospace" font-size="11.00">reference(18)</text>
<polygon fill="none" stroke="#99ccff" points="148.99,-646.3 148.99,-665.3 833.99,-665.3 833.99,-646.3 148.99,-646.3"/>
<text text-anchor="start" x="151.99" y="-652.4" font-family="Courier,monospace" font-size="11.00"> &#160;&#160;&#160;&#160;&#160;&#160;&#160;&#160;&#160;&#160;&#160;&#160;&#160;&#160;&#160;&#160;&#160;&#160;&#160;&#160;&#160;&#160;&#160;&#160;&#160;&#160;&#160;&#160;&#160;&#160;&#160;&#160;&#160;&#160;&#160;&#160;&#160;&#160;&#160;&#160;LastViewedDate &#160;&#160;&#160;&#160;&#160;&#160;&#160;&#160;&#160;&#160;&#160;&#160;&#160;&#160;&#160;&#160;&#160;&#160;&#160;&#160;&#160;&#160;&#160;&#160;&#160;&#160;&#160;&#160;&#160;&#160;&#160;&#160;&#160;&#160;&#160;&#160;&#160;&#160;</text>
<polygon fill="none" stroke="#99ccff" points="833.99,-646.3 833.99,-665.3 937.99,-665.3 937.99,-646.3 833.99,-646.3"/>
<text text-anchor="start" x="859.59" y="-652.4" font-family="Courier,monospace" font-size="11.00">datetime</text>
<polygon fill="none" stroke="#99ccff" points="148.99,-627.3 148.99,-646.3 833.99,-646.3 833.99,-627.3 148.99,-627.3"/>
<text text-anchor="start" x="151.99" y="-633.4" font-family="Courier,monospace" font-size="11.00"> &#160;&#160;&#160;&#160;&#160;&#160;&#160;&#160;&#160;&#160;&#160;&#160;&#160;&#160;&#160;&#160;&#160;&#160;&#160;&#160;&#160;&#160;&#160;&#160;&#160;&#160;&#160;&#160;&#160;&#160;&#160;&#160;&#160;&#160;&#160;&#160;&#160;&#160;&#160;&#160;LastReferencedDate &#160;&#160;&#160;&#160;&#160;&#160;&#160;&#160;&#160;&#160;&#160;&#160;&#160;&#160;&#160;&#160;&#160;&#160;&#160;&#160;&#160;&#160;&#160;&#160;&#160;&#160;&#160;&#160;&#160;&#160;&#160;&#160;&#160;&#160;&#160;&#160;&#160;&#160;</text>
<polygon fill="none" stroke="#99ccff" points="833.99,-627.3 833.99,-646.3 937.99,-646.3 937.99,-627.3 833.99,-627.3"/>
<text text-anchor="start" x="859.59" y="-633.4" font-family="Courier,monospace" font-size="11.00">datetime</text>
<polygon fill="none" stroke="#99ccff" points="148.99,-608.3 148.99,-627.3 833.99,-627.3 833.99,-608.3 148.99,-608.3"/>
<text text-anchor="start" x="151.99" y="-614.4" font-family="Courier,monospace" font-size="11.00"> &#160;&#160;&#160;&#160;&#160;&#160;&#160;&#160;&#160;&#160;&#160;&#160;&#160;&#160;&#160;&#160;&#160;&#160;&#160;&#160;&#160;&#160;&#160;&#160;&#160;&#160;&#160;&#160;&#160;&#160;&#160;&#160;&#160;&#160;&#160;&#160;&#160;&#160;&#160;&#160;Edition &#160;&#160;&#160;&#160;&#160;&#160;&#160;&#160;&#160;&#160;&#160;&#160;&#160;&#160;&#160;&#160;&#160;&#160;&#160;&#160;&#160;&#160;&#160;&#160;&#160;&#160;&#160;&#160;&#160;&#160;&#160;&#160;&#160;&#160;&#160;&#160;&#160;&#160;</text>
<polygon fill="none" stroke="#99ccff" points="833.99,-608.3 833.99,-627.3 937.99,-627.3 937.99,-608.3 833.99,-608.3"/>
<text text-anchor="start" x="843.1" y="-614.4" font-family="Courier,monospace" font-size="11.00">picklist(255)</text>
<polygon fill="none" stroke="#99ccff" points="148.99,-589.3 148.99,-608.3 833.99,-608.3 833.99,-589.3 148.99,-589.3"/>
<text text-anchor="start" x="151.99" y="-595.4" font-family="Courier,monospace" font-size="11.00"> &#160;&#160;&#160;&#160;&#160;&#160;&#160;&#160;&#160;&#160;&#160;&#160;&#160;&#160;&#160;&#160;&#160;&#160;&#160;&#160;&#160;&#160;&#160;&#160;&#160;&#160;&#160;&#160;&#160;&#160;&#160;&#160;&#160;&#160;&#160;&#160;&#160;&#160;&#160;&#160;Username &#160;&#160;&#160;&#160;&#160;&#160;&#160;&#160;&#160;&#160;&#160;&#160;&#160;&#160;&#160;&#160;&#160;&#160;&#160;&#160;&#160;&#160;&#160;&#160;&#160;&#160;&#160;&#160;&#160;&#160;&#160;&#160;&#160;&#160;&#160;&#160;&#160;&#160;</text>
<polygon fill="none" stroke="#99ccff" points="833.99,-589.3 833.99,-608.3 937.99,-608.3 937.99,-589.3 833.99,-589.3"/>
<text text-anchor="start" x="853" y="-595.4" font-family="Courier,monospace" font-size="11.00">string(80)</text>
<polygon fill="none" stroke="#99ccff" points="148.99,-570.3 148.99,-589.3 833.99,-589.3 833.99,-570.3 148.99,-570.3"/>
<text text-anchor="start" x="151.99" y="-576.4" font-family="Courier,monospace" font-size="11.00"> &#160;&#160;&#160;&#160;&#160;&#160;&#160;&#160;&#160;&#160;&#160;&#160;&#160;&#160;&#160;&#160;&#160;&#160;&#160;&#160;&#160;&#160;&#160;&#160;&#160;&#160;&#160;&#160;&#160;&#160;&#160;&#160;&#160;&#160;&#160;&#160;&#160;&#160;&#160;&#160;AdminEmail &#160;&#160;&#160;&#160;&#160;&#160;&#160;&#160;&#160;&#160;&#160;&#160;&#160;&#160;&#160;&#160;&#160;&#160;&#160;&#160;&#160;&#160;&#160;&#160;&#160;&#160;&#160;&#160;&#160;&#160;&#160;&#160;&#160;&#160;&#160;&#160;&#160;&#160;</text>
<polygon fill="none" stroke="#99ccff" points="833.99,-570.3 833.99,-589.3 937.99,-589.3 937.99,-570.3 833.99,-570.3"/>
<text text-anchor="start" x="856.29" y="-576.4" font-family="Courier,monospace" font-size="11.00">email(80)</text>
<polygon fill="none" stroke="#99ccff" points="148.99,-551.3 148.99,-570.3 833.99,-570.3 833.99,-551.3 148.99,-551.3"/>
<text text-anchor="start" x="151.99" y="-557.4" font-family="Courier,monospace" font-size="11.00"> &#160;&#160;&#160;&#160;&#160;&#160;&#160;&#160;&#160;&#160;&#160;&#160;&#160;&#160;&#160;&#160;&#160;&#160;&#160;&#160;&#160;&#160;&#160;&#160;&#160;&#160;&#160;&#160;&#160;&#160;&#160;&#160;&#160;&#160;&#160;&#160;&#160;&#160;&#160;&#160;OrgName &#160;&#160;&#160;&#160;&#160;&#160;&#160;&#160;&#160;&#160;&#160;&#160;&#160;&#160;&#160;&#160;&#160;&#160;&#160;&#160;&#160;&#160;&#160;&#160;&#160;&#160;&#160;&#160;&#160;&#160;&#160;&#160;&#160;&#160;&#160;&#160;&#160;&#160;</text>
<polygon fill="none" stroke="#99ccff" points="833.99,-551.3 833.99,-570.3 937.99,-570.3 937.99,-551.3 833.99,-551.3"/>
<text text-anchor="start" x="853" y="-557.4" font-family="Courier,monospace" font-size="11.00">string(80)</text>
<polygon fill="none" stroke="#99ccff" points="148.99,-532.3 148.99,-551.3 833.99,-551.3 833.99,-532.3 148.99,-532.3"/>
<text text-anchor="start" x="151.99" y="-538.4" font-family="Courier,monospace" font-size="11.00"> &#160;&#160;&#160;&#160;&#160;&#160;&#160;&#160;&#160;&#160;&#160;&#160;&#160;&#160;&#160;&#160;&#160;&#160;&#160;&#160;&#160;&#160;&#160;&#160;&#160;&#160;&#160;&#160;&#160;&#160;&#160;&#160;&#160;&#160;&#160;&#160;&#160;&#160;&#160;&#160;DurationDays &#160;&#160;&#160;&#160;&#160;&#160;&#160;&#160;&#160;&#160;&#160;&#160;&#160;&#160;&#160;&#160;&#160;&#160;&#160;&#160;&#160;&#160;&#160;&#160;&#160;&#160;&#160;&#160;&#160;&#160;&#160;&#160;&#160;&#160;&#160;&#160;&#160;&#160;</text>
<polygon fill="none" stroke="#99ccff" points="833.99,-532.3 833.99,-551.3 937.99,-551.3 937.99,-532.3 833.99,-532.3"/>
<text text-anchor="start" x="876.09" y="-538.4" font-family="Courier,monospace" font-size="11.00">int</text>
<polygon fill="none" stroke="#99ccff" points="148.99,-513.3 148.99,-532.3 833.99,-532.3 833.99,-513.3 148.99,-513.3"/>
<text text-anchor="start" x="151.65" y="-519.4" font-family="Courier,monospace" font-size="11.00"> &#160;&#160;&#160;&#160;&#160;&#160;&#160;&#160;&#160;&#160;&#160;&#160;&#160;&#160;&#160;&#160;&#160;&#160;&#160;&#160;&#160;&#160;&#160;&#160;&#160;&#160;&#160;&#160;&#160;&#160;&#160;&#160;&#160;&#160;&#160;&#160;&#160;&#160;&#160;&#160;ConnectedAppConsumerKey &#160;&#160;&#160;&#160;&#160;&#160;&#160;&#160;&#160;&#160;&#160;&#160;&#160;&#160;&#160;&#160;&#160;&#160;&#160;&#160;&#160;&#160;&#160;&#160;&#160;&#160;&#160;&#160;&#160;&#160;&#160;&#160;&#160;&#160;&#160;&#160;&#160;&#160;</text>
<polygon fill="none" stroke="#99ccff" points="833.99,-513.3 833.99,-532.3 937.99,-532.3 937.99,-513.3 833.99,-513.3"/>
<text text-anchor="start" x="849.7" y="-519.4" font-family="Courier,monospace" font-size="11.00">string(120)</text>
<polygon fill="none" stroke="#99ccff" points="148.99,-494.3 148.99,-513.3 833.99,-513.3 833.99,-494.3 148.99,-494.3"/>
<text text-anchor="start" x="151.65" y="-500.4" font-family="Courier,monospace" font-size="11.00"> &#160;&#160;&#160;&#160;&#160;&#160;&#160;&#160;&#160;&#160;&#160;&#160;&#160;&#160;&#160;&#160;&#160;&#160;&#160;&#160;&#160;&#160;&#160;&#160;&#160;&#160;&#160;&#160;&#160;&#160;&#160;&#160;&#160;&#160;&#160;&#160;&#160;&#160;&#160;&#160;ConnectedAppCallbackUrl &#160;&#160;&#160;&#160;&#160;&#160;&#160;&#160;&#160;&#160;&#160;&#160;&#160;&#160;&#160;&#160;&#160;&#160;&#160;&#160;&#160;&#160;&#160;&#160;&#160;&#160;&#160;&#160;&#160;&#160;&#160;&#160;&#160;&#160;&#160;&#160;&#160;&#160;</text>
<polygon fill="none" stroke="#99ccff" points="833.99,-494.3 833.99,-513.3 937.99,-513.3 937.99,-494.3 833.99,-494.3"/>
<text text-anchor="start" x="839.8" y="-500.4" font-family="Courier,monospace" font-size="11.00">textarea(2000)</text>
<polygon fill="none" stroke="#99ccff" points="148.99,-475.3 148.99,-494.3 833.99,-494.3 833.99,-475.3 148.99,-475.3"/>
<text text-anchor="start" x="151.99" y="-481.4" font-family="Courier,monospace" font-size="11.00"> &#160;&#160;&#160;&#160;&#160;&#160;&#160;&#160;&#160;&#160;&#160;&#160;&#160;&#160;&#160;&#160;&#160;&#160;&#160;&#160;&#160;&#160;&#160;&#160;&#160;&#160;&#160;&#160;&#160;&#160;&#160;&#160;&#160;&#160;&#160;&#160;&#160;&#160;&#160;&#160;Namespace &#160;&#160;&#160;&#160;&#160;&#160;&#160;&#160;&#160;&#160;&#160;&#160;&#160;&#160;&#160;&#160;&#160;&#160;&#160;&#160;&#160;&#160;&#160;&#160;&#160;&#160;&#160;&#160;&#160;&#160;&#160;&#160;&#160;&#160;&#160;&#160;&#160;&#160;</text>
<polygon fill="none" stroke="#99ccff" points="833.99,-475.3 833.99,-494.3 937.99,-494.3 937.99,-475.3 833.99,-475.3"/>
<text text-anchor="start" x="853" y="-481.4" font-family="Courier,monospace" font-size="11.00">string(15)</text>
<polygon fill="none" stroke="#99ccff" points="148.99,-456.3 148.99,-475.3 833.99,-475.3 833.99,-456.3 148.99,-456.3"/>
<text text-anchor="start" x="151.99" y="-462.4" font-family="Courier,monospace" font-size="11.00"> &#160;&#160;&#160;&#160;&#160;&#160;&#160;&#160;&#160;&#160;&#160;&#160;&#160;&#160;&#160;&#160;&#160;&#160;&#160;&#160;&#160;&#160;&#160;&#160;&#160;&#160;&#160;&#160;&#160;&#160;&#160;&#160;&#160;&#160;&#160;&#160;&#160;&#160;&#160;&#160;Features &#160;&#160;&#160;&#160;&#160;&#160;&#160;&#160;&#160;&#160;&#160;&#160;&#160;&#160;&#160;&#160;&#160;&#160;&#160;&#160;&#160;&#160;&#160;&#160;&#160;&#160;&#160;&#160;&#160;&#160;&#160;&#160;&#160;&#160;&#160;&#160;&#160;&#160;</text>
<polygon fill="none" stroke="#99ccff" points="833.99,-456.3 833.99,-475.3 937.99,-475.3 937.99,-456.3 833.99,-456.3"/>
<text text-anchor="start" x="836.5" y="-462.4" font-family="Courier,monospace" font-size="11.00">textarea(10000)</text>
<polygon fill="none" stroke="#99ccff" points="148.99,-437.3 148.99,-456.3 833.99,-456.3 833.99,-437.3 148.99,-437.3"/>
<text text-anchor="start" x="151.99" y="-443.4" font-family="Courier,monospace" font-size="11.00"> &#160;&#160;&#160;&#160;&#160;&#160;&#160;&#160;&#160;&#160;&#160;&#160;&#160;&#160;&#160;&#160;&#160;&#160;&#160;&#160;&#160;&#160;&#160;&#160;&#160;&#160;&#160;&#160;&#160;&#160;&#160;&#160;&#160;&#160;&#160;&#160;&#160;&#160;&#160;&#160;Country &#160;&#160;&#160;&#160;&#160;&#160;&#160;&#160;&#160;&#160;&#160;&#160;&#160;&#160;&#160;&#160;&#160;&#160;&#160;&#160;&#160;&#160;&#160;&#160;&#160;&#160;&#160;&#160;&#160;&#160;&#160;&#160;&#160;&#160;&#160;&#160;&#160;&#160;</text>
<polygon fill="none" stroke="#99ccff" points="833.99,-437.3 833.99,-456.3 937.99,-456.3 937.99,-437.3 833.99,-437.3"/>
<text text-anchor="start" x="856.29" y="-443.4" font-family="Courier,monospace" font-size="11.00">string(3)</text>
<polygon fill="none" stroke="#99ccff" points="148.99,-418.3 148.99,-437.3 833.99,-437.3 833.99,-418.3 148.99,-418.3"/>
<text text-anchor="start" x="151.99" y="-424.4" font-family="Courier,monospace" font-size="11.00"> &#160;&#160;&#160;&#160;&#160;&#160;&#160;&#160;&#160;&#160;&#160;&#160;&#160;&#160;&#160;&#160;&#160;&#160;&#160;&#160;&#160;&#160;&#160;&#160;&#160;&#160;&#160;&#160;&#160;&#160;&#160;&#160;&#160;&#160;&#160;&#160;&#160;&#160;&#160;&#160;Language &#160;&#160;&#160;&#160;&#160;&#160;&#160;&#160;&#160;&#160;&#160;&#160;&#160;&#160;&#160;&#160;&#160;&#160;&#160;&#160;&#160;&#160;&#160;&#160;&#160;&#160;&#160;&#160;&#160;&#160;&#160;&#160;&#160;&#160;&#160;&#160;&#160;&#160;</text>
<polygon fill="none" stroke="#99ccff" points="833.99,-418.3 833.99,-437.3 937.99,-437.3 937.99,-418.3 833.99,-418.3"/>
<text text-anchor="start" x="843.1" y="-424.4" font-family="Courier,monospace" font-size="11.00">picklist(255)</text>
<polygon fill="none" stroke="#99ccff" points="148.99,-399.3 148.99,-418.3 833.99,-418.3 833.99,-399.3 148.99,-399.3"/>
<text text-anchor="start" x="151.99" y="-405.4" font-family="Courier,monospace" font-size="11.00"> &#160;&#160;&#160;&#160;&#160;&#160;&#160;&#160;&#160;&#160;&#160;&#160;&#160;&#160;&#160;&#160;&#160;&#160;&#160;&#160;&#160;&#160;&#160;&#160;&#160;&#160;&#160;&#160;&#160;&#160;&#160;&#160;&#160;&#160;&#160;&#160;&#160;&#160;&#160;&#160;Instance &#160;&#160;&#160;&#160;&#160;&#160;&#160;&#160;&#160;&#160;&#160;&#160;&#160;&#160;&#160;&#160;&#160;&#160;&#160;&#160;&#160;&#160;&#160;&#160;&#160;&#160;&#160;&#160;&#160;&#160;&#160;&#160;&#160;&#160;&#160;&#160;&#160;&#160;</text>
<polygon fill="none" stroke="#99ccff" points="833.99,-399.3 833.99,-418.3 937.99,-418.3 937.99,-399.3 833.99,-399.3"/>
<text text-anchor="start" x="856.29" y="-405.4" font-family="Courier,monospace" font-size="11.00">string(8)</text>
<polygon fill="none" stroke="#99ccff" points="148.99,-380.3 148.99,-399.3 833.99,-399.3 833.99,-380.3 148.99,-380.3"/>
<text text-anchor="start" x="151.99" y="-386.4" font-family="Courier,monospace" font-size="11.00"> &#160;&#160;&#160;&#160;&#160;&#160;&#160;&#160;&#160;&#160;&#160;&#160;&#160;&#160;&#160;&#160;&#160;&#160;&#160;&#160;&#160;&#160;&#160;&#160;&#160;&#160;&#160;&#160;&#160;&#160;&#160;&#160;&#160;&#160;&#160;&#160;&#160;&#160;&#160;&#160;Package2AncestorIds &#160;&#160;&#160;&#160;&#160;&#160;&#160;&#160;&#160;&#160;&#160;&#160;&#160;&#160;&#160;&#160;&#160;&#160;&#160;&#160;&#160;&#160;&#160;&#160;&#160;&#160;&#160;&#160;&#160;&#160;&#160;&#160;&#160;&#160;&#160;&#160;&#160;&#160;</text>
<polygon fill="none" stroke="#99ccff" points="833.99,-380.3 833.99,-399.3 937.99,-399.3 937.99,-380.3 833.99,-380.3"/>
<text text-anchor="start" x="839.8" y="-386.4" font-family="Courier,monospace" font-size="11.00">textarea(2000)</text>
<polygon fill="none" stroke="#99ccff" points="148.99,-361.3 148.99,-380.3 833.99,-380.3 833.99,-361.3 148.99,-361.3"/>
<text text-anchor="start" x="151.99" y="-367.4" font-family="Courier,monospace" font-size="11.00"> &#160;&#160;&#160;&#160;&#160;&#160;&#160;&#160;&#160;&#160;&#160;&#160;&#160;&#160;&#160;&#160;&#160;&#160;&#160;&#160;&#160;&#160;&#160;&#160;&#160;&#160;&#160;&#160;&#160;&#160;&#160;&#160;&#160;&#160;&#160;&#160;&#160;&#160;&#160;&#160;SourceOrg &#160;&#160;&#160;&#160;&#160;&#160;&#160;&#160;&#160;&#160;&#160;&#160;&#160;&#160;&#160;&#160;&#160;&#160;&#160;&#160;&#160;&#160;&#160;&#160;&#160;&#160;&#160;&#160;&#160;&#160;&#160;&#160;&#160;&#160;&#160;&#160;&#160;&#160;</text>
<polygon fill="none" stroke="#99ccff" points="833.99,-361.3 833.99,-380.3 937.99,-380.3 937.99,-361.3 833.99,-361.3"/>
<text text-anchor="start" x="853" y="-367.4" font-family="Courier,monospace" font-size="11.00">string(18)</text>
<polygon fill="none" stroke="#99ccff" points="148.99,-342.3 148.99,-361.3 833.99,-361.3 833.99,-342.3 148.99,-342.3"/>
<text text-anchor="start" x="151.99" y="-348.4" font-family="Courier,monospace" font-size="11.00"> &#160;&#160;&#160;&#160;&#160;&#160;&#160;&#160;&#160;&#160;&#160;&#160;&#160;&#160;&#160;&#160;&#160;&#160;&#160;&#160;&#160;&#160;&#160;&#160;&#160;&#160;&#160;&#160;&#160;&#160;&#160;&#160;&#160;&#160;&#160;&#160;&#160;&#160;&#160;&#160;HasSampleData &#160;&#160;&#160;&#160;&#160;&#160;&#160;&#160;&#160;&#160;&#160;&#160;&#160;&#160;&#160;&#160;&#160;&#160;&#160;&#160;&#160;&#160;&#160;&#160;&#160;&#160;&#160;&#160;&#160;&#160;&#160;&#160;&#160;&#160;&#160;&#160;&#160;&#160;</text>
<polygon fill="none" stroke="#99ccff" points="833.99,-342.3 833.99,-361.3 937.99,-361.3 937.99,-342.3 833.99,-342.3"/>
<text text-anchor="start" x="862.89" y="-348.4" font-family="Courier,monospace" font-size="11.00">boolean</text>
<polygon fill="none" stroke="#99ccff" points="148.99,-323.3 148.99,-342.3 833.99,-342.3 833.99,-323.3 148.99,-323.3"/>
<text text-anchor="start" x="151.99" y="-329.4" font-family="Courier,monospace" font-size="11.00"> &#160;&#160;&#160;&#160;&#160;&#160;&#160;&#160;&#160;&#160;&#160;&#160;&#160;&#160;&#160;&#160;&#160;&#160;&#160;&#160;&#160;&#160;&#160;&#160;&#160;&#160;&#160;&#160;&#160;&#160;&#160;&#160;&#160;&#160;&#160;&#160;&#160;&#160;&#160;&#160;Release &#160;&#160;&#160;&#160;&#160;&#160;&#160;&#160;&#160;&#160;&#160;&#160;&#160;&#160;&#160;&#160;&#160;&#160;&#160;&#160;&#160;&#160;&#160;&#160;&#160;&#160;&#160;&#160;&#160;&#160;&#160;&#160;&#160;&#160;&#160;&#160;&#160;&#160;</text>
<polygon fill="none" stroke="#99ccff" points="833.99,-323.3 833.99,-342.3 937.99,-342.3 937.99,-323.3 833.99,-323.3"/>
<text text-anchor="start" x="843.1" y="-329.4" font-family="Courier,monospace" font-size="11.00">picklist(255)</text>
<polygon fill="none" stroke="#99ccff" points="148.99,-304.3 148.99,-323.3 833.99,-323.3 833.99,-304.3 148.99,-304.3"/>
<text text-anchor="start" x="151.99" y="-310.4" font-family="Courier,monospace" font-size="11.00"> &#160;&#160;&#160;&#160;&#160;&#160;&#160;&#160;&#160;&#160;&#160;&#160;&#160;&#160;&#160;&#160;&#160;&#160;&#160;&#160;&#160;&#160;&#160;&#160;&#160;&#160;&#160;&#160;&#160;&#160;&#160;&#160;&#160;&#160;&#160;&#160;&#160;&#160;&#160;&#160;SignupUsername &#160;&#160;&#160;&#160;&#160;&#160;&#160;&#160;&#160;&#160;&#160;&#160;&#160;&#160;&#160;&#160;&#160;&#160;&#160;&#160;&#160;&#160;&#160;&#160;&#160;&#160;&#160;&#160;&#160;&#160;&#160;&#160;&#160;&#160;&#160;&#160;&#160;&#160;</text>
<polygon fill="none" stroke="#99ccff" points="833.99,-304.3 833.99,-323.3 937.99,-323.3 937.99,-304.3 833.99,-304.3"/>
<text text-anchor="start" x="853" y="-310.4" font-family="Courier,monospace" font-size="11.00">string(80)</text>
<polygon fill="none" stroke="#99ccff" points="148.99,-285.3 148.99,-304.3 833.99,-304.3 833.99,-285.3 148.99,-285.3"/>
<text text-anchor="start" x="151.99" y="-291.4" font-family="Courier,monospace" font-size="11.00"> &#160;&#160;&#160;&#160;&#160;&#160;&#160;&#160;&#160;&#160;&#160;&#160;&#160;&#160;&#160;&#160;&#160;&#160;&#160;&#160;&#160;&#160;&#160;&#160;&#160;&#160;&#160;&#160;&#160;&#160;&#160;&#160;&#160;&#160;&#160;&#160;&#160;&#160;&#160;&#160;Status &#160;&#160;&#160;&#160;&#160;&#160;&#160;&#160;&#160;&#160;&#160;&#160;&#160;&#160;&#160;&#160;&#160;&#160;&#160;&#160;&#160;&#160;&#160;&#160;&#160;&#160;&#160;&#160;&#160;&#160;&#160;&#160;&#160;&#160;&#160;&#160;&#160;&#160;</text>
<polygon fill="none" stroke="#99ccff" points="833.99,-285.3 833.99,-304.3 937.99,-304.3 937.99,-285.3 833.99,-285.3"/>
<text text-anchor="start" x="843.1" y="-291.4" font-family="Courier,monospace" font-size="11.00">picklist(255)</text>
<polygon fill="none" stroke="#99ccff" points="148.99,-266.3 148.99,-285.3 833.99,-285.3 833.99,-266.3 148.99,-266.3"/>
<text text-anchor="start" x="151.99" y="-272.4" font-family="Courier,monospace" font-size="11.00"> &#160;&#160;&#160;&#160;&#160;&#160;&#160;&#160;&#160;&#160;&#160;&#160;&#160;&#160;&#160;&#160;&#160;&#160;&#160;&#160;&#160;&#160;&#160;&#160;&#160;&#160;&#160;&#160;&#160;&#160;&#160;&#160;&#160;&#160;&#160;&#160;&#160;&#160;&#160;&#160;ErrorCode &#160;&#160;&#160;&#160;&#160;&#160;&#160;&#160;&#160;&#160;&#160;&#160;&#160;&#160;&#160;&#160;&#160;&#160;&#160;&#160;&#160;&#160;&#160;&#160;&#160;&#160;&#160;&#160;&#160;&#160;&#160;&#160;&#160;&#160;&#160;&#160;&#160;&#160;</text>
<polygon fill="none" stroke="#99ccff" points="833.99,-266.3 833.99,-285.3 937.99,-285.3 937.99,-266.3 833.99,-266.3"/>
<text text-anchor="start" x="856.29" y="-272.4" font-family="Courier,monospace" font-size="11.00">string(8)</text>
<polygon fill="none" stroke="#99ccff" points="148.99,-247.3 148.99,-266.3 833.99,-266.3 833.99,-247.3 148.99,-247.3"/>
<text text-anchor="start" x="151.99" y="-253.4" font-family="Courier,monospace" font-size="11.00"> &#160;&#160;&#160;&#160;&#160;&#160;&#160;&#160;&#160;&#160;&#160;&#160;&#160;&#160;&#160;&#160;&#160;&#160;&#160;&#160;&#160;&#160;&#160;&#160;&#160;&#160;&#160;&#160;&#160;&#160;&#160;&#160;&#160;&#160;&#160;&#160;&#160;&#160;&#160;&#160;ScratchOrg &#160;&#160;&#160;&#160;&#160;&#160;&#160;&#160;&#160;&#160;&#160;&#160;&#160;&#160;&#160;&#160;&#160;&#160;&#160;&#160;&#160;&#160;&#160;&#160;&#160;&#160;&#160;&#160;&#160;&#160;&#160;&#160;&#160;&#160;&#160;&#160;&#160;&#160;</text>
<polygon fill="none" stroke="#99ccff" points="833.99,-247.3 833.99,-266.3 937.99,-266.3 937.99,-247.3 833.99,-247.3"/>
<text text-anchor="start" x="853" y="-253.4" font-family="Courier,monospace" font-size="11.00">string(15)</text>
<polygon fill="none" stroke="#99ccff" points="148.99,-228.3 148.99,-247.3 833.99,-247.3 833.99,-228.3 148.99,-228.3"/>
<text text-anchor="start" x="151.99" y="-234.4" font-family="Courier,monospace" font-size="11.00"> &#160;&#160;&#160;&#160;&#160;&#160;&#160;&#160;&#160;&#160;&#160;&#160;&#160;&#160;&#160;&#160;&#160;&#160;&#160;&#160;&#160;&#160;&#160;&#160;&#160;&#160;&#160;&#160;&#160;&#160;&#160;&#160;&#160;&#160;&#160;&#160;&#160;&#160;&#160;&#160;SignupInstance &#160;&#160;&#160;&#160;&#160;&#160;&#160;&#160;&#160;&#160;&#160;&#160;&#160;&#160;&#160;&#160;&#160;&#160;&#160;&#160;&#160;&#160;&#160;&#160;&#160;&#160;&#160;&#160;&#160;&#160;&#160;&#160;&#160;&#160;&#160;&#160;&#160;&#160;</text>
<polygon fill="none" stroke="#99ccff" points="833.99,-228.3 833.99,-247.3 937.99,-247.3 937.99,-228.3 833.99,-228.3"/>
<text text-anchor="start" x="853" y="-234.4" font-family="Courier,monospace" font-size="11.00">string(15)</text>
<polygon fill="none" stroke="#99ccff" points="148.99,-209.3 148.99,-228.3 833.99,-228.3 833.99,-209.3 148.99,-209.3"/>
<text text-anchor="start" x="151.99" y="-215.4" font-family="Courier,monospace" font-size="11.00"> &#160;&#160;&#160;&#160;&#160;&#160;&#160;&#160;&#160;&#160;&#160;&#160;&#160;&#160;&#160;&#160;&#160;&#160;&#160;&#160;&#160;&#160;&#160;&#160;&#160;&#160;&#160;&#160;&#160;&#160;&#160;&#160;&#160;&#160;&#160;&#160;&#160;&#160;&#160;&#160;AuthCode &#160;&#160;&#160;&#160;&#160;&#160;&#160;&#160;&#160;&#160;&#160;&#160;&#160;&#160;&#160;&#160;&#160;&#160;&#160;&#160;&#160;&#160;&#160;&#160;&#160;&#160;&#160;&#160;&#160;&#160;&#160;&#160;&#160;&#160;&#160;&#160;&#160;&#160;</text>
<polygon fill="none" stroke="#99ccff" points="833.99,-209.3 833.99,-228.3 937.99,-228.3 937.99,-209.3 833.99,-209.3"/>
<text text-anchor="start" x="849.7" y="-215.4" font-family="Courier,monospace" font-size="11.00">string(120)</text>
<polygon fill="none" stroke="#99ccff" points="148.99,-190.3 148.99,-209.3 833.99,-209.3 833.99,-190.3 148.99,-190.3"/>
<text text-anchor="start" x="151.99" y="-196.4" font-family="Courier,monospace" font-size="11.00"> &#160;&#160;&#160;&#160;&#160;&#160;&#160;&#160;&#160;&#160;&#160;&#160;&#160;&#160;&#160;&#160;&#160;&#160;&#160;&#160;&#160;&#160;&#160;&#160;&#160;&#160;&#160;&#160;&#160;&#160;&#160;&#160;&#160;&#160;&#160;&#160;&#160;&#160;&#160;&#160;SignupCountry &#160;&#160;&#160;&#160;&#160;&#160;&#160;&#160;&#160;&#160;&#160;&#160;&#160;&#160;&#160;&#160;&#160;&#160;&#160;&#160;&#160;&#160;&#160;&#160;&#160;&#160;&#160;&#160;&#160;&#160;&#160;&#160;&#160;&#160;&#160;&#160;&#160;&#160;</text>
<polygon fill="none" stroke="#99ccff" points="833.99,-190.3 833.99,-209.3 937.99,-209.3 937.99,-190.3 833.99,-190.3"/>
<text text-anchor="start" x="856.29" y="-196.4" font-family="Courier,monospace" font-size="11.00">string(3)</text>
<polygon fill="none" stroke="#99ccff" points="148.99,-171.3 148.99,-190.3 833.99,-190.3 833.99,-171.3 148.99,-171.3"/>
<text text-anchor="start" x="151.99" y="-177.4" font-family="Courier,monospace" font-size="11.00"> &#160;&#160;&#160;&#160;&#160;&#160;&#160;&#160;&#160;&#160;&#160;&#160;&#160;&#160;&#160;&#160;&#160;&#160;&#160;&#160;&#160;&#160;&#160;&#160;&#160;&#160;&#160;&#160;&#160;&#160;&#160;&#160;&#160;&#160;&#160;&#160;&#160;&#160;&#160;&#160;SignupLanguage &#160;&#160;&#160;&#160;&#160;&#160;&#160;&#160;&#160;&#160;&#160;&#160;&#160;&#160;&#160;&#160;&#160;&#160;&#160;&#160;&#160;&#160;&#160;&#160;&#160;&#160;&#160;&#160;&#160;&#160;&#160;&#160;&#160;&#160;&#160;&#160;&#160;&#160;</text>
<polygon fill="none" stroke="#99ccff" points="833.99,-171.3 833.99,-190.3 937.99,-190.3 937.99,-171.3 833.99,-171.3"/>
<text text-anchor="start" x="843.1" y="-177.4" font-family="Courier,monospace" font-size="11.00">picklist(255)</text>
<polygon fill="none" stroke="#99ccff" points="148.99,-152.3 148.99,-171.3 833.99,-171.3 833.99,-152.3 148.99,-152.3"/>
<text text-anchor="start" x="151.99" y="-158.4" font-family="Courier,monospace" font-size="11.00"> &#160;&#160;&#160;&#160;&#160;&#160;&#160;&#160;&#160;&#160;&#160;&#160;&#160;&#160;&#160;&#160;&#160;&#160;&#160;&#160;&#160;&#160;&#160;&#160;&#160;&#160;&#160;&#160;&#160;&#160;&#160;&#160;&#160;&#160;&#160;&#160;&#160;&#160;&#160;&#160;SignupEmail &#160;&#160;&#160;&#160;&#160;&#160;&#160;&#160;&#160;&#160;&#160;&#160;&#160;&#160;&#160;&#160;&#160;&#160;&#160;&#160;&#160;&#160;&#160;&#160;&#160;&#160;&#160;&#160;&#160;&#160;&#160;&#160;&#160;&#160;&#160;&#160;&#160;&#160;</text>
<polygon fill="none" stroke="#99ccff" points="833.99,-152.3 833.99,-171.3 937.99,-171.3 937.99,-152.3 833.99,-152.3"/>
<text text-anchor="start" x="856.29" y="-158.4" font-family="Courier,monospace" font-size="11.00">email(80)</text>
<polygon fill="none" stroke="#99ccff" points="148.99,-133.3 148.99,-152.3 833.99,-152.3 833.99,-133.3 148.99,-133.3"/>
<text text-anchor="start" x="151.99" y="-139.4" font-family="Courier,monospace" font-size="11.00"> &#160;&#160;&#160;&#160;&#160;&#160;&#160;&#160;&#160;&#160;&#160;&#160;&#160;&#160;&#160;&#160;&#160;&#160;&#160;&#160;&#160;&#160;&#160;&#160;&#160;&#160;&#160;&#160;&#160;&#160;&#160;&#160;&#160;&#160;&#160;&#160;&#160;&#160;&#160;&#160;SignupTrialDays &#160;&#160;&#160;&#160;&#160;&#160;&#160;&#160;&#160;&#160;&#160;&#160;&#160;&#160;&#160;&#160;&#160;&#160;&#160;&#160;&#160;&#160;&#160;&#160;&#160;&#160;&#160;&#160;&#160;&#160;&#160;&#160;&#160;&#160;&#160;&#160;&#160;&#160;</text>
<polygon fill="none" stroke="#99ccff" points="833.99,-133.3 833.99,-152.3 937.99,-152.3 937.99,-133.3 833.99,-133.3"/>
<text text-anchor="start" x="876.09" y="-139.4" font-family="Courier,monospace" font-size="11.00">int</text>
<polygon fill="none" stroke="#99ccff" points="148.99,-114.3 148.99,-133.3 833.99,-133.3 833.99,-114.3 148.99,-114.3"/>
<text text-anchor="start" x="151.99" y="-120.4" font-family="Courier,monospace" font-size="11.00"> &#160;&#160;&#160;&#160;&#160;&#160;&#160;&#160;&#160;&#160;&#160;&#160;&#160;&#160;&#160;&#160;&#160;&#160;&#160;&#160;&#160;&#160;&#160;&#160;&#160;&#160;&#160;&#160;&#160;&#160;&#160;&#160;&#160;&#160;&#160;&#160;&#160;&#160;&#160;&#160;LoginUrl &#160;&#160;&#160;&#160;&#160;&#160;&#160;&#160;&#160;&#160;&#160;&#160;&#160;&#160;&#160;&#160;&#160;&#160;&#160;&#160;&#160;&#160;&#160;&#160;&#160;&#160;&#160;&#160;&#160;&#160;&#160;&#160;&#160;&#160;&#160;&#160;&#160;&#160;</text>
<polygon fill="none" stroke="#99ccff" points="833.99,-114.3 833.99,-133.3 937.99,-133.3 937.99,-114.3 833.99,-114.3"/>
<text text-anchor="start" x="839.8" y="-120.4" font-family="Courier,monospace" font-size="11.00">textarea(2000)</text>
<polygon fill="none" stroke="#99ccff" points="148.99,-95.3 148.99,-114.3 833.99,-114.3 833.99,-95.3 148.99,-95.3"/>
<text text-anchor="start" x="151.99" y="-101.4" font-family="Courier,monospace" font-size="11.00"> &#160;&#160;&#160;&#160;&#160;&#160;&#160;&#160;&#160;&#160;&#160;&#160;&#160;&#160;&#160;&#160;&#160;&#160;&#160;&#160;&#160;&#160;&#160;&#160;&#160;&#160;&#160;&#160;&#160;&#160;&#160;&#160;&#160;&#160;&#160;&#160;&#160;&#160;&#160;&#160;Description &#160;&#160;&#160;&#160;&#160;&#160;&#160;&#160;&#160;&#160;&#160;&#160;&#160;&#160;&#160;&#160;&#160;&#160;&#160;&#160;&#160;&#160;&#160;&#160;&#160;&#160;&#160;&#160;&#160;&#160;&#160;&#160;&#160;&#160;&#160;&#160;&#160;&#160;</text>
<polygon fill="none" stroke="#99ccff" points="833.99,-95.3 833.99,-114.3 937.99,-114.3 937.99,-95.3 833.99,-95.3"/>
<text text-anchor="start" x="839.8" y="-101.4" font-family="Courier,monospace" font-size="11.00">textarea(2000)</text>
<polygon fill="none" stroke="#99ccff" points="148.99,-76.3 148.99,-95.3 833.99,-95.3 833.99,-76.3 148.99,-76.3"/>
<text text-anchor="start" x="151.99" y="-82.4" font-family="Courier,monospace" font-size="11.00"> &#160;&#160;&#160;&#160;&#160;&#160;&#160;&#160;&#160;&#160;&#160;&#160;&#160;&#160;&#160;&#160;&#160;&#160;&#160;&#160;&#160;&#160;&#160;&#160;&#160;&#160;&#160;&#160;&#160;&#160;&#160;&#160;&#160;&#160;&#160;&#160;&#160;&#160;&#160;&#160;ExpirationDate &#160;&#160;&#160;&#160;&#160;&#160;&#160;&#160;&#160;&#160;&#160;&#160;&#160;&#160;&#160;&#160;&#160;&#160;&#160;&#160;&#160;&#160;&#160;&#160;&#160;&#160;&#160;&#160;&#160;&#160;&#160;&#160;&#160;&#160;&#160;&#160;&#160;&#160;</text>
<polygon fill="none" stroke="#99ccff" points="833.99,-76.3 833.99,-95.3 937.99,-95.3 937.99,-76.3 833.99,-76.3"/>
<text text-anchor="start" x="872.79" y="-82.4" font-family="Courier,monospace" font-size="11.00">date</text>
<polygon fill="none" stroke="#99ccff" points="148.99,-57.3 148.99,-76.3 833.99,-76.3 833.99,-57.3 148.99,-57.3"/>
<text text-anchor="start" x="151.99" y="-63.4" font-family="Courier,monospace" font-size="11.00"> &#160;&#160;&#160;&#160;&#160;&#160;&#160;&#160;&#160;&#160;&#160;&#160;&#160;&#160;&#160;&#160;&#160;&#160;&#160;&#160;&#160;&#160;&#160;&#160;&#160;&#160;&#160;&#160;&#160;&#160;&#160;&#160;&#160;&#160;&#160;&#160;&#160;&#160;&#160;&#160;LastLoginDate &#160;&#160;&#160;&#160;&#160;&#160;&#160;&#160;&#160;&#160;&#160;&#160;&#160;&#160;&#160;&#160;&#160;&#160;&#160;&#160;&#160;&#160;&#160;&#160;&#160;&#160;&#160;&#160;&#160;&#160;&#160;&#160;&#160;&#160;&#160;&#160;&#160;&#160;</text>
<polygon fill="none" stroke="#99ccff" points="833.99,-57.3 833.99,-76.3 937.99,-76.3 937.99,-57.3 833.99,-57.3"/>
<text text-anchor="start" x="872.79" y="-63.4" font-family="Courier,monospace" font-size="11.00">date</text>
<polygon fill="none" stroke="#99ccff" points="148.99,-38.3 148.99,-57.3 833.99,-57.3 833.99,-38.3 148.99,-38.3"/>
<text text-anchor="start" x="151.99" y="-44.4" font-family="Courier,monospace" font-size="11.00"> &#160;&#160;&#160;&#160;&#160;&#160;&#160;&#160;&#160;&#160;&#160;&#160;&#160;&#160;&#160;&#160;&#160;&#160;&#160;&#160;&#160;&#160;&#160;&#160;&#160;&#160;&#160;&#160;&#160;&#160;&#160;&#160;&#160;&#160;&#160;&#160;&#160;&#160;&#160;&#160;DeletedBy &#160;&#160;&#160;&#160;&#160;&#160;&#160;&#160;&#160;&#160;&#160;&#160;&#160;&#160;&#160;&#160;&#160;&#160;&#160;&#160;&#160;&#160;&#160;&#160;&#160;&#160;&#160;&#160;&#160;&#160;&#160;&#160;&#160;&#160;&#160;&#160;&#160;&#160;</text>
<polygon fill="none" stroke="#99ccff" points="833.99,-38.3 833.99,-57.3 937.99,-57.3 937.99,-38.3 833.99,-38.3"/>
<text text-anchor="start" x="853" y="-44.4" font-family="Courier,monospace" font-size="11.00">string(15)</text>
<polygon fill="none" stroke="#99ccff" points="148.99,-19.3 148.99,-38.3 833.99,-38.3 833.99,-19.3 148.99,-19.3"/>
<text text-anchor="start" x="151.99" y="-25.4" font-family="Courier,monospace" font-size="11.00"> &#160;&#160;&#160;&#160;&#160;&#160;&#160;&#160;&#160;&#160;&#160;&#160;&#160;&#160;&#160;&#160;&#160;&#160;&#160;&#160;&#160;&#160;&#160;&#160;&#160;&#160;&#160;&#160;&#160;&#160;&#160;&#160;&#160;&#160;&#160;&#160;&#160;&#160;&#160;&#160;DeletedDate &#160;&#160;&#160;&#160;&#160;&#160;&#160;&#160;&#160;&#160;&#160;&#160;&#160;&#160;&#160;&#160;&#160;&#160;&#160;&#160;&#160;&#160;&#160;&#160;&#160;&#160;&#160;&#160;&#160;&#160;&#160;&#160;&#160;&#160;&#160;&#160;&#160;&#160;</text>
<polygon fill="none" stroke="#99ccff" points="833.99,-19.3 833.99,-38.3 937.99,-38.3 937.99,-19.3 833.99,-19.3"/>
<text text-anchor="start" x="872.79" y="-25.4" font-family="Courier,monospace" font-size="11.00">date</text>
<polygon fill="none" stroke="#99ccff" points="147.49,-18.8 147.49,-799.8 938.49,-799.8 938.49,-18.8 147.49,-18.8"/>
</a>
</g>
</g>
<!-- Group -->
<g id="node2" class="node">
<title>Group</title>
<text text-anchor="middle" x="27" y="-748" font-family="Courier,monospace" font-size="11.00">Group</text>
</g>
<!-- ScratchOrgInfo&#45;&gt;Group -->
<g id="edge1" class="edge">
<title>ScratchOrgInfo:w&#45;&gt;Group:e</title>
<path fill="none" stroke="#ff99cc" d="M133.35,-751.3C104.95,-751.3 74.92,-751.3 54.22,-751.3"/>
<polygon fill="#ff99cc" stroke="#ff99cc" points="139.99,-751.3 147.99,-754.9 143.99,-751.3 147.99,-751.3 147.99,-751.3 147.99,-751.3 143.99,-751.3 147.99,-747.7 139.99,-751.3 139.99,-751.3"/>
<ellipse fill="none" stroke="#ff99cc" cx="136.79" cy="-751.3" rx="3.2" ry="3.2"/>
<text text-anchor="middle" x="100.75" y="-754" font-family="Monaco" font-size="9.00">Owner</text>
</g>
<!-- User -->
<g id="node3" class="node">
<title>User</title>
<text text-anchor="middle" x="27" y="-686" font-family="Courier,monospace" font-size="11.00">User</text>
</g>
<!-- ScratchOrgInfo&#45;&gt;User -->
<g id="edge2" class="edge">
<title>ScratchOrgInfo:w&#45;&gt;User:e</title>
<path fill="none" stroke="#ff99cc" d="M138,-740.65C136.86,-735.15 135.93,-728.73 130.49,-724.5 108.07,-707.05 76.44,-697.94 54.27,-693.4"/>
<polygon fill="#ff99cc" stroke="#ff99cc" points="142.52,-745.46 145.36,-753.76 145.25,-748.38 147.99,-751.3 147.99,-751.3 147.99,-751.3 145.25,-748.38 150.62,-748.84 142.52,-745.46 142.52,-745.46"/>
<ellipse fill="none" stroke="#ff99cc" cx="140.33" cy="-743.13" rx="3.2" ry="3.2"/>
<text text-anchor="middle" x="100.75" y="-728" font-family="Monaco" font-size="9.00">Owner</text>
</g>
<!-- ScratchOrgInfo&#45;&gt;User -->
<g id="edge3" class="edge">
<title>ScratchOrgInfo:w&#45;&gt;User:e</title>
<path fill="none" stroke="#ff99cc" d="M133.27,-675.62C104.74,-676.8 74.75,-681.03 54.11,-684.48"/>
<polygon fill="#ff99cc" stroke="#ff99cc" points="139.99,-675.47 148.07,-678.9 143.99,-675.39 147.99,-675.3 147.99,-675.3 147.99,-675.3 143.99,-675.39 147.91,-671.7 139.99,-675.47 139.99,-675.47"/>
<ellipse fill="none" stroke="#ff99cc" cx="136.79" cy="-675.54" rx="3.2" ry="3.2"/>
<text text-anchor="middle" x="100.75" y="-685" font-family="Monaco" font-size="9.00">LastModifiedBy</text>
</g>
</g>
</svg>
