<svg width="1611.5000000000002" height="1013.1000000000001" xmlns="http://www.w3.org/2000/svg" xmlns:xlink="http://www.w3.org/1999/xlink"><line x1="162.25" y1="6.0" x2="126.75" y2="29.0" style="stroke:black; stroke-width:1px;" />
<line x1="126.75" y1="35.0" x2="66.5" y2="58.0" style="stroke:black; stroke-width:1px;" />
<line x1="66.5" y1="64.0" x2="66.5" y2="87.0" style="stroke:black; stroke-width:1px;" />
<line x1="126.75" y1="35.0" x2="187.0" y2="58.0" style="stroke:black; stroke-width:1px;" />
<line x1="187.0" y1="64.0" x2="114.5" y2="87.0" style="stroke:black; stroke-width:1px;" />
<line x1="187.0" y1="64.0" x2="178.5" y2="87.0" style="stroke:black; stroke-width:1px;" />
<line x1="187.0" y1="64.0" x2="259.5" y2="87.0" style="stroke:black; stroke-width:1px;" />
<line x1="259.5" y1="93.0" x2="189.0" y2="116.0" style="stroke:black; stroke-width:1px;" />
<line x1="259.5" y1="93.0" x2="259.5" y2="116.0" style="stroke:black; stroke-width:1px;" />
<line x1="259.5" y1="122.0" x2="109.25" y2="145.0" style="stroke:black; stroke-width:1px;" />
<line x1="109.25" y1="151.0" x2="109.25" y2="174.0" style="stroke:black; stroke-width:1px;" />
<line x1="109.25" y1="180.0" x2="109.25" y2="203.0" style="stroke:black; stroke-width:1px;" />
<line x1="259.5" y1="122.0" x2="249.25" y2="145.0" style="stroke:black; stroke-width:1px;" />
<line x1="249.25" y1="151.0" x2="249.25" y2="174.0" style="stroke:black; stroke-width:1px;" />
<line x1="249.25" y1="180.0" x2="249.25" y2="203.0" style="stroke:black; stroke-width:1px;" />
<line x1="259.5" y1="122.0" x2="409.75" y2="145.0" style="stroke:black; stroke-width:1px;" />
<line x1="409.75" y1="151.0" x2="409.75" y2="174.0" style="stroke:black; stroke-width:1px;" />
<line x1="409.75" y1="180.0" x2="283.25" y2="203.0" style="stroke:black; stroke-width:1px;" />
<line x1="409.75" y1="180.0" x2="343.75" y2="203.0" style="stroke:black; stroke-width:1px;" />
<line x1="409.75" y1="180.0" x2="442.25" y2="203.0" style="stroke:black; stroke-width:1px;" />
<line x1="442.25" y1="209.0" x2="434.75" y2="232.0" style="stroke:black; stroke-width:1px;" />
<line x1="442.25" y1="209.0" x2="449.75" y2="232.0" style="stroke:black; stroke-width:1px;" />
<line x1="409.75" y1="180.0" x2="536.25" y2="203.0" style="stroke:black; stroke-width:1px;" />
<line x1="536.25" y1="209.0" x2="536.25" y2="232.0" style="stroke:black; stroke-width:1px;" />
<line x1="536.25" y1="238.0" x2="166.1875" y2="261.0" style="stroke:black; stroke-width:1px;" />
<line x1="536.25" y1="238.0" x2="221.1875" y2="261.0" style="stroke:black; stroke-width:1px;" />
<line x1="221.1875" y1="267.0" x2="221.1875" y2="290.0" style="stroke:black; stroke-width:1px;" />
<line x1="221.1875" y1="296.0" x2="183.6875" y2="319.0" style="stroke:black; stroke-width:1px;" />
<line x1="183.6875" y1="325.0" x2="131.0625" y2="348.0" style="stroke:black; stroke-width:1px;" />
<line x1="131.0625" y1="354.0" x2="88.8125" y2="377.0" style="stroke:black; stroke-width:1px;" />
<line x1="88.8125" y1="383.0" x2="88.8125" y2="406.0" style="stroke:black; stroke-width:1px;" />
<line x1="131.0625" y1="354.0" x2="159.3125" y2="377.0" style="stroke:black; stroke-width:1px;" />
<line x1="131.0625" y1="354.0" x2="173.3125" y2="377.0" style="stroke:black; stroke-width:1px;" />
<line x1="183.6875" y1="325.0" x2="236.3125" y2="348.0" style="stroke:black; stroke-width:1px;" />
<line x1="236.3125" y1="354.0" x2="236.3125" y2="377.0" style="stroke:black; stroke-width:1px;" />
<line x1="236.3125" y1="383.0" x2="173.3125" y2="406.0" style="stroke:black; stroke-width:1px;" />
<line x1="173.3125" y1="412.0" x2="173.3125" y2="435.0" style="stroke:black; stroke-width:1px;" />
<line x1="236.3125" y1="383.0" x2="240.8125" y2="406.0" style="stroke:black; stroke-width:1px;" />
<line x1="236.3125" y1="383.0" x2="299.3125" y2="406.0" style="stroke:black; stroke-width:1px;" />
<line x1="299.3125" y1="412.0" x2="299.3125" y2="435.0" style="stroke:black; stroke-width:1px;" />
<line x1="299.3125" y1="441.0" x2="299.3125" y2="464.0" style="stroke:black; stroke-width:1px;" />
<line x1="299.3125" y1="470.0" x2="299.3125" y2="493.0" style="stroke:black; stroke-width:1px;" />
<line x1="221.1875" y1="296.0" x2="258.6875" y2="319.0" style="stroke:black; stroke-width:1px;" />
<line x1="536.25" y1="238.0" x2="588.5625" y2="261.0" style="stroke:black; stroke-width:1px;" />
<line x1="588.5625" y1="267.0" x2="588.5625" y2="290.0" style="stroke:black; stroke-width:1px;" />
<line x1="588.5625" y1="296.0" x2="448.0625" y2="319.0" style="stroke:black; stroke-width:1px;" />
<line x1="588.5625" y1="296.0" x2="467.5625" y2="319.0" style="stroke:black; stroke-width:1px;" />
<line x1="588.5625" y1="296.0" x2="509.0625" y2="319.0" style="stroke:black; stroke-width:1px;" />
<line x1="509.0625" y1="325.0" x2="509.0625" y2="348.0" style="stroke:black; stroke-width:1px;" />
<line x1="509.0625" y1="354.0" x2="412.8125" y2="377.0" style="stroke:black; stroke-width:1px;" />
<line x1="412.8125" y1="383.0" x2="412.8125" y2="406.0" style="stroke:black; stroke-width:1px;" />
<line x1="412.8125" y1="412.0" x2="412.8125" y2="435.0" style="stroke:black; stroke-width:1px;" />
<line x1="509.0625" y1="354.0" x2="495.3125" y2="377.0" style="stroke:black; stroke-width:1px;" />
<line x1="495.3125" y1="383.0" x2="495.3125" y2="406.0" style="stroke:black; stroke-width:1px;" />
<line x1="509.0625" y1="354.0" x2="561.3125" y2="377.0" style="stroke:black; stroke-width:1px;" />
<line x1="509.0625" y1="354.0" x2="605.3125" y2="377.0" style="stroke:black; stroke-width:1px;" />
<line x1="605.3125" y1="383.0" x2="605.3125" y2="406.0" style="stroke:black; stroke-width:1px;" />
<line x1="605.3125" y1="412.0" x2="605.3125" y2="435.0" style="stroke:black; stroke-width:1px;" />
<line x1="588.5625" y1="296.0" x2="619.0625" y2="319.0" style="stroke:black; stroke-width:1px;" />
<line x1="588.5625" y1="296.0" x2="729.0625" y2="319.0" style="stroke:black; stroke-width:1px;" />
<line x1="729.0625" y1="325.0" x2="729.0625" y2="348.0" style="stroke:black; stroke-width:1px;" />
<line x1="729.0625" y1="354.0" x2="674.0625" y2="377.0" style="stroke:black; stroke-width:1px;" />
<line x1="729.0625" y1="354.0" x2="729.0625" y2="377.0" style="stroke:black; stroke-width:1px;" />
<line x1="729.0625" y1="383.0" x2="729.0625" y2="406.0" style="stroke:black; stroke-width:1px;" />
<line x1="729.0625" y1="412.0" x2="694.8125" y2="435.0" style="stroke:black; stroke-width:1px;" />
<line x1="694.8125" y1="441.0" x2="694.8125" y2="464.0" style="stroke:black; stroke-width:1px;" />
<line x1="694.8125" y1="470.0" x2="643.0625" y2="493.0" style="stroke:black; stroke-width:1px;" />
<line x1="643.0625" y1="499.0" x2="601.0625" y2="522.0" style="stroke:black; stroke-width:1px;" />
<line x1="601.0625" y1="528.0" x2="601.0625" y2="551.0" style="stroke:black; stroke-width:1px;" />
<line x1="601.0625" y1="557.0" x2="601.0625" y2="580.0" style="stroke:black; stroke-width:1px;" />
<line x1="643.0625" y1="499.0" x2="645.0625" y2="522.0" style="stroke:black; stroke-width:1px;" />
<line x1="643.0625" y1="499.0" x2="685.0625" y2="522.0" style="stroke:black; stroke-width:1px;" />
<line x1="694.8125" y1="470.0" x2="694.8125" y2="493.0" style="stroke:black; stroke-width:1px;" />
<line x1="694.8125" y1="470.0" x2="746.5625" y2="493.0" style="stroke:black; stroke-width:1px;" />
<line x1="746.5625" y1="499.0" x2="746.5625" y2="522.0" style="stroke:black; stroke-width:1px;" />
<line x1="746.5625" y1="528.0" x2="746.5625" y2="551.0" style="stroke:black; stroke-width:1px;" />
<line x1="746.5625" y1="557.0" x2="746.5625" y2="580.0" style="stroke:black; stroke-width:1px;" />
<line x1="729.0625" y1="412.0" x2="763.3125" y2="435.0" style="stroke:black; stroke-width:1px;" />
<line x1="729.0625" y1="354.0" x2="784.0625" y2="377.0" style="stroke:black; stroke-width:1px;" />
<line x1="536.25" y1="238.0" x2="851.3125" y2="261.0" style="stroke:black; stroke-width:1px;" />
<line x1="851.3125" y1="267.0" x2="851.3125" y2="290.0" style="stroke:black; stroke-width:1px;" />
<line x1="851.3125" y1="296.0" x2="819.5625" y2="319.0" style="stroke:black; stroke-width:1px;" />
<line x1="819.5625" y1="325.0" x2="790.0625" y2="348.0" style="stroke:black; stroke-width:1px;" />
<line x1="819.5625" y1="325.0" x2="849.0625" y2="348.0" style="stroke:black; stroke-width:1px;" />
<line x1="849.0625" y1="354.0" x2="849.0625" y2="377.0" style="stroke:black; stroke-width:1px;" />
<line x1="849.0625" y1="383.0" x2="849.0625" y2="406.0" style="stroke:black; stroke-width:1px;" />
<line x1="851.3125" y1="296.0" x2="883.0625" y2="319.0" style="stroke:black; stroke-width:1px;" />
<line x1="536.25" y1="238.0" x2="906.3125" y2="261.0" style="stroke:black; stroke-width:1px;" />
<line x1="259.5" y1="93.0" x2="330.0" y2="116.0" style="stroke:black; stroke-width:1px;" />
<line x1="162.25" y1="6.0" x2="197.75" y2="29.0" style="stroke:black; stroke-width:1px;" />
<rect x="0.0" y="58.0" width="133.0" height="12.0" style="fill:lightblue; stroke:rgb(0,0,0);" rx="1"/>
<text x="2" y="67" style="font-family:sans-serif;font-size:10px;">
classOrInterfaceModifier:2
</text>
<rect x="439.8125" y="377.0" width="111.0" height="12.0" style="fill:lightblue; stroke:rgb(0,0,0);" rx="1"/>
<text x="441" y="386" style="font-family:sans-serif;font-size:10px;">
variableDeclaratorId:1
</text>
<rect x="580.8125" y="435.0" width="49.0" height="12.0" style="fill:lightblue; stroke:rgb(0,0,0);" rx="1"/>
<text x="582" y="444" style="font-family:sans-serif;font-size:10px;">
accounts
</text>
<rect x="132.1875" y="290.0" width="178.0" height="12.0" style="fill:lightblue; stroke:rgb(0,0,0);" rx="1"/>
<text x="134" y="299" style="font-family:sans-serif;font-size:10px;">
localVariableDeclarationStatement:1
</text>
<rect x="200.0" y="116.0" width="119.0" height="12.0" style="fill:lightblue; stroke:rgb(0,0,0);" rx="1"/>
<text x="202" y="125" style="font-family:sans-serif;font-size:10px;">
classBodyDeclaration:3
</text>
<rect x="352.8125" y="406.0" width="120.0" height="12.0" style="fill:lightblue; stroke:rgb(0,0,0);" rx="1"/>
<text x="354" y="415" style="font-family:sans-serif;font-size:10px;">
classOrInterfaceType:1
</text>
<rect x="392.25" y="203.0" width="100.0" height="12.0" style="fill:lightblue; stroke:rgb(0,0,0);" rx="1"/>
<text x="394" y="212" style="font-family:sans-serif;font-size:10px;">
formalParameters:1
</text>
<rect x="182.75" y="174.0" width="133.0" height="12.0" style="fill:lightblue; stroke:rgb(0,0,0);" rx="1"/>
<text x="184" y="183" style="font-family:sans-serif;font-size:10px;">
classOrInterfaceModifier:2
</text>
<rect x="463.5625" y="319.0" width="8.0" height="12.0" style="fill:lightblue; stroke:rgb(0,0,0);" rx="1"/>
<text x="465" y="328" style="font-family:sans-serif;font-size:10px;">
(
</text>
<rect x="759.8125" y="435.0" width="7.0" height="12.0" style="fill:lightblue; stroke:rgb(0,0,0);" rx="1"/>
<text x="761" y="444" style="font-family:sans-serif;font-size:10px;">
;
</text>
<rect x="902.3125" y="261.0" width="8.0" height="12.0" style="fill:lightblue; stroke:rgb(0,0,0);" rx="1"/>
<text x="904" y="270" style="font-family:sans-serif;font-size:10px;">
}
</text>
<rect x="119.25" y="0.0" width="86.0" height="12.0" style="fill:lightblue; stroke:rgb(0,0,0);" rx="1"/>
<text x="121" y="9" style="font-family:sans-serif;font-size:10px;">
compilationUnit:2
</text>
<rect x="824.5625" y="406.0" width="49.0" height="12.0" style="fill:lightblue; stroke:rgb(0,0,0);" rx="1"/>
<text x="826" y="415" style="font-family:sans-serif;font-size:10px;">
accounts
</text>
<rect x="83.75" y="145.0" width="51.0" height="12.0" style="fill:lightblue; stroke:rgb(0,0,0);" rx="1"/>
<text x="85" y="154" style="font-family:sans-serif;font-size:10px;">
modifier:1
</text>
<rect x="271.25" y="203.0" width="24.0" height="12.0" style="fill:lightblue; stroke:rgb(0,0,0);" rx="1"/>
<text x="273" y="212" style="font-family:sans-serif;font-size:10px;">
void
</text>
<rect x="780.0625" y="377.0" width="8.0" height="12.0" style="fill:lightblue; stroke:rgb(0,0,0);" rx="1"/>
<text x="782" y="386" style="font-family:sans-serif;font-size:10px;">
}
</text>
<rect x="641.5625" y="522.0" width="7.0" height="12.0" style="fill:lightblue; stroke:rgb(0,0,0);" rx="1"/>
<text x="643" y="531" style="font-family:sans-serif;font-size:10px;">
.
</text>
<rect x="355.75" y="145.0" width="108.0" height="12.0" style="fill:lightblue; stroke:rgb(0,0,0);" rx="1"/>
<text x="357" y="154" style="font-family:sans-serif;font-size:10px;">
memberDeclaration:1
</text>
<rect x="119.1875" y="319.0" width="129.0" height="12.0" style="fill:lightblue; stroke:rgb(0,0,0);" rx="1"/>
<text x="121" y="328" style="font-family:sans-serif;font-size:10px;">
localVariableDeclaration:1
</text>
<rect x="439.5625" y="319.0" width="17.0" height="12.0" style="fill:lightblue; stroke:rgb(0,0,0);" rx="1"/>
<text x="441" y="328" style="font-family:sans-serif;font-size:10px;">
for
</text>
<rect x="177.1875" y="261.0" width="88.0" height="12.0" style="fill:lightblue; stroke:rgb(0,0,0);" rx="1"/>
<text x="179" y="270" style="font-family:sans-serif;font-size:10px;">
blockStatement:1
</text>
<rect x="815.5625" y="348.0" width="67.0" height="12.0" style="fill:lightblue; stroke:rgb(0,0,0);" rx="1"/>
<text x="817" y="357" style="font-family:sans-serif;font-size:10px;">
expression:1
</text>
<rect x="713.0625" y="493.0" width="67.0" height="12.0" style="fill:lightblue; stroke:rgb(0,0,0);" rx="1"/>
<text x="715" y="502" style="font-family:sans-serif;font-size:10px;">
expression:1
</text>
<rect x="50.5" y="87.0" width="32.0" height="12.0" style="fill:lightblue; stroke:rgb(0,0,0);" rx="1"/>
<text x="52" y="96" style="font-family:sans-serif;font-size:10px;">
public
</text>
<rect x="235.8125" y="406.0" width="10.0" height="12.0" style="fill:lightblue; stroke:rgb(0,0,0);" rx="1"/>
<text x="237" y="415" style="font-family:sans-serif;font-size:10px;">
=
</text>
<rect x="557.8125" y="377.0" width="7.0" height="12.0" style="fill:lightblue; stroke:rgb(0,0,0);" rx="1"/>
<text x="559" y="386" style="font-family:sans-serif;font-size:10px;">
:
</text>
<rect x="326.0" y="116.0" width="8.0" height="12.0" style="fill:lightblue; stroke:rgb(0,0,0);" rx="1"/>
<text x="328" y="125" style="font-family:sans-serif;font-size:10px;">
}
</text>
<rect x="817.8125" y="290.0" width="67.0" height="12.0" style="fill:lightblue; stroke:rgb(0,0,0);" rx="1"/>
<text x="819" y="299" style="font-family:sans-serif;font-size:10px;">
statement:16
</text>
<rect x="117.8125" y="406.0" width="111.0" height="12.0" style="fill:lightblue; stroke:rgb(0,0,0);" rx="1"/>
<text x="119" y="415" style="font-family:sans-serif;font-size:10px;">
variableDeclaratorId:1
</text>
<rect x="615.0625" y="319.0" width="8.0" height="12.0" style="fill:lightblue; stroke:rgb(0,0,0);" rx="1"/>
<text x="617" y="328" style="font-family:sans-serif;font-size:10px;">
)
</text>
<rect x="698.5625" y="319.0" width="61.0" height="12.0" style="fill:lightblue; stroke:rgb(0,0,0);" rx="1"/>
<text x="700" y="328" style="font-family:sans-serif;font-size:10px;">
statement:1
</text>
<rect x="99.5" y="87.0" width="30.0" height="12.0" style="fill:lightblue; stroke:rgb(0,0,0);" rx="1"/>
<text x="101" y="96" style="font-family:sans-serif;font-size:10px;">
class
</text>
<rect x="771.5625" y="348.0" width="37.0" height="12.0" style="fill:lightblue; stroke:rgb(0,0,0);" rx="1"/>
<text x="773" y="357" style="font-family:sans-serif;font-size:10px;">
update
</text>
<rect x="499.25" y="203.0" width="74.0" height="12.0" style="fill:lightblue; stroke:rgb(0,0,0);" rx="1"/>
<text x="501" y="212" style="font-family:sans-serif;font-size:10px;">
methodBody:1
</text>
<rect x="111.0625" y="348.0" width="40.0" height="12.0" style="fill:lightblue; stroke:rgb(0,0,0);" rx="1"/>
<text x="113" y="357" style="font-family:sans-serif;font-size:10px;">
type_:1
</text>
<rect x="727.5625" y="551.0" width="38.0" height="12.0" style="fill:lightblue; stroke:rgb(0,0,0);" rx="1"/>
<text x="729" y="560" style="font-family:sans-serif;font-size:10px;">
literal:1
</text>
<rect x="482.8125" y="406.0" width="25.0" height="12.0" style="fill:lightblue; stroke:rgb(0,0,0);" rx="1"/>
<text x="484" y="415" style="font-family:sans-serif;font-size:10px;">
acct
</text>
<rect x="558.0625" y="290.0" width="61.0" height="12.0" style="fill:lightblue; stroke:rgb(0,0,0);" rx="1"/>
<text x="560" y="299" style="font-family:sans-serif;font-size:10px;">
statement:3
</text>
<rect x="689.8125" y="493.0" width="10.0" height="12.0" style="fill:lightblue; stroke:rgb(0,0,0);" rx="1"/>
<text x="691" y="502" style="font-family:sans-serif;font-size:10px;">
=
</text>
<rect x="879.5625" y="319.0" width="7.0" height="12.0" style="fill:lightblue; stroke:rgb(0,0,0);" rx="1"/>
<text x="881" y="328" style="font-family:sans-serif;font-size:10px;">
;
</text>
<rect x="609.5625" y="493.0" width="67.0" height="12.0" style="fill:lightblue; stroke:rgb(0,0,0);" rx="1"/>
<text x="611" y="502" style="font-family:sans-serif;font-size:10px;">
expression:4
</text>
<rect x="155.8125" y="377.0" width="7.0" height="12.0" style="fill:lightblue; stroke:rgb(0,0,0);" rx="1"/>
<text x="157" y="386" style="font-family:sans-serif;font-size:10px;">
[
</text>
<rect x="234.25" y="203.0" width="30.0" height="12.0" style="fill:lightblue; stroke:rgb(0,0,0);" rx="1"/>
<text x="236" y="212" style="font-family:sans-serif;font-size:10px;">
static
</text>
<rect x="302.25" y="203.0" width="83.0" height="12.0" style="fill:lightblue; stroke:rgb(0,0,0);" rx="1"/>
<text x="304" y="212" style="font-family:sans-serif;font-size:10px;">
updateAccounts
</text>
<rect x="685.0625" y="377.0" width="88.0" height="12.0" style="fill:lightblue; stroke:rgb(0,0,0);" rx="1"/>
<text x="687" y="386" style="font-family:sans-serif;font-size:10px;">
blockStatement:2
</text>
<rect x="580.3125" y="406.0" width="50.0" height="12.0" style="fill:lightblue; stroke:rgb(0,0,0);" rx="1"/>
<text x="582" y="415" style="font-family:sans-serif;font-size:10px;">
primary:5
</text>
<rect x="42.75" y="174.0" width="133.0" height="12.0" style="fill:lightblue; stroke:rgb(0,0,0);" rx="1"/>
<text x="44" y="183" style="font-family:sans-serif;font-size:10px;">
classOrInterfaceModifier:2
</text>
<rect x="136.5" y="87.0" width="84.0" height="12.0" style="fill:lightblue; stroke:rgb(0,0,0);" rx="1"/>
<text x="138" y="96" style="font-family:sans-serif;font-size:10px;">
AccountCleanup
</text>
<rect x="265.8125" y="435.0" width="67.0" height="12.0" style="fill:lightblue; stroke:rgb(0,0,0);" rx="1"/>
<text x="267" y="444" style="font-family:sans-serif;font-size:10px;">
expression:1
</text>
<rect x="655.5625" y="522.0" width="59.0" height="12.0" style="fill:lightblue; stroke:rgb(0,0,0);" rx="1"/>
<text x="657" y="531" style="font-family:sans-serif;font-size:10px;">
Description
</text>
<rect x="766.5625" y="319.0" width="106.0" height="12.0" style="fill:lightblue; stroke:rgb(0,0,0);" rx="1"/>
<text x="768" y="328" style="font-family:sans-serif;font-size:10px;">
apexDbExpression:1
</text>
<rect x="274.3125" y="464.0" width="50.0" height="12.0" style="fill:lightblue; stroke:rgb(0,0,0);" rx="1"/>
<text x="276" y="473" style="font-family:sans-serif;font-size:10px;">
primary:9
</text>
<rect x="695.5625" y="406.0" width="67.0" height="12.0" style="fill:lightblue; stroke:rgb(0,0,0);" rx="1"/>
<text x="697" y="415" style="font-family:sans-serif;font-size:10px;">
statement:14
</text>
<rect x="516.75" y="232.0" width="39.0" height="12.0" style="fill:lightblue; stroke:rgb(0,0,0);" rx="1"/>
<text x="518" y="241" style="font-family:sans-serif;font-size:10px;">
block:1
</text>
<rect x="140.0" y="58.0" width="94.0" height="12.0" style="fill:lightblue; stroke:rgb(0,0,0);" rx="1"/>
<text x="142" y="67" style="font-family:sans-serif;font-size:10px;">
classDeclaration:1
</text>
<rect x="390.8125" y="435.0" width="44.0" height="12.0" style="fill:lightblue; stroke:rgb(0,0,0);" rx="1"/>
<text x="392" y="444" style="font-family:sans-serif;font-size:10px;">
Account
</text>
<rect x="478.5625" y="319.0" width="61.0" height="12.0" style="fill:lightblue; stroke:rgb(0,0,0);" rx="1"/>
<text x="480" y="328" style="font-family:sans-serif;font-size:10px;">
forControl:1
</text>
<rect x="670.0625" y="377.0" width="8.0" height="12.0" style="fill:lightblue; stroke:rgb(0,0,0);" rx="1"/>
<text x="672" y="386" style="font-family:sans-serif;font-size:10px;">
{
</text>
<rect x="162.1875" y="261.0" width="8.0" height="12.0" style="fill:lightblue; stroke:rgb(0,0,0);" rx="1"/>
<text x="164" y="270" style="font-family:sans-serif;font-size:10px;">
{
</text>
<rect x="252.8125" y="406.0" width="93.0" height="12.0" style="fill:lightblue; stroke:rgb(0,0,0);" rx="1"/>
<text x="254" y="415" style="font-family:sans-serif;font-size:10px;">
variableInitializer:2
</text>
<rect x="255.1875" y="319.0" width="7.0" height="12.0" style="fill:lightblue; stroke:rgb(0,0,0);" rx="1"/>
<text x="257" y="328" style="font-family:sans-serif;font-size:10px;">
;
</text>
<rect x="223.75" y="145.0" width="51.0" height="12.0" style="fill:lightblue; stroke:rgb(0,0,0);" rx="1"/>
<text x="225" y="154" style="font-family:sans-serif;font-size:10px;">
modifier:1
</text>
<rect x="544.5625" y="261.0" width="88.0" height="12.0" style="fill:lightblue; stroke:rgb(0,0,0);" rx="1"/>
<text x="546" y="270" style="font-family:sans-serif;font-size:10px;">
blockStatement:2
</text>
<rect x="726.0625" y="580.0" width="41.0" height="12.0" style="fill:lightblue; stroke:rgb(0,0,0);" rx="1"/>
<text x="728" y="589" style="font-family:sans-serif;font-size:10px;">
'TODO'
</text>
<rect x="28.8125" y="377.0" width="120.0" height="12.0" style="fill:lightblue; stroke:rgb(0,0,0);" rx="1"/>
<text x="30" y="386" style="font-family:sans-serif;font-size:10px;">
classOrInterfaceType:1
</text>
<rect x="571.8125" y="377.0" width="67.0" height="12.0" style="fill:lightblue; stroke:rgb(0,0,0);" rx="1"/>
<text x="573" y="386" style="font-family:sans-serif;font-size:10px;">
expression:1
</text>
<rect x="567.5625" y="522.0" width="67.0" height="12.0" style="fill:lightblue; stroke:rgb(0,0,0);" rx="1"/>
<text x="569" y="531" style="font-family:sans-serif;font-size:10px;">
expression:1
</text>
<rect x="182.3125" y="348.0" width="108.0" height="12.0" style="fill:lightblue; stroke:rgb(0,0,0);" rx="1"/>
<text x="184" y="357" style="font-family:sans-serif;font-size:10px;">
variableDeclarators:1
</text>
<rect x="106.3125" y="493.0" width="386.0" height="12.0" style="fill:lightblue; stroke:rgb(0,0,0);" rx="1"/>
<text x="108" y="502" style="font-family:sans-serif;font-size:10px;">
[SELECT·Id,·Description·FROM·Account·WHERE·Id·='0018W000024fLoaQAE']
</text>
<rect x="452.5625" y="348.0" width="113.0" height="12.0" style="fill:lightblue; stroke:rgb(0,0,0);" rx="1"/>
<text x="454" y="357" style="font-family:sans-serif;font-size:10px;">
enhancedForControl:1
</text>
<rect x="807.3125" y="261.0" width="88.0" height="12.0" style="fill:lightblue; stroke:rgb(0,0,0);" rx="1"/>
<text x="809" y="270" style="font-family:sans-serif;font-size:10px;">
blockStatement:2
</text>
<rect x="709.5625" y="348.0" width="39.0" height="12.0" style="fill:lightblue; stroke:rgb(0,0,0);" rx="1"/>
<text x="711" y="357" style="font-family:sans-serif;font-size:10px;">
block:1
</text>
<rect x="824.0625" y="377.0" width="50.0" height="12.0" style="fill:lightblue; stroke:rgb(0,0,0);" rx="1"/>
<text x="826" y="386" style="font-family:sans-serif;font-size:10px;">
primary:5
</text>
<rect x="227.5" y="87.0" width="64.0" height="12.0" style="fill:lightblue; stroke:rgb(0,0,0);" rx="1"/>
<text x="229" y="96" style="font-family:sans-serif;font-size:10px;">
classBody:1
</text>
<rect x="721.5625" y="522.0" width="50.0" height="12.0" style="fill:lightblue; stroke:rgb(0,0,0);" rx="1"/>
<text x="723" y="531" style="font-family:sans-serif;font-size:10px;">
primary:4
</text>
<rect x="185.3125" y="377.0" width="102.0" height="12.0" style="fill:lightblue; stroke:rgb(0,0,0);" rx="1"/>
<text x="187" y="386" style="font-family:sans-serif;font-size:10px;">
variableDeclarator:1
</text>
<rect x="178.25" y="29.0" width="39.0" height="12.0" style="fill:lightblue; stroke:rgb(0,0,0);" rx="1"/>
<text x="180" y="38" style="font-family:sans-serif;font-size:10px;">
&lt;EOF&gt;
</text>
<rect x="636.8125" y="435.0" width="116.0" height="12.0" style="fill:lightblue; stroke:rgb(0,0,0);" rx="1"/>
<text x="638" y="444" style="font-family:sans-serif;font-size:10px;">
statementExpression:1
</text>
<rect x="588.5625" y="580.0" width="25.0" height="12.0" style="fill:lightblue; stroke:rgb(0,0,0);" rx="1"/>
<text x="590" y="589" style="font-family:sans-serif;font-size:10px;">
acct
</text>
<rect x="148.8125" y="435.0" width="49.0" height="12.0" style="fill:lightblue; stroke:rgb(0,0,0);" rx="1"/>
<text x="150" y="444" style="font-family:sans-serif;font-size:10px;">
accounts
</text>
<rect x="392.8125" y="377.0" width="40.0" height="12.0" style="fill:lightblue; stroke:rgb(0,0,0);" rx="1"/>
<text x="394" y="386" style="font-family:sans-serif;font-size:10px;">
type_:1
</text>
<rect x="169.8125" y="377.0" width="7.0" height="12.0" style="fill:lightblue; stroke:rgb(0,0,0);" rx="1"/>
<text x="171" y="386" style="font-family:sans-serif;font-size:10px;">
]
</text>
<rect x="82.25" y="29.0" width="89.0" height="12.0" style="fill:lightblue; stroke:rgb(0,0,0);" rx="1"/>
<text x="84" y="38" style="font-family:sans-serif;font-size:10px;">
typeDeclaration:1
</text>
<rect x="445.75" y="232.0" width="8.0" height="12.0" style="fill:lightblue; stroke:rgb(0,0,0);" rx="1"/>
<text x="447" y="241" style="font-family:sans-serif;font-size:10px;">
)
</text>
<rect x="658.3125" y="464.0" width="73.0" height="12.0" style="fill:lightblue; stroke:rgb(0,0,0);" rx="1"/>
<text x="660" y="473" style="font-family:sans-serif;font-size:10px;">
expression:29
</text>
<rect x="185.0" y="116.0" width="8.0" height="12.0" style="fill:lightblue; stroke:rgb(0,0,0);" rx="1"/>
<text x="187" y="125" style="font-family:sans-serif;font-size:10px;">
{
</text>
<rect x="430.75" y="232.0" width="8.0" height="12.0" style="fill:lightblue; stroke:rgb(0,0,0);" rx="1"/>
<text x="432" y="241" style="font-family:sans-serif;font-size:10px;">
(
</text>
<rect x="576.0625" y="551.0" width="50.0" height="12.0" style="fill:lightblue; stroke:rgb(0,0,0);" rx="1"/>
<text x="578" y="560" style="font-family:sans-serif;font-size:10px;">
primary:5
</text>
<rect x="93.25" y="203.0" width="32.0" height="12.0" style="fill:lightblue; stroke:rgb(0,0,0);" rx="1"/>
<text x="95" y="212" style="font-family:sans-serif;font-size:10px;">
public
</text>
<rect x="357.75" y="174.0" width="104.0" height="12.0" style="fill:lightblue; stroke:rgb(0,0,0);" rx="1"/>
<text x="359" y="183" style="font-family:sans-serif;font-size:10px;">
methodDeclaration:2
</text>
<rect x="66.8125" y="406.0" width="44.0" height="12.0" style="fill:lightblue; stroke:rgb(0,0,0);" rx="1"/>
<text x="68" y="415" style="font-family:sans-serif;font-size:10px;">
Account
</text>
</svg>
