<?xml version="1.0" encoding="UTF-8" standalone="no"?>
<!DOCTYPE svg PUBLIC "-//W3C//DTD SVG 1.1//EN"
 "http://www.w3.org/Graphics/SVG/1.1/DTD/svg11.dtd">
<!-- Generated by graphviz version 2.40.1 (20161225.0304)
 -->
<!-- Title: git_basics Pages: 1 -->
<svg width="837pt" height="262pt"
 viewBox="0.00 0.00 836.94 262.00" xmlns="http://www.w3.org/2000/svg" xmlns:xlink="http://www.w3.org/1999/xlink">
<g id="graph0" class="graph" transform="scale(1 1) rotate(0) translate(4 258)">
<title>git_basics</title>
<polygon fill="#ffffff" stroke="transparent" points="-4,4 -4,-258 832.9354,-258 832.9354,4 -4,4"/>
<text text-anchor="middle" x="414.4677" y="-232" font-family="Helvetica,Arial,sans-serif" font-size="20.00" fill="#000000">GIT</text>
<!-- changes -->
<g id="node1" class="node">
<title>changes</title>
<g id="a_node1"><a xlink:href="https://git-scm.com/docs/git-status" xlink:title="&lt;TABLE&gt;">
<polygon fill="#ffaaaa" stroke="transparent" points="132,-198 0,-198 0,-96 132,-96 132,-198"/>
<polygon fill="none" stroke="#aabbcc" points="2,-158 2,-196 130,-196 130,-158 2,-158"/>
<text text-anchor="start" x="20.4867" y="-179.4" font-family="Helvetica,Arial,sans-serif" font-size="14.00" fill="#000000"> </text>
<text text-anchor="start" x="24.3773" y="-179.4" font-family="Helvetica,Arial,sans-serif" font-weight="bold" font-size="14.00" fill="#000000">View changes</text>
<text text-anchor="start" x="6.8773" y="-165.4" font-family="Helvetica,Arial,sans-serif" font-size="14.00" fill="#000000">in the working tree </text>
<polygon fill="none" stroke="#aabbcc" points="2,-98 2,-158 130,-158 130,-98 2,-98"/>
<text text-anchor="start" x="28.2651" y="-123.6" font-family="Helvetica,Arial,sans-serif" font-size="14.00" fill="#000000"> &#160;&#160;git status &#160;</text>
<text text-anchor="start" x="45.3843" y="-106.8" font-family="Helvetica,Arial,sans-serif" font-size="14.00" fill="#000000"> git diff</text>
<polygon fill="none" stroke="#aabbcc" stroke-width="2" points="1,-97 1,-197 131,-197 131,-97 1,-97"/>
</a>
</g>
</g>
<!-- staging -->
<g id="node2" class="node">
<title>staging</title>
<polygon fill="#99ccff" stroke="transparent" points="406.1458,-178 300.1458,-178 300.1458,-98 406.1458,-98 406.1458,-178"/>
<polygon fill="none" stroke="#aabbcc" points="302.1458,-138 302.1458,-176 404.1458,-176 404.1458,-138 302.1458,-138"/>
<text text-anchor="start" x="312.6872" y="-159.4" font-family="Helvetica,Arial,sans-serif" font-size="14.00" fill="#000000"> </text>
<text text-anchor="start" x="316.5778" y="-159.4" font-family="Helvetica,Arial,sans-serif" font-weight="bold" font-size="14.00" fill="#000000">staging area</text>
<text text-anchor="start" x="309.1935" y="-145.4" font-family="Helvetica,Arial,sans-serif" font-size="14.00" fill="#000000">(cache, index)</text>
<polygon fill="none" stroke="#aabbcc" points="302.1458,-100 302.1458,-138 404.1458,-138 404.1458,-100 302.1458,-100"/>
<text text-anchor="start" x="307.1458" y="-121.4" font-family="Helvetica,Arial,sans-serif" font-style="italic" font-size="14.00" fill="#000000">To view: </text>
<text text-anchor="start" x="307.1458" y="-107.4" font-family="Helvetica,Arial,sans-serif" font-size="14.00" fill="#000000">git diff &#45;&#45;staged</text>
<polygon fill="none" stroke="#aabbcc" stroke-width="2" points="301.1458,-99 301.1458,-177 405.1458,-177 405.1458,-99 301.1458,-99"/>
</g>
<!-- changes&#45;&gt;staging -->
<g id="edge8" class="edge">
<title>changes&#45;&gt;staging</title>
<path fill="none" stroke="#880000" stroke-width="4" stroke-opacity="0.533333" d="M132.2376,-144.9239C181.2975,-143.3862 247.5294,-141.3103 294.6441,-139.8336"/>
<polygon fill="#880000" fill-opacity="0.533333" stroke="#880000" stroke-width="4" stroke-opacity="0.533333" points="294.7737,-141.5805 299.7163,-139.6746 294.6639,-138.0822 294.7737,-141.5805"/>
<text text-anchor="middle" x="216.0729" y="-164" font-family="Helvetica,Arial,sans-serif" font-size="14.00" fill="#000000">git add ... &#160;&#160;&#160;</text>
<text text-anchor="middle" x="216.0729" y="-147.2" font-family="Helvetica,Arial,sans-serif" font-size="14.00" fill="#000000">git reset &#160;&#160;&#160;&#160;&#160;</text>
</g>
<!-- stash -->
<g id="node4" class="node">
<title>stash</title>
<g id="a_node4"><a xlink:href="https://git-scm.com/docs/git-stash" xlink:title="&lt;TABLE&gt;">
<polygon fill="#0044ff" fill-opacity="0.133333" stroke="transparent" points="257.5729,-90 174.5729,-90 174.5729,-26 257.5729,-26 257.5729,-90"/>
<polygon fill="none" stroke="#aabbcc" points="175.0729,-64 175.0729,-90 258.0729,-90 258.0729,-64 175.0729,-64"/>
<text text-anchor="start" x="197.8997" y="-73.4" font-family="Helvetica,Arial,sans-serif" font-size="14.00" fill="#000000"> </text>
<text text-anchor="start" x="201.7903" y="-73.4" font-family="Helvetica,Arial,sans-serif" font-weight="bold" font-size="14.00" fill="#000000">stash</text>
<polygon fill="none" stroke="#aabbcc" points="175.0729,-26 175.0729,-64 258.0729,-64 258.0729,-26 175.0729,-26"/>
<text text-anchor="start" x="180.0729" y="-47.4" font-family="Helvetica,Arial,sans-serif" font-style="italic" font-size="14.00" fill="#000000">To view:</text>
<text text-anchor="start" x="180.0729" y="-33.4" font-family="Helvetica,Arial,sans-serif" font-size="14.00" fill="#000000">git stash list</text>
</a>
</g>
</g>
<!-- changes&#45;&gt;stash -->
<g id="edge4" class="edge">
<title>changes&#45;&gt;stash</title>
<path fill="none" stroke="#000000" stroke-width="4" stroke-opacity="0.533333" d="M136.6263,-105.1154C149.5246,-97.4661 162.5973,-89.7134 174.3128,-82.7656"/>
<polygon fill="#000000" fill-opacity="0.533333" stroke="#000000" stroke-width="4" stroke-opacity="0.533333" points="135.6689,-103.6485 132.261,-107.7042 137.4543,-106.6589 135.6689,-103.6485"/>
<text text-anchor="middle" x="192.9104" y="-95.2698" font-family="Helvetica,Arial,sans-serif" font-size="14.00" fill="#000000">git stash pop</text>
</g>
<!-- stash_push -->
<g id="node5" class="node">
<title>stash_push</title>
<g id="a_node5"><a xlink:href="https://git-scm.com/docs/git-stash" xlink:title="git stash [push]">
<text text-anchor="middle" x="216.0729" y="-111.8" font-family="Helvetica,Arial,sans-serif" font-size="14.00" fill="#000000">git stash [push]</text>
</a>
</g>
</g>
<!-- changes&#45;&gt;stash_push -->
<g id="edge2" class="edge">
<title>changes&#45;&gt;stash_push</title>
<path fill="none" stroke="#000088" stroke-width="4" stroke-opacity="0.266667" d="M132.261,-133.3127C147.0228,-130.2634 162.244,-127.1192 175.597,-124.361"/>
</g>
<!-- discard -->
<g id="node8" class="node">
<title>discard</title>
<text text-anchor="middle" x="66" y="-37.8" font-family="Helvetica,Arial,sans-serif" font-size="14.00" fill="#000000">discard</text>
</g>
<!-- changes&#45;&gt;discard -->
<g id="edge9" class="edge">
<title>changes&#45;&gt;discard</title>
<path fill="none" stroke="#880000" stroke-width="4" stroke-opacity="0.533333" d="M66,-95.9898C66,-85.2925 66,-74.5127 66,-65.4287"/>
<polygon fill="#880000" fill-opacity="0.533333" stroke="#880000" stroke-width="4" stroke-opacity="0.533333" points="67.7501,-65.2896 66,-60.2896 64.2501,-65.2896 67.7501,-65.2896"/>
<text text-anchor="middle" x="54.6" y="-73.8" font-family="Helvetica,Arial,sans-serif" font-size="14.00" fill="#000000">git restore ...</text>
</g>
<!-- HEAD -->
<g id="node3" class="node">
<title>HEAD</title>
<polygon fill="#99ffcc" stroke="transparent" points="634.9172,-152 505.9172,-152 505.9172,0 634.9172,0 634.9172,-152"/>
<polyline fill="none" stroke="#aabbcc" points="633.4172,-126 633.4172,-150 508.4172,-150 508.4172,-126 "/>
<text text-anchor="start" x="541.7468" y="-134.4" font-family="Helvetica,Arial,sans-serif" font-size="14.00" fill="#000000"> </text>
<text text-anchor="start" x="545.6374" y="-134.4" font-family="Helvetica,Arial,sans-serif" font-weight="bold" font-size="14.00" fill="#000000">HEAD </text>
<text text-anchor="start" x="588.4144" y="-134.4" font-family="Helvetica,Arial,sans-serif" font-size="14.00" fill="#000000">of</text>
<polyline fill="none" stroke="#aabbcc" points="508.4172,-126 508.4172,-102 633.4172,-102 633.4172,-126 "/>
<text text-anchor="start" x="512.1781" y="-109.4" font-family="Helvetica,Arial,sans-serif" font-size="14.00" fill="#000000"> the current branch</text>
<polygon fill="none" stroke="#aabbcc" points="508.4172,-52 508.4172,-102 633.4172,-102 633.4172,-52 508.4172,-52"/>
<text text-anchor="start" x="512.4172" y="-86.4" font-family="Helvetica,Arial,sans-serif" font-weight="bold" font-size="14.00" fill="#000000">To view:</text>
<text text-anchor="start" x="512.4172" y="-72.4" font-family="Helvetica,Arial,sans-serif" font-size="14.00" fill="#000000">git show</text>
<text text-anchor="start" x="512.4172" y="-58.4" font-family="Helvetica,Arial,sans-serif" font-size="14.00" fill="#000000">git log</text>
<polygon fill="none" stroke="#aabbcc" points="508.4172,-2 508.4172,-52 633.4172,-52 633.4172,-2 508.4172,-2"/>
<text text-anchor="start" x="512.4172" y="-36.4" font-family="Helvetica,Arial,sans-serif" font-style="italic" font-size="14.00" fill="#000000">To change branch:</text>
<text text-anchor="start" x="512.4172" y="-22.4" font-family="Helvetica,Arial,sans-serif" font-size="14.00" fill="#000000">git switch ...</text>
<text text-anchor="start" x="512.4172" y="-8.4" font-family="Helvetica,Arial,sans-serif" font-size="14.00" fill="#000000">git checkout ...</text>
<polygon fill="none" stroke="#aabbcc" stroke-width="2" points="506.9172,-1 506.9172,-151 633.9172,-151 633.9172,-1 506.9172,-1"/>
</g>
<!-- staging&#45;&gt;HEAD -->
<g id="edge1" class="edge">
<title>staging&#45;&gt;HEAD:push</title>
<path fill="none" stroke="#880000" stroke-width="4" stroke-opacity="0.533333" d="M406.3244,-138C434.7841,-138 470.5985,-138 503.212,-138"/>
<polygon fill="#880000" fill-opacity="0.533333" stroke="#880000" stroke-width="4" stroke-opacity="0.533333" points="503.4172,-139.7501 508.4172,-138 503.4172,-136.2501 503.4172,-139.7501"/>
<text text-anchor="middle" x="456.0315" y="-142.2" font-family="Helvetica,Arial,sans-serif" font-size="14.00" fill="#000000">git commit</text>
</g>
<!-- remote -->
<g id="node6" class="node">
<title>remote</title>
<polygon fill="#ff99cc" stroke="#cc99ff" points="827.6769,-167 721.1939,-167 721.1939,-131 827.6769,-131 827.6769,-167"/>
<text text-anchor="middle" x="774.4354" y="-144.8" font-family="Helvetica,Arial,sans-serif" font-size="14.00" fill="#000000">remote branch</text>
</g>
<!-- HEAD&#45;&gt;remote -->
<g id="edge6" class="edge">
<title>HEAD:push&#45;&gt;remote</title>
<path fill="none" stroke="#880000" stroke-width="4" stroke-opacity="0.533333" d="M633.4172,-138C660.6982,-138 690.8581,-140.0715 716.2608,-142.4167"/>
<polygon fill="#880000" fill-opacity="0.533333" stroke="#880000" stroke-width="4" stroke-opacity="0.533333" points="716.1336,-144.1624 721.2757,-142.8888 716.4617,-140.6778 716.1336,-144.1624"/>
<text text-anchor="middle" x="677.4263" y="-144.2" font-family="Helvetica,Arial,sans-serif" font-size="14.00" fill="#000000">git push</text>
</g>
<!-- HEAD&#45;&gt;remote -->
<g id="edge7" class="edge">
<title>HEAD:pull&#45;&gt;remote</title>
<path fill="none" stroke="#004400" stroke-width="4" stroke-opacity="0.533333" d="M638.5568,-113.9643C664.9546,-113.5972 673.9918,-110.6569 701.9354,-117.2 714.9163,-120.2395 728.4689,-125.5412 740.2964,-130.9543"/>
<polygon fill="#004400" fill-opacity="0.533333" stroke="#004400" stroke-width="4" stroke-opacity="0.533333" points="638.4049,-112.2152 633.4172,-114 638.4293,-115.7151 638.4049,-112.2152"/>
<text text-anchor="middle" x="677.4263" y="-121.2" font-family="Helvetica,Arial,sans-serif" font-size="14.00" fill="#000000">git pull</text>
</g>
<!-- branches -->
<g id="node7" class="node">
<title>branches</title>
<polygon fill="#99ccff" stroke="transparent" points="828.9354,-109 719.9354,-109 719.9354,-45 828.9354,-45 828.9354,-109"/>
<polygon fill="none" stroke="#aabbcc" points="720.4354,-83 720.4354,-109 829.4354,-109 829.4354,-83 720.4354,-83"/>
<text text-anchor="start" x="725.9235" y="-92.4" font-family="Helvetica,Arial,sans-serif" font-size="14.00" fill="#000000"> </text>
<text text-anchor="start" x="729.8141" y="-92.4" font-family="Helvetica,Arial,sans-serif" font-weight="bold" font-size="14.00" fill="#000000">local branches</text>
<text text-anchor="start" x="820.0567" y="-92.4" font-family="Helvetica,Arial,sans-serif" font-size="14.00" fill="#000000"> </text>
<polygon fill="none" stroke="#aabbcc" points="720.4354,-45 720.4354,-83 829.4354,-83 829.4354,-45 720.4354,-45"/>
<text text-anchor="start" x="725.4354" y="-66.4" font-family="Helvetica,Arial,sans-serif" font-style="italic" font-size="14.00" fill="#000000">To view:</text>
<text text-anchor="start" x="725.4354" y="-52.4" font-family="Helvetica,Arial,sans-serif" font-size="14.00" fill="#000000">git branch [&#45;&#45;list]</text>
</g>
<!-- HEAD&#45;&gt;branches -->
<g id="edge10" class="edge">
<title>HEAD:switch&#45;&gt;branches</title>
<path fill="none" stroke="#000000" stroke-width="2" stroke-opacity="0.533333" d="M638.4625,-77C665.6425,-77 695.2383,-77 719.8575,-77"/>
<polygon fill="#000000" fill-opacity="0.533333" stroke="#000000" stroke-width="2" stroke-opacity="0.533333" points="638.4172,-75.2501 633.4172,-77 638.4172,-78.7501 638.4172,-75.2501"/>
</g>
<!-- stash_push&#45;&gt;staging -->
<g id="edge3" class="edge">
<title>stash_push&#45;&gt;staging</title>
<path fill="none" stroke="#000088" stroke-width="4" stroke-opacity="0.266667" d="M263.2456,-123.5712C275.0168,-125.4604 287.7222,-127.4996 299.7696,-129.4332"/>
</g>
<!-- stash_push&#45;&gt;stash -->
<g id="edge5" class="edge">
<title>stash_push&#45;&gt;stash</title>
<path fill="none" stroke="#ff99cc" stroke-width="4" d="M216.0729,-107.5251C216.0729,-103.458 216.0729,-99.3908 216.0729,-95.3236"/>
<polygon fill="#ff99cc" stroke="#ff99cc" stroke-width="4" points="217.823,-95.1718 216.0729,-90.1719 214.323,-95.1719 217.823,-95.1718"/>
</g>
</g>
</svg>
