<?xml version="1.0" encoding="UTF-8" standalone="no"?>
<!DOCTYPE svg PUBLIC "-//W3C//DTD SVG 1.1//EN"
 "http://www.w3.org/Graphics/SVG/1.1/DTD/svg11.dtd">
<!-- Generated by graphviz version 9.0.0 (20230911.1827)
 -->
<!-- Title: SalesforceRelationships Pages: 1 -->
<svg width="774pt" height="210pt"
 viewBox="0.00 0.00 774.25 209.50" xmlns="http://www.w3.org/2000/svg" xmlns:xlink="http://www.w3.org/1999/xlink">
<g id="graph0" class="graph" transform="scale(1 1) rotate(0) translate(4 205.5)">
<title>SalesforceRelationships</title>
<polygon fill="#efeffd" stroke="none" points="-4,4 -4,-205.5 770.25,-205.5 770.25,4 -4,4"/>
<text text-anchor="middle" x="697.88" y="-5.95" font-family="Courier,monospace" font-size="9.00">Salesforce ERD &#45; Kalam </text>
<!-- Profile -->
<g id="node1" class="node">
<title>Profile</title>
<polygon fill="none" stroke="#99ccff" points="766.25,-127.75 585.25,-127.75 585.25,-91.25 766.25,-91.25 766.25,-127.75"/>
<text text-anchor="middle" x="675.75" y="-112.35" font-family="Courier,monospace" font-size="12.00">Profile</text>
<text text-anchor="middle" x="675.75" y="-98.1" font-family="Courier,monospace" font-size="12.00">(System Administrator)</text>
</g>
<!-- User: (mohan chinnappan) -->
<g id="node2" class="node">
<title>User: (mohan chinnappan)</title>
<polygon fill="none" stroke="#99ccff" points="510.75,-127.5 314.75,-127.5 314.75,-91.5 510.75,-91.5 510.75,-127.5"/>
<text text-anchor="middle" x="412.75" y="-105.22" font-family="Courier,monospace" font-size="12.00">User: (mohan chinnappan)</text>
</g>
<!-- Profile&#45;&gt;User: (mohan chinnappan) -->
<g id="edge1" class="edge">
<title>Profile&#45;&gt;User: (mohan chinnappan)</title>
<path fill="none" stroke="black" d="M575.6,-109.5C554.39,-109.5 532,-109.5 510.87,-109.5"/>
<polygon fill="black" stroke="black" points="575.42,-112.3 583.42,-109.5 575.42,-106.7 575.42,-112.3"/>
<text text-anchor="middle" x="548" y="-112.7" font-family="Times,serif" font-size="14.00"> Profile</text>
</g>
<!-- X00ex00000018ozh_128_09_04_12_1 -->
<g id="node3" class="node">
<title>X00ex00000018ozh_128_09_04_12_1</title>
<polygon fill="none" stroke="#99ccff" points="248.5,-201.5 0,-201.5 0,-165.5 248.5,-165.5 248.5,-201.5"/>
<text text-anchor="middle" x="124.25" y="-179.22" font-family="Courier,monospace" font-size="12.00">X00ex00000018ozh_128_09_04_12_1</text>
</g>
<!-- User: (mohan chinnappan)&#45;&gt;X00ex00000018ozh_128_09_04_12_1 -->
<g id="edge2" class="edge">
<title>User: (mohan chinnappan)&#45;&gt;X00ex00000018ozh_128_09_04_12_1</title>
<path fill="none" stroke="black" d="M347.94,-130.74C317.96,-140.29 281.61,-151.23 248.5,-159.5 240.89,-161.4 232.98,-163.24 225,-165"/>
<polygon fill="black" stroke="black" points="348.41,-133.53 355.18,-128.43 346.7,-128.2 348.41,-133.53"/>
<text text-anchor="middle" x="281.62" y="-157.7" font-family="Times,serif" font-size="14.00"> &#160;PS</text>
</g>
<!-- Experience_Profile_Manager -->
<g id="node4" class="node">
<title>Experience_Profile_Manager</title>
<polygon fill="none" stroke="#99ccff" points="229.75,-152.5 18.75,-152.5 18.75,-116.5 229.75,-116.5 229.75,-152.5"/>
<text text-anchor="middle" x="124.25" y="-130.22" font-family="Courier,monospace" font-size="12.00">Experience_Profile_Manager</text>
</g>
<!-- User: (mohan chinnappan)&#45;&gt;Experience_Profile_Manager -->
<g id="edge3" class="edge">
<title>User: (mohan chinnappan)&#45;&gt;Experience_Profile_Manager</title>
<path fill="none" stroke="black" d="M305.06,-118.81C280.6,-120.94 254.61,-123.21 230.22,-125.34"/>
<polygon fill="black" stroke="black" points="305.12,-121.62 312.85,-118.13 304.63,-116.04 305.12,-121.62"/>
<text text-anchor="middle" x="281.62" y="-124.7" font-family="Times,serif" font-size="14.00"> &#160;PS</text>
</g>
<!-- SubscriptionManagementSalesRep -->
<g id="node5" class="node">
<title>SubscriptionManagementSalesRep</title>
<polygon fill="none" stroke="#99ccff" points="244.75,-103.5 3.75,-103.5 3.75,-67.5 244.75,-67.5 244.75,-103.5"/>
<text text-anchor="middle" x="124.25" y="-81.22" font-family="Courier,monospace" font-size="12.00">SubscriptionManagementSalesRep</text>
</g>
<!-- User: (mohan chinnappan)&#45;&gt;SubscriptionManagementSalesRep -->
<g id="edge4" class="edge">
<title>User: (mohan chinnappan)&#45;&gt;SubscriptionManagementSalesRep</title>
<path fill="none" stroke="black" d="M304.89,-100.55C285.43,-98.92 265.02,-97.21 245.22,-95.55"/>
<polygon fill="black" stroke="black" points="304.64,-103.34 312.85,-101.21 305.11,-97.76 304.64,-103.34"/>
<text text-anchor="middle" x="281.62" y="-102.7" font-family="Times,serif" font-size="14.00"> &#160;PSG</text>
</g>
<!-- Service_App_Access -->
<g id="node6" class="node">
<title>Service_App_Access</title>
<polygon fill="none" stroke="#99ccff" points="199.75,-54.5 48.75,-54.5 48.75,-18.5 199.75,-18.5 199.75,-54.5"/>
<text text-anchor="middle" x="124.25" y="-32.23" font-family="Courier,monospace" font-size="12.00">Service_App_Access</text>
</g>
<!-- User: (mohan chinnappan)&#45;&gt;Service_App_Access -->
<g id="edge5" class="edge">
<title>User: (mohan chinnappan)&#45;&gt;Service_App_Access</title>
<path fill="none" stroke="black" d="M346.45,-88.28C316.75,-79.05 281.04,-68.53 248.5,-60.5 232.94,-56.66 216.16,-53.05 200.14,-49.85"/>
<polygon fill="black" stroke="black" points="345.55,-90.93 354.02,-90.65 347.22,-85.59 345.55,-90.93"/>
<text text-anchor="middle" x="281.62" y="-75.7" font-family="Times,serif" font-size="14.00"> &#160;PS</text>
</g>
</g>
</svg>
