<?xml version="1.0" encoding="UTF-8" standalone="no"?>
<!DOCTYPE svg PUBLIC "-//W3C//DTD SVG 1.1//EN"
 "http://www.w3.org/Graphics/SVG/1.1/DTD/svg11.dtd">
<!-- Generated by graphviz version 2.44.0 (20200518.1210)
 -->
<!-- Title: RH Pages: 1 -->
<svg width="992pt" height="645pt"
 viewBox="0.00 0.00 991.75 644.80" xmlns="http://www.w3.org/2000/svg" xmlns:xlink="http://www.w3.org/1999/xlink">
<g id="graph0" class="graph" transform="scale(1 1) rotate(0) translate(4 640.8)">
<title>RH</title>
<polygon fill="#fefefe" stroke="transparent" points="-4,4 -4,-640.8 987.75,-640.8 987.75,4 -4,4"/>
<text text-anchor="middle" x="491.87" y="-8.2" font-family="Times,serif" font-size="14.00">Salesforce RH (Kalam)</text>
<!-- CEO -->
<g id="node1" class="node">
<title>CEO</title>
<polygon fill="#99ccff" stroke="#99ccff" points="687.81,-636.8 579.81,-636.8 579.81,-600.8 687.81,-600.8 687.81,-636.8"/>
<text text-anchor="middle" x="633.81" y="-615.5" font-family="Arial" font-size="11.00">CEO</text>
</g>
<!-- SVP, Customer Service &amp; Support -->
<g id="node2" class="node">
<title>SVP, Customer Service &amp; Support</title>
<polygon fill="#99ccff" stroke="#99ccff" points="398.79,-492.8 214.84,-492.8 214.84,-456.8 398.79,-456.8 398.79,-492.8"/>
<text text-anchor="middle" x="306.81" y="-471.5" font-family="Arial" font-size="11.00">SVP, Customer Service &amp; Support</text>
</g>
<!-- CEO&#45;&gt;SVP, Customer Service &amp; Support -->
<g id="edge1" class="edge">
<title>CEO&#45;&gt;SVP, Customer Service &amp; Support</title>
<path fill="none" stroke="black" stroke-width="3" d="M594.37,-600.67C534.38,-574.62 420.35,-525.1 355.36,-496.88"/>
<polygon fill="black" stroke="black" stroke-width="3" points="356.71,-493.65 346.14,-492.88 353.92,-500.07 356.71,-493.65"/>
</g>
<!-- SVP, Human Resources -->
<g id="node3" class="node">
<title>SVP, Human Resources</title>
<polygon fill="#99ccff" stroke="#99ccff" points="561.5,-492.8 426.13,-492.8 426.13,-456.8 561.5,-456.8 561.5,-492.8"/>
<text text-anchor="middle" x="493.81" y="-471.5" font-family="Arial" font-size="11.00">SVP, Human Resources</text>
</g>
<!-- CEO&#45;&gt;SVP, Human Resources -->
<g id="edge2" class="edge">
<title>CEO&#45;&gt;SVP, Human Resources</title>
<path fill="none" stroke="black" stroke-width="3" d="M616.93,-600.67C592.23,-575.62 546.12,-528.85 517.88,-500.21"/>
<polygon fill="black" stroke="black" stroke-width="3" points="520.27,-497.65 510.76,-492.99 515.29,-502.57 520.27,-497.65"/>
</g>
<!-- COO -->
<g id="node4" class="node">
<title>COO</title>
<polygon fill="#99ccff" stroke="#99ccff" points="687.81,-492.8 579.81,-492.8 579.81,-456.8 687.81,-456.8 687.81,-492.8"/>
<text text-anchor="middle" x="633.81" y="-471.5" font-family="Arial" font-size="11.00">COO</text>
</g>
<!-- CEO&#45;&gt;COO -->
<g id="edge3" class="edge">
<title>CEO&#45;&gt;COO</title>
<path fill="none" stroke="black" stroke-width="3" d="M633.81,-600.67C633.81,-576.47 633.81,-532.01 633.81,-503.19"/>
<polygon fill="black" stroke="black" stroke-width="3" points="637.31,-502.99 633.81,-492.99 630.31,-502.99 637.31,-502.99"/>
</g>
<!-- SVP, Sales &amp; Marketing -->
<g id="node5" class="node">
<title>SVP, Sales &amp; Marketing</title>
<polygon fill="#99ccff" stroke="#99ccff" points="839.67,-492.8 705.95,-492.8 705.95,-456.8 839.67,-456.8 839.67,-492.8"/>
<text text-anchor="middle" x="772.81" y="-471.5" font-family="Arial" font-size="11.00">SVP, Sales &amp; Marketing</text>
</g>
<!-- CEO&#45;&gt;SVP, Sales &amp; Marketing -->
<g id="edge4" class="edge">
<title>CEO&#45;&gt;SVP, Sales &amp; Marketing</title>
<path fill="none" stroke="black" stroke-width="3" d="M650.58,-600.67C675.11,-575.62 720.88,-528.85 748.92,-500.21"/>
<polygon fill="black" stroke="black" stroke-width="3" points="751.49,-502.58 755.99,-492.99 746.49,-497.69 751.49,-502.58"/>
</g>
<!-- CFO -->
<g id="node6" class="node">
<title>CFO</title>
<polygon fill="#99ccff" stroke="#99ccff" points="965.81,-492.8 857.81,-492.8 857.81,-456.8 965.81,-456.8 965.81,-492.8"/>
<text text-anchor="middle" x="911.81" y="-471.5" font-family="Arial" font-size="11.00">CFO</text>
</g>
<!-- CEO&#45;&gt;CFO -->
<g id="edge5" class="edge">
<title>CEO&#45;&gt;CFO</title>
<path fill="none" stroke="black" stroke-width="3" d="M667.35,-600.67C717.86,-574.87 813.44,-526.05 868.95,-497.7"/>
<polygon fill="black" stroke="black" stroke-width="3" points="870.85,-500.66 878.16,-492.99 867.66,-494.42 870.85,-500.66"/>
</g>
<!-- Customer Support, North America -->
<g id="node7" class="node">
<title>Customer Support, North America</title>
<polygon fill="#99ccff" stroke="#99ccff" points="181.44,-348.8 0.19,-348.8 0.19,-312.8 181.44,-312.8 181.44,-348.8"/>
<text text-anchor="middle" x="90.81" y="-327.5" font-family="Arial" font-size="11.00">Customer Support, North America</text>
</g>
<!-- SVP, Customer Service &amp; Support&#45;&gt;Customer Support, North America -->
<g id="edge6" class="edge">
<title>SVP, Customer Service &amp; Support&#45;&gt;Customer Support, North America</title>
<path fill="none" stroke="black" stroke-width="3" d="M280.76,-456.67C241.92,-431.14 168.78,-383.05 125.47,-354.58"/>
<polygon fill="black" stroke="black" stroke-width="3" points="127.24,-351.56 116.96,-348.99 123.39,-357.41 127.24,-351.56"/>
</g>
<!-- Customer Support, International -->
<g id="node8" class="node">
<title>Customer Support, International</title>
<polygon fill="#99ccff" stroke="#99ccff" points="371.68,-348.8 199.94,-348.8 199.94,-312.8 371.68,-312.8 371.68,-348.8"/>
<text text-anchor="middle" x="285.81" y="-327.5" font-family="Arial" font-size="11.00">Customer Support, International</text>
</g>
<!-- SVP, Customer Service &amp; Support&#45;&gt;Customer Support, International -->
<g id="edge7" class="edge">
<title>SVP, Customer Service &amp; Support&#45;&gt;Customer Support, International</title>
<path fill="none" stroke="black" stroke-width="3" d="M304.28,-456.67C300.7,-432.47 294.13,-388.01 289.87,-359.19"/>
<polygon fill="black" stroke="black" stroke-width="3" points="293.28,-358.37 288.36,-348.99 286.36,-359.39 293.28,-358.37"/>
</g>
<!-- Installation &amp; Repair Services -->
<g id="node9" class="node">
<title>Installation &amp; Repair Services</title>
<polygon fill="#99ccff" stroke="#99ccff" points="549.45,-348.8 390.18,-348.8 390.18,-312.8 549.45,-312.8 549.45,-348.8"/>
<text text-anchor="middle" x="469.81" y="-327.5" font-family="Arial" font-size="11.00">Installation &amp; Repair Services</text>
</g>
<!-- SVP, Customer Service &amp; Support&#45;&gt;Installation &amp; Repair Services -->
<g id="edge8" class="edge">
<title>SVP, Customer Service &amp; Support&#45;&gt;Installation &amp; Repair Services</title>
<path fill="none" stroke="black" stroke-width="3" d="M326.48,-456.67C355.36,-431.51 409.37,-384.45 442.22,-355.84"/>
<polygon fill="black" stroke="black" stroke-width="3" points="444.84,-358.2 450.08,-348.99 440.24,-352.92 444.84,-358.2"/>
</g>
<!-- VP, North American Sales -->
<g id="node10" class="node">
<title>VP, North American Sales</title>
<polygon fill="#99ccff" stroke="#99ccff" points="711.56,-348.8 568.07,-348.8 568.07,-312.8 711.56,-312.8 711.56,-348.8"/>
<text text-anchor="middle" x="639.81" y="-327.5" font-family="Arial" font-size="11.00">VP, North American Sales</text>
</g>
<!-- SVP, Sales &amp; Marketing&#45;&gt;VP, North American Sales -->
<g id="edge9" class="edge">
<title>SVP, Sales &amp; Marketing&#45;&gt;VP, North American Sales</title>
<path fill="none" stroke="black" stroke-width="3" d="M756.77,-456.67C733.4,-431.72 689.88,-385.25 663.02,-356.57"/>
<polygon fill="black" stroke="black" stroke-width="3" points="665.3,-353.9 655.91,-348.99 660.2,-358.68 665.3,-353.9"/>
</g>
<!-- VP, Marketing -->
<g id="node11" class="node">
<title>VP, Marketing</title>
<polygon fill="#99ccff" stroke="#99ccff" points="837.81,-348.8 729.81,-348.8 729.81,-312.8 837.81,-312.8 837.81,-348.8"/>
<text text-anchor="middle" x="783.81" y="-327.5" font-family="Arial" font-size="11.00">VP, Marketing</text>
</g>
<!-- SVP, Sales &amp; Marketing&#45;&gt;VP, Marketing -->
<g id="edge10" class="edge">
<title>SVP, Sales &amp; Marketing&#45;&gt;VP, Marketing</title>
<path fill="none" stroke="black" stroke-width="3" d="M774.14,-456.67C776.02,-432.47 779.46,-388.01 781.69,-359.19"/>
<polygon fill="black" stroke="black" stroke-width="3" points="785.2,-359.23 782.48,-348.99 778.22,-358.69 785.2,-359.23"/>
</g>
<!-- VP, International Sales -->
<g id="node12" class="node">
<title>VP, International Sales</title>
<polygon fill="#99ccff" stroke="#99ccff" points="983.68,-348.8 855.95,-348.8 855.95,-312.8 983.68,-312.8 983.68,-348.8"/>
<text text-anchor="middle" x="919.81" y="-327.5" font-family="Arial" font-size="11.00">VP, International Sales</text>
</g>
<!-- SVP, Sales &amp; Marketing&#45;&gt;VP, International Sales -->
<g id="edge11" class="edge">
<title>SVP, Sales &amp; Marketing&#45;&gt;VP, International Sales</title>
<path fill="none" stroke="black" stroke-width="3" d="M790.55,-456.67C816.48,-431.62 864.89,-384.85 894.55,-356.21"/>
<polygon fill="black" stroke="black" stroke-width="3" points="897.26,-358.45 902.02,-348.99 892.4,-353.42 897.26,-358.45"/>
</g>
<!-- Director, Direct Sales -->
<g id="node13" class="node">
<title>Director, Direct Sales</title>
<polygon fill="#99ccff" stroke="#99ccff" points="558.7,-204.8 438.93,-204.8 438.93,-168.8 558.7,-168.8 558.7,-204.8"/>
<text text-anchor="middle" x="498.81" y="-183.5" font-family="Arial" font-size="11.00">Director, Direct Sales</text>
</g>
<!-- VP, North American Sales&#45;&gt;Director, Direct Sales -->
<g id="edge12" class="edge">
<title>VP, North American Sales&#45;&gt;Director, Direct Sales</title>
<path fill="none" stroke="black" stroke-width="3" d="M622.81,-312.67C597.93,-287.62 551.49,-240.85 523.05,-212.21"/>
<polygon fill="black" stroke="black" stroke-width="3" points="525.41,-209.62 515.88,-204.99 520.44,-214.55 525.41,-209.62"/>
</g>
<!-- Director, Channel Sales -->
<g id="node14" class="node">
<title>Director, Channel Sales</title>
<polygon fill="#99ccff" stroke="#99ccff" points="708.94,-204.8 576.69,-204.8 576.69,-168.8 708.94,-168.8 708.94,-204.8"/>
<text text-anchor="middle" x="642.81" y="-183.5" font-family="Arial" font-size="11.00">Director, Channel Sales</text>
</g>
<!-- VP, North American Sales&#45;&gt;Director, Channel Sales -->
<g id="edge13" class="edge">
<title>VP, North American Sales&#45;&gt;Director, Channel Sales</title>
<path fill="none" stroke="black" stroke-width="3" d="M640.18,-312.67C640.69,-288.47 641.63,-244.01 642.24,-215.19"/>
<polygon fill="black" stroke="black" stroke-width="3" points="645.74,-215.06 642.45,-204.99 638.74,-214.91 645.74,-215.06"/>
</g>
<!-- Marketing Team -->
<g id="node15" class="node">
<title>Marketing Team</title>
<polygon fill="#99ccff" stroke="#99ccff" points="837.81,-204.8 729.81,-204.8 729.81,-168.8 837.81,-168.8 837.81,-204.8"/>
<text text-anchor="middle" x="783.81" y="-183.5" font-family="Arial" font-size="11.00">Marketing Team</text>
</g>
<!-- VP, Marketing&#45;&gt;Marketing Team -->
<g id="edge14" class="edge">
<title>VP, Marketing&#45;&gt;Marketing Team</title>
<path fill="none" stroke="black" stroke-width="3" d="M783.81,-312.67C783.81,-288.47 783.81,-244.01 783.81,-215.19"/>
<polygon fill="black" stroke="black" stroke-width="3" points="787.31,-214.99 783.81,-204.99 780.31,-214.99 787.31,-214.99"/>
</g>
<!-- Eastern Sales Team -->
<g id="node16" class="node">
<title>Eastern Sales Team</title>
<polygon fill="#99ccff" stroke="#99ccff" points="425.45,-60.8 310.18,-60.8 310.18,-24.8 425.45,-24.8 425.45,-60.8"/>
<text text-anchor="middle" x="367.81" y="-39.5" font-family="Arial" font-size="11.00">Eastern Sales Team</text>
</g>
<!-- Director, Direct Sales&#45;&gt;Eastern Sales Team -->
<g id="edge15" class="edge">
<title>Director, Direct Sales&#45;&gt;Eastern Sales Team</title>
<path fill="none" stroke="black" stroke-width="3" d="M483.01,-168.67C460,-143.72 417.12,-97.25 390.67,-68.57"/>
<polygon fill="black" stroke="black" stroke-width="3" points="393.02,-65.97 383.67,-60.99 387.88,-70.71 393.02,-65.97"/>
</g>
<!-- Western Sales Team -->
<g id="node17" class="node">
<title>Western Sales Team</title>
<polygon fill="#99ccff" stroke="#99ccff" points="561.99,-60.8 443.64,-60.8 443.64,-24.8 561.99,-24.8 561.99,-60.8"/>
<text text-anchor="middle" x="502.81" y="-39.5" font-family="Arial" font-size="11.00">Western Sales Team</text>
</g>
<!-- Director, Direct Sales&#45;&gt;Western Sales Team -->
<g id="edge16" class="edge">
<title>Director, Direct Sales&#45;&gt;Western Sales Team</title>
<path fill="none" stroke="black" stroke-width="3" d="M499.3,-168.67C499.98,-144.47 501.23,-100.01 502.04,-71.19"/>
<polygon fill="black" stroke="black" stroke-width="3" points="505.55,-71.08 502.33,-60.99 498.55,-70.89 505.55,-71.08"/>
</g>
<!-- Channel Sales Team -->
<g id="node18" class="node">
<title>Channel Sales Team</title>
<polygon fill="#99ccff" stroke="#99ccff" points="702,-60.8 583.63,-60.8 583.63,-24.8 702,-24.8 702,-60.8"/>
<text text-anchor="middle" x="642.81" y="-39.5" font-family="Arial" font-size="11.00">Channel Sales Team</text>
</g>
<!-- Director, Channel Sales&#45;&gt;Channel Sales Team -->
<g id="edge17" class="edge">
<title>Director, Channel Sales&#45;&gt;Channel Sales Team</title>
<path fill="none" stroke="black" stroke-width="3" d="M642.81,-168.67C642.81,-144.47 642.81,-100.01 642.81,-71.19"/>
<polygon fill="black" stroke="black" stroke-width="3" points="646.31,-70.99 642.81,-60.99 639.31,-70.99 646.31,-70.99"/>
</g>
</g>
</svg>
